<?xml version="1.0" encoding="UTF-8"?>
<svg width="81px" height="81px" viewBox="0 0 81 81" version="1.1" xmlns="http://www.w3.org/2000/svg" xmlns:xlink="http://www.w3.org/1999/xlink">
    <!-- Generator: Sketch 63.1 (92452) - https://sketch.com -->
    <title>bacon</title>
    <desc>Created with Sketch.</desc>
    <g id="Page-1" stroke="none" stroke-width="1" fill="none" fill-rule="evenodd">
        <g id="bacon" transform="translate(40.241438, 40.057400) rotate(27.000000) translate(-40.241438, -40.057400) translate(-0.258562, -0.442600)" fill-rule="nonzero">
            <path d="M40.7109131,80.9939717 C18.6199131,80.9939717 0.710913091,63.0849717 0.710913091,40.9939717 C0.710913091,18.9029717 18.6199131,0.993971653 40.7109131,0.993971653 C62.8019131,0.993971653 80.7109131,18.9029717 80.7109131,40.9939717 C80.7109131,63.0849717 62.8019131,80.9939717 40.7109131,80.9939717 Z" id="circle-apple" fill="#6EB5D5"></path>
            <g id="bacon-torcido" transform="translate(38.384932, 41.634297) rotate(-58.000000) translate(-38.384932, -41.634297) translate(27.384932, 11.634297)">
                <g id="Group" transform="translate(-0.000000, 0.000000)">
                    <path d="M7.24185839,6.63045556 C10.1791148,3.43833388 4.77263956,4.47559503 3.57460447,2.51405117 C3.29839394,2.06155994 2.48696217,0.488962698 4.71393366,0.458646908 C6.94090515,0.428331119 7.1835967,0.00157285403 9.38271413,0.265517176 C10.5792351,0.409127026 11.4297457,0.490236391 11.9342459,0.508845273 C15.818128,2.66171628 17.9767079,4.93234881 15.859323,7.34402474 C13.7419381,9.75570067 14.028424,10.5341953 17.6566323,13.4494023 C21.1823882,15.4037608 21.3003613,20.4267601 18.9535143,21.6761754 C16.6066674,22.9255908 16.1941009,24.1718533 18.9183931,27.6129302 C21.6426853,31.0540071 21.8247739,33.2545372 19.7504356,35.7322292 C17.6760974,38.2099211 11.0871304,39.3573022 11.9363535,43.571098 C12.7855766,47.7848938 14.7109983,49.270483 13.7996164,53.272476 C12.8290754,57.5342437 8.35774286,57.1479946 9.61783938,58.4587849 C10.1141674,58.9750803 7.66576682,59.1946315 7.12345103,59.203614 C7.62171917,59.2939063 6.77114623,59.2884807 4.57173221,59.1873372 C1.27261117,59.0356219 -1.66124099,56.8891748 3.24999164,52.6774241 C8.16122428,48.4656735 5.57025298,44.3491117 4.781465,42.3754973 C3.99267702,40.401883 4.49157873,36.4198423 7.95822027,34.6640829 C11.4248618,32.9083236 10.7078672,29.9259163 8.65986722,27.9385479 C6.61186722,25.9511795 5.99645618,23.5997999 7.9838246,21.5517999 C9.97007022,19.5037999 11.1219745,16.3072453 7.50325904,14.9223769 C6.28418461,14.4300523 4.86892452,12.7851554 4.69886714,11.2181332 C4.52616315,9.62672328 5.9595404,8.0240401 7.24185839,6.63045556 Z" id="Path" fill="#933127"></path>
                    <path d="M9.82433277,55.5226303 C12.5729644,52.6897882 13.5275579,49.5786047 10.6947158,46.831096 C9.25639997,45.4354468 6.87044026,43.0177558 11.5076,39.1732255 C16.1447596,35.3286952 17.5905018,30.4003292 13.7455261,27.1769971 C12.2985851,25.963993 13.1676979,22.5605536 14.5644699,21.1222378 C17.3131014,18.2893957 14.7770196,16.987054 11.9441775,14.2384224 C10.5361775,12.8730891 10.3303974,9.29039692 11.6350991,7.8464671 C14.1628337,4.92759659 13.6537866,2.88071909 11.8877645,1.90179703 C11.8228244,1.86580018 11.5164017,1.23174288 11.4294075,1.1775965 C10.7689023,0.766489081 10.3966579,0.408055036 10.2382289,0.386619515 C9.64308277,0.30609594 8.97907419,0.166936689 8.19506643,0.177096258 L6.34126965,0.240846369 C5.64129706,1.63794752 6.68216038,2.81478306 8.37202785,2.56283597 C10.0341269,2.31502895 10.8458852,3.3949577 10.5560216,4.77419172 C10.3891025,5.07532175 10.2825555,5.70672758 9.4442469,6.31001941 C9.31151444,6.40554082 8.90719083,6.9823492 8.79085489,7.06752921 C8.71113559,7.12591518 8.59646317,7.19883679 8.05204908,8.18098581 C7.50763499,9.16313483 8.0275429,13.4513654 9.72101965,15.2553676 C11.1574582,16.7855559 14.3086913,18.5323129 11.3569267,21.0897004 C8.59604617,23.4817074 9.06212172,27.997375 11.9031386,30.5007521 C15.5930336,33.7521227 9.5284829,35.8631234 8.13283378,37.302562 C5.3842022,40.1354041 5.66140784,42.5136905 8.06941811,45.3758697 C10.4774284,48.2380489 9.76545773,51.3900514 6.80472102,53.8488322 C3.10983199,56.917299 1.42804232,57.962707 5.40270274,59.2606697 L7.96342827,58.8797909 C7.57381424,57.2135453 8.91149067,56.4635426 9.82433277,55.5226303 Z" id="Path" fill="#E5E4E4"></path>
                    <path d="M12.1910423,54.0118635 C13.8994824,50.9297561 13.5077198,49.3274053 10.8154196,43.3327527 C9.657163,40.7537886 14.4803163,37.789309 15.8770882,36.3498704 C18.6257198,33.5170283 19.265604,30.2368262 14.9418157,25.9743994 C13.5030428,24.556045 15.5235555,22.1434931 16.9106975,20.4855275 C19.9813874,16.8153207 16.7809572,14.5899693 13.9137647,13.2421753 C10.9408506,11.8446842 12.5164856,9.01551819 14.3455383,7.60677751 C16.2634778,5.59024947 15.0729908,4.04417351 13.1538017,2.59009592 C12.4616675,2.06569899 11.4772635,0.920851852 11.9342459,0.508845273 L9.38271413,0.265517176 C9.22792268,1.81191246 10.2283966,1.75857156 11.6370417,2.61406632 C12.5656156,3.17800546 12.752203,4.65134568 12.2661628,5.01130319 C11.5248612,6.34864659 11.1193693,6.16192805 10.236438,7.04234198 C7.48780641,9.87518408 9.4834181,13.3766409 12.3162602,16.1241497 C13.754576,17.5209216 16.7815576,18.2008846 15.3859085,19.6403232 C12.6372769,22.4731653 9.67660691,23.7230194 13.7299245,28.1607089 C15.1580694,29.7242833 17.5522076,33.2462935 13.0970463,35.5385085 C8.64188505,37.8307234 6.05200025,42.012051 10.3223144,47.0830987 C11.7449217,48.7724613 11.3656323,51.8809461 9.96213668,52.7763609 C5.68142364,55.5074092 3.63699897,58.7143821 6.11003169,59.1723811 L9.21765235,58.8573192 C7.60340544,57.9625275 11.3210805,55.5813163 12.1910423,54.0118635 Z" id="Path" fill="#C64D54"></path>
                </g>
            </g>
            <g transform="translate(45.260842, 38.628682) rotate(1.000000) translate(-45.260842, -38.628682) translate(35.260842, 8.128682)" id="Group">
                <g transform="translate(0.000000, -0.000000)">
                    <path d="M5.97772752,9.86211623 C7.65295559,8.13523904 4.08631579,7.18988816 2.8882807,5.2283443 C2.61207018,4.77585307 1.80400439,0.626807018 4.03097588,0.596491228 L16.8638596,2.01880702 C18.9118596,4.00617544 18.9612632,7.27017544 16.9738947,9.31817544 C14.9865263,11.3661754 14.8158596,12.5625219 16.8638596,14.5498904 C16.9306901,14.6147423 16.9097778,14.6001547 16.9738947,14.6499452 C20.8067412,17.6263706 20.7483553,21.9947917 17.1939649,23.9169123 C13.6395746,25.8390329 12.8159649,28.5302588 14.8399123,29.982182 C16.8638596,31.4341053 18.3645336,35.7776864 16.8638596,37.7626096 C15.3631857,39.7475329 12.8475877,42.7974232 15.6156798,44.982182 C18.3837719,47.1669408 19.6214737,51.066386 17.6341053,53.114386 C15.9644912,54.8345263 13.513603,57.4763807 14.8399123,58.0101425 C17.1939649,58.957511 14.6515752,59.9301623 14.1092594,59.9391447 C12.5824724,60.4628962 10.4161184,60.5984828 7.61019737,60.3459046 C3.40131579,59.9670373 1.2054693,53.933114 4.03097588,50.9443531 C6.85648246,47.9555921 3.24005921,46.2936382 1.6033443,44.982182 C-0.033370614,43.6707259 -0.743947368,41.2631864 1.24342105,39.2151864 C3.23078947,37.1671864 4.9362807,33.4214737 2.8882807,31.4341053 C0.840280702,29.4467368 5.62282895,25.3569364 7.61019737,23.3089364 C9.59644298,21.2609364 9.96164309,17.1096491 6.34292763,15.7247807 C5.1238532,15.2324561 4.79973578,14.2499868 4.59261931,13.5934442 C4.20971258,12.3796604 4.68798715,11.1912046 5.97772752,9.86211623 Z" id="Path" fill="#B63E32"></path>
                    <path d="M12.0911911,55.5890526 C14.8398227,52.7562105 14.7724543,48.2144561 11.9396122,45.4669474 C10.5012964,44.0712982 10.4664894,41.7650526 11.8632613,40.325614 C14.6118929,37.4927719 14.5445244,32.9510175 11.7116823,30.202386 C10.2722437,28.8067368 10.2374367,26.4993684 11.6342087,25.0610526 C14.3828402,22.2282105 14.3154718,17.6864561 11.4826297,14.9378246 C10.0746297,13.5724912 10.0117525,11.3347368 11.3164543,9.89080702 C17.1099232,5.97557895 12.2293548,1.52830318 11.6342087,1.44777961 C11.0390625,1.36725603 11.2165244,1.44777961 10.4148402,1.29382538 L7.55962171,0.986328125 C6.85964912,2.38342928 7.06287376,4.84802714 8.75274123,4.59608004 C10.4148402,4.34827303 11.3125121,5.08342599 10.5108279,6.12609649 C10.3850735,6.29900877 9.72880515,6.72 8.87771743,7.34315789 C8.79799813,7.40154386 8.82247372,7.40899901 8.75274123,7.47066886 C6.80923432,9.18946272 7.56599507,14.1507675 9.25947182,15.9547697 C10.6959103,17.484958 10.5024192,21.1682807 9.10677006,22.6077193 C6.35813848,25.4405614 1.91035375,29.6314913 4.75137061,32.1348684 C8.44126567,35.386239 5.27558333,36.9783246 3.87993421,38.4177632 C1.13130263,41.2506053 4.02792982,43.4904035 6.85964912,46.2390351 C9.69136842,48.9876667 9.67465437,49.8518982 5.80180921,52.613761 C2.09128289,55.2598684 3.68256579,59.4268092 7.6572262,60.7247719 L11.2165244,60.6708772 C10.8269104,59.0046316 11.178349,56.5299649 12.0911911,55.5890526 Z" id="Path" fill="#E6E6E6"></path>
                    <path d="M13.375,54.8107182 C16.1236316,51.9778761 16.0735385,47.8748388 13.2406964,45.12733 C11.8023806,43.7316809 12.1100297,41.0219496 13.5068016,39.582511 C16.2554332,36.7496689 15.4433136,32.5604463 12.6104715,29.8118147 C11.1710329,28.4161656 11.8439244,25.7590395 13.2406964,24.3207237 C15.989328,21.4878816 16.3396437,17.3614836 13.5068016,14.612852 C12.0988016,13.2475186 11.5459474,11.3222549 13.375,9.91351425 C16.4894862,8.14380099 16.7268234,5.27178593 14.8076343,3.81770833 C14.1155001,3.2933114 13.6583806,2.12842654 14.115363,1.71641996 L10.4148402,1.29382538 C10.2600488,2.84022067 12.0981565,3.72605678 13.5068016,4.58155154 C14.4353755,5.14549068 13.9928419,6.18691749 13.5068016,6.546875 C12.5923827,7.05564693 11.5115736,6.75150768 10.6286423,7.6319216 C7.8800107,10.4647637 8.2206262,14.3927818 11.0534683,17.1402906 C12.4917841,18.5370625 13.4944508,19.7435384 12.0988016,21.182977 C9.35017006,24.0158191 4.19803915,27.9239583 9.66666667,31.7272478 C11.1099974,32.7310471 11.490249,35.1768092 7.03508772,37.4690241 C2.57992643,39.761239 6.93477719,44.5456393 9.76649649,47.2942708 C11.2048123,48.68992 12.9150692,51.6376169 11.5115736,52.5330318 C7.23086052,55.26408 7.64177061,59.9836897 10.9018894,60.3459046 L13.2406964,60.3459046 C12.8510823,58.679659 12.4621579,55.7516305 13.375,54.8107182 Z" id="Path" fill="#E85D65"></path>
                </g>
            </g>
        </g>
    </g>
</svg>