<?xml version="1.0" encoding="UTF-8"?>
<svg width="80px" height="80px" viewBox="0 0 80 80" version="1.1" xmlns="http://www.w3.org/2000/svg" xmlns:xlink="http://www.w3.org/1999/xlink">
    <!-- Generator: Sketch 63.1 (92452) - https://sketch.com -->
    <title>banana</title>
    <desc>Created with Sketch.</desc>
    <g id="Page-1" stroke="none" stroke-width="1" fill="none" fill-rule="evenodd">
        <g id="banana">
            <path d="M40,80 C17.909,80 0,62.091 0,40 C0,17.909 17.909,0 40,0 C62.091,0 80,17.909 80,40 C80,62.091 62.091,80 40,80 Z" id="circle-apple" fill="#DC5E6A" fill-rule="nonzero"></path>
            <path d="M61.9786355,28.1261948 C61.9786355,28.1261948 62.3277191,26.8498551 62.9549013,25.2404885 C63.5820876,23.631123 57.4602411,24.0487544 57.4602411,24.0487544 C57.4602411,24.0487544 56.9915969,25.1975425 57.0001147,26.6329998 C57.0086286,28.0684561 60.0873938,30 60.0873938,30 L61.9786355,28.1261948 Z" id="Path" fill="#FEDA6F" fill-rule="nonzero"></path>
            <path d="M60,26.0754292 L60,31.1991322 C60,31.1991322 60,31.9078418 59.8775272,33.0594827 C59.4129977,37.4827293 57.1600281,48.4553314 46.2583549,51.0964905 C32.518827,54.4278335 20.7134379,47.4746771 20.7134379,47.4746771 C16.3700809,45.3176456 14.3092553,40.1465589 14.0326495,37.7835086 C14.0220945,37.7011096 14.0157536,37.6207585 14.0094257,37.5445325 C13.9291881,36.4175991 14.3747113,35.7006551 14.8329033,35.2700809 C15.2826536,34.8477299 15.7450727,34.6973414 15.7450727,34.6973414 C15.7450727,34.6973414 15.8802114,34.7694425 16.1335941,34.9012988 C17.991711,35.8634052 26.1653308,39.9611361 33.1776132,41.3167499 C41.1442978,42.8557097 48.5598982,38.3912692 49.8225679,37.0068251 C51.0831293,35.6223654 54.5544337,32.6206609 55.2639087,32.0808899 C55.9733701,31.5431824 56.9995541,28.7722174 56.6047027,27.3857097 C56.2119684,26.0012524 57.3162813,25 57.3162813,25 L60,26.0754292 Z" id="Path" fill="#F8EAC0" fill-rule="nonzero"></path>
            <path d="M65.7260742,39.0967882 C65.4286305,42.2640557 61.2473165,53.0713174 51.4404297,56.9770508 C41.6335429,60.8806999 30.1804687,58.490547 26.6791016,56.222168 C23.1777344,53.953789 21.1358951,51.0918783 20.2679886,49 C20.1540824,47.8828865 20.5811067,47.4933374 21.1358951,47.0895851 C21.6738062,46.6983829 22.2707873,46.5707762 22.4247733,46.568683 C22.7264247,46.568683 32.4594851,48.9995689 39.7371289,48.8510303 C47.0168835,48.7045894 52.2209229,43.7675109 54.153195,40.0103025 C56.085458,36.2531055 58.0915577,33.1569697 58.0915577,33.1569697 L58.9817555,27.1906255 L62.0278052,27.1906255 C62.1775847,29.1801046 62.6965157,31.8327404 62.6965157,31.8327404 C64.8523811,33.4519334 66.0213892,35.9274388 65.7260742,39.0967882 Z" id="Path" fill="#FED35B" fill-rule="nonzero"></path>
            <polygon id="Path" fill="#FED35B" fill-rule="nonzero" points="62.1645893 28.5151001 63.2846353 24.6635686 60.2974934 24.8056599 59.7784126 26.2665338 60.1078384 27.6161016 61.7425125 29.2161071 62.121305 28.450887"></polygon>
            <path d="M60.0311331,26.5619318 L59.7784171,24.2525635 C59.7784171,24.2525635 58.0474608,23.3972425 57.9612098,25.3430926 C57.8749725,27.288955 57.1802669,30.7574566 57.1802669,30.7574566 C57.1802669,30.7574566 52.7672788,40.7613297 39.7371289,44.2005539 C28.6814437,47.1167829 17.8788875,37.9392438 14.8581363,35.0920557 C14.4003865,35.5292739 13.9552932,36.2572806 14.0354534,37.401603 C14.1936636,39.6693072 16.2419423,45.217256 20.7329952,47.4849737 C20.7329952,47.4849737 34.5198147,55.3669142 46.1894531,49.8326823 C55.5045573,45.4150693 58.2454682,37.1327751 58.7095494,32.641276 L58.7095494,31.9504397 L59.3196012,31.9504397 L60.0311331,26.5619318 Z" id="Path" fill="#F0C856" fill-rule="nonzero"></path>
            <path d="M56.076626,41.167933 C51.6352169,48.9231396 47.687697,51.6308159 37.7695112,51.9810666 C27.8513142,52.3334321 21.1778152,47.6507139 21.1778152,47.6507139 L21,46.9226243 C21.5334593,46.5256747 22.1254998,46.3961931 22.2782114,46.3940692 L22.2824,46.3940692 C22.5773663,46.3940692 32.2298758,48.8606689 39.4472898,48.7099481 C46.666797,48.5613557 51.8277678,43.5517431 53.7440484,39.7393351 C55.66032,35.9269385 57.6498171,32.7853152 57.6498171,32.7853152 L58.9033986,23 L60,23.9839834 L59.5368066,26.7313153 C59.7501813,28.7372866 60.0816974,34.1746229 56.076626,41.167933 Z" id="Path" fill="#F2DDA1" fill-rule="nonzero"></path>
            <g id="Group" transform="translate(14.000000, 20.000000)" fill="#304551" fill-rule="nonzero">
                <path d="M49.9787944,3.75469886 C49.9549024,2.89342547 49.9000208,1.95339552 49.3019763,1.31142165 C48.9157902,0.896857783 47.5315239,5.27355937e-16 45.7554536,0.126792825 C44.9264141,0.185977566 44.2861159,0.844834681 43.7210159,1.42958357 C42.2033691,3 43.0946068,4.81096019 43.2606009,5.15649472 C43.4265951,5.50202924 47.03033,6.42974971 47.102811,6.13619415 C47.1752781,5.84265075 48.878944,5.52678937 49,5.50202924 C49.2669393,5.44745932 49.5932041,4.86501586 49.9787944,3.75469886 Z" id="Path"></path>
                <path d="M2.63328838,15.3249465 C2.59052987,15.5673255 2.54350606,15.8220293 2.37675558,16.0089456 C2.319045,16.0767331 2.24635541,16.1321981 2.19291183,16.204085 C2.1074097,16.3191121 2.0796176,16.4629016 2.00052198,16.5799839 C1.94279874,16.6641957 1.86370258,16.7278727 1.78460702,16.7936028 C1.64992775,16.9024752 1.51738806,17.0113344 1.38270879,17.1202068 C1.17107348,17.2906989 0.948739346,17.4673456 0.679380801,17.5289674 C0.461338981,17.576207 0.20480618,17.5228105 0.0594406858,17.370798 C0.0487545247,17.2886436 0.0423347489,17.2085313 0.0359281771,17.1325316 C-0.0453069656,16.0089456 0.405755207,15.2941312 0.869643667,14.8648359 C1.32498549,14.4437395 1.7931536,14.2937977 1.7931536,14.2937977 C1.7931536,14.2937977 1.92997239,14.3656846 2.18650519,14.4971492 C2.19719136,14.5094719 2.20787758,14.5217966 2.21642361,14.5341214 C2.28269403,14.6306691 2.3062192,14.7765005 2.3981405,14.8525112 C2.44516431,14.8915276 2.50930787,14.9059076 2.55847181,14.9428798 C2.66963924,15.02916 2.65467336,15.1914267 2.63328838,15.3249465 L2.63328838,15.3249465 Z" id="Path"></path>
                <path d="M8.28473125,26.3286438 C8.24625408,26.5977299 8.09020188,26.8339542 7.92559153,27.0537411 C7.40825948,27.7397932 6.97845272,28.4116665 6.24948543,28.8902588 C6.24092613,28.8430192 6.25376568,28.876944 6.24948543,28.8317464 C6.02288431,26.6688127 7.77823893,26.3286438 8.26976544,26.3286438 L8.28473125,26.3286438 Z" id="Path"></path>
            </g>
            <path d="M59.1329278,33.4970703 C58.3926889,37.429579 56.6381293,41.1627242 53.8692491,44.6965061" id="Path-53" stroke="#FFFFFF" stroke-width="2" stroke-linecap="round"></path>
            <path d="M21,40 C24.845638,42.5473891 28.6317057,43.8210837 32.3582031,43.8210837" id="Path-54" stroke="#FFFFFF" stroke-width="2" stroke-linecap="round"></path>
            <path d="M63.2846353,25.2246908 C62.0717665,25.9700792 60.976888,26.1807997 60,25.8568522 C58.534668,25.370931 58.1720378,26.4604492 57.4265951,25" id="Path-55" stroke="#FFFFFF" stroke-width="0.5" stroke-linecap="round"></path>
        </g>
    </g>
</svg>