<svg width="408" height="405" viewBox="0 0 408 405" fill="none" xmlns="http://www.w3.org/2000/svg">
<path d="M204 404.937C316.666 404.937 408 314.289 408 202.468C408 90.6482 316.666 0 204 0C91.3339 0 0 90.6482 0 202.468C0 314.289 91.3339 404.937 204 404.937Z" fill="#466F3A"/>
<g filter="url(#filter0_d)">
<path d="M156.014 131.311L152.568 350.9C152.424 359.154 159.03 365.98 167.332 366.158C171.316 366.228 175.162 364.72 178.02 361.966C180.877 359.211 182.513 355.437 182.567 351.476L186.015 131.902C186.212 117.378 192.211 103.541 202.69 93.4416C213.169 83.3423 227.267 77.8101 241.876 78.0647C272.318 78.7152 296.537 103.745 296.009 134.01L295.716 153.972C295.573 162.217 302.166 169.038 310.459 169.224C314.443 169.294 318.289 167.786 321.147 165.032C324.005 162.277 325.64 158.503 325.694 154.542L325.987 134.585C326.799 87.8212 289.383 49.1439 242.346 48.1242C219.77 47.7275 197.982 56.2739 181.787 71.879C165.592 87.4842 156.32 108.866 156.014 131.311Z" fill="#F96464"/>
<path d="M295.344 125.421L295.352 125.47C295.751 128.248 295.921 131.054 295.861 133.86L295.542 152.915L325.416 124.168C324.67 116.481 322.825 108.938 319.937 101.767L295.344 125.421Z" fill="white"/>
<path d="M266.593 84.3901C271.711 87.1095 276.366 90.6107 280.387 94.7655C281.077 95.4809 281.715 96.1894 282.357 96.8971L303.937 76.1379C299.467 71.1611 294.415 66.7314 288.888 62.9428L266.593 84.3901Z" fill="white"/>
<path d="M185.411 150.93L185.73 131.875C185.766 129.07 186.032 126.271 186.525 123.509L186.517 123.46L162.757 98.9465C159.626 106.012 157.528 113.485 156.524 121.139L185.411 150.93Z" fill="white"/>
<path d="M155.26 157.173L154.784 185.303L184.314 215.772L184.79 187.642L155.26 157.173Z" fill="white"/>
<path d="M154.169 222.014L153.693 250.144L183.223 280.613L183.699 252.483L154.169 222.014Z" fill="white"/>
<path d="M174.003 242.48L154.169 222.014L153.817 242.835L153.693 250.144L169.918 266.881L174.003 242.48Z" fill="white"/>
<path d="M179.596 73.891L200.466 95.4204C205.078 90.4972 210.56 86.4537 216.64 83.4898L195.092 61.2483C190.273 64.3363 185.767 67.8813 181.638 71.8334C180.922 72.5166 180.262 73.2058 179.596 73.891Z" fill="white"/>
<path d="M232.199 48.4984L231.692 78.7221C238.333 77.6444 245.116 77.7666 251.713 79.0831L252.224 48.8586C245.588 47.9398 238.864 47.8189 232.199 48.4984Z" fill="white"/>
<path d="M153.058 286.858L152.587 314.987L181.67 345.001C181.995 343.816 182.168 342.595 182.185 341.367L182.588 317.327L153.058 286.858Z" fill="white"/>
</g>
<path d="M139.498 275.063L124.684 255.459L99.9942 275.063L129.622 186.847H169.126L139.498 275.063Z" fill="#F8C460"/>
<path d="M139.498 186.847H129.622L116.936 224.623L99.9942 275.063L113.46 264.369L123.696 233.861C126.466 225.868 132.086 219.156 139.498 214.993L139.612 214.929C144.172 212.638 149.201 211.414 154.312 211.351H160.894L169.126 186.847H139.498Z" fill="#FAAF42"/>
<path d="M188.877 275.063L203.691 255.459L228.381 275.063L198.753 186.847H159.249L188.877 275.063Z" fill="#F8C460"/>
<path d="M188.93 214.929C196.086 219.085 203.741 222.341 211.715 224.623L198.962 186.847H159.249L189.034 275.063L195.909 266.016L180.913 221.609C180.17 219.456 180.829 217.073 182.578 215.592C184.327 214.112 186.813 213.831 188.855 214.885L188.93 214.929Z" fill="#FAAF42"/>
<path d="M174.064 162.342H154.312C148.857 162.342 144.436 166.731 144.436 172.144V191.748C144.436 197.161 148.857 201.55 154.312 201.55H174.064C179.518 201.55 183.94 197.161 183.94 191.748V172.144C183.94 166.731 179.518 162.342 174.064 162.342Z" fill="#F8C460"/>
<path d="M179.002 186.847C168.093 186.847 159.25 178.07 159.25 167.243V162.342H154.312C148.857 162.342 144.436 166.731 144.436 172.144V191.748C144.436 197.161 148.857 201.55 154.312 201.55H174.064C179.518 201.55 183.94 197.161 183.94 191.748V186.847H179.002Z" fill="#FAAF42"/>
<path d="M112.514 216.031C122.047 213.785 131.18 210.111 139.6 205.137C142.649 203.288 144.488 199.977 144.434 196.43V167.465C144.488 163.918 142.649 160.607 139.6 158.758C131.18 153.784 122.047 150.111 112.514 147.864C107.929 146.873 103.277 149.238 101.408 153.512C92.9381 171.523 92.9381 192.333 101.408 210.344C103.263 214.633 107.919 217.017 112.514 216.031Z" fill="#F8C460"/>
<path d="M122.391 201.392C117.805 202.38 113.153 200.022 111.285 195.763C104.272 180.88 103.078 163.955 107.932 148.252C105.032 149.017 102.636 151.035 101.408 153.744C92.9381 171.693 92.9381 192.433 101.408 210.382C103.27 214.649 107.924 217.016 112.514 216.03C122.047 213.791 131.18 210.13 139.6 205.173C142.644 203.334 144.481 200.044 144.435 196.516V193.218C137.463 196.849 130.057 199.595 122.391 201.392Z" fill="#FAAF42"/>
<path d="M215.861 216.031C206.329 213.785 197.195 210.111 188.776 205.137C185.726 203.288 183.888 199.977 183.941 196.43V167.465C183.888 163.918 185.726 160.607 188.776 158.758C197.195 153.784 206.329 150.111 215.861 147.864C220.447 146.873 225.099 149.238 226.967 153.512C235.437 171.523 235.437 192.333 226.967 210.344C225.112 214.633 220.457 217.017 215.861 216.031Z" fill="#F8C460"/>
<path d="M225.61 206.267C216.106 204.03 207.001 200.373 198.607 195.421C195.567 193.58 193.734 190.284 193.787 186.752V157.915C193.81 157.344 193.881 156.776 193.999 156.216C192.256 157.105 190.509 158.003 188.761 159.008C185.721 160.849 183.888 164.146 183.941 167.677V196.514C183.888 200.046 185.721 203.342 188.761 205.183C197.155 210.135 206.26 213.792 215.764 216.029C220.335 217.016 224.973 214.661 226.836 210.406C227.427 209.093 227.875 207.78 228.382 206.462C227.453 206.535 226.519 206.47 225.61 206.267Z" fill="#FAAF42"/>
<defs>
<filter id="filter0_d" x="132.565" y="30.0656" width="213.435" height="358.095" filterUnits="userSpaceOnUse" color-interpolation-filters="sRGB">
<feFlood flood-opacity="0" result="BackgroundImageFix"/>
<feColorMatrix in="SourceAlpha" type="matrix" values="0 0 0 0 0 0 0 0 0 0 0 0 0 0 0 0 0 0 127 0"/>
<feOffset dy="2"/>
<feGaussianBlur stdDeviation="10"/>
<feColorMatrix type="matrix" values="0 0 0 0 0.808452 0 0 0 0 0.147025 0 0 0 0 0.147025 0 0 0 0.5 0"/>
<feBlend mode="normal" in2="BackgroundImageFix" result="effect1_dropShadow"/>
<feBlend mode="normal" in="SourceGraphic" in2="effect1_dropShadow" result="shape"/>
</filter>
</defs>
</svg>
