<?xml version="1.0" encoding="UTF-8"?>
<svg width="80px" height="80px" viewBox="0 0 80 80" version="1.1" xmlns="http://www.w3.org/2000/svg" xmlns:xlink="http://www.w3.org/1999/xlink">
    <!-- Generator: Sketch 63.1 (92452) - https://sketch.com -->
    <title>carrot</title>
    <desc>Created with Sketch.</desc>
    <defs>
        <rect id="path-1" x="25.1675848" y="32" width="18" height="17"></rect>
        <rect id="path-3" x="25.1675848" y="32" width="18" height="17"></rect>
        <rect id="path-5" x="25.1675848" y="32" width="18" height="17"></rect>
    </defs>
    <g id="Page-1" stroke="none" stroke-width="1" fill="none" fill-rule="evenodd">
        <g id="carrot">
            <path d="M80,40 C80,62.091 62.091,80 40,80 C17.909,80 0,62.091 0,40 C0,17.909 17.909,0 40,0 C62.091,0 80,17.909 80,40" id="circle-apple" fill="#495AA1" fill-rule="nonzero"></path>
            <path d="M47.1675848,25 L52.1004432,16.4249186 C52.2646929,16.1396611 52.5899717,15.9899822 52.9109564,16.0539753 L54.5126593,16.3717718 C54.7713794,16.423834 54.9291879,16.6884836 54.854041,16.9433716 L53.3961908,21.8458972 L59.4798706,16.0951913 C59.6269438,15.9563587 59.8577522,15.9715435 59.9865755,16.1266455 L63.0783344,19.8827177 C63.2168194,20.0497507 63.1910548,20.3003001 63.022511,20.4358788 L57.888903,24.5542172" id="Path" fill="#6AB842" fill-rule="nonzero"></path>
            <path d="M39.8548674,26 C31.4758089,26 23.4624317,40.9018367 20.2155597,48.2185238 C16.9686877,55.5341283 13.5121021,64.4648383 19.2207375,62.7966899 C22.7658454,61.7618101 28.4123045,57.444759 34.669989,52.5215022 C40.9276736,47.5993279 44.9564927,46.610996 50.9580949,42.5699851 C57.4992616,38.1630857 48.233926,26 39.8548674,26" id="Path" fill="#DB5A31" fill-rule="nonzero"></path>
            <path d="M47.1675848,24.7393955 C47.1675848,24.7393955 48.7986099,25.3550927 50.6356936,26.9105918 C52.4237158,28.4254509 53.9402638,31 53.9402638,31 L63.0024834,27.4033528 C63.2172641,27.3169926 63.1900077,27.1036322 63.1027871,26.9024638 C63.1027871,26.9024638 62.3210726,23.021336 61.8675255,23.0426721 C61.4128881,23.0640081 58.0058337,24.1856744 58.0058337,24.1856744 L54.5758839,23" id="Path" fill="#6AB842" fill-rule="nonzero"></path>
            <mask id="mask-2" fill="white">
                <use xlink:href="#path-1"></use>
            </mask>
            <g id="SVGID_19_"></g>
            <path d="M36.1675848,33.0001063 C36.1675848,33.0001063 38.4632276,32.9611805 40.3958887,34.3730314 C41.7959608,35.3956239 42.1675848,37 42.1675848,37" id="Path" stroke="#FFFFFF" stroke-width="1.6" stroke-linecap="round" stroke-linejoin="round"></path>
            <mask id="mask-4" fill="white">
                <use xlink:href="#path-3"></use>
            </mask>
            <g id="SVGID_19_"></g>
            <mask id="mask-6" fill="white">
                <use xlink:href="#path-5"></use>
            </mask>
            <g id="SVGID_19_"></g>
            <path d="M26.1675848,46.0020141 C26.1675848,46.0020141 27.1514185,45.9361174 27.9135432,46.5581816 C28.8033486,47.2843626 29.1675848,48 29.1675848,48" id="Path" stroke="#FFFFFF" stroke-width="1.6" stroke-linecap="round" stroke-linejoin="round"></path>
            <path d="M37.1675848,39 C37.1675848,39 38.4668815,38.9980953 39.7880589,39.6533334 C40.8570873,40.1828572 41.1675848,41 41.1675848,41" id="Path" stroke="#FFFFFF" stroke-width="1.6" stroke-linecap="round" stroke-linejoin="round"></path>
        </g>
    </g>
</svg>