<?xml version="1.0" encoding="UTF-8"?>
<svg width="80px" height="80px" viewBox="0 0 80 80" version="1.1" xmlns="http://www.w3.org/2000/svg" xmlns:xlink="http://www.w3.org/1999/xlink">
    <!-- Generator: Sketch 63.1 (92452) - https://sketch.com -->
    <title>cheese</title>
    <desc>Created with Sketch.</desc>
    <defs>
        <rect id="path-1" x="14" y="6" width="29" height="31"></rect>
        <rect id="path-3" x="14" y="8" width="29" height="31"></rect>
        <rect id="path-5" x="14" y="8" width="29" height="31"></rect>
        <rect id="path-7" x="14" y="8" width="29" height="31"></rect>
    </defs>
    <g id="Page-1" stroke="none" stroke-width="1" fill="none" fill-rule="evenodd">
        <g id="cheese">
            <path d="M80,40 C80,62.091 62.091,80 40,80 C17.909,80 0,62.091 0,40 C0,17.909 17.909,0 40,0 C62.091,0 80,17.909 80,40" id="circle-grain-copy" fill="#1EA5DF" fill-rule="nonzero"></path>
            <g id="queso" transform="translate(16.167585, 15.000000)">
                <path d="M41,3.65226327 L23.203566,0 L12.1497111,12.3647947 C12.8589548,13.1903612 13.3054652,14.2430252 13.3054652,15.4065663 C13.3054652,18.0235318 11.1437014,20.1448903 8.4768909,20.1448903 C7.5158045,20.1448903 6.62550634,19.8616863 5.87270071,19.3861172 L0,25.9572522 L0.0204196826,26 C2.08825287,25.7074449 13.6240122,23.7784514 26.0446245,15.844731 C37.1597384,8.7445923 40.2349426,4.86656733 41,3.65226327" id="Path" fill="#F4BD12" fill-rule="nonzero"></path>
                <path d="M46.0600545,20.0849556 C45.3206425,20.5440976 44.4559526,20.8206727 43.5218153,20.8206727 C40.8555747,20.8206727 39.3549633,18.7279663 39.3549633,16.0589482 C39.3549633,13.4716764 40.7289351,11.3094856 43.2835149,11.1827788 L41.046215,4.01089951 L40.9944698,4 C40.2264618,5.23981955 37.1503446,9.19498017 26.0319309,16.4363438 C13.6062695,24.5278694 2.06844709,26.493869 0,26.7949681 L3.29399177,33.8496776 C4.15051134,33.0798995 5.26984215,32.5962336 6.51172743,32.5962336 C9.1793297,32.5962336 10.5015562,35.2489025 10.6458982,37.4042811 C10.7589206,39.1073299 9.53201423,41.8608193 7.18850044,42.191892 L10.3667463,49 C10.3667463,49 14.5962372,48.0898907 27.9002056,42.1632808 C25.2843486,36.6086167 33.567669,32.1806897 36.4640396,38.077326 C45.0523844,33.4927185 49,29.5116716 49,29.5116716 L46.0600545,20.0849556 Z" id="Path" fill="#F7D752" fill-rule="nonzero"></path>
                <mask id="mask-2" fill="white">
                    <use xlink:href="#path-1"></use>
                </mask>
                <g id="SVGID_3_"></g>
                <path d="M35,30.4859353 C35,32.7198797 36.1265394,34.423858 39.1277887,33.9068883 C41.3037658,33.5314354 43,32.7198797 43,30.4859353 C43,28.2519908 41.1452793,27 38.9364626,27 C36.7276459,27 35,28.2519908 35,30.4859353 Z" id="Path" fill="#E0A446"></path>
                <path d="M15,34.7856295 C15,36.8749371 16.7529712,38.7604743 18.8938623,38.9642447 C22.5877659,39.3201812 23.6595446,36.953005 22.6277577,34.7856295 C21.7279436,32.8947995 20.9201104,31 18.8138788,31 C16.7076473,31 15,32.6949987 15,34.7856295 Z" id="Path" fill="#E0A446"></path>
                <mask id="mask-4" fill="white">
                    <use xlink:href="#path-3"></use>
                </mask>
                <g id="SVGID_3_"></g>
                <path d="M27,23.9790308 C27,25.6356011 27.9027963,27 29.4806924,27 C31.0585885,27 32,25.5111836 32,23.8546132 C32,22.1966449 31.0585885,21 29.4806924,21 C27.9027963,21 27,22.3210624 27,23.9790308 Z" id="Path" stroke="#E0A446" stroke-width="1.2" fill="#E0A446" stroke-linecap="round" stroke-linejoin="round"></path>
                <path d="M20,11.0538502 C20,12.5952133 21.8009788,14 23.4607318,14 C25.1176882,14 26,12.5952133 26,11.0538502 C26,9.51248699 24.8044745,9 23.1461198,9 C21.4891634,9 20,9.51378772 20,11.0538502 Z" id="Path" fill="#CA933C"></path>
                <mask id="mask-6" fill="white">
                    <use xlink:href="#path-5"></use>
                </mask>
                <g id="SVGID_3_"></g>
                <mask id="mask-8" fill="white">
                    <use xlink:href="#path-7"></use>
                </mask>
                <g id="SVGID_3_"></g>
            </g>
        </g>
    </g>
</svg>