<?xml version="1.0" encoding="UTF-8"?>
<svg width="80px" height="80px" viewBox="0 0 80 80" version="1.1" xmlns="http://www.w3.org/2000/svg" xmlns:xlink="http://www.w3.org/1999/xlink">
    <!-- Generator: Sketch 63.1 (92452) - https://sketch.com -->
    <title>cherries</title>
    <desc>Created with Sketch.</desc>
    <g id="Page-1" stroke="none" stroke-width="1" fill="none" fill-rule="evenodd">
        <g id="cherries">
            <path d="M80,40 C80,62.091 62.091,80 40,80 C17.909,80 -1.13686838e-13,62.091 -1.13686838e-13,40 C-1.13686838e-13,17.909 17.909,0 40,0 C62.091,0 80,17.909 80,40" id="circle-apple" fill="#F5D533" fill-rule="nonzero"></path>
            <path d="M13,48 C13,40.262 18.367,34 25,34 L27,34 C33.633,34 39,40.262 39,48 C39,55.18 33.18,61 26,61 C18.82,61 13,55.179 13,48 Z" id="Path" fill="#BC2C28" fill-rule="nonzero"></path>
            <path d="M34.4915851,52.4647532 C34.4915851,45.0133458 39.0328928,38.9832717 44.6454313,38.9832717 L46.337739,38.9832717 C51.9502774,38.9832717 56.4915851,45.0133458 56.4915851,52.4647532 C56.4915851,59.3788272 51.5669698,64.9832717 45.4915851,64.9832717 C39.4162005,64.9832717 34.4915851,59.3778643 34.4915851,52.4647532 Z" id="Path" fill="#ED3F32" fill-rule="nonzero" transform="translate(45.491585, 51.983272) scale(-1, 1) rotate(-81.000000) translate(-45.491585, -51.983272) "></path>
            <path d="M46.5162495,45.8688735 C46.3522495,45.8688735 46.1852495,45.8278735 46.0312495,45.7428735 C45.5492495,45.4748735 45.2189784,44.6798043 45.6432495,44.3828735 C54.9846191,37.8452148 55.4455583,23.8972168 50.975,20.667 C49.392,31.68 39.555,40.586 31.379,40.586 C30.827,40.586 30.379,40.138 30.379,39.586 C30.379,39.034 30.827,38.2473145 31.379,38.2473145 C39.232,38.2473145 53.5,23.9294434 49.195,17.614 C48.9522304,17.2578566 49.484,16.784 49.905,16.657 C50.326,16.529 50.782,16.693 51.027,17.059 C58.208,27.831 53.1342773,40.586 47.3912495,45.3548735 C47.1208588,45.5793995 46.8672495,45.8688735 46.5162495,45.8688735 Z" id="Path" fill="#4C312C" fill-rule="nonzero"></path>
            <path d="M51.807,17.092 C52.5930176,22.532959 64.896,21.2558594 64.896,14.46 C60.3415527,17.7930908 54.2938232,9.31652832 51.807,17.092 Z" id="Path" fill="#88C057" fill-rule="nonzero"></path>
            <path d="M39.2403719,9.70637681 C37.2354959,18.2102094 47.2787588,15.1474893 49.2624512,17.1761475 C49.2624512,11.2833252 46.133667,10.8138428 39.2403719,9.70637681 Z" id="Path" fill="#659C35" fill-rule="nonzero"></path>
            <path d="M54.8910508,52 C53.9066173,56.2920767 50.6096004,58.8372036 45,59.6353807" id="Path-8" stroke="#FFF2F2" stroke-width="2" stroke-linecap="round"></path>
            <path d="M44.5498047,42.4938965 C43.2319584,42.7798371 42.4561609,43.3988149 42.2224121,44.3508301 C41.9494629,45.4625015 44.1992187,47.0936279 46.213501,46.7485352" id="Path-64" stroke="#FFF2F2" stroke-linecap="round" transform="translate(44.206653, 44.644722) rotate(18.000000) translate(-44.206653, -44.644722) "></path>
            <path d="M28.861084,36.4267578 C24.6550293,35.1693921 21.3395182,36.0554901 18.9145508,39.0850519" id="Path-65" stroke="#FFD4D4" stroke-width="2" stroke-linecap="round"></path>
            <path d="M17.189209,48.2519531 C17.4406738,53.4099935 20.5371908,56.4716797 26.4787598,57.4370117" id="Path-66" stroke="#FFD4D4" stroke-width="1.5" stroke-linecap="round"></path>
        </g>
    </g>
</svg>