<?xml version="1.0" encoding="UTF-8"?>
<svg width="80px" height="80px" viewBox="0 0 80 80" version="1.1" xmlns="http://www.w3.org/2000/svg" xmlns:xlink="http://www.w3.org/1999/xlink">
    <!-- Generator: Sketch 63.1 (92452) - https://sketch.com -->
    <title>chicken</title>
    <desc>Created with Sketch.</desc>
    <g id="Page-1" stroke="none" stroke-width="1" fill="none" fill-rule="evenodd">
        <g id="chicken">
            <path d="M80,40 C80,62.091 62.091,80 40,80 C17.909,80 0,62.091 0,40 C0,17.909 17.909,0 40,0 C62.091,0 80,17.909 80,40" id="circle-apple" fill="#AABC5B" fill-rule="nonzero"></path>
            <g transform="translate(17.000000, 14.000000)" fill-rule="nonzero">
                <path d="M44.3560216,7.30521337 C43.4701037,6.06931622 42.0506126,5.62101415 40.755668,5.88496509 C42.1287842,4.64562988 41.9204102,2.32006836 39.6561279,1.16003418 C37.3918457,-2.29816166e-14 35.5906798,0.86721334 34.5,1.68151855 C33.5204209,2.41287493 33.4319161,4.23700615 33.5059814,5.40063477 C33.510214,5.46713165 33.5022826,5.64031269 33.5059814,5.70117187 C33.6256504,7.67028737 32.9904574,9.61008732 31.6718252,11.0760021 L24,19.6047007 L28.8748088,24 L36.5465501,15.4713959 C37.8651263,14.0055407 39.6676123,12.9516354 41.6361066,12.8655532 C42.7618242,12.8163261 43.8609012,12.2296232 44.520959,11.1176385 C45.2160337,9.94664973 45.149296,8.41188049 44.3560216,7.30521337 Z" id="Path" fill="#EDEDED"></path>
                <path d="M34.3057635,18.0523112 L35,17.3059618 L30.0615631,13 L29.3672699,13.7464146 C26.6231535,16.6965129 22.8340173,18.5781588 18.7450046,18.8760403 C14.3275393,19.1978515 9.46461912,21.5641568 5.63832881,25.6776578 C-0.855781323,32.6592343 -1.89232617,42.0054756 3.32319928,46.5530378 C8.53872464,51.1005932 18.031344,49.127439 24.5254506,42.1458626 C28.3517409,38.0323582 30.2750589,33.1029663 30.1447327,28.815838 C30.0240971,24.8473946 31.5616045,21.0024541 34.3057635,18.0523112 L34.3057635,18.0523112 Z" id="Path" fill="#D6683D"></path>
                <g id="Group" transform="translate(0.000000, 17.000000)" fill="#963E25">
                    <path d="M34.9662864,0.729722423 L34.2724529,1.48880101 C31.5399493,4.48309157 30.0135932,8.39456622 30.1309906,12.4220669 C30.2590655,16.7869595 28.3377858,21.7949638 24.5272026,25.9700894 C18.058838,33.0656251 8.60179512,35.0688548 3.41430723,30.4509349 C3.27554404,30.3244282 3.13677734,30.1979145 3.00869534,30.0714008 C8.24953957,34.3835241 17.4824724,32.327588 23.8334397,25.3585659 C27.654637,21.1729563 29.5653027,16.1649485 29.4372277,11.8106097 C29.3197598,7.77255515 30.8461864,3.87156818 33.5786971,0.866789943 L34.272453,0.107645166 L34.9662864,0.729722423 Z" id="Path"></path>
                    <path d="M25.7440418,22.0374373 C27.5479242,20.0553816 28.9248359,17.8939803 29.8641418,15.7010463 C29.213047,19.1697265 27.4091645,22.8071359 24.5272025,25.9700892 C18.0588379,33.065625 8.60179503,35.0688546 3.41430713,30.4509347 C-0.332231524,27.1192592 -0.844556086,21.2467006 1.59973645,15.5639788 C0.76714326,19.886656 1.73850315,23.9563058 4.6204617,26.5182896 C9.8186343,31.1362026 19.2649854,29.1330427 25.7440418,22.0374373 L25.7440418,22.0374373 Z" id="Path"></path>
                </g>
            </g>
            <path d="M21.8324152,54.6533578 C25.8828709,59.014191 31.3327407,58.8753982 38.1820246,54.2369792" id="Path-5" stroke="#EEE1D4" stroke-width="2" stroke-linecap="round"></path>
            <path d="M44,33.4758937 C42.3212502,34.1352061 40.7640628,34.4648623 39.3284376,34.4648623 C37.175,34.4648623 35.016203,34.7823101 31.9268993,36.391155" id="Path-16" stroke="#FFFFFF" stroke-linecap="round"></path>
        </g>
    </g>
</svg>