<?xml version="1.0" encoding="UTF-8"?>
<svg width="80px" height="80px" viewBox="0 0 80 80" version="1.1" xmlns="http://www.w3.org/2000/svg" xmlns:xlink="http://www.w3.org/1999/xlink">
    <!-- Generator: Sketch 63.1 (92452) - https://sketch.com -->
    <title>chili</title>
    <desc>Created with Sketch.</desc>
    <g id="Page-1" stroke="none" stroke-width="1" fill="none" fill-rule="evenodd">
        <g id="chili">
            <path d="M80,40 C80,62.091 62.091,80 40,80 C17.909,80 0,62.091 0,40 C0,17.909 17.909,0 40,0 C62.091,0 80,17.909 80,40" id="circle-grain-copy" fill="#F5C333" fill-rule="nonzero"></path>
            <path d="M58.302,22.914 C58.053,22.914 57.803,22.821 57.61,22.635 C57.212,22.253 57.199,21.619 57.582,21.221 C58.62,20.141 59.172,18.931 58.989,18.139 C58.871,17.63 58.413,17.227 57.627,16.94 C57.108,16.751 56.842,16.176 57.031,15.657 C57.22,15.138 57.796,14.874 58.314,15.061 C60.133,15.726 60.745,16.857 60.937,17.688 C61.279,19.166 60.563,21.004 59.023,22.608 C58.826,22.811 58.565,22.914 58.302,22.914 Z" id="Path" fill="#659C35" fill-rule="nonzero"></path>
            <path d="M47.3204346,29.7832031 C47.3204346,35.031808 47.2840053,39.988508 45.2476807,42.5491943 C35.9990436,54.1793925 30.0128348,52.999442 15.951,63.418 C15.3497503,63.8634721 15.196,64.921 15.848,64.823 C25.2,63.417 49.61,65.788 61.549,37.81 C61.549,37.81 67.712,24.954 59.837,22.829 C59.838,22.829 49.0324346,17.1942031 47.3204346,29.7832031 Z" id="Path" fill="#D13834" fill-rule="nonzero"></path>
            <path d="M63.974,32.608 C64.866,28.573 64.834,23.74 60.135,22.472 C60.135,22.472 49.5,17.485 46.945,28.787 C49.435,28.598 52.772,28.097 53.706,26.758 C53.706,26.758 55.916,28.968 54.778,32.116 C54.778,32.116 59.466,31.58 59.064,27.83 C59.064,27.83 61.944,30.308 61.207,34.259 C61.206,34.259 62.596,33.838 63.974,32.608 Z" id="Path" fill="#88C057" fill-rule="nonzero"></path>
            <path d="M56.8324152,36.2369792 C56.4875805,40.1762119 55.1542471,43.1762119 52.8324152,45.2369792" id="Path-3" stroke="#FFFFFF" stroke-width="2.5" stroke-linecap="round"></path>
            <path d="M55.6856296,21.800975 C54.0600862,21.5167456 52.5876465,21.8877539 51.2683105,22.914" id="Path-13" stroke="#E1FDC8" stroke-linecap="round"></path>
        </g>
    </g>
</svg>