<?xml version="1.0" encoding="UTF-8"?>
<svg width="80px" height="80px" viewBox="0 0 80 80" version="1.1" xmlns="http://www.w3.org/2000/svg" xmlns:xlink="http://www.w3.org/1999/xlink">
    <!-- Generator: Sketch 63.1 (92452) - https://sketch.com -->
    <title>chocolate</title>
    <desc>Created with Sketch.</desc>
    <g id="Page-1" stroke="none" stroke-width="1" fill="none" fill-rule="evenodd">
        <g id="chocolate">
            <path d="M40,80 C17.909,80 0,62.091 0,40 C0,17.909 17.909,0 40,0 C62.091,0 80,17.909 80,40 C80,62.091 62.091,80 40,80 Z" id="circle-apple" fill="#6EB5D5" fill-rule="nonzero"></path>
            <g transform="translate(10.000000, 11.000000)" fill-rule="nonzero" id="Path">
                <path d="M62,16.9956218 L51.5022512,27.5 C48.746275,31.2062495 45.5558273,34.918245 41.9309082,38.6359863 C38.3059891,42.3537277 34.5087028,45.8083989 30.5390495,49 L19.4020996,58.1655273 C15.7877114,55.555527 12.2303383,52.5003512 8.72998047,49 C5.22962259,45.4996488 2.36292337,42.2537178 0.129882812,39.262207 L9.58726426,27.5668386 L20.0022293,16.9956218 C30.1873294,6.77731557 35.6038226,1.40894262 36.251709,0.89050293 C36.73292,0.505437077 36.9698486,0.229003906 37.0579224,0.571166992 C37.1459961,0.913330078 36.5258789,2.90496599 37.1762695,4.82507324 C38.5863037,7.55029297 39.857666,5.38806152 39.857666,6.5 C39.857666,7.61193848 43.3859863,8.88439941 45.1652832,7.55578613 C45.4136684,7.37031517 45.2835323,6.83040436 45.9903564,7.29333496 C50.1382202,10.0099556 49.6409984,2.24303294 51.5022512,4.10369646" fill="#963E25"></path>
                <path d="M52.0292969,6.21374512 C52.3806241,5.7675213 51.2712402,5.60722112 50.4699097,5.60722112 C49.6685791,5.60722112 49.6274454,6.07073822 49.3206787,6.66430664 C49.1013611,7.08866822 48.5355835,7.9609375 47.6897583,7.9609375 C46.8439331,7.9609375 45.9308472,7.35150146 45.4962769,7.17120361 C45.2662064,7.07575021 45.8243408,8.05084229 43.0722656,8.21411133 C42.5345831,8.24600977 41.507411,8.21411133 40.3968506,7.35150146 C39.9504752,7.00478658 39.6134033,6.36755371 39.7173462,6.21374512 C39.8640386,5.99667832 39.1054688,6.4263916 38.7660522,6.32006836 C38.4266357,6.21374512 38.0067211,6 37.5352856,6 C37.2209952,6 36.214006,6 34.514318,6 L31,6 C30.1128258,7.71113125 33.6128258,11.3777979 41.5,17" fill="#E57A5A"></path>
                <path d="M47.9515381,8.07171902 C48.0289854,7.95060649 47.5247024,7.96093947 47.0289307,7.96093947 C46.533159,7.96093947 45.4688099,6.95616752 45.4106598,7.33320618 C45.3325195,7.83985901 44.4131775,8.08020559 44.1625519,8.11833191 C43.9119263,8.15645823 43.8320618,8.18852234 43.5120697,8.21522522 C43.239882,8.23793889 43.1188354,8.26275635 42.4830933,8.23574829 C42.1193978,8.22029752 41.8283997,8.12792969 41.002121,7.7520752 C40.6556922,7.59449302 39.7582652,6.8612859 39.8027344,6.50611877 C39.8733215,5.94235229 39.4636841,6.21891785 39.194046,6.29559326 C38.924408,6.37226868 38.5021515,6.29559326 38.2105713,6.13653564 C38.0161845,6.03049723 37.7154032,5.6955363 37.3082275,5.13165283 L35,7.24132241 C38.2018229,10.9063623 40.3672226,13.1592548 41.496199,14 C43.1896636,15.2611178 47.6701937,8.51168705 47.9515381,8.07171902 Z" fill="#D6683D"></path>
                <path d="M62,17 L58.4856829,17 L44.5143172,17 L41,17 C43.3428781,17.7079327 46.8428781,21.2302122 51.5,27.5668386 C55.0029046,24.658798 58.5029046,21.1365184 62,17 Z" fill="#E57A5A"></path>
                <path d="M46.7871931,11.7058705 C47.9992899,11.1979886 51.2915396,11.2048332 56.6639423,11.7264043 C57.279496,11.7577561 57.2863406,15.0500058 56.6844761,21.6031535 C52.8952529,20.6547336 49.6030031,20.647889 46.8077269,21.5826197 C45.1513351,16.6408228 45.1444905,13.3485731 46.7871931,11.7058705 Z" fill="#D6683D" transform="translate(51.345539, 16.466589) rotate(45.000000) translate(-51.345539, -16.466589) "></path>
                <path d="M41.4797274,17 C42.041349,16.5959437 40.7100006,16.5959437 37.485682,17 C32.477812,23.9309562 27.8206906,23.9309562 23.514318,17 C22.9525075,16.0957856 19.591989,16.2644897 20,17 C22.0340169,20.6666667 25.5340169,24.3333333 30.5,28 C32.7233013,24.3333333 36.3832104,20.6666667 41.4797274,17 Z" fill="#E57A5A"></path>
                <path d="M25.6765907,11.8177207 C26.3155225,10.8826807 29.6077722,10.8895253 35.5533399,11.8382545 C36.444562,12.2839867 36.4514066,15.5762364 35.5738737,21.7150037 C33.4760176,22.51483 30.1837679,22.5079854 25.6971245,21.6944699 C24.3276134,20.3502631 24.3207688,17.0580134 25.6765907,11.8177207 Z" fill="#D6683D" transform="translate(30.445881, 16.715660) rotate(45.000000) translate(-30.445881, -16.715660) "></path>
                <path d="M52,27 C52.3141073,26.5284738 51.142668,26.5284738 48.485682,27 L34.514318,27 L31,27 C34.2047401,30.5426808 37.8483762,34.4213429 41.9309082,38.6359863 C45.6604004,34.9850427 48.9322416,30.4112079 52,27 Z" fill="#E57A5A"></path>
                <path d="M36.2413676,22.1778337 C43.5733893,21.0702389 46.865639,21.0770835 46.1181168,22.1983675 C46.2983388,28.0192516 46.3051834,31.3115013 46.1386506,32.0751166 C45.2371048,32.9766624 41.9448551,32.9698178 36.2619014,32.0545829 C34.9780221,31.3048692 34.9711775,28.0126195 36.2413676,22.1778337 Z" fill="#D6683D" transform="translate(40.776225, 27.049210) rotate(45.000000) translate(-40.776225, -27.049210) "></path>
                <path d="M31,27.3964342 C30.6666667,26.1192867 29.4952275,25.9871419 27.4856825,27 C24.4713649,28.5192871 14.9998266,27 13.5143176,27 C12.5239783,27 11.3525391,27 10,27 C15.7584883,35.0075663 19.1133529,38.6467055 20.0645938,37.9174179 C21.0158346,37.1881302 24.6609701,33.6811356 31,27.3964342 Z" fill="#E57A5A"></path>
                <path d="M15.383844,22.9683644 C16.0472827,22.3049257 19.2077758,22.1509172 24.8653233,22.5063389 C25.4573337,28.5104344 25.4641783,31.8026841 24.885857,32.3830881 C24.3075358,32.9634921 21.015286,32.9566475 15.0091079,32.3625543 C14.5954932,26.7631998 14.7204053,23.6318031 15.383844,22.9683644 Z" fill="#D6683D" transform="translate(20.042688, 27.566839) rotate(41.000000) translate(-20.042688, -27.566839) "></path>
                <path d="M41.9309082,38.6359863 C43.1133626,37.1092936 41.6316206,36.8972982 37.485682,38 L23.514318,38 C21.1714393,37.8195789 20,37.8195789 20,38 C22.1116536,41.3185221 25.6116536,44.9851888 30.5,49 C36.938151,43.6173503 40.7484538,40.162679 41.9309082,38.6359863 Z" fill="#E57A5A"></path>
                <path d="M25.7145365,32.89235 C27.1968348,32.5879945 30.4890845,32.5948391 35.5912856,32.9128837 C36.2610645,33.8303562 36.2679091,37.1226059 35.6118194,42.7896329 C33.1965867,42.2556326 29.9043369,42.248788 25.7350702,42.7690991 C24.6537468,39.7452571 24.6469022,36.4530074 25.7145365,32.89235 Z" fill="#D6683D" transform="translate(30.508859, 37.729368) rotate(45.000000) translate(-30.508859, -37.729368) "></path>
                <path d="M20,38 C20.3148864,37.5041645 19.1434472,37.5041645 16.4856825,38 L3.5,38.8054199 L0.129882812,39.262207 C4.44793669,44.8273112 7.50067106,48.2242839 9.28808594,49.453125 C12.3561429,44.9097502 16.5857002,42.1606445 20,38 Z" fill="#E57A5A"></path>
                <path d="M4.48085399,32.8966533 C10.067143,32.2340551 13.3593927,32.2408997 14.3576032,32.917187 L14.3781369,42.7939362 C9.58796356,44.0635286 6.29571383,44.056684 4.50138777,42.7734024 C5.68374057,42.2999533 4.27090807,34.0563588 4.48085399,32.8966533 Z" fill="#D6683D" transform="translate(9.418652, 38.072905) rotate(45.000000) translate(-9.418652, -38.072905) "></path>
                <path d="M30.4458808,49 C30.7901718,48.5670361 29.803439,48.2337028 27.4856825,48 L13.6894531,48.4377286 C10.3813618,48.6621062 8.8595519,49.0026062 9.12402344,49.4592285 C11.1471686,51.9313965 14.573194,54.8334961 19.4020996,58.1655273 C24.2235514,54.2351888 27.9048118,51.180013 30.4458808,49 Z" fill="#E57A5A"></path>
                <path d="M14.9439272,43.4007454 C14.4900081,42.9674796 17.7822578,42.9743242 24.8206763,43.4212792 C23.981659,47.1034697 23.9885036,50.3957194 24.8412101,53.2980284 C22.9711169,54.402888 19.6788671,54.3960434 14.9644609,53.2774946 C15.7043263,49.8293697 15.6974817,46.53712 14.9439272,43.4007454 Z" fill="#D6683D" transform="translate(19.871943, 48.601210) rotate(45.000000) translate(-19.871943, -48.601210) "></path>
            </g>
            <path d="M44,18 C46.4474511,21.5032729 48.8512175,23.7866432 51.2112992,24.8501109" id="Path-4" stroke="#FFFFFF" stroke-linecap="round"></path>
            <path d="M34.2112992,29.8501109 C35.9082549,32.407203 37.5749216,34.0738697 39.2112992,34.8501109" id="Path-4" stroke="#FFFFFF" stroke-linecap="round"></path>
            <path d="M25,41 C26.3575646,43.0456737 27.6908979,44.379007 29,45" id="Path-4" stroke="#FFFFFF" stroke-linecap="round"></path>
            <path d="M15.5693359,55.7668845 C17.7480715,53.6799969 19.1155646,52.6818842 19.6718154,52.7725466 C20.2280661,52.8632089 21.1939063,53.6701989 22.5693359,55.1935166" id="Path-4" stroke="#FFFFFF" stroke-linecap="round" transform="translate(19.069336, 54.266884) scale(1, -1) translate(-19.069336, -54.266884) "></path>
            <path d="M55.4306641,28 C57.8781151,31.5032729 60.2818815,33.7866432 62.6419633,34.8501109" id="Path-4" stroke="#FFFFFF" stroke-linecap="round"></path>
            <path d="M45.6419633,39.8501109 C47.338919,42.407203 49.0055856,44.0738697 50.6419633,44.8501109" id="Path-4" stroke="#FFFFFF" stroke-linecap="round"></path>
            <path d="M36.4306641,51 C37.7882286,53.0456737 39.121562,54.379007 40.4306641,55" id="Path-4" stroke="#FFFFFF" stroke-linecap="round"></path>
            <path d="M27,65.7668845 C29.1787355,63.6799969 30.5462287,62.6818842 31.1024794,62.7725466 C31.6587302,62.8632089 32.6245704,63.6701989 34,65.1935166" id="Path-4" stroke="#FFFFFF" stroke-linecap="round" transform="translate(30.500000, 64.266884) scale(1, -1) translate(-30.500000, -64.266884) "></path>
        </g>
    </g>
</svg>