<?xml version="1.0" encoding="UTF-8"?>
<svg width="80px" height="80px" viewBox="0 0 80 80" version="1.1" xmlns="http://www.w3.org/2000/svg" xmlns:xlink="http://www.w3.org/1999/xlink">
    <!-- Generator: Sketch 63.1 (92452) - https://sketch.com -->
    <title>donut</title>
    <desc>Created with Sketch.</desc>
    <g id="Page-1" stroke="none" stroke-width="1" fill="none" fill-rule="evenodd">
        <g id="donut">
            <path d="M80,40 C80,62.091 62.091,80 40,80 C17.909,80 0,62.091 0,40 C0,17.909 17.909,0 40,0 C62.091,0 80,17.909 80,40" id="circle-apple" fill="#5AAA7A" fill-rule="nonzero"></path>
            <g id="doughnut-1" transform="translate(12.000000, 13.000000)">
                <path d="M54.8110352,22.6240234 C54.8110352,22.6240234 55.0072021,33.4964395 55.0072021,22.4504395 C55.0072021,11.4044395 43.7220294,3 27.9820294,3 C12.2420294,3 -1.20854872,14.1108281 0.0863731541,20.8056641 C1.38129503,27.5005 3.29964193,25.6930339 2.00472005,34.0983073 C0.709798177,42.5035807 11.9297451,53.4329896 27.9830294,52.001 C34.2343306,51.4433697 40.1756985,48.4879685 44.80125,46 C52.0540723,42.0988882 56.2078654,37.6738396 54.2904747,32.6318359 C51.1502511,24.37425 54.8110352,22.6240234 54.8110352,22.6240234 Z M29,25.004 C24.476,25.004 20.658,23.2 19.423,20.727 C22.095,19.525 25.403,18.804 29,18.804 C32.597,18.804 35.905,19.525 38.577,20.727 C37.342,23.2 33.524,25.004 29,25.004 Z" id="Shape" fill="#F3C97F" fill-rule="nonzero"></path>
                <path d="M0,20.004 C0,20.004 0.006,23.831 0.011,26.612 C0.068,27.386 0.331705729,28.004 1.5,28.004 C2.66829427,28.004 1.8758138,35.5377604 5.17496745,30.83514 C6.49896918,28.6497135 7.40869141,29.3088335 7.90413411,32.8125 C8.64729818,38.0679997 11.6844193,42.4636341 13.3714193,37.6054688 C15.0584193,32.7473034 17.2651859,41.7993164 20.9279463,39.7913411 C22.810075,36.9315321 25.5007595,37.5912001 29,41.7703451 C34.2488607,48.0390625 36.5757436,33.3483224 39,36.0279948 C41.0397253,38.2826224 39.3142466,32.0431315 45.8682236,36.0279948 C52.4222005,40.0128581 48.9462891,29.262 53.5,30.003 C56.3686695,30.4698026 54.9682021,27.838 55.0072021,24.904 C55.0072021,24.586 54.9655762,22.9991455 55.727417,22.182373 C55.709417,21.152373 56.8234863,20.4997559 56.5590294,18.2246094 C55.1390055,6.0080168 44.163,0.003 28.423,0.003 C12.683,0.003 0,8.958 0,20.004 Z M29,18.804 C32.597,18.804 35.905,19.525 38.577,20.727 C37.342,23.2 33.524,25.004 29,25.004 C24.476,25.004 20.658,23.2 19.423,20.727 C22.095,19.525 25.403,18.804 29,18.804 Z" id="Shape" fill="#D85C81" fill-rule="nonzero"></path>
                <path d="M29,13 C26.9799805,11.25354 19,15.686 19,19 C19,19.599 19.161,20.173 19.435,20.718 C22.105,19.519 25.408,18.8 29,18.8 C32.592,18.8 35.894,19.519 38.565,20.718 C38.839,20.173 39,19.5989977 39,19 C39,17.2079943 37.7890625,15.6525879 33.9729004,16.1241455 C31.2710829,16.4580052 29.9277182,13.8020827 29,13 Z" id="Path" fill="#DCAF61" fill-rule="nonzero"></path>
                <path d="M12.476,24.588 C12.035,24.588 11.511,24.297764 11.511,23.849 C11.511,23.1182865 12.1354258,22.9237634 13.3842773,23.2654308 C14.2158746,23.6441174 14.9144423,23.4732836 15.4799805,22.7529297 C16.3282878,21.6723988 17.4123535,21.4824219 17.759,22.159 C18.1056465,22.8355781 17.588,23.241 17.055,23.385 L12.738,24.553 C12.65,24.577 12.562,24.588 12.476,24.588 Z" id="Path" fill="#A4E869" fill-rule="nonzero"></path>
                <path d="M28.5015,32.208252 C28.272644,32.3108215 27.9560394,32.3477173 27.4660034,32.208252 C26.9759674,32.0687866 25.7249451,31.023 24.985,31.023 C24.2450549,31.023 24.1013214,30.3421997 24.2763214,29.8171997 C24.4513214,29.2941997 25.5418091,29.1159058 26.0585327,29.9215088 C26.4030151,30.4585775 27.0451709,30.6112264 27.985,30.3794556 C29.088,30.161499 29.425,30.866 29.25,31.391 C29.11,31.81 28.8350819,32.0587459 28.5015,32.208252 Z" id="Path" fill="#FFFFFF" fill-rule="nonzero"></path>
                <path d="M47.635,24.904 C47.083,24.904 46.6648665,24.7449831 46.3566081,24.2487793 C46.1511024,23.9179768 46.2438997,22.469717 46.635,19.904 C46.635,19.351 46.8020853,18.9785156 47.3540853,18.9785156 C47.9060853,18.9785156 48.0524687,19.8054727 47.635,20.0306803 C47.3871224,21.0425618 47.5605197,21.9266222 48.1551921,22.6828613 C49.0472005,23.8172201 48.187,24.904 47.635,24.904 Z" id="Path" fill="#A4E869" fill-rule="nonzero"></path>
                <path d="M23.8880208,8.34940592 C23.3762614,8.01867676 24.1103273,7.15149455 23.6664632,6.53116862 C22.8098958,5.33406576 21.6405029,6.32625827 21.184,5.829 C20.7274971,5.33174173 20.849,4.786 21.259,4.417 C21.67,4.05 22.3834837,4.18901204 22.9570313,4.417 C23.5305788,4.64498796 24.7479183,5.90701107 25.0544027,6.63110352 C25.360887,7.35519596 25.3551025,7.7450765 25.0544027,8.01867676 C24.8648306,8.19116424 24.3997803,8.68013509 23.8880208,8.34940592 Z M49.868,14.504 C49.764,14.504 49.657,14.487 49.552,14.452 L46.552,13.452 C46.028,13.278 45.745,12.712 45.92,12.187 C46.094,11.664 46.66,11.378 47.185,11.555 L50.185,12.555 C50.709,12.729 50.992,13.295 50.817,13.82 C50.677,14.239 50.287,14.504 49.868,14.504 Z" id="Shape" fill="#48A0DC" fill-rule="nonzero"></path>
                <path d="M35.927,29.262 C35.907,29.262 35.887,29.261 35.867,29.26 C35.316,29.228 34.895,28.754 34.928,28.203 L35.011,26.792 C35.043,26.24 35.519,25.829 36.068,25.853 C36.619,25.885 37.04,26.359 37.007,26.91 L36.924,28.321 C36.893,28.8520006 36.453,29.262 35.927,29.262 Z" id="Path" fill="#A4E869" fill-rule="nonzero"></path>
                <path d="M43.801,31.575 C43.545,31.575 43.289,31.477 43.094,31.282 L42.094,30.282 C41.703,29.891 41.703,29.259 42.094,28.868 C42.485,28.477 43.117,28.477 43.508,28.868 L44.508,29.868 C44.899,30.259 44.899,30.891 44.508,31.282 C44.313,31.477 44.057,31.575 43.801,31.575 Z" id="Path" fill="#E5AEA7" fill-rule="nonzero"></path>
                <path d="M15.7164714,32.3548177 C15.342,31.96993 15.7518717,31.2732747 14.983846,31.0936686 C14.2158203,30.9140625 13.6833496,30.5238838 13.6073812,30.1339518 C13.5314128,29.7440199 13.5686849,29.2918294 14.0275065,29.1162109 C14.4863281,28.9405924 15.8463542,29.1162109 16.5836182,30.3243815 L16.5836182,30.3243815 C16.8581543,30.9556885 17.0699056,31.5806885 16.5836182,32.1751709 C16.4084515,32.3893107 16.0909427,32.7397054 15.7164714,32.3548177 Z" id="Path" fill="#48A0DC" fill-rule="nonzero"></path>
                <path d="M43.831,9.544 C43.299,9.544 42.856,9.124 42.833,8.588 L42.771,7.175 C42.747,6.623 43.175,6.156 43.727,6.132 C44.273,6.109 44.746,6.536 44.769,7.087 L44.831,8.5 C44.855,9.052 44.427,9.519 43.875,9.543 C43.861,9.544 43.846,9.544 43.831,9.544 Z" id="Path" fill="#A4E869" fill-rule="nonzero"></path>
                <g id="Group" transform="translate(10.000000, 8.000000)" fill-rule="nonzero">
                    <line x1="1.948" y1="1.759" x2="2.948" y2="5.759" id="Path" fill="#D75A4A"></line>
                    <path d="M2.947,6.759 C2.499,6.759 2.092,6.456 1.978,6.001 L0.978,2.001 C0.844,1.466 1.17,0.923 1.706,0.789 C2.243,0.654 2.785,0.979 2.919,1.517 L3.919,5.517 C4.053,6.052 3.727,6.595 3.191,6.729 C3.109,6.749 3.028,6.759 2.947,6.759 Z" id="Path" fill="#E5AEA7"></path>
                </g>
                <path d="M8.135,20.304 C7.879,20.304 7.623,20.206 7.428,20.011 L6.428,19.011 C6.037,18.62 6.037,17.988 6.428,17.597 C6.819,17.206 7.451,17.206 7.842,17.597 L8.842,18.597 C9.233,18.988 9.233,19.62 8.842,20.011 C8.646,20.206 8.391,20.304 8.135,20.304 Z" id="Path" fill="#FBD490" fill-rule="nonzero"></path>
                <path d="M36.968,9.337 C36.712,9.337 36.456,9.239 36.261,9.044 L35.261,8.044 C34.87,7.653 34.87,7.021 35.261,6.63 C35.652,6.239 36.284,6.239 36.675,6.63 L37.675,7.63 C38.066,8.021 38.066,8.653 37.675,9.044 C37.479,9.239 37.224,9.337 36.968,9.337 Z" id="Path" fill="#E5AEA7" fill-rule="nonzero"></path>
                <path d="M37.3756104,16.395874 C35.7172852,14.504 28.5,12.1811523 28.2998248,12.6060613 C28.1507935,12.922408 28.1104559,12.4725852 29,13.0032754 C29.4468484,13.2698592 30.2575925,14.7086177 31.5389404,15.5534668 C31.9198953,15.8046471 32.5920959,16.0220951 33.555542,16.2058105 C35.1174216,15.8543294 36.3907777,15.9176839 37.3756104,16.395874 Z" id="Path-14" fill="#C5446A"></path>
                <path d="M28.0031128,12.5552031 C28.2789727,12.5427169 28.5,12.6510162 28.5,12.7593689 C28.5,12.8677216 28.4385681,12.9236908 28.1485901,12.988205 C24.1202624,13.8844252 21.3944217,14.7865821 20.253453,16.7611733 C18.4839027,19.8236048 19.9631568,21.8673305 24.9247284,24.2351837 C25.1788788,24.3564741 25.1505585,24.3564741 25.1156158,24.4778663 C25.0806732,24.5992584 24.9189355,24.5591175 24.6550172,24.4778663 C18.9376471,22.7176859 17.2465358,19.9662583 19.3876057,16.2608649 C20.7313961,13.935265 23.6394682,12.7527141 28.0031128,12.5552031 Z" id="Path-15" fill="#FFFFFF" fill-rule="nonzero"></path>
            </g>
        </g>
    </g>
</svg>