<?xml version="1.0" encoding="UTF-8"?>
<svg width="80px" height="80px" viewBox="0 0 80 80" version="1.1" xmlns="http://www.w3.org/2000/svg" xmlns:xlink="http://www.w3.org/1999/xlink">
    <!-- Generator: Sketch 63.1 (92452) - https://sketch.com -->
    <title>fish</title>
    <desc>Created with Sketch.</desc>
    <defs>
        <rect id="path-1" x="9.16758482" y="32" width="7" height="8"></rect>
        <rect id="path-3" x="33.1675848" y="6" width="7" height="6"></rect>
    </defs>
    <g id="Page-1" stroke="none" stroke-width="1" fill="none" fill-rule="evenodd">
        <g id="fish">
            <path d="M80,40 C80,62.091 62.091,80 40,80 C17.909,80 0,62.091 0,40 C0,17.909 17.909,0 40,0 C62.091,0 80,17.909 80,40" id="circle-apple" fill="#E48933" fill-rule="nonzero"></path>
            <g transform="translate(12.000000, 17.000000)">
                <path d="M42.9060519,26 C42.9060519,26 46.8680629,30.0538832 46.0584984,33.1326401 C45.2511921,36.2125165 39.3663243,30.0751546 36.1675848,30.4020626" id="Path" fill="#1A9980" fill-rule="nonzero"></path>
                <path d="M24.1675848,5 C24.1675848,5 15.0660147,7.91188346 11.6104442,11.1622199 C6.91766532,15.6761143 15.2010252,17.9574064 14.8891044,20" id="Path" fill="#1A9980" fill-rule="nonzero"></path>
                <path d="M9.48730469,38.0453085 C6.14608993,34.6619485 -2.63911183,31.6629825 1.05979704,29.073806 C2.69932608,27.9252413 11.2007181,29.0437932 13.2518885,26.4904011 C15.3042318,23.937009 14.2780602,15.6719604 24.0343135,6.6138826 C26.2754723,4.5337684 28.6773002,3.04352011 31.1107929,2 C28.9294452,4.78541374 29.1675171,10.5732565 31.3981209,14.8731596 C35.3151646,22.4213653 43.7555727,24.4264476 45.1675848,24.7138774 C44.0593195,25.7066067 42.8337774,26.675095 41.4663304,27.6031814 C28.4708931,36.4176942 23.7622314,34.7369804 21.5480462,35.5080771 C19.3315156,36.2780195 19.8053137,45.3487949 17.7435883,47.3642663 C14.5806342,50.4590422 12.8273467,41.4275142 9.48730469,38.0453085" id="Path" fill="#1FAB93" fill-rule="nonzero"></path>
                <path d="M30.9713068,15.0171955 C28.7409581,10.6546959 28.5030386,4.78259573 30.6841626,1.95546175 C38.835542,-1.59660841 47.3408705,0.167129691 51.3819857,3.45217974 C54.5558082,6.03103186 54.1561503,16.4331048 44.7331323,25 C43.3208517,24.7083859 34.8858441,22.6729432 30.9713068,15.0171955" id="Path" fill="#1A9980" fill-rule="nonzero"></path>
                <circle id="Oval" stroke="#FFFFFF" stroke-width="1.2" stroke-linecap="round" stroke-linejoin="round" cx="40.1675848" cy="9" r="3"></circle>
                <path d="M14.246279,40 C14.246279,40 13.5725744,36.7344988 16.1675848,35" id="Path" stroke="#FFFFFF" stroke-width="1.2" stroke-linecap="round" stroke-linejoin="round"></path>
                <mask id="mask-2" fill="white">
                    <use xlink:href="#path-1"></use>
                </mask>
                <g id="SVGID_13_"></g>
                <path d="M13.1675848,32.0666021 C13.1675848,32.0666021 11.8725161,33.2906021 10.1675848,32.8296021" id="Path" stroke="#FFFFFF" stroke-width="1.2" stroke-linecap="round" stroke-linejoin="round"></path>
                <path d="M13.1675848,32.0666021 C13.1675848,32.0666021 11.8725161,33.2906021 10.1675848,32.8296021" id="Path-Copy" stroke="#FFFFFF" stroke-width="1.2" stroke-linecap="round" stroke-linejoin="round"></path>
                <path d="M52.1409976,6 C52.3470032,8.2209983 51.3558656,9.55433164 49.1675848,10" id="Path-2" stroke="#FFFFFF" stroke-linecap="round" stroke-linejoin="round"></path>
                <mask id="mask-4" fill="white">
                    <use xlink:href="#path-3"></use>
                </mask>
                <g id="SVGID_11_"></g>
            </g>
        </g>
    </g>
</svg>