<?xml version="1.0" encoding="UTF-8"?>
<svg width="80px" height="80px" viewBox="0 0 80 80" version="1.1" xmlns="http://www.w3.org/2000/svg" xmlns:xlink="http://www.w3.org/1999/xlink">
    <!-- Generator: Sketch 63.1 (92452) - https://sketch.com -->
    <title>garlic</title>
    <desc>Created with Sketch.</desc>
    <g id="Page-1" stroke="none" stroke-width="1" fill="none" fill-rule="evenodd">
        <g id="garlic">
            <path d="M80,40 C80,62.091 62.091,80 40,80 C17.909,80 0,62.091 0,40 C0,17.909 17.909,0 40,0 C62.091,0 80,17.909 80,40" id="circle-grain" fill="#0DCBD8" fill-rule="nonzero"></path>
            <g transform="translate(13.000000, 8.000000)" fill-rule="nonzero">
                <path d="M23.2329102,56.8327026 C22.8591919,56.8327026 22.1838771,56.170679 22.0814209,55.9082642 C21.4918823,54.3983154 22.6713867,54.3552972 24.2277222,53.7902222 C25.2652791,53.4135055 26.0117051,52.2944314 26.467,50.433 C26.856,50.041 27.49,50.04 27.881,50.432 C28.272,50.822 28.273,51.455 27.882,51.846 L24.4953613,56.113 C24.3013613,56.309 23.6066284,56.8327026 23.2329102,56.8327026 Z" id="Path" fill="#A46F3E"></path>
                <path d="M27.175,57.438 C26.1741809,58.763 26.175,56.99 26.175,56.438 L26.175,51.139 C26.175,50.587 26.623,50.139 27.175,50.139 C27.727,50.139 28.175,50.587 28.175,51.139 L27.5319824,54.1271973 C27.5319824,54.6791973 28.1758191,56.113 27.175,57.438 Z" id="Path" fill="#A46F3E"></path>
                <path d="M30.9706421,55.82 C30.4245605,55.5186157 30.6470337,54.6270752 28.7306519,53.1867065 L26.467,51.846 C26.076,51.455 26.077,50.822 26.468,50.432 C26.859,50.041 27.491,50.042 27.882,50.433 L31.849,54.407 C32.24,54.798 32.5738613,55.43 32.1828613,55.82 C31.9878613,56.015 31.5167236,56.1213843 30.9706421,55.82 Z" id="Path" fill="#A46F3E"></path>
                <path d="M34.1919556,53.5899658 C33.0535226,53.0926191 30.9604702,52.674 30.8944702,52.66 L26.979,52.119 C26.437,52.011 26.086,51.484 26.195,50.942 C26.303,50.4 26.831,50.047 27.372,50.158 L33.983,51.483 C34.525,51.591 34.3043542,52.149092 34.767,52.66 C35.1587524,53.0926191 34.672,53.7996826 34.1919556,53.5899658 Z" id="Path" fill="#A46F3E"></path>
                <path d="M20.4,53.464 C19.8874878,53.464 19.659,53.008 19.578,52.519 C19.487,51.975 19.855,51.459 20.4,51.368 L27.011,50.264 C27.555,50.176 28.071,50.541 28.162,51.086 C28.253,51.63 27.885,52.146 27.34,52.237 L24.0415039,52.519 C21.9605404,52.519 20.4538806,53.464 20.4,53.464 Z" id="Path" fill="#A46F3E"></path>
                <path d="M27.7704919,0.950927734 C27.2834917,0.851812237 26.9549944,1.13916966 26.785,1.813 C26.785,1.813 33.426,28.3525391 22.657,32.386 C14.0788544,35.5988903 18.0586226,52.137 29.519,52.205 L32.799,52.205 C33.009,52.205 33.219,52.152 33.426,52.181 C42.403,53.424 51.417,35.611 38.469,22.946 C32.502,16.726 31.569,12.047 28.829,2.229 C28.6103281,1.47606732 28.2574921,1.05004323 27.7704919,0.950927734 Z" id="Path" fill="#D3D3D3"></path>
                <path d="M22.656,32.386 C33.2543945,28.1103516 28.1758191,11.0761719 27.6806641,5.65844727 C23.6681828,12.6870117 23.48,16.293 17.316,20.85 C10.355,25.651 7.996,32.766 8.388,38.825 C8.363,39.16 8.833,52.315 19.707,52.137 C21.566,52.107 23.317,51.633 24.864,50.784 C19.978,47.699 16.2836112,34.9567756 22.656,32.386 Z M42.762,20.85 C37.833,17.207 34.317,15.33 31.277,10.745 C32.794,15.413 34.539,18.849 38.469,22.945 L38.469,22.945 C49.573,33.806 44.523,48.442 37.199,51.61 C38.208,51.927 39.267,52.119 40.372,52.137 C51.247,52.314 51.716,39.159 51.691,38.825 C52.082,32.765 49.723,25.651 42.762,20.85 Z" id="Shape" fill="#E6E6E6"></path>
                <path d="M9.07568359,38.825 C8.68368359,32.765 10.6403184,26.070043 17.6013184,21.269043 C20.6793184,18.994043 26.0038652,12.0902578 22.5368652,14.3642578 C19.0698652,16.6382578 15.286,18.357 11.912,20.85 C4.951,25.651 0.338,32.765 0.73,38.825 C0.705,39.16 0.415,52.137 14.303,52.137 C15.138,52.137 15.946,52.017 16.726,51.821 C8.687,49.84 9.05268359,39.126 9.07568359,38.825 Z" id="Path" fill="#D3D3D3"></path>
            </g>
            <path d="M48,31.8501109 C54.3333333,36.3220729 56.5015087,42.7564245 54.5045261,51.153166" id="Path-56" stroke="#FFFFFF" stroke-width="2" stroke-linecap="round"></path>
            <path d="M39.1751564,21.1049805 C37.8909289,25.1593513 35.1777387,28.7410614 31.0355858,31.8501109 C24.8223564,36.5136851 23.9701547,43.87157 23.9701547,48.0185547" id="Path-57" stroke="#FFFFFF" stroke-width="2" stroke-linecap="round"></path>
        </g>
    </g>
</svg>