<svg width="395" height="394" viewBox="0 0 395 394" fill="none" xmlns="http://www.w3.org/2000/svg">
<path d="M197.338 393.951C306.325 393.951 394.676 305.762 394.676 196.976C394.676 88.189 306.325 0 197.338 0C88.3512 0 0 88.189 0 196.976C0 305.762 88.3512 393.951 197.338 393.951Z" fill="#7E1010"/>
<path d="M250.252 149.609C248.331 149.855 246.451 148.92 245.493 147.241C244.534 145.562 244.685 143.471 245.877 141.947C254.191 130.538 257.96 116.452 256.452 102.425C253.351 72.0658 226.925 49.4792 196.395 51.0935C165.865 52.7077 141.978 77.9545 142.107 108.471C142.092 120.594 145.965 132.404 153.16 142.171C154.229 143.717 154.288 145.746 153.311 147.352C152.335 148.957 150.504 149.841 148.637 149.609L83.1625 141.174C75.1185 140.131 67.0142 142.598 60.9226 147.945C54.8309 153.291 51.3425 160.999 51.3471 169.095C51.3471 183.44 62.1537 195.492 76.4369 197.078L120.335 201.946C130.01 203.02 137.329 211.182 137.33 220.899V236.419C137.331 240.046 136.296 243.599 134.345 246.66L109.138 285.415C102.606 295.688 102.193 308.695 108.059 319.361C113.925 330.026 125.141 336.661 137.33 336.675C149.82 336.67 161.265 329.717 167.008 318.647L190.944 271.058C192.586 267.894 195.858 265.907 199.428 265.907C202.998 265.907 206.27 267.894 207.911 271.058L237.852 328.836C243.594 339.908 255.039 346.862 267.529 346.868C279.717 346.85 290.93 340.215 296.794 329.55C302.658 318.884 302.243 305.879 295.712 295.608L264.51 246.66C262.56 243.599 261.524 240.046 261.525 236.419V220.899C261.514 211.173 267.529 205.608 278.279 200.691L318.392 171.348C330.804 159.425 341.536 148.282 341.536 138.503C341.536 128.724 336.92 120.89 330.942 116.389C324.964 111.889 316.066 111.516 306.628 116.389L250.252 149.609Z" fill="#C7866C"/>
<path d="M240.818 87.0152C239.965 87.0152 239.176 86.5607 238.75 85.8231C234.749 78.9337 229.013 73.2073 222.112 69.2116C221.367 68.7888 220.906 67.9999 220.904 67.1444C220.903 66.2889 221.36 65.498 222.103 65.0719C222.846 64.6458 223.761 64.6499 224.501 65.0825C232.132 69.4938 238.474 75.8225 242.896 83.4391C243.555 84.5794 243.164 86.0373 242.022 86.6957C241.657 86.9085 241.241 87.0189 240.818 87.0152Z" fill="white"/>
<path d="M127.444 305.803C119.628 296.318 117.897 288.152 122.251 281.304L153.462 232.356C155.409 229.294 156.442 225.742 156.438 222.115V206.595C156.436 196.879 149.117 188.716 139.442 187.643L95.5441 182.775C86.2356 181.761 78.0409 176.195 73.6807 167.924C69.3204 159.653 69.3654 149.759 73.8005 141.527C60.2189 144.339 50.7013 156.59 51.3542 170.42C52.007 184.25 62.6366 195.554 76.4229 197.078L120.321 201.947C130.001 203.013 137.329 211.178 137.331 220.899V236.419C137.332 240.047 136.296 243.599 134.345 246.66L108.549 286.588C99.4897 298.836 104.143 322.288 119.708 332.147C135.273 342.006 155.898 337.404 165.775 321.867C162.825 322.7 159.774 323.122 156.708 323.121C148.583 323.11 138.828 317.337 127.444 305.803Z" fill="#AC6A50"/>
<path d="M199.427 218.134C204.704 218.134 208.981 213.864 208.981 208.598C208.981 203.331 204.704 199.062 199.427 199.062C194.151 199.062 189.874 203.331 189.874 208.598C189.874 213.864 194.151 218.134 199.427 218.134Z" fill="#C43737"/>
<path d="M199.427 251.509C204.704 251.509 208.981 247.24 208.981 241.973C208.981 236.707 204.704 232.437 199.427 232.437C194.151 232.437 189.874 236.707 189.874 241.973C189.874 247.24 194.151 251.509 199.427 251.509Z" fill="#C43737"/>
<path d="M204.205 156.15L189.875 184.758H175.545L189.875 156.15H204.205Z" fill="white"/>
<path d="M194.651 156.15L208.981 184.758H223.311L208.981 156.15H194.651Z" fill="white"/>
<path d="M199.429 160.918L180.322 165.686C177.315 163.435 175.545 159.902 175.545 156.15C175.545 152.398 177.315 148.865 180.322 146.614L199.429 151.382V160.918Z" fill="white"/>
<path d="M199.428 160.918L218.535 165.686C221.542 163.435 223.311 159.902 223.311 156.15C223.311 152.398 221.542 148.865 218.535 146.614L199.428 151.382V160.918Z" fill="white"/>
<path d="M180.322 103.703C182.96 103.703 185.099 101.568 185.099 98.9346C185.099 96.3013 182.96 94.1666 180.322 94.1666C177.684 94.1666 175.545 96.3013 175.545 98.9346C175.545 101.568 177.684 103.703 180.322 103.703Z" fill="#FFF8EB"/>
<path d="M225.082 98.0999C219.76 100.807 219.031 94.4652 216.284 95.5629C213.536 96.6605 213.607 99.3396 214.489 101.257C215.371 103.174 217.677 103.692 221.554 102.725C225.431 101.758 230.404 95.3932 225.082 98.0999Z" fill="#FFF8EB"/>
<path d="M221.912 126.146C223.722 124.275 226.689 119.583 223.312 121.256C219.935 122.928 217.108 124.435 213.758 125.359C210.408 126.284 192.391 128.062 183.698 119.404C181.824 117.597 178.845 117.623 177.002 119.462C175.16 121.301 175.134 124.275 176.944 126.146C189.372 138.516 209.485 138.516 221.912 126.146Z" fill="#FFF8EB"/>
<path d="M258.148 159.521C258.917 160.295 258.917 161.542 258.148 162.315C253.652 166.813 253.652 174.095 258.148 178.593C258.917 179.366 258.917 180.614 258.148 181.387C255.985 183.546 254.77 186.473 254.77 189.526C254.77 192.579 255.985 195.506 258.148 197.665L267.577 207.077C269.84 204.931 272.598 203.376 275.607 202.547C275.411 201.763 275.014 201.044 274.456 200.459L264.902 190.923C264.133 190.15 264.133 188.902 264.902 188.129C269.398 183.631 269.398 176.349 264.902 171.851C264.131 171.079 264.131 169.829 264.902 169.057C269.398 164.559 269.398 157.278 264.902 152.779L258.148 144.995L251.477 149.235C250.57 151.047 251.944 153.313 253.371 154.753L258.148 159.521Z" fill="#3C9018"/>
<path d="M133.954 152.779C129.458 157.278 129.458 164.559 133.954 169.057C134.725 169.829 134.725 171.079 133.954 171.851C129.458 176.349 129.458 183.631 133.954 188.129C134.722 188.902 134.722 190.15 133.954 190.923L124.4 200.459C123.842 201.044 123.445 201.763 123.249 202.547C126.258 203.376 129.016 204.931 131.279 207.077L140.708 197.665C142.87 195.506 144.085 192.579 144.085 189.526C144.085 186.473 142.87 183.546 140.708 181.387C139.939 180.614 139.939 179.366 140.708 178.593C145.203 174.095 145.203 166.814 140.708 162.315C139.939 161.542 139.939 160.295 140.708 159.521L145.485 154.753C146.912 153.313 147.261 151.125 146.354 149.313L138.444 148.298L133.954 152.779Z" fill="#3C9018"/>
<path d="M133.954 188.129C134.722 188.902 134.722 190.15 133.954 190.923L124.4 200.459C123.842 201.044 123.445 201.764 123.249 202.547C123.851 202.719 124.444 202.921 125.026 203.153C125.313 203.267 125.599 203.382 125.881 203.506C127.873 204.376 129.699 205.585 131.279 207.077L140.708 197.665C142.877 195.511 144.093 192.58 144.085 189.526C144.085 189.278 144.028 189.049 144.013 188.801C142.544 188.226 141.008 187.837 139.442 187.643L132.965 186.923C133.267 187.346 133.598 187.749 133.954 188.129Z" fill="#26650C"/>
<path d="M185.099 280.117H173.157C171.838 280.117 170.768 279.049 170.768 277.733C170.768 271.149 165.422 265.813 158.827 265.813H154.05C152.731 265.813 151.662 264.745 151.662 263.429C151.662 256.846 146.315 251.509 139.72 251.509H131.251L125.562 260.43C126.238 260.815 126.999 261.027 127.778 261.045H139.72C141.039 261.045 142.108 262.112 142.108 263.429C142.108 270.012 147.455 275.349 154.05 275.349H158.827C160.146 275.349 161.215 276.416 161.215 277.733C161.215 284.316 166.561 289.652 173.157 289.652H181.311L186.145 280.326C185.805 280.215 185.454 280.145 185.099 280.117Z" fill="#3C9018"/>
<path d="M135.158 261.045L141.153 251.652C140.678 251.575 140.2 251.527 139.72 251.509H131.251L125.562 260.43C126.238 260.815 126.999 261.027 127.778 261.045H135.158Z" fill="#26650C"/>
<path d="M273.294 260.43L267.605 251.509H259.136C252.541 251.509 247.195 256.846 247.195 263.429C247.195 264.745 246.125 265.813 244.806 265.813H240.029C233.434 265.813 228.088 271.149 228.088 277.733C228.088 279.049 227.018 280.117 225.699 280.117H213.758C213.402 280.145 213.051 280.215 212.711 280.326L217.545 289.652H225.699C232.295 289.652 237.641 284.316 237.641 277.733C237.641 276.416 238.71 275.349 240.029 275.349H244.806C247.973 275.349 251.011 274.093 253.25 271.857C255.49 269.622 256.748 266.59 256.748 263.429C256.748 262.112 257.817 261.045 259.136 261.045H271.078C271.857 261.027 272.618 260.815 273.294 260.43Z" fill="#3C9018"/>
</svg>
