<?xml version="1.0" encoding="UTF-8"?>
<svg width="80px" height="80px" viewBox="0 0 80 80" version="1.1" xmlns="http://www.w3.org/2000/svg" xmlns:xlink="http://www.w3.org/1999/xlink">
    <!-- Generator: Sketch 63.1 (92452) - https://sketch.com -->
    <title>grain</title>
    <desc>Created with Sketch.</desc>
    <g id="Page-1" stroke="none" stroke-width="1" fill="none" fill-rule="evenodd">
        <g id="grain">
            <path d="M80,40 C80,62.091 62.091,80 40,80 C17.909,80 0,62.091 0,40 C0,17.909 17.909,0 40,0 C62.091,0 80,17.909 80,40" id="circle-grain" fill="#11C2BB" fill-rule="nonzero"></path>
            <g id="bolsa-de-granos" transform="translate(13.000000, 10.000000)">
                <path d="M24.9523564,0 C24.5113412,0.55844634 23.4916457,1.90034976 23.1675848,3.82634841 C23.1675848,3.82634841 28.3574325,6.9438547 35.6524579,11.1747561 C40.3854528,13.9203534 50.9929655,19 50.9929655,19 C50.9929655,19 53.137128,17.5030374 53.1675848,15.4196478 C52.079666,15.0349144 24.9523564,0 24.9523564,0" id="Path" fill="#DADADA" fill-rule="nonzero"></path>
                <path d="M37.7454026,33.7181908 C43.3740984,23.8204466 51.1675848,19.4681965 51.1675848,19.4681965 C51.1675848,19.4681965 40.713435,14.2911343 36.0488695,11.491052 C28.8593153,7.17802208 23.7445021,4 23.7445021,4 C23.7445021,4 13.6841689,10.3607981 7.84415693,20.461774 C2.00414493,30.5639385 3.76311236,38.8762371 3.16758482,40.1193975 C3.16758482,40.1193975 13.5869154,45.491372 18.2502803,48.2890773 C25.4398346,52.6021073 30.684319,56 30.684319,56 C30.684319,56 30.2052555,46.9746075 37.7454026,33.7181908" id="Path" fill="#FFFDFA" fill-rule="nonzero"></path>
                <path d="M37.410084,33.4326241 C29.6827965,46.8589368 30.1738282,56 30.1738282,56 C30.1738282,56 38.3626116,50.0150953 44.5048145,39.2502115 C50.6470174,28.4865313 51.1675848,19 51.1675848,19 C51.1675848,19 43.1793983,23.4080291 37.410084,33.4326241" id="Path" fill="#CCCCCC" fill-rule="nonzero"></path>
                <path d="M2.78853811,40 C1.61185671,41.0402755 0.167584818,43.2345112 0.167584818,43.2345112 C0.167584818,43.2345112 29.5595332,60.5989225 28.5190363,59.9840476 C29.7339449,59.6515506 30.1675848,56.3339151 30.1675848,56.3339151 C30.1675848,56.3339151 24.9495702,52.8402517 17.796303,48.4028837 C13.1540858,45.5240954 2.78853811,40 2.78853811,40" id="Path" fill="#DADADA" fill-rule="nonzero"></path>
                <path d="M29.1675848,23 C29.1675848,23 20.8100537,36.5655546 19.8293418,38.45793 C18.0152089,41.95906 15.1675848,40.8245762 15.1675848,40.8245762" id="Path" stroke="#B26B18" stroke-width="0.8" stroke-linecap="round"></path>
                <path d="M32.6973999,19.6983629 C31.6077661,21.6306165 28.69374,22 28.69374,22 C28.69374,22 27.548136,19.2314525 28.6377698,17.300418 C29.7274035,15.3669453 32.6414296,15 32.6414296,15 C32.6414296,15 33.7870336,17.7661094 32.6973999,19.6983629" id="Path" fill="#F2B836" fill-rule="nonzero"></path>
                <path d="M31.6909897,26.9207581 C29.4824311,27.4195581 27.1675848,25.4004256 27.1675848,25.4004256 C27.1675848,25.4004256 28.4331495,22.5764113 30.642944,22.0788709 C32.8515026,21.5813304 35.1675848,23.6004629 35.1675848,23.6004629 C35.1675848,23.6004629 33.9007843,26.4232176 31.6909897,26.9207581" id="Path" fill="#F2B836" fill-rule="nonzero"></path>
                <path d="M28.6922256,32.9210818 C26.4824311,33.418655 24.1675848,31.4006493 24.1675848,31.4006493 C24.1675848,31.4006493 25.4331495,28.5764492 27.642944,28.078876 C29.8515026,27.5813029 32.1675848,29.6005682 32.1675848,29.6005682 C32.1675848,29.6005682 30.9020202,32.4235086 28.6922256,32.9210818" id="Path" fill="#F2B836" fill-rule="nonzero"></path>
                <path d="M25.6922256,38.9210818 C23.4824311,39.418655 21.1675848,37.4006493 21.1675848,37.4006493 C21.1675848,37.4006493 22.4331495,34.5764492 24.642944,34.078876 C26.8515026,33.5813029 29.1675848,35.6005682 29.1675848,35.6005682 C29.1675848,35.6005682 27.9020202,38.4222489 25.6922256,38.9210818" id="Path" fill="#F2B836" fill-rule="nonzero"></path>
                <path d="M23.3258122,22.751147 C24.0158642,24.9596583 26.9145816,26 26.9145816,26 C26.9145816,26 28.6989836,23.4560987 28.0089316,21.2475874 C27.3201275,19.0390761 24.4201623,18 24.4201623,18 C24.4201623,18 22.6370081,20.5426357 23.3258122,22.751147" id="Path" fill="#F2B836" fill-rule="nonzero"></path>
                <path d="M20.3254001,27.7518987 C21.0155108,29.9607595 23.9144749,31 23.9144749,31 C23.9144749,31 25.6990288,28.456962 25.0089181,26.2481013 C24.3200554,24.0379747 21.4198433,23 21.4198433,23 C21.4198433,23 19.6377853,25.543038 20.3254001,27.7518987" id="Path" fill="#F2B836" fill-rule="nonzero"></path>
                <path d="M16.3258122,33.7524126 C17.0158642,35.9596583 19.9145816,37 19.9145816,37 C19.9145816,37 21.6989836,34.4573643 21.0089316,32.248853 C20.3201275,30.0390761 17.4201623,29 17.4201623,29 C17.4201623,29 15.6370081,31.5439013 16.3258122,33.7524126" id="Path" fill="#F2B836" fill-rule="nonzero"></path>
            </g>
        </g>
    </g>
</svg>