<?xml version="1.0" encoding="UTF-8"?>
<svg width="80px" height="80px" viewBox="0 0 80 80" version="1.1" xmlns="http://www.w3.org/2000/svg" xmlns:xlink="http://www.w3.org/1999/xlink">
    <!-- Generator: Sketch 63.1 (92452) - https://sketch.com -->
    <title>ham</title>
    <desc>Created with Sketch.</desc>
    <defs>
        <rect id="path-1" x="28" y="3" width="13" height="10"></rect>
    </defs>
    <g id="Page-1" stroke="none" stroke-width="1" fill="none" fill-rule="evenodd">
        <g id="ham">
            <path d="M80,40 C80,62.091 62.091,80 40,80 C17.909,80 0,62.091 0,40 C0,17.909 17.909,0 40,0 C62.091,0 80,17.909 80,40" id="circle-apple" fill="#5AAA7A" fill-rule="nonzero"></path>
            <g id="piece-of-ham" transform="translate(20.000000, 15.000000)">
                <path d="M10.2737214,34 C6.85640865,38.4412415 5.67785312,40.3128902 5.14214606,41.1400383 C-1.29007615,36.9608276 -2.01764109,48.513127 4.84065511,45.8541782 C5.90210259,52.6754324 14.7948398,46.7054765 8.52706718,43.8195148 C10.2064465,42.4574375 11.9991964,39.5364579 14,36.5949505" id="Path" fill="#FFE1D2" fill-rule="nonzero"></path>
                <path d="M25.3655035,16.9848279 C18.5804116,12.341966 17.0675277,6.08688137 20.513675,2 C19.757233,2.56445961 19.0417449,3.30092193 18.3563699,4.25783843 C14.6307727,9.46031486 0.776320952,27.4697257 12.8275981,35.7101092 C26.5760516,45.1096941 39.5198821,22.8329202 42,18.2070162 C37.9250904,24.2828304 30.3281484,20.3824872 25.3655035,16.9848279" id="Path" fill="#C27332" fill-rule="nonzero"></path>
                <path d="M33.3866542,0.914169024 C27.4332206,0.0565579503 23.2126941,-0.894324385 19.8079407,1.61309782 C16.3140384,5.70007489 17.8478872,11.9553059 24.7257822,16.5982766 C29.7571968,19.9948041 37.4594134,23.89645 41.590791,17.8204935 C41.8545739,17.3347562 42.0035624,17.0404066 42.0218806,17.0016446 C44.3360871,12.086128 42.9561117,2.29264558 33.3866542,0.914169024" id="Path" fill="#FFAD3E" fill-rule="nonzero"></path>
                <path d="M34.0233563,14.660361 C37.2352687,13.1889441 38.5709976,11.166378 37.7757234,9.00855268 C36.9792639,6.8519915 34.6207009,5.89759308 32.5074759,6.60422714 C31.9978367,6.77361706 31.5533839,7.04160708 31.1776731,7.37406639 C31.0638932,7.16043284 30.9050753,6.97334547 30.7095161,6.79510682 C27.516567,3.85606535 24.6732542,9.98949727 29.8656483,10.2815053 C28.9826687,13.7009062 31.3756027,15.8739007 34.0233563,14.660361 Z" id="Path" stroke="#FFFFFF" stroke-width="1.2" stroke-linecap="round" stroke-linejoin="round"></path>
                <mask id="mask-2" fill="white">
                    <use xlink:href="#path-1"></use>
                </mask>
                <g id="SVGID_15_"></g>
            </g>
        </g>
    </g>
</svg>