<svg width="80" height="80" viewBox="0 0 80 80" fill="none" xmlns="http://www.w3.org/2000/svg">
<g opacity="0.9">
<path d="M80 40C80 62.091 62.091 80 40 80C17.909 80 0 62.091 0 40C0 17.909 17.909 0 40 0C62.091 0 80 17.909 80 40Z" fill="#8236C0"/>
<path d="M39.0716 23.2295C42.8933 23.4143 44.0855 20.266 48.5959 19.6371C54.2385 18.8507 53.6072 28.3634 57.6337 30.0183C62.4507 31.9987 70.9915 33.164 70.1033 40.768C69.1107 49.256 61.8507 48.3146 60.0429 51.6595C58.6015 54.3235 59.0829 56.6464 57.3533 57.6672C55.6224 58.688 54.3037 57.5291 50.1233 57.7414C47.3242 57.8846 47.195 62.5042 41.9059 62.9769C38.3346 63.2946 34.1124 60.2413 31.4672 59.6762C29.8185 59.3234 28.0133 60.9665 26.0464 60.8103C22.2781 60.5095 23.3437 56.7531 22.4933 54.8678C21.6429 52.9811 15.4916 55.1594 13.6968 52.3301C11.902 49.5008 14.3894 47.0073 14.0111 45.0282C13.4972 42.3356 11.1012 41.3383 10.3146 38.5896C9.47593 35.6587 12.3077 33.0416 16.6368 31.9544C20.4142 31.0053 16.9668 27.853 20.0842 20.9678C26.6751 10.9486 35.1703 23.0407 39.0716 23.2295Z" fill="#FDFDFB"/>
<path d="M52.1675 41C52.1675 47.0753 46.3465 52 39.1675 52C31.9872 52 26.1675 47.0753 26.1675 41C26.1675 34.9247 31.9872 30 39.1675 30C46.3465 30 52.1675 34.9247 52.1675 41Z" fill="#FEC513"/>
<path d="M30.6299 43C30.3308 42.3003 30.1675 41.5445 30.1675 40.7582C30.1675 38.2793 31.7823 36.1203 34.1675 35" stroke="white" stroke-width="2" stroke-linecap="round"/>
</g>
</svg>
