<?xml version="1.0" encoding="UTF-8"?>
<svg width="81px" height="80px" viewBox="0 0 81 80" version="1.1" xmlns="http://www.w3.org/2000/svg" xmlns:xlink="http://www.w3.org/1999/xlink">
    <!-- Generator: Sketch 63.1 (92452) - https://sketch.com -->
    <title>lemon</title>
    <desc>Created with Sketch.</desc>
    <g id="Page-1" stroke="none" stroke-width="1" fill="none" fill-rule="evenodd">
        <g id="lemon" transform="translate(40.833345, 40.325058) rotate(-44.000000) translate(-40.833345, -40.325058) translate(0.333345, -0.174942)">
            <path d="M80.5379754,40.0670745 C80.5379754,62.1580745 62.6289754,80.0670745 40.5379754,80.0670745 C18.4469754,80.0670745 0.537975394,62.1580745 0.537975394,40.0670745 C0.537975394,17.9760745 18.4469754,0.0670745203 40.5379754,0.0670745203 C62.6289754,0.0670745203 80.5379754,17.9760745 80.5379754,40.0670745" id="circle-grain-copy" fill="#13AFF1" fill-rule="nonzero"></path>
            <path d="M45.1193886,8.25776977 C44.9429809,8.22396412 44.7555743,8.24729732 44.5954751,8.32611524 C35.958,12.5786078 36.7706272,22.8245679 36.7706272,23.2427261 L40.9122186,22.979816 C40.8412821,14.8496297 43.6843611,11.1121176 45.4832509,9.56405237 C45.9689918,9.14607886 45.7590536,8.38049768 45.1193886,8.25776977 Z" id="Path" fill="#428851" fill-rule="nonzero"></path>
            <path d="M51.3415308,59.7648614 C49.5201926,61.529916 47.391877,62.8958583 45.0657102,63.7573527 C43.9537966,64.170487 43.0056349,64.9269878 42.1802141,65.8025042 C41.4025491,66.6289437 40.5708329,67.3356974 39.4657475,67.3356974 C38.3606622,67.3356974 37.2234068,66.8764687 36.45257,66.0570401 C35.6271493,65.1815238 35.0217767,62.8565541 32.1078712,60.7193477 C24.5172952,55.1520333 20.7878899,53.1950688 20.7878899,43.9636696 C20.7878899,39.7822241 21.8861471,35.8808754 23.7825538,32.617012 C27.0704971,26.9015319 32.793775,23.1263806 39.2878899,23.1263806 C49.5065362,23.1263806 57.7878899,32.4559307 57.7878899,43.9636696 C57.7878899,50.2814119 55.2843981,55.9476443 51.3415308,59.7648614 Z" id="Path" fill="#FEDA6F" fill-rule="nonzero"></path>
            <path d="M25.5686207,30.9634013 C23.6445093,34.2736681 22.0084845,37.9836773 22.0084845,42.2245719 C22.0084845,51.587217 27.982654,56.2256907 34.8771879,60.5502562 C36.6566781,61.6664334 36.6139695,63.1930567 37.4514489,64.0810205 C38.2335469,64.9120992 39.0398407,65.652842 40.1610703,65.652842 C41.2822998,65.652842 42.3066226,65.1483328 43.0956485,64.3101435 C43.9331279,63.4221797 44.8951413,62.6549234 46.0232989,62.2359155 C48.3834488,61.3621729 50.542857,59.9768105 52.3908032,58.1866615 C21.2662255,65.6243993 25.5686207,30.9634013 25.5686207,30.9634013 Z" id="Path" fill="#F0C653" fill-rule="nonzero"></path>
            <path d="M40.7830353,13.9731031 C40.7830353,13.9731031 36.9203374,15.5427601 22.7422679,19.3018587 C13.6127996,21.7223977 15.1182268,31.1714554 13.7830353,38.3083663 C13.7830353,38.3083663 22.4364491,32.0797046 33.6657299,32.2581703 C39.2965158,32.3476598 39.8251939,22.2667508 40.7830353,13.9731031 Z" id="Path" fill="#52A05D" fill-rule="nonzero"></path>
            <path d="M39.1579217,15.8016057 C39.1579217,15.8016057 36.0249214,18.5338349 31.7820463,21.0012347 C25.6387844,24.5737845 17.6576038,28.7790306 17.5779023,33.2638353 C17.5779023,33.2638353 20.8408561,29.8904423 24.5605953,27.4315052 C31.0003846,23.1744763 39.4553872,21.7350469 39.1579217,15.8016057 Z" id="Path" fill="#BBE2C1" fill-rule="nonzero"></path>
            <path d="M54.6597141,43.3713415 C54.6597141,43.3713415 52.6340926,26.7401637 42.5063355,26.9449153" id="Path-48" stroke="#FFFFFF" stroke-width="2" stroke-linecap="round"></path>
        </g>
    </g>
</svg>