<?xml version="1.0" encoding="UTF-8"?>
<svg width="80px" height="80px" viewBox="0 0 80 80" version="1.1" xmlns="http://www.w3.org/2000/svg" xmlns:xlink="http://www.w3.org/1999/xlink">
    <!-- Generator: Sketch 63.1 (92452) - https://sketch.com -->
    <title>manzana</title>
    <desc>Created with Sketch.</desc>
    <defs>
        <rect id="path-1" x="24" y="50" width="7" height="8"></rect>
        <rect id="path-3" x="24" y="50" width="7" height="8"></rect>
        <rect id="path-5" x="47" y="29" width="9" height="9"></rect>
    </defs>
    <g id="Page-1" stroke="none" stroke-width="1" fill="none" fill-rule="evenodd">
        <g id="manzana">
            <path d="M80,40 C80,62.091 62.091,80 40,80 C17.909,80 0,62.091 0,40 C0,17.909 17.909,0 40,0 C62.091,0 80,17.909 80,40" id="circle-apple" fill="#933A7B" fill-rule="nonzero"></path>
            <path d="M38.5476722,31.3160569 C31.2364046,32.5165433 25.6607089,22.4199355 18.6815231,32.7751515 C13.1044608,41.0519744 22.7375684,59.6350139 28.1301408,63.3331109 C33.3149912,66.8882929 37.3109064,62.5695363 39.6067811,62.5695363 C41.9012892,62.5695363 44.2791595,65.694612 48.3625366,64.8575381 C53.718211,63.7550506 59.7544482,54.0939934 61.6253128,43.435253 C63.4948108,32.7765126 58.0544077,28.3788124 52.2737231,27.178326 C46.4930386,25.9778396 38.5012081,31.231669 38.5012081,31.231669" id="Path" fill="#A0C633" fill-rule="nonzero"></path>
            <path d="M50,33.1115701 C52.9100638,32.3426655 56.1678271,35.6823915 55.9932791,39" id="Path" stroke="#FFFFFF" stroke-width="2" stroke-linecap="round" stroke-linejoin="round"></path>
            <path d="M26,54 C26,54 27.8177134,58.7296032 30,60" id="Path" stroke="#FFFFFF" stroke-width="2" stroke-linecap="round" stroke-linejoin="round"></path>
            <path d="M39.9048816,31.0979743 C39.9048816,31.0979743 41.1748552,21.8529685 34.4339075,20.2689333 C31.6092874,19.6037756 25.4072839,20.2895051 23,21.0561508 C23.5168336,22.3370936 26.6952222,30.3861871 30.5659468,32.3610882 C34.4352894,34.3373607 39.9048816,31.0979743 39.9048816,31.0979743" id="Path" fill="#4E8B2C" fill-rule="nonzero"></path>
            <path d="M40.1835322,17.950825 C40.253093,15.8011664 43.5958783,14.9985212 43.9745985,17.7892364 C44.3546069,20.578627 40.362587,29.2064005 39.2431725,30.9044056 C38.3659329,32.2342006 40.1410228,19.272673 40.1835322,17.950825" id="Path" fill="#D59859" fill-rule="nonzero"></path>
            <mask id="mask-2" fill="white">
                <use xlink:href="#path-1"></use>
            </mask>
            <g id="SVGID_9_"></g>
            <path d="M25,51 C25,51 26.8177134,55.7296032 29,57" id="Path" fill="#FFFFFF" fill-rule="nonzero"></path>
            <mask id="mask-4" fill="white">
                <use xlink:href="#path-3"></use>
            </mask>
            <g id="SVGID_9_"></g>
            <mask id="mask-6" fill="white">
                <use xlink:href="#path-5"></use>
            </mask>
            <g id="SVGID_7_"></g>
        </g>
    </g>
</svg>