<?xml version="1.0" encoding="UTF-8"?>
<svg width="80px" height="80px" viewBox="0 0 80 80" version="1.1" xmlns="http://www.w3.org/2000/svg" xmlns:xlink="http://www.w3.org/1999/xlink">
    <!-- Generator: Sketch 63.1 (92452) - https://sketch.com -->
    <title>meat</title>
    <desc>Created with Sketch.</desc>
    <defs>
        <rect id="path-1" x="42" y="23" width="17" height="14"></rect>
        <rect id="path-3" x="42" y="23" width="17" height="14"></rect>
    </defs>
    <g id="Page-1" stroke="none" stroke-width="1" fill="none" fill-rule="evenodd">
        <g id="meat">
            <path d="M40,80 C17.909,80 0,62.091 0,40 C0,17.909 17.909,0 40,0 C62.091,0 80,17.909 80,40 C80,62.091 62.091,80 40,80 Z" id="circle-apple" fill="#AABC5B" fill-rule="nonzero"></path>
            <path d="M63.8359634,26 C65.3665504,32.0103777 65.7436871,36.5942534 62.7486343,40.5669456 C59.7548061,44.5396378 53.9679626,44.8146704 50.0080278,48.6150088 C46.0811537,52.3823434 46.7950195,57.985673 38.632705,60.9389113 C25.4219021,65.719588 19.1207814,53.033865 17,48.9193782" id="Path" fill="#E17875" fill-rule="nonzero"></path>
            <path d="M39.2199392,24.303005 C43.3877868,24.303005 45.3883537,20.2640747 50.0244713,18.4918784 C53.9753456,16.9811335 64.8938806,18.4931117 63.9414048,29.5443649 C62.8283444,42.4516762 52.0703941,40.2133072 47.1486564,43.8514276 C42.2256928,47.4883147 43.869541,51.7184005 36.8418144,56.1421082 C22.5853238,65.1153164 3.12392701,39.3376917 24.4510485,26.7670608 C30.0261576,23.4804198 35.848886,24.303005 39.2199392,24.303005" id="Path" fill="#C02A26" fill-rule="nonzero"></path>
            <mask id="mask-2" fill="white">
                <use xlink:href="#path-1"></use>
            </mask>
            <g id="SVGID_17_"></g>
            <path d="M42.1413992,32.595602 C42.9011192,35.3975673 47.0655102,36.7371667 51.4452163,35.5889386 C55.8236991,34.4407106 58.0575939,30.7757688 57.9988716,28.4359833 C57.9389259,26.0961979 56.8819242,21.7247468 48.6950545,25.4426467 C43.6999874,27.5068093 41.3816792,29.7936366 42.1413992,32.595602 Z" id="Path" stroke="#FFFFFF" stroke-width="1.2" stroke-linecap="round" stroke-linejoin="round"></path>
            <mask id="mask-4" fill="white">
                <use xlink:href="#path-3"></use>
            </mask>
            <g id="SVGID_17_"></g>
            <path d="M47.0618588,30.5813545 C47.3939673,31.7482944 49.2169012,32.3077391 51.1326301,31.8283785 C53.048359,31.350162 54.0251487,29.8228435 53.999508,28.8481055 C53.9738672,27.8733674 53.5111131,26.0520259 49.9287367,27.6010814 C47.7419486,28.4614136 46.7297503,29.4144146 47.0618588,30.5813545 Z" id="Path" stroke="#FFFFFF" stroke-width="1.2" stroke-linecap="round" stroke-linejoin="round"></path>
        </g>
    </g>
</svg>