<?xml version="1.0" encoding="UTF-8"?>
<svg width="81px" height="80px" viewBox="0 0 81 80" version="1.1" xmlns="http://www.w3.org/2000/svg" xmlns:xlink="http://www.w3.org/1999/xlink">
    <!-- Generator: Sketch 63.1 (92452) - https://sketch.com -->
    <title>pineapple</title>
    <desc>Created with Sketch.</desc>
    <g id="Page-1" stroke="none" stroke-width="1" fill="none" fill-rule="evenodd">
        <g id="pineapple" transform="translate(40.347104, 40.338881) rotate(3.000000) translate(-40.347104, -40.338881) translate(-0.152896, -0.161119)">
            <path d="M40.9882336,80.1737396 C18.8972336,80.1737396 0.988233571,62.2647396 0.988233571,40.1737396 C0.988233571,18.0827396 18.8972336,0.173739605 40.9882336,0.173739605 C63.0792336,0.173739605 80.9882336,18.0827396 80.9882336,40.1737396 C80.9882336,62.2647396 63.0792336,80.1737396 40.9882336,80.1737396 Z" id="circle-apple" fill="#A41A58" fill-rule="nonzero"></path>
            <path d="M37.1653656,17.4081788 C37.6162803,17.1042818 39.2045707,9.00099057 51.1653656,8.12659936 C51.1653656,8.12659936 43.2157089,16.9619734 44.1381808,25.1265994 L37.1653656,17.4081788 Z" id="Path" fill="#338248" fill-rule="nonzero"></path>
            <path d="M42.7592959,24.3152487 C42.3027344,24.0188466 49.3899017,5.56378341 31.0682313,6.52398147 C31.0682313,6.52398147 36.6384335,9.16081301 35.7044122,17.1240777 L42.7592959,24.3152487 Z" id="Path" fill="#4ABB61" fill-rule="nonzero"></path>
            <path d="M41.3423744,23.9455086 C41.79973,23.6676715 40.1208801,13.8862909 56.3423744,13.8862909 C56.3423744,13.8862909 45.485308,20.8245026 45.9559433,25.8862909 L41.3423744,23.9455086 Z" id="Path" fill="#399A5E" fill-rule="nonzero"></path>
            <path d="M43.4662328,27.9377022 C43.0092215,27.7217684 41.6217454,14.6318505 26.4662328,13.6162534 C26.4662328,13.6162534 37.283179,23.5732187 37.7941527,31.6162534 L43.4662328,27.9377022 Z" id="Path" fill="#41A363" fill-rule="nonzero"></path>
            <path d="M40.9905438,30.7703627 C41.5300983,30.5303216 40.1833677,17.0827058 60.0054474,18.7606981 C60.0054474,18.7606981 46.6002908,24.8824997 47.6600471,34.7991194 L40.9905438,30.7703627 Z" id="Path" fill="#4ABB70" fill-rule="nonzero" transform="translate(50.497996, 26.707473) rotate(17.000000) translate(-50.497996, -26.707473) "></path>
            <path d="M45.7272274,31.9811062 C45.2257204,31.7651724 38.8041007,20.209178 25.7272274,18.5832331 C25.7272274,18.5832331 37.5973351,28.5401978 38.1580583,36.5832331 L45.7272274,31.9811062 Z" id="Path" fill="#53C979" fill-rule="nonzero"></path>
            <path d="M26.4388698,50.9401206 C26.597256,62.6026853 31.4281253,67.9261028 43.1811291,67.5156789 C54.9341328,67.105255 57.4036837,64.211067 58.846821,54.6907294 C60.2899582,45.1703917 58.846821,28.2391502 42.8468391,28.2391502 C28.1318894,28.2391502 26.2804835,39.277556 26.4388698,50.9401206 Z" id="Path" fill="#FED35B" fill-rule="nonzero" transform="translate(42.853846, 47.888417) rotate(-1.000000) translate(-42.853846, -47.888417) "></path>
            <g id="Group-2" transform="translate(25.246053, 26.977655)">
                <path d="M30.8578926,11.4321016 L30.2547356,10.9703325 L30.6034218,10.7064317 C30.6976448,10.9420312 30.7824836,11.1870645 30.8578926,11.4321016 Z" id="Path" fill="#FEDA6F" fill-rule="nonzero"></path>
                <polyline id="Path-17" stroke="#D3A218" stroke-width="2" stroke-linecap="round" transform="translate(5.024858, 18.186205) rotate(-95.000000) translate(-5.024858, -18.186205) " points="10.1980001 19.8983632 4.23936796 15.6341624 -0.148284689 20.7382953"></polyline>
                <path d="M7.10917802,22.6772082 C3.66487474,19.9958526 1.9380784,18.7428212 1.928789,18.9181142 C1.91485491,19.1810536 1.45284604,26.546159 1.88986001,27.5237451" id="Path-18" stroke="#D3A218" stroke-width="2" stroke-linecap="round"></path>
                <path d="M3.96089925,13.081723 L2.68647192,12.2230343 C2.1626402,14.3743288 1.86158803,16.2685962 1.78331542,17.9058366" id="Path-19" stroke="#D3A218" stroke-width="2" stroke-linecap="round"></path>
                <path d="M10.1712728,27.330204 C7.70390032,26.0673642 6.47021407,25.4359443 6.47021407,25.4359443 C6.47021407,25.4359443 5.85053993,26.5990358 4.61119164,28.9252188" id="Path-20" stroke="#D3A218" stroke-width="2" stroke-linecap="round" transform="translate(7.391232, 27.180582) rotate(-91.000000) translate(-7.391232, -27.180582) "></path>
                <path d="M16.237137,4.20158467 C13.2319868,6.09188026 11.5618822,7.1233273 11.2268232,7.29592577 C10.8917643,7.46852425 12.6245764,8.57397161 16.4252597,10.6122679" id="Path-26" stroke="#D3A218" stroke-width="2" stroke-linecap="round"></path>
                <path d="M22.2379771,8.21761375 C19.2084642,9.95070803 17.7067666,11.0664337 17.7328844,11.5647908 C17.7590022,12.0631479 19.0595993,13.2581311 21.6346759,15.1497406" id="Path-27" stroke="#D3A218" stroke-width="2" stroke-linecap="round"></path>
                <path d="M21.4623263,16.8517671 C19.2473834,18.9835776 17.9554573,20.2257457 17.5865478,20.5782714 C17.2176383,20.930797 18.6636878,22.6294528 21.9246964,25.6742386" id="Path-28" stroke="#D3A218" stroke-width="2" stroke-linecap="round"></path>
                <path d="M16.263451,21.7036857 C14.0692689,24.8337353 12.8724949,26.4445774 12.6731291,26.5362119 C12.4737632,26.6278465 13.8280519,28.022564 16.7359951,30.7203644" id="Path-29" stroke="#D3A218" stroke-width="2" stroke-linecap="round"></path>
                <path d="M27.2694825,12.8187744 C24.5540586,14.6042042 23.0442476,15.6159793 22.7400495,15.8540998 C22.4358514,16.0922203 23.9455136,18.0519654 27.2690361,21.7333353" id="Path-30" stroke="#D3A218" stroke-width="2" stroke-linecap="round"></path>
                <path d="M31.154312,10.5537011 C29.2294725,11.560441 28.2323701,12.2332542 28.1630046,12.5721407 C28.0936392,12.9110271 29.4261144,14.9048806 32.1604304,18.5537011" id="Path-31" stroke="#D3A218" stroke-width="2" stroke-linecap="round"></path>
                <path d="M26.6346602,5.32866966 C24.9346061,6.57562802 23.9494518,7.28424768 23.6791973,7.45452861 C23.2738155,7.70995002 25.7497823,10.2061541 26.4877587,11.3286697" id="Path-32" stroke="#D3A218" stroke-width="2" stroke-linecap="round"></path>
                <path d="M21.0293127,2.0646743 C19.9776497,2.58208762 19.017747,2.97015587 18.1496046,3.22887905 C16.847391,3.61696383 20.2016131,4.70968612 22.7662983,6.74631981" id="Path-33" stroke="#D3A218" stroke-width="2" stroke-linecap="round"></path>
                <path d="M13.1622461,2 C14.5569654,2.3682305 15.5569654,2.70156384 16.1622461,3" id="Path-34" stroke="#D3A218" stroke-width="2" stroke-linecap="round" stroke-linejoin="round"></path>
                <path d="M32.0776882,20.2649801 C30.1973395,21.412692 28.960143,22.1503925 28.3660985,22.4780816 C27.4750317,22.9696153 29.0311296,24.911883 30.8808051,28.0896973" id="Path-35" stroke="#D3A218" stroke-width="2" stroke-linecap="round"></path>
                <path d="M26.7105659,23.4984147 C24.2360857,25.2844976 22.8984029,26.3549692 22.6975174,26.7098294 C22.3961891,27.2421199 25.7425889,31.6507474 25.7793448,32.3520915" id="Path-36" stroke="#D3A218" stroke-width="2" stroke-linecap="round"></path>
                <path d="M21.4596597,27.7213562 C19.6412795,29.617828 18.488196,30.7831969 18.0004094,31.2174629 C17.2687294,31.8688619 20.3036731,34.7440559 22.1865709,37.8585823" id="Path-37" stroke="#D3A218" stroke-width="2" stroke-linecap="round"></path>
                <path d="M11.8330372,27.6720676 C10.7748085,29.2017153 10.1613542,30.1777042 9.9926743,30.6000342 C9.73965447,31.2335292 11.8824982,32.5283072 13.81959,34.8057201" id="Path-38" stroke="#D3A218" stroke-width="2" stroke-linecap="round"></path>
                <path d="M5.13615747,29.1152924 C3.99116518,31.0055253 3.38126819,32.2119497 3.30646651,32.7345658 C3.19426399,33.5184899 5.53324989,36.5698142 6.22569623,37.2293024" id="Path-39" stroke="#D3A218" stroke-width="2" stroke-linecap="round"></path>
                <path d="M1.99447641,27.7948298 C2.12815621,28.6760482 2.23924094,29.3009679 2.32773061,29.6695889 C2.54074166,30.5569281 3.00618914,32.157135 3.22386388,32.6908248" id="Path-40" stroke="#D3A218" stroke-width="2" stroke-linecap="round"></path>
                <path d="M9.48763215,32.0947621 C8.03912198,35.6783511 7.26045854,37.5618435 7.15164182,37.7452394 C7.04282511,37.9286353 8.64919098,38.6514533 11.9707395,39.9136932" id="Path-41" stroke="#D3A218" stroke-width="2" stroke-linecap="round"></path>
                <path d="M13.8195331,36.8313263 C13.124808,38.0438059 12.573853,39.0678388 12.1666681,39.9034251" id="Path-42" stroke="#D3A218" stroke-width="2" stroke-linecap="round"></path>
                <path d="M16.7229531,32.9643064 C15.4259427,34.3756848 14.7938852,35.3952143 14.8267805,36.022895 C14.8761236,36.9644159 16.9503079,39.4220623 16.984449,40.0735121" id="Path-43" stroke="#D3A218" stroke-width="2" stroke-linecap="round"></path>
                <path d="M25.377186,34.3738792 C23.9730683,36.5636049 23.1667923,38.1237506 22.9583578,39.0543165" id="Path-44" stroke="#D3A218" stroke-width="2" stroke-linecap="round"></path>
                <path d="M30.4243648,29.7440876 C27.839157,31.8152965 26.513745,32.9825357 26.4481285,33.2458051 C26.3497037,33.6407093 28.0883326,37.3663771 28.1209552,37.9887827" id="Path-45" stroke="#D3A218" stroke-width="2" stroke-linecap="round"></path>
                <path d="M33.1283995,28.0346318 C31.671994,28.6841617 30.9490214,29.1087241 30.9594817,29.3083191 C30.9751722,29.6077115 32.1835828,32.2893917 32.2019803,32.6404364" id="Path-46" stroke="#D3A218" stroke-width="2" stroke-linecap="round"></path>
                <path d="M33.4391636,19.1599641 L32.5705245,19.3431592 C33.2082258,20.339348 33.5345811,20.9806378 33.5495902,21.2670286" id="Path-47" stroke="#D3A218" stroke-width="2" stroke-linecap="round"></path>
                <path d="M13.8498863,23.8092668 L9.02405122,20.2053824 C7.14615099,22.3305407 6.14054593,23.4439847 6.00723603,23.5457144" id="Path-21" stroke="#D3A218" stroke-width="2" stroke-linecap="round" transform="translate(9.928561, 22.007325) rotate(-93.000000) translate(-9.928561, -22.007325) "></path>
                <path d="M8.1092217,9.63230231 C4.92216916,8.14233257 3.03421141,7.40227463 2.44534846,7.41212848 C1.8564855,7.42198234 1.42844993,8.04476765 1.16124175,9.28048441" id="Path-22" stroke="#D3A218" stroke-width="2" stroke-linecap="round" transform="translate(4.635232, 8.522167) rotate(-81.000000) translate(-4.635232, -8.522167) "></path>
                <path d="M15.5687971,3.14374351 L12.7493682,2.19069069 C10.5406877,2.7224304 8.44136463,3.66399976 6.45139888,5.01539878" id="Path-23" stroke="#D3A218" stroke-width="2" stroke-linecap="round"></path>
                <path d="M13.1810591,11.4941449 C10.7675222,9.73799372 9.21767502,8.85673279 8.53151769,8.85036211 C7.84536037,8.84399142 7.03616724,10.7301719 6.10393831,14.5089036" id="Path-24" stroke="#D3A218" stroke-width="2" stroke-linecap="round" transform="translate(9.642499, 11.679601) rotate(-75.000000) translate(-9.642499, -11.679601) "></path>
                <path d="M16.5293858,12.7050163 C13.8331781,15.022806 12.4850743,16.2964062 12.4850743,16.5258171 C12.4850743,16.8699333 16.0582605,19.8661109 16.0582605,19.8661109" id="Path-25" stroke="#D3A218" stroke-width="2" stroke-linecap="round"></path>
                <line x1="6.81414903" y1="5.23636322" x2="9.73219305" y2="7.21280613" id="Path-67" stroke="#D3A218" stroke-width="2" stroke-linecap="round"></line>
                <path d="M17.3285604,0.699012735 C10.233071,0.699012735 5.60855603,3.09883682 3.02735891,7.81022887 C0.945145253,11.6108394 0.443190481,17.004515 0.540696464,24.0967762 C0.706495419,36.1564414 5.77354614,41.5430586 17.6663176,41.1328132 L18.7392315,41.0953462 C29.6970405,40.6039182 32.575192,37.7804609 34.0932518,27.887859 C34.9775013,22.125551 34.5802501,15.8287569 32.5965506,10.9551954 C30.0370112,4.66690762 24.8732233,0.699012735 17.3285604,0.699012735 Z M17.5247837,2.06138206 C24.647883,2.06138206 29.2591051,5.40826946 31.6703371,11.3321947 C33.5776937,16.0181969 33.96381,22.1384913 33.104822,27.7361804 L33.0020658,28.3819219 C31.5004033,37.4760482 28.7067857,39.6651039 17.843388,40.0398407 C6.52248456,40.4303594 1.69885071,35.5935169 1.54060197,24.0830293 C1.33410746,9.06330497 5.17020157,2.06138206 17.5247837,2.06138206 Z" id="Path" fill="#FED35B" fill-rule="nonzero" transform="translate(17.534166, 20.926781) rotate(-1.000000) translate(-17.534166, -20.926781) "></path>
            </g>
            <path d="M38.4903446,30.699874 C36.7659084,30.92739 35.4325751,31.5940567 34.4903446,32.699874" id="Path-68" stroke="#FFFFFF" stroke-width="2" stroke-linecap="round"></path>
            <path d="M57.458689,48.679452 C56.1653618,48.906968 55.1653618,49.5736347 54.458689,50.679452" id="Path-68" stroke="#FFFFFF" stroke-width="2" stroke-linecap="round"></path>
            <path d="M52.677761,33.8570168 C51.8155429,33.9707748 51.1488763,34.3041082 50.677761,34.8570168" id="Path-68" stroke="#FFFFFF" stroke-width="2" stroke-linecap="round"></path>
            <path d="M36.7533949,35.7453576 C35.820666,36.2941947 34.820666,37.2941947 33.7533949,38.7453576" id="Path-69" stroke="#FFFFFF" stroke-width="2" stroke-linecap="round"></path>
            <path d="M47.2630498,45.2082934 C46.3303209,45.7571305 45.3303209,46.7571305 44.2630498,48.2082934" id="Path-69" stroke="#FFFFFF" stroke-width="2" stroke-linecap="round"></path>
            <path d="M33.0205565,40.9478491 C32.1427479,41.9002402 31.1427479,43.2335735 30.0205565,44.9478491" id="Path-70" stroke="#FFFFFF" stroke-width="2" stroke-linecap="round"></path>
            <path d="M48.7850389,55.1422528 C47.9072303,55.6184483 46.9072303,56.285115 45.7850389,57.1422528" id="Path-70" stroke="#FFFFFF" stroke-width="2" stroke-linecap="round"></path>
            <path d="M34.5921407,51.7757661 C34.2995378,52.2519617 33.9662044,52.9186283 33.5921407,53.7757661" id="Path-70" stroke="#FFFFFF" stroke-width="2" stroke-linecap="round" transform="translate(34.092141, 52.775766) rotate(2.000000) translate(-34.092141, -52.775766) "></path>
            <path d="M26.886392,38.1566887 C28.94407,30.7296804 34.3548192,27.1059192 42.8362378,27.5460175 C43.2498949,27.5674821 43.3761396,27.5555848 43.3761396,27.5943268 C43.3761396,27.6330689 43.2498949,27.7924622 42.8362378,27.7924622 C35.0303239,27.7924622 30.9674023,32.8926972 29.2660633,38.9389212 C26.8582706,47.4957427 27.689468,53.8665155 28.3032721,57.5291311 L28.9401044,59.3511448 L30.0077314,61.189206 C30.2871124,61.616378 31.2605954,62.7605965 31.7756757,63.2762385 C33.264744,64.7669306 35.0452444,66.4807427 40.6960859,67.4181794 C41.0235089,67.4724967 41.6286725,67.5845002 41.8521833,67.6473969 C42.075694,67.7102936 42.2976789,67.8066317 42.2976789,67.9279755 C42.2976789,68.0493194 42.1382047,67.9890777 41.7244367,67.9890777 C35.161755,67.9890777 31.4467996,66.495813 29.2660633,64.0203398 C28.9892217,63.7060817 28.7411997,63.3830852 28.491417,63.0192988 L28.3032721,62.7383102 C28.1531046,62.5087049 27.6927855,61.767369 27.6089441,61.6381102 L27.4249874,61.3644496 C25.1220432,58.0845903 24.357286,47.2852753 26.886392,38.1566887 Z" id="Path-51" fill="#B28811" fill-rule="nonzero"></path>
        </g>
    </g>
</svg>