<?xml version="1.0" encoding="UTF-8"?>
<svg width="80px" height="80px" viewBox="0 0 80 80" version="1.1" xmlns="http://www.w3.org/2000/svg" xmlns:xlink="http://www.w3.org/1999/xlink">
    <!-- Generator: Sketch 63.1 (92452) - https://sketch.com -->
    <title>potato</title>
    <desc>Created with Sketch.</desc>
    <g id="Page-1" stroke="none" stroke-width="1" fill="none" fill-rule="evenodd">
        <g id="potato">
            <path d="M80,40 C80,62.091 62.091,80 40,80 C17.909,80 0,62.091 0,40 C0,17.909 17.909,0 40,0 C62.091,0 80,17.909 80,40" id="circle-egg" fill="#6B36C0" fill-rule="nonzero"></path>
            <path d="M60.4110777,44.400811 C58.5650956,45.8915056 53.9500576,48.9385898 47.1497403,48.8989796 C44.5843232,48.8790136 42.018945,49.0703016 39.5010377,49.5453016 C38.9988232,49.6377252 38.4423029,49.7365897 37.8450637,49.835454 C35.6393628,50.2048268 30.1624329,50.0795557 24.9094781,48.1141832 C19.5818774,46.1156412 14.485005,42.2245064 13.2905279,35.0225417 C10.9219504,20.7371221 23.6131612,13.1007438 30.4067468,17.0240713 C37.2003323,20.9473989 40.7968304,21.8025011 40.7968304,21.8025011 C40.7968304,21.8025011 41.300539,22.7757511 51.9759921,20.5323618 C69.315642,16.8885271 75.1180008,30.8937459 61.3137299,43.6028112 C61.3137299,43.6028112 61.0083169,43.9193705 60.4110777,44.400811 Z" id="Path" fill="#C29925" fill-rule="nonzero"></path>
            <g id="Group" transform="translate(13.000000, 21.000000)" fill-rule="nonzero">
                <path d="M49.9123968,21.2234808 C49.3143228,21.9396583 48.6410284,22.6573346 47.8936528,23.3696263 C47.8936528,23.3696263 42.7740534,28.8913194 33.8577144,28.8328211 C31.3187314,28.8175062 28.7796792,29.0157085 26.2829199,29.5040749 C25.783626,29.6015539 25.2356015,29.7052045 24.6400882,29.8078265 C20.2316911,30.5761671 2.65090788,29.2653646 0.304748528,14.5138235 C-0.801508053,7.57334986 1.58958114,2.09807478 3.20460215,0.44656808 C4.81962316,-1.20493862 1.2467279,6.94962641 2.13859679,12.5445547 C4.48471316,27.296088 22.0721445,28.6079789 26.4805416,27.8396358 C27.0694094,27.7359306 27.6174312,27.6322773 28.1167688,27.5348036 C30.6124274,27.0533309 33.1514898,26.8547962 35.6971158,26.8711968 C44.6068041,26.9289418 49.7341062,21.4014381 49.7341062,21.4014381 C49.7979804,21.3428463 49.8552091,21.2831687 49.9123968,21.2234808 Z" id="Path" fill="#927320"></path>
                <path d="M36.607707,12.1936733 C40.6988064,9.63820103 38.1144035,2.17435128 34.4590131,2.60381208 C37.3958299,4.11385672 36.4420402,8.06213379 36.607707,12.1936733 Z" id="Path" fill="#A48636"></path>
                <path d="M26.1034717,15.4473208 C17.9203046,15.3292018 28.819478,20.732997 25.9486608,21.0119114 C30.6501594,21.7051043 23.7212018,16.0205309 26.1034717,15.4473208 Z" id="Path" fill="#A48636"></path>
                <path d="M47.9138273,12.2680066 C44.8677741,11.8375291 41.4536059,16.4267759 44.4314164,19.7398017 C43.3087175,15.6169986 47.1960423,13.6925966 47.9138273,12.2680066 Z" id="Path" fill="#A48636"></path>
                <path d="M16.0183355,0.541172506 C20.1966587,4.56682282 16.8663592,8.22300919 18.0531429,10.3876049 C20.3605357,13.3773397 20.780486,1.02381343 16.0183355,0.541172506 Z" id="Path" fill="#A48636"></path>
                <path d="M9.82856389,10.8332399 C7.85732821,11.192766 9.82856389,21.1878804 11.5392023,18.8707545 C10.1876119,14.6994066 13.8544774,10.249495 9.82856389,10.8332399 Z" id="Path" fill="#A48636"></path>
                <path d="M33.8606908,28.8391616 C31.3181618,28.8185479 28.7756714,29.0160409 26.2802283,29.506449 C25.7824945,29.6018708 25.2309393,29.7039422 24.6390286,29.8060135 C22.4530065,30.1873681 17.0249406,30.0580334 11.8188515,28.0289078 C13.22465,26.6737192 14.4285597,27.1819664 16.7087587,26.2832729 C17.932936,25.799847 19.2756176,25.4289551 21.3019876,25.5972028 C23.3283576,25.7654506 25.0924365,25.2108234 26.8277721,24.2576032 C27.755994,23.7469139 29.4080635,22.7332241 30.0887933,21.5132185 C30.7695232,20.2932129 31.7099261,19.0470573 32.8466592,18.4479283 C34.0170537,17.8281856 34.6363507,17.0500488 36.6340188,17.0500488 C37.6698422,17.0500488 38.4994198,17.0330352 39.6166377,17.4065036 C40.2464731,17.6170477 41.3191868,18.1673659 41.9312549,18.6305106 C44.1240098,20.2919133 45.0255396,22.3173453 46.0075827,24.8774414 C44.1780701,26.4164914 40.6003371,28.8800566 33.8606908,28.8391616 Z" id="-" fill="#927320"></path>
            </g>
            <path d="M42.5386163,44.3605183 C44.4901748,43.1489687 44.4901748,40.6949742 46.6299919,39.281637 C48.769809,37.8682999 51.4855928,37.5557026 53.3034013,38.6870227 C53.7674299,38.9758126 55.1695219,39.9560334 55.5343298,40.3595161 C58.4529869,43.587593 60.4880852,47.4107555 59.8978534,52.1367564 C59.7521851,53.3031355 59.4591224,54.4450481 59.1265171,55.5704677 C58.7743587,56.7620466 58.36613,57.9612244 57.6406561,58.9599688 C56.7339609,60.2081939 55.4040473,61.048411 54.1073109,61.8582011 C49.9580287,64.44936 40.4716921,70.6126606 33.1677989,69.9505741 C27.3115135,69.4197138 24.1772195,65.5594348 23.150876,61.8682382 C22.663931,60.1169636 23.4977036,58.1695999 23.6560064,56.3987636 C23.850777,54.2199818 24.4925134,53.4008171 25.7368078,50.9632985 C26.9811022,48.52578 28.3839881,48.4289072 30.8880679,47.5524884 C32.9463738,46.663796 37.0743142,47.7528186 42.5386163,44.3605183 Z" id="Path" fill="#D6B24E" fill-rule="nonzero"></path>
            <g id="Group" transform="translate(23.000000, 45.000000)" fill-rule="nonzero">
                <path d="M36.8979216,7.51416477 C36.7502634,8.67556647 36.4611959,9.81175085 36.1229836,10.9351246 C35.7735623,12.1182951 35.3635987,13.3139914 34.6331761,14.3097353 C33.7247121,15.5515271 32.3889796,16.3896236 31.0872103,17.1943525 C26.9216852,19.7730007 17.5659376,26.4923651 10.2435989,25.8318205 C4.36525881,25.301065 1.22493803,21.217655 0.196575006,17.5393124 C-0.142271342,16.3306088 0.0773481584,14.874164 0.293339129,13.5006257 C0.770228943,10.5519184 1.80852508,7.81240195 3.40822754,5.28207649 C-0.34515177,19.43302 2.51029693,25.6996503 11.9745737,24.0819672 C26.1709887,21.6554426 27.1648267,16.5863242 31.3249382,14.0034247 C32.6267023,13.1986958 33.9624349,12.3605993 34.8708989,11.1188127 C35.6013266,10.1230636 36.0110304,8.92717053 36.3607065,7.74419683 C36.6052382,6.93309365 36.8296894,6.11481887 36.9811366,5.28207649 C37.0179315,6.02243637 36.9892799,6.77146954 36.8979216,7.51416477 Z" id="Path" fill="#A48636"></path>
                <path d="M23.4055032,0 C22.8427397,2.10017967 24.316419,1.48972412 25.2273893,6.5 C25.7900449,4.39985032 27.4804493,0 23.4055032,0 Z" id="Path" fill="#BB9B45"></path>
                <path d="M11.7622134,11.5081967 C12.0190356,13.3909775 11.234228,17.174966 13.6122134,18.0081967 C12.7932989,15.5846027 13.6122134,11.5081967 11.7622134,11.5081967 Z" id="Path" fill="#BB9B45"></path>
                <path d="M30.4240308,2.82409098 C31.7361687,4.06107569 33.6378775,7.86038586 30.4240308,9.70845182 C36.5945887,12.6474308 33.9453513,2.3612951 30.4240308,2.82409098 Z" id="Path" fill="#BB9B45"></path>
                <path d="M16.2860593,6.9512067 C15.5575972,5.44209411 15.3157643,4.54075948 15.4450407,3.93298152 C13.8609935,4.54075948 13.8609935,6.81665692 16.2860593,6.9512067 Z" id="Path" fill="#BB9B45"></path>
                <path d="M4.94513224,7.73019 C4.46710554,9.23031964 5.15997252,11.3089804 6.49271218,12.3730471 C6.97065449,10.8729414 6.27778285,8.79428065 4.94513224,7.73019 Z" id="Path" fill="#BB9B45"></path>
                <path d="M21.2756591,10.2502555 C20.778497,12.0504016 21.4990972,14.544804 22.8851728,15.8216841 C23.3822374,14.0215572 21.4990972,11.9396074 21.2756591,10.2502555 Z" id="Path" fill="#BB9B45"></path>
            </g>
            <path d="M32.7655911,66.9163979 C33.6993413,66.5395601 31.5808981,59.5237915 31,61.282356 C32.1456871,64.1780674 30.841343,67.5785583 32.7655911,66.9163979 Z" id="Path" fill="#B79740" fill-rule="nonzero"></path>
            <path d="M48,23 C49.6533288,24.8637853 50.2815965,26.595038 49.8848033,28.1937579 C49.2896134,30.5918378 49.8848033,32.6283724 49.8848033,31.819749" id="Path-58" stroke="#ECD9A5" stroke-linecap="round"></path>
            <path d="M23.2207565,31 C24.8668546,32.1011589 25.208977,33.2135954 24.2471237,34.3373093 C23.2852704,35.4610232 23.0482912,37.0152535 23.5361862,39" id="Path-59" stroke="#ECD9A5" stroke-linecap="round"></path>
            <path d="M39.5331148,36 C38.8803788,36.3578717 38.8270413,36.8896202 39.3731023,37.5952454 C40.1921939,38.6536832 41.6651767,41.4346151 40.6627066,42" id="Path-60" stroke="#ECD9A5" stroke-linecap="round"></path>
            <path d="M54,47 C56.55015,50.05664 56.6615756,52.3899733 54.3342769,54" id="Path-61" stroke="#F7DE9B" stroke-linecap="round"></path>
            <path d="M39.2657072,49 C39.1083981,49.2544224 39.0536427,49.5074382 39.1014413,49.7590475 C39.1811524,50.1786432 39.3934015,50.6670962 39.9152673,51" id="Path-62" stroke="#ECD9A5" stroke-linecap="round"></path>
            <path d="M31,61 C31.914866,62.1689216 32.2019971,63.8355883 31.8613935,66" id="Path-63" stroke="#ECD9A5" stroke-linecap="round"></path>
        </g>
    </g>
</svg>