<svg width="12" height="13" viewBox="0 0 12 13" fill="none" xmlns="http://www.w3.org/2000/svg">
<g clip-path="url(#clip0)">
<path fill-rule="evenodd" clip-rule="evenodd" d="M12.0002 6.96463C12.0002 6.13626 11.3287 5.46474 10.5003 5.46474H7.50052V2.46497C7.50052 1.63661 6.82899 0.965088 6.00061 0.965088C5.17223 0.965088 4.5007 1.63661 4.5007 2.46497V5.46474H1.50089C0.672508 5.46474 0.000976562 6.13626 0.000976562 6.96463C0.000976562 7.79299 0.672508 8.46451 1.50089 8.46451H4.5007V11.4642C4.5007 12.2926 5.17223 12.9641 6.00061 12.9641C6.82899 12.9641 7.50052 12.2926 7.50052 11.4642V8.46451H10.5003C11.3287 8.46451 12.0002 7.79299 12.0002 6.96463Z" fill="white"/>
</g>
<defs>
<clipPath id="clip0">
<rect width="12" height="12" fill="white" transform="translate(0 0.964844)"/>
</clipPath>
</defs>
</svg>
