<svg width="108" height="110" viewBox="0 0 108 110" fill="none" xmlns="http://www.w3.org/2000/svg">
<path d="M25.9057 85.1787C19.1207 77.5903 11.775 70.443 6.73816 61.4162C6.19994 60.4939 6.83154 58.87 8.06274 59.122C17.8993 60.3652 27.6874 61.4275 37.2059 64.0167C38.7812 64.4674 38.8202 66.7843 37.1916 67.2207C34.1153 68.045 31.0875 69.0504 28.2229 70.3028C45.3343 79.8759 64.7351 91.842 81.6696 74.6978C89.1303 67.0742 93.631 56.365 92.2 45.5962C90.6241 34.2845 81.6368 26.8012 72.0132 22.0098C71.0954 21.48 71.6608 19.9708 72.711 20.2713C96.0588 27.7856 102.498 53.9887 87.7078 72.9828C80.4362 82.3982 70.6503 88.2204 58.3821 86.9499C47.4112 85.8168 37.1041 79.5598 27.7147 73.8329C28.4065 77.1386 28.7365 80.5411 28.656 83.8598C28.6818 85.4046 26.903 86.3661 25.9057 85.1787ZM24.2954 70.4824C24.4634 69.6616 25.0725 69.4014 25.7787 69.503C25.7787 69.503 25.7787 69.503 25.9595 69.4547C27.5929 67.9503 29.4379 66.8741 31.3315 65.9788C24.7166 64.4541 17.8853 63.5693 11.2349 62.636C15.1341 68.8642 20.2209 74.0955 25.0604 79.49C24.5319 76.4313 23.9371 73.4875 24.2954 70.4824Z" fill="white"/>
</svg>
