<svg width="40" height="40" viewBox="0 0 40 40" fill="none" xmlns="http://www.w3.org/2000/svg">
<g clip-path="url(#clip0)">
<path d="M40.0002 19.9995C40.0002 31.045 31.0457 39.9995 20.0002 39.9995C8.95474 39.9995 0.000244141 31.045 0.000244141 19.9995C0.000244141 8.95401 8.95474 -0.000488281 20.0002 -0.000488281C31.0457 -0.000488281 40.0002 8.95401 40.0002 19.9995Z" fill="#374673"/>
<g clip-path="url(#clip1)">
<path d="M11.3429 19.0842L11.3495 19.1091C11.3903 19.2649 11.3744 19.4302 11.3046 19.5753L11.3051 19.5772C11.1659 19.8725 11.0398 20.3681 11.2245 21.0571C11.3918 21.6815 11.7098 22.0687 12.0282 22.2939C12.1683 22.3942 12.2691 22.54 12.3134 22.7064C12.3993 23.0267 12.6088 23.2997 12.8959 23.4654C13.183 23.6312 13.5242 23.6761 13.8444 23.5903L14.1462 23.5094C14.2263 23.488 14.2945 23.4356 14.336 23.3638C14.3774 23.2921 14.3887 23.2068 14.3672 23.1267L12.9113 17.6934C12.8899 17.6133 12.8375 17.5451 12.7657 17.5036C12.694 17.4622 12.6087 17.451 12.5286 17.4724L12.2268 17.5533C11.9065 17.6391 11.6335 17.8486 11.4678 18.1357C11.302 18.4228 11.2571 18.764 11.3429 19.0842Z" fill="white"/>
<path d="M26.6999 15.3957L26.6631 15.3987C26.6268 15.4013 26.5908 15.3912 26.5611 15.3702C26.5315 15.3491 26.5101 15.3184 26.5007 15.2832L25.283 10.7385C25.1552 10.2616 24.7238 9.91775 24.2084 9.88112C23.7171 9.84656 23.2824 10.0985 23.0994 10.5233C22.6987 11.3847 22.2259 12.2107 21.6859 12.9924C20.9966 13.9859 20.2875 14.7521 19.5857 15.2661C19.5344 15.3032 19.4956 15.355 19.4744 15.4146C19.4532 15.4743 19.4506 15.5389 19.4669 15.6001L21.0372 21.4605C21.0689 21.5785 21.1345 21.6846 21.2259 21.7657C21.3173 21.8468 21.4304 21.8993 21.5513 21.9168C22.3649 22.0341 23.2904 22.3337 24.2979 22.8098C25.1631 23.2208 25.9918 23.7044 26.7752 24.2554C26.9022 24.3492 27.0491 24.4123 27.2046 24.4399C27.36 24.4675 27.5197 24.4588 27.6712 24.4145C27.805 24.378 27.932 24.3202 28.0475 24.2433C28.4885 23.9528 28.6906 23.4559 28.5627 22.9786L27.3407 18.418C27.3312 18.3823 27.3346 18.3445 27.3503 18.3111C27.366 18.2778 27.393 18.251 27.4265 18.2356L27.4572 18.2218C27.7937 18.026 28.3675 17.4206 28.1282 16.5275C27.8889 15.6344 27.0893 15.3969 26.6999 15.3957Z" fill="white"/>
<path d="M20.0433 22.5763L18.3448 16.2374C18.3233 16.1573 18.2709 16.0891 18.1992 16.0476C18.1274 16.0062 18.0421 15.995 17.962 16.0164L14.3398 16.987C14.2598 17.0084 14.1915 17.0608 14.1501 17.1326C14.1086 17.2044 14.0974 17.2897 14.1188 17.3697L17.1923 28.8401C17.2567 29.0803 17.4138 29.285 17.6291 29.4093C17.8445 29.5337 18.1004 29.5674 18.3405 29.503L20.3195 28.9727C20.5081 28.9239 20.6829 28.8325 20.8307 28.7057C20.9785 28.5788 21.0952 28.4198 21.172 28.2408C21.2504 28.0559 21.2825 27.8546 21.2656 27.6544C21.2487 27.4543 21.1832 27.2612 21.0749 27.092C20.9614 26.913 20.8267 26.7137 20.6834 26.5018C20.1534 25.7177 19.6166 25.2885 19.1857 24.0998C19.4994 24.0083 19.7648 23.7976 19.9251 23.5129C20.0854 23.2281 20.1278 22.8919 20.0433 22.5763Z" fill="white"/>
</g>
</g>
<defs>
<clipPath id="clip0">
<rect width="40" height="40" fill="white" transform="translate(0.000244141 -0.000488281)"/>
</clipPath>
<clipPath id="clip1">
<rect width="20" height="20" fill="white" transform="translate(7.75244 12.9287) rotate(-15)"/>
</clipPath>
</defs>
</svg>
