<svg width="34" height="28" viewBox="0 0 34 28" fill="none" xmlns="http://www.w3.org/2000/svg">
<path d="M1.88061 19.3794H0.4825C0.216056 19.3794 0 19.1634 0 18.8969V0.483667C0 0.217222 0.216056 0.00116666 0.4825 0.00116666H1.88061C2.14711 0.00116666 2.36311 0.217222 2.36311 0.483667V18.8969C2.36311 19.1634 2.14711 19.3794 1.88061 19.3794ZM7.68572 0.00116666H5.3115C5.04506 0.00116666 4.829 0.217222 4.829 0.483667V18.8969C4.829 19.1634 5.04506 19.3795 5.3115 19.3795H7.68572C7.95222 19.3795 8.16822 19.1634 8.16822 18.8969V0.483667C8.16822 0.217167 7.95222 0.00116666 7.68572 0.00116666ZM12.0267 0.00116666H11.3221C11.0556 0.00116666 10.8396 0.217222 10.8396 0.483667V18.8969C10.8396 19.1634 11.0556 19.3795 11.3221 19.3795H12.0267C12.2931 19.3795 12.5092 19.1634 12.5092 18.8969V0.483667C12.5092 0.217167 12.2932 0.00116666 12.0267 0.00116666ZM17.9072 0H14.9698C14.7047 0 14.4873 0.217389 14.4873 0.4825V10.0583C15.4629 8.65322 16.8096 7.52383 18.3897 6.81328V0.482444C18.3897 0.217333 18.1776 0 17.9072 0ZM21.3484 0H21.3378C21.0727 0 20.8552 0.217389 20.8552 0.4825V6.07639C21.1787 6.02867 21.5022 5.9915 21.8309 5.97567V0.482444C21.8308 0.217333 21.6187 0 21.3484 0ZM24.0737 0H23.7556C23.4905 0 23.2731 0.217389 23.2731 0.4825V6.01261C23.7078 6.05506 24.1373 6.12928 24.5562 6.23533V0.482444C24.5562 0.217333 24.3388 0 24.0737 0ZM27.6208 0H26.0673C25.8022 0 25.5848 0.217389 25.5848 0.4825V6.54289C26.4967 6.87695 27.3452 7.34883 28.1033 7.93206V0.482444C28.1033 0.217333 27.8859 0 27.6208 0ZM33.4563 24.0316L29.4693 20.0447C30.3041 18.7314 30.7948 17.1789 30.7948 15.5108C30.7948 10.8331 26.9891 7.02733 22.3113 7.02733C17.6336 7.02733 13.8278 10.8331 13.8278 15.5108C13.8278 20.1886 17.6336 23.9943 22.3113 23.9943C23.9793 23.9943 25.5319 23.5037 26.8451 22.6688L30.8321 26.6558C31.1945 27.0182 31.6694 27.1994 32.1442 27.1994C32.619 27.1994 33.0938 27.0182 33.4563 26.6558C34.1812 25.9314 34.1812 24.7561 33.4563 24.0316ZM16.4789 15.5108C16.4789 12.2948 19.0953 9.67845 22.3113 9.67845C25.5272 9.67845 28.1437 12.2949 28.1437 15.5108C28.1437 18.7268 25.5273 21.3432 22.3114 21.3432C19.0953 21.3432 16.4789 18.7269 16.4789 15.5108Z" fill="white"/>
</svg>
