<svg id="Layer_1" height="512" viewBox="0 0 512 512" width="512" xmlns="http://www.w3.org/2000/svg"><g><path d="m456.832 120.5h-47.74l-43.83-73.051c-2.711-4.519-7.594-7.283-12.861-7.283h-192.801c-5.269 0-10.151 2.765-12.862 7.283l-43.83 73.051h-47.74c-30.42 0-55.168 24.748-55.168 55.166v241c0 30.42 24.748 55.168 55.167 55.168h401.665c30.42 0 55.168-24.748 55.168-55.168v-241c0-30.418-24.748-55.166-55.168-55.166zm25.168 296.166c0 13.878-11.291 25.168-25.168 25.168h-401.665c-13.877 0-25.167-11.29-25.167-25.168v-241c0-13.877 11.29-25.166 25.167-25.166h56.233c5.269 0 10.151-2.765 12.862-7.283l43.83-73.051h175.813l43.83 73.051c2.711 4.519 7.594 7.283 12.863 7.283h56.232c13.877 0 25.168 11.289 25.168 25.166v241z"/><path d="m352.486 286.353c-7.916-2.465-16.318 1.963-18.775 9.875-7.199 23.177-24.168 41.786-46.561 51.058-32.01 13.255-69.219 4.337-91.892-21.021l3.323.739c8.088 1.791 16.098-3.31 17.892-11.401 1.791-8.089-3.313-16.094-11.4-17.888l-41.673-9.237c-3.883-.861-7.95-.144-11.305 1.995-3.356 2.137-5.725 5.519-6.586 9.403l-9.23 41.668c-1.794 8.088 3.311 16.097 11.399 17.891 8.087 1.792 16.098-3.314 17.889-11.402l1.859-8.386c14.24 18.684 34.332 32.565 57.009 39.273 2.454.727 4.925 1.363 7.413 1.916 22.21 4.922 45.647 2.918 66.778-5.833 30.654-12.691 53.883-38.16 63.734-69.877 2.46-7.913-1.965-16.317-9.874-18.773z"/><path d="m364.322 184.742c-8.088-1.791-16.098 3.314-17.889 11.4l-1.859 8.388c-14.24-18.68-34.334-32.56-57.012-39.271-2.453-.726-4.924-1.365-7.412-1.917-22.207-4.927-45.647-2.917-66.779 5.831-30.652 12.693-53.882 38.162-63.733 69.878-2.457 7.91 1.964 16.316 9.878 18.775 7.91 2.461 16.317-1.965 18.772-9.879 7.199-23.175 24.169-41.783 46.561-51.057 32.01-13.258 69.219-4.334 91.891 21.021l-3.322-.735c-8.088-1.794-16.1 3.31-17.891 11.397-1.793 8.087 3.311 16.098 11.398 17.889l41.674 9.238c3.883.859 7.951.143 11.305-1.996 3.357-2.138 5.725-5.521 6.584-9.405l9.232-41.667c1.794-8.086-3.31-16.097-11.398-17.89z"/></g></svg>