<svg width="20" height="19" viewBox="0 0 20 19" fill="none" xmlns="http://www.w3.org/2000/svg">
<path fill-rule="evenodd" clip-rule="evenodd" d="M14.8658 1.73071H3.7894C2.34121 1.7323 1.16762 2.89371 1.16602 4.32687V11.2499C1.16767 12.6832 2.34131 13.8446 3.78949 13.8461H4.66386V16.1538C4.66378 16.3777 4.79468 16.5815 4.99962 16.6764C5.20455 16.7714 5.44651 16.7404 5.62028 16.597L8.95383 13.8461H14.8659C16.3141 13.8445 17.4877 12.6831 17.4892 11.2499V4.32687C17.4877 2.89362 16.314 1.73225 14.8658 1.73071ZM4.66429 7.78841C4.66429 8.42565 5.18631 8.94225 5.83025 8.94225C6.47418 8.94225 6.9962 8.42565 6.9962 7.78841C6.9962 7.15116 6.47418 6.63456 5.83025 6.63456C5.18631 6.63456 4.66429 7.15116 4.66429 7.78841ZM9.32852 8.94225C8.68459 8.94225 8.16257 8.42565 8.16257 7.78841C8.16257 7.15116 8.68459 6.63456 9.32852 6.63456C9.97246 6.63456 10.4945 7.15116 10.4945 7.78841C10.4945 8.42565 9.97246 8.94225 9.32852 8.94225ZM11.6594 7.78841C11.6594 8.42565 12.1814 8.94225 12.8253 8.94225C13.4692 8.94225 13.9912 8.42565 13.9912 7.78841C13.9912 7.15116 13.4692 6.63456 12.8253 6.63456C12.1814 6.63456 11.6594 7.15116 11.6594 7.78841Z" fill="#B9822A"/>
</svg>
