<svg width="20" height="19" viewBox="0 0 20 19" fill="none" xmlns="http://www.w3.org/2000/svg">
<path fill-rule="evenodd" clip-rule="evenodd" d="M14.8657 1.73071H3.78928C2.34109 1.7323 1.1675 2.89371 1.16589 4.32687V11.2499C1.16755 12.6832 2.34118 13.8446 3.78937 13.8461H4.66374V16.1538C4.66366 16.3777 4.79455 16.5815 4.99949 16.6764C5.20443 16.7714 5.44639 16.7404 5.62016 16.597L8.95371 13.8461H14.8658C16.314 13.8445 17.4876 12.6831 17.4891 11.2499V4.32687C17.4876 2.89362 16.3139 1.73225 14.8657 1.73071ZM4.66417 7.78841C4.66417 8.42565 5.18619 8.94225 5.83012 8.94225C6.47406 8.94225 6.99608 8.42565 6.99608 7.78841C6.99608 7.15116 6.47406 6.63456 5.83012 6.63456C5.18619 6.63456 4.66417 7.15116 4.66417 7.78841ZM9.3284 8.94225C8.68446 8.94225 8.16245 8.42565 8.16245 7.78841C8.16245 7.15116 8.68446 6.63456 9.3284 6.63456C9.97234 6.63456 10.4944 7.15116 10.4944 7.78841C10.4944 8.42565 9.97234 8.94225 9.3284 8.94225ZM11.6592 7.78841C11.6592 8.42565 12.1812 8.94225 12.8252 8.94225C13.4691 8.94225 13.9911 8.42565 13.9911 7.78841C13.9911 7.15116 13.4691 6.63456 12.8252 6.63456C12.1812 6.63456 11.6592 7.15116 11.6592 7.78841Z" fill="#DDDDDD"/>
</svg>
