<svg id="Capa_1" enable-background="new 0 0 512 512" height="512" viewBox="0 0 512 512" width="512" xmlns="http://www.w3.org/2000/svg"><g><path d="m76 361h45v30h30v-210h-30v30h-30v-15c0-90.981 74.019-166 165-166s165 75.019 165 166v15h-30v-30h-30v210h30v-30h30v45c0 24.814-20.186 46-45 46h-77.763c-6.213-17.422-22.707-30-42.237-30-24.814 0-45 20.186-45 45s20.186 45 45 45c19.53 0 36.024-12.578 42.237-30h77.763c41.353 0 75-34.647 75-76v-47.763c17.422-6.213 30-22.707 30-42.237v-60c0-19.53-12.578-36.024-30-42.237v-17.763c0-107.52-87.48-196-195-196s-195 88.48-195 196v17.763c-17.422 6.213-30 22.707-30 42.237v60c0 24.814 20.186 45 45 45z" fill="#fff"/></g></svg>