<svg width="20" height="18" viewBox="0 0 20 18" fill="none" xmlns="http://www.w3.org/2000/svg">
<path fill-rule="evenodd" clip-rule="evenodd" d="M14.8657 1.6875H3.78928C2.34109 1.68905 1.1675 2.82142 1.16589 4.21875V10.9688C1.16755 12.3662 2.34118 13.4985 3.78937 13.5H4.66374V15.75C4.66366 15.9683 4.79455 16.167 4.99949 16.2596C5.20443 16.3522 5.44639 16.322 5.62016 16.1821L8.95371 13.5H14.8658C16.314 13.4985 17.4876 12.3661 17.4891 10.9688V4.21875C17.4876 2.82133 16.3139 1.689 14.8657 1.6875ZM4.66417 7.59375C4.66417 8.21507 5.18619 8.71875 5.83012 8.71875C6.47406 8.71875 6.99608 8.21507 6.99608 7.59375C6.99608 6.97243 6.47406 6.46875 5.83012 6.46875C5.18619 6.46875 4.66417 6.97243 4.66417 7.59375ZM9.3284 8.71875C8.68446 8.71875 8.16245 8.21507 8.16245 7.59375C8.16245 6.97243 8.68446 6.46875 9.3284 6.46875C9.97234 6.46875 10.4944 6.97243 10.4944 7.59375C10.4944 8.21507 9.97234 8.71875 9.3284 8.71875ZM11.6592 7.59375C11.6592 8.21507 12.1812 8.71875 12.8252 8.71875C13.4691 8.71875 13.9911 8.21507 13.9911 7.59375C13.9911 6.97243 13.4691 6.46875 12.8252 6.46875C12.1812 6.46875 11.6592 6.97243 11.6592 7.59375Z" fill="#444547"/>
</svg>
