<svg width="18" height="18" viewBox="0 0 18 18" fill="none" xmlns="http://www.w3.org/2000/svg">
<g clip-path="url(#clip0)">
<path d="M9.00049 0C4.03803 0 0.000488281 4.03725 0.000488281 9C0.000488281 13.963 4.03803 18 9.00049 18C13.9631 18 18.0002 13.963 18.0002 9C18 4.03725 13.9629 0 9.00049 0ZM13.1511 7.6133L8.42576 12.3389C8.32289 12.442 8.14066 12.442 8.03765 12.3389L4.86752 9.16867C4.81601 9.11702 4.78756 9.04829 4.78756 8.97447C4.78771 8.90093 4.81616 8.83177 4.86752 8.77983L5.2727 8.37479C5.32421 8.32343 5.39308 8.29527 5.46705 8.29527C5.54059 8.29527 5.6096 8.32343 5.66096 8.37479L8.13234 10.8462C8.18705 10.9015 8.27606 10.9015 8.33092 10.8462L12.3577 6.81941C12.4607 6.7164 12.6432 6.7164 12.7459 6.81941L13.1511 7.22518C13.2026 7.27625 13.2317 7.3457 13.2317 7.4188C13.2317 7.49278 13.2026 7.56165 13.1511 7.6133Z" fill="#374673"/>
</g>
<defs>
<clipPath id="clip0">
<rect width="18" height="18" fill="white"/>
</clipPath>
</defs>
</svg>
