<svg width="25" height="25" viewBox="0 0 25 25" fill="none" xmlns="http://www.w3.org/2000/svg">
<path d="M12.5 25C19.4036 25 25 19.4036 25 12.5C25 5.59644 19.4036 0 12.5 0C5.59644 0 0 5.59644 0 12.5C0 19.4036 5.59644 25 12.5 25Z" fill="#FFC700"/>
<path d="M11.0303 15.1758V6.04492C11.0303 5.23438 11.6895 4.5752 12.5 4.5752C13.3105 4.5752 13.9697 5.23438 13.9697 6.04492V15.1758C13.9697 15.9863 13.3105 16.6455 12.5 16.6455C11.6895 16.6504 11.0303 15.9912 11.0303 15.1758Z" fill="white"/>
<path d="M11.0303 18.9893C11.0303 18.1982 11.6699 17.5537 12.4658 17.5537H12.5439C13.335 17.5537 13.9795 18.1934 13.9795 18.9893C13.9795 19.7803 13.3398 20.4248 12.5439 20.4248H12.4658C11.6699 20.4248 11.0303 19.7803 11.0303 18.9893Z" fill="white"/>
</svg>
