<svg width="12" height="12" viewBox="0 0 12 12" fill="none"
    xmlns="http://www.w3.org/2000/svg">
    <path d="M7.16465 6.00011L10.4234 2.74131C10.7454 2.41978 10.7458 1.89815 10.4243 1.57613C10.1028 1.25412 9.58121 1.25364 9.25914 1.57505L6.00035 4.83385L2.74155 1.57505C2.5332 1.3667 2.2295 1.28534 1.94489 1.36164C1.66028 1.43794 1.43801 1.66029 1.36181 1.94493C1.28561 2.22956 1.36707 2.53323 1.5755 2.74151L4.83429 6.00031L1.5755 9.25911C1.36707 9.46738 1.28562 9.77105 1.36184 10.0557C1.43806 10.3403 1.66037 10.5626 1.94499 10.6389C2.22961 10.7151 2.53328 10.6337 2.74157 10.4252L6.00036 7.16645L9.25916 10.4252C9.46753 10.6336 9.77124 10.715 10.0559 10.6387C10.3405 10.5624 10.5628 10.34 10.639 10.0553C10.7152 9.77069 10.6337 9.467 10.4253 9.2587L7.16465 6.00011Z" fill="#394978"/>
</svg>
