<svg width="9" height="9" viewBox="0 0 9 9" fill="none" xmlns="http://www.w3.org/2000/svg">
<path d="M5.37343 4.49996L7.81752 2.05586C8.05899 1.81471 8.05928 1.42349 7.81818 1.18198C7.57707 0.940466 7.18585 0.940104 6.94429 1.18117L4.5002 3.62526L2.0561 1.18117C1.89984 1.0249 1.67207 0.963884 1.45861 1.02111C1.24515 1.07833 1.07844 1.24509 1.0213 1.45857C0.964147 1.67205 1.02524 1.8998 1.18156 2.05601L3.62566 4.50011L1.18156 6.94421C1.02524 7.10041 0.964151 7.32816 1.02132 7.54163C1.07848 7.7551 1.24522 7.92184 1.45868 7.97902C1.67215 8.0362 1.8999 7.97512 2.05612 7.81881L4.50021 5.37471L6.94431 7.81881C7.10059 7.97508 7.32837 8.03611 7.54184 7.97888C7.75532 7.92165 7.92204 7.75487 7.97919 7.54139C8.03635 7.32789 7.97524 7.10012 7.81891 6.9439L5.37343 4.49996Z" fill="#C4CCD9"/>
</svg>
