<svg width="25" height="19" viewBox="0 0 25 19" fill="none" xmlns="http://www.w3.org/2000/svg">
<path d="M2.58623 0.0175781C1.15776 0.0175781 0 1.17534 0 2.60377C0 4.0322 1.15776 5.19 2.58623 5.19C4.01467 5.19 5.17243 4.03224 5.17243 2.60377C5.17243 1.1753 4.01467 0.0175781 2.58623 0.0175781ZM2.58623 6.91411C1.15776 6.91411 0 8.07191 0 9.50034C0 10.9288 1.15776 12.0866 2.58623 12.0866C4.01467 12.0866 5.17243 10.9288 5.17243 9.50034C5.17243 8.07191 4.01467 6.91411 2.58623 6.91411ZM2.58623 13.8107C1.15776 13.8107 0 14.9684 0 16.3969C0 17.8253 1.15776 18.9831 2.58623 18.9831C4.01467 18.9831 5.17243 17.8253 5.17243 16.3969C5.17243 14.9684 4.01467 13.8107 2.58623 13.8107ZM9.48276 4.32791H23.2759C24.2284 4.32791 25 3.55634 25 2.60377C25 1.6512 24.2284 0.879629 23.2759 0.879629H9.48276C8.53019 0.879629 7.75862 1.6512 7.75862 2.60377C7.75862 3.55634 8.53019 4.32791 9.48276 4.32791ZM23.2759 7.7762H9.48276C8.53019 7.7762 7.75862 8.54777 7.75862 9.50034C7.75862 10.4529 8.53019 11.2245 9.48276 11.2245H23.2759C24.2284 11.2245 25 10.4529 25 9.50034C25 8.54777 24.2284 7.7762 23.2759 7.7762ZM23.2759 14.6728H9.48276C8.53019 14.6728 7.75862 15.4443 7.75862 16.3969C7.75862 17.3494 8.53019 18.121 9.48276 18.121H23.2759C24.2284 18.121 25 17.3494 25 16.3969C25 15.4443 24.2284 14.6728 23.2759 14.6728Z" fill="white"/>
</svg>
