<svg width="18" height="17" viewBox="0 0 18 17" fill="none" xmlns="http://www.w3.org/2000/svg">
<g clip-path="url(#clip0)">
<path fill-rule="evenodd" clip-rule="evenodd" d="M9 15.9386L1.19981 12.3425C1.22681 12.3594 0.509625 12.0348 0 11.7434C0 12.1783 0.109121 12.9748 0.514684 13.1902L8.15175 16.6231C8.82619 16.9415 9.11756 16.9415 9.84881 16.6231L17.4853 13.1902C17.8622 13.0147 18 12.1884 18 11.7434C17.5089 11.9887 16.8137 12.3397 16.8002 12.3425L9 15.9386ZM0.514684 5.99807L8.15175 9.43157C8.82619 9.74938 9.11756 9.74938 9.84881 9.43157L17.4853 5.99807C18.0478 5.73594 18.0664 4.62163 17.4853 4.3027L9.84881 0.270697C9.24863 -0.084803 8.82619 -0.0662405 8.15175 0.270697L0.514684 4.3027C-0.0663788 4.67732 -0.0849413 5.68025 0.514684 5.99807ZM0.514684 9.5947L8.15175 13.0271C8.82619 13.3454 9.11756 13.3454 9.84881 13.0271L17.4853 9.5947C17.8622 9.41864 18 8.59232 18 8.14738C17.5089 8.39319 16.8137 8.74364 16.8002 8.74701L9 12.3425L1.19981 8.74701C1.22681 8.76332 0.509625 8.43875 0 8.14738C0 8.58275 0.109121 9.37926 0.514684 9.5947Z" fill="#374673"/>
</g>
<defs>
<clipPath id="clip0">
<rect width="18" height="16.875" fill="white"/>
</clipPath>
</defs>
</svg>
