<svg width="23" height="23" viewBox="0 0 23 23" fill="none" xmlns="http://www.w3.org/2000/svg">
<g clip-path="url(#clip0_1275_54)">
<path d="M19.5774 22.2496H4.20034C4.00833 22.2496 3.85312 22.0944 3.85312 21.9023V18.9773C3.85312 18.7853 4.00833 18.6301 4.20034 18.6301H19.5771C19.7691 18.6301 19.9243 18.7853 19.9243 18.9773V21.9023C19.9247 22.0944 19.7691 22.2496 19.5774 22.2496ZM11.8889 16.6728C11.7965 16.6728 11.7083 16.6364 11.6434 16.5711L5.01319 9.94054C4.87742 9.80477 4.87742 9.58533 5.01319 9.44956L7.08124 7.38116C7.21701 7.2454 7.43645 7.2454 7.57222 7.38116L10.0792 9.88706V0.374566C10.0792 0.182552 10.2344 0.0273438 10.4264 0.0273438H13.3514C13.5434 0.0273438 13.6986 0.182552 13.6986 0.374566V9.88706L16.2045 7.38116C16.3403 7.2454 16.5597 7.2454 16.6955 7.38116L18.7646 9.44956C18.8299 9.51484 18.8663 9.60269 18.8663 9.69505C18.8663 9.78741 18.8299 9.87561 18.7646 9.94054L12.1344 16.5711C12.0694 16.636 11.9812 16.6728 11.8889 16.6728Z" fill="white"/>
</g>
<defs>
<clipPath id="clip0_1275_54">
<rect width="22.2222" height="22.2222" fill="white" transform="translate(0.777771 -0.000976562)"/>
</clipPath>
</defs>
</svg>
