<?xml version="1.0"?>
<svg xmlns="http://www.w3.org/2000/svg" xmlns:xlink="http://www.w3.org/1999/xlink" version="1.1" id="Capa_1" x="0px" y="0px" width="512px" height="512px" viewBox="0 0 297.679 297.68" style="enable-background:new 0 0 297.679 297.68;" xml:space="preserve"><g><g>
	<g>
		<g>
			<polygon points="297.679,297.674 256.693,297.674 256.693,285.963 285.969,285.963 285.969,256.688      297.679,256.688    " data-original="#030303" class="active-path" data-old_color="#cccccc" fill="#cccccc"/>
		</g>
		<g>
			<rect x="112.888" y="285.963" width="71.907" height="11.711" data-original="#030303" class="active-path" data-old_color="#cccccc" fill="#cccccc"/>
		</g>
		<g>
			<polygon points="40.987,297.674 0,297.674 0,256.688 11.71,256.688 11.71,285.963 40.987,285.963    " data-original="#030303" class="active-path" data-old_color="#cccccc" fill="#cccccc"/>
		</g>
		<g>
			<rect y="112.888" width="11.71" height="71.901" data-original="#030303" class="active-path" data-old_color="#cccccc" fill="#cccccc"/>
		</g>
		<g>
			<polygon points="11.71,40.992 0,40.992 0,0.005 40.987,0.005 40.987,11.716 11.71,11.716    " data-original="#030303" class="active-path" data-old_color="#cccccc" fill="#cccccc"/>
		</g>
		<g>
			<rect x="112.888" y="0.005" width="71.907" height="11.71" data-original="#030303" class="active-path" data-old_color="#cccccc" fill="#cccccc"/>
		</g>
		<g>
			<polygon points="297.679,40.992 285.969,40.992 285.969,11.716 256.693,11.716 256.693,0.005      297.679,0.005    " data-original="#030303" class="active-path" data-old_color="#cccccc" fill="#cccccc"/>
		</g>
		<g>
			<rect x="285.969" y="112.888" width="11.71" height="71.901" data-original="#030303" class="active-path" data-old_color="#cccccc" fill="#cccccc"/>
		</g>
	</g>
</g></g> </svg>
