<svg width="40" height="40" viewBox="0 0 40 40" fill="none" xmlns="http://www.w3.org/2000/svg">
<g clip-path="url(#clip0)">
<path d="M40.0002 20C40.0002 31.0455 31.0457 40 20.0002 40C8.95468 40 0.000183105 31.0455 0.000183105 20C0.000183105 8.9545 8.95468 0 20.0002 0C31.0457 0 40.0002 8.9545 40.0002 20Z" fill="#C4CCD9"/>
<path d="M20 20C22.7625 20 25 17.7625 25 15C25 12.2375 22.7625 10 20 10C17.2375 10 15 12.2375 15 15C15 17.7625 17.2375 20 20 20ZM20 22.5C16.6625 22.5 10 24.175 10 27.5V30H30V27.5C30 24.175 23.3375 22.5 20 22.5Z" fill="#919DC0"/>
</g>
<defs>
<clipPath id="clip0">
<rect width="40" height="40" fill="white" transform="translate(0.000183105)"/>
</clipPath>
</defs>
</svg>
