<svg width="15" height="15" viewBox="0 0 15 15" fill="none" xmlns="http://www.w3.org/2000/svg">
<g clip-path="url(#clip0)">
<path d="M12.8032 2.1968C9.87413 -0.732275 5.12522 -0.732275 2.19677 2.19686C-0.732275 5.1259 -0.732275 9.87477 2.19688 12.8032C5.12522 15.7323 9.87413 15.7323 12.8032 12.8032C15.7323 9.87478 15.7323 5.1259 12.8032 2.1968ZM11.9194 11.9193C9.47842 14.3602 5.52105 14.3602 3.08077 11.9194C0.639814 9.47897 0.639814 5.52161 3.08071 3.08071C5.52105 0.639785 9.47842 0.639785 11.9193 3.08071C14.3602 5.52164 14.3602 9.47897 11.9194 11.9193Z" fill="#2B375A"/>
<path d="M10.5934 4.40669C10.3493 4.16261 9.95359 4.16261 9.70952 4.40669L7.4998 6.6164L5.29009 4.40669C5.04601 4.16261 4.65027 4.16261 4.4062 4.40669C4.16213 4.65076 4.16213 5.0465 4.4062 5.29057L6.61592 7.50029L4.40702 9.70919C4.16295 9.95326 4.16295 10.349 4.40702 10.5931C4.65109 10.8371 5.04683 10.8371 5.29091 10.5931L7.4998 8.38418L9.70934 10.5937C9.95342 10.8378 10.3492 10.8378 10.5932 10.5937C10.8373 10.3496 10.8373 9.9539 10.5932 9.70983L8.38369 7.50029L10.5934 5.29057C10.8375 5.0465 10.8375 4.65079 10.5934 4.40669Z" fill="#2B375A"/>
</g>
<defs>
<clipPath id="clip0">
<rect width="15" height="15" fill="white"/>
</clipPath>
</defs>
</svg>
