<svg width="25" height="25" viewBox="0 0 25 25" fill="none" xmlns="http://www.w3.org/2000/svg">
<g clip-path="url(#clip0)">
<path d="M21.3387 3.66133C16.4569 -1.22046 8.54204 -1.22046 3.66128 3.66143C-1.22046 8.54316 -1.22046 16.458 3.66147 21.3387C8.54204 26.2205 16.4569 26.2205 21.3387 21.3386C26.2205 16.458 26.2205 8.54316 21.3387 3.66133ZM19.8656 19.8654C15.7974 23.9337 9.20176 23.9337 5.13462 19.8656C1.06636 15.7983 1.06636 9.20269 5.13452 5.13452C9.20176 1.06631 15.7974 1.06631 19.8655 5.13452C23.9337 9.20273 23.9337 15.7983 19.8656 19.8654Z" fill="#444547"/>
<path d="M17.6558 7.34415C17.249 6.93737 16.5894 6.93737 16.1827 7.34415L12.4998 11.027L8.81693 7.34415C8.41014 6.93737 7.75057 6.93737 7.34379 7.34415C6.937 7.75094 6.937 8.41051 7.34379 8.8173L11.0266 12.5002L7.34515 16.1817C6.93837 16.5884 6.93837 17.248 7.34515 17.6548C7.75194 18.0616 8.41151 18.0616 8.8183 17.6548L12.4998 13.9733L16.1824 17.6559C16.5891 18.0627 17.2487 18.0627 17.6555 17.6559C18.0623 17.2491 18.0623 16.5895 17.6555 16.1827L13.9729 12.5002L17.6558 8.8173C18.0626 8.41051 18.0626 7.75099 17.6558 7.34415Z" fill="#444547"/>
</g>
<defs>
<clipPath id="clip0">
<rect width="25" height="25" fill="white"/>
</clipPath>
</defs>
</svg>
