<svg width="25" height="25" viewBox="0 0 25 25" fill="none" xmlns="http://www.w3.org/2000/svg">
<path d="M24.8411 12.014C24.6178 11.7085 19.2963 4.5332 12.4999 4.5332C5.70343 4.5332 0.381739 11.7085 0.158643 12.0137C-0.052881 12.3035 -0.052881 12.6966 0.158643 12.9865C0.381739 13.292 5.70343 20.4673 12.4999 20.4673C19.2963 20.4673 24.6178 13.292 24.8411 12.9867C25.0529 12.6969 25.0529 12.3035 24.8411 12.014ZM12.4999 18.8189C7.49357 18.8189 3.15757 14.0566 1.87403 12.4997C3.15591 10.9414 7.48283 6.18155 12.4999 6.18155C17.5059 6.18155 21.8416 10.9431 23.1257 12.5008C21.8438 14.059 17.5169 18.8189 12.4999 18.8189Z" fill="#2D2E2F"/>
<path d="M12.4999 7.55469C9.77322 7.55469 7.55481 9.7731 7.55481 12.4998C7.55481 15.2264 9.77322 17.4448 12.4999 17.4448C15.2265 17.4448 17.445 15.2264 17.445 12.4998C17.445 9.7731 15.2265 7.55469 12.4999 7.55469ZM12.4999 15.7965C10.682 15.7965 9.2032 14.3176 9.2032 12.4998C9.2032 10.6819 10.6821 9.20308 12.4999 9.20308C14.3177 9.20308 15.7966 10.6819 15.7966 12.4998C15.7966 14.3176 14.3178 15.7965 12.4999 15.7965Z" fill="#2D2E2F"/>
</svg>
