<svg width="70" height="70" viewBox="0 0 70 70" fill="none" xmlns="http://www.w3.org/2000/svg">
<g clip-path="url(#clip0)">
<path d="M18.2591 23.415H33.4775C35.5781 23.415 37.2811 21.6811 37.2811 19.5798C37.2811 17.4786 35.5781 15.7456 33.4775 15.7456H18.2591C16.1587 15.7456 14.4541 17.4787 14.4541 19.5798C14.454 21.681 16.1585 23.415 18.2591 23.415ZM18.2591 40.1406H50.2151C52.3171 40.1406 54.0202 38.4067 54.0202 36.3055C54.0202 34.2041 52.3171 32.4711 50.2151 32.4711H18.2591C16.1587 32.4711 14.4541 34.2042 14.4541 36.3055C14.454 38.4068 16.1585 40.1406 18.2591 40.1406ZM51.7373 47.7272H18.2591C16.1587 47.7272 14.4541 49.4199 14.4541 51.5209C14.4541 53.6222 16.1587 55.3156 18.2591 55.3156H51.7375C53.8379 55.3156 55.5426 53.6224 55.5426 51.5209C55.5425 49.4199 53.8379 47.7272 51.7373 47.7272Z" fill="#E3E7ED"/>
<path d="M50.9263 0H12.3404C7.63199 0 3.83301 3.81633 3.83301 8.52313V61.4496C3.83301 66.1573 7.63199 70 12.3404 70H57.657C62.3654 70 66.1642 66.1572 66.1642 61.4496V15.6123L50.9263 0ZM57.657 63.8814H12.3404C10.9897 63.8814 9.8693 62.8012 9.8693 61.4498V8.52313C9.8693 7.17186 10.9897 6.03629 12.3404 6.03629H47.9706V12.8875C47.9706 15.8997 50.4113 18.3504 53.4227 18.3812L60.1279 18.4497V61.4498C60.1279 62.8012 59.0077 63.8814 57.657 63.8814Z" fill="#E3E7ED"/>
</g>
<defs>
<clipPath id="clip0">
<rect width="70" height="70" fill="white" transform="translate(-0.000976562)"/>
</clipPath>
</defs>
</svg>
