<?xml version="1.0"?>
<svg xmlns="http://www.w3.org/2000/svg" xmlns:xlink="http://www.w3.org/1999/xlink" version="1.1" id="Capa_1" x="0px" y="0px" viewBox="0 0 489.2 489.2" style="enable-background:new 0 0 489.2 489.2;" xml:space="preserve" width="512px" height="512px"><g><g>
	<path d="M133.457,68.928V38.156c-20.992,3.647-37.131,20.897-39.354,42.323l30.371-2.088   C126.192,74.215,129.44,70.945,133.457,68.928z" data-original="#000000" class="active-path" data-old_color="#000000" fill="#AAAAAA"/>
	<path d="M323.166,37.32h-98.93C224.237,16.745,207.5,0,186.916,0c-20.582,0-37.32,16.745-37.32,37.32v127.091   c0,20.575,16.738,37.321,37.32,37.321c20.584,0,37.32-16.746,37.32-37.321V112.97c0-8.912-7.219-16.139-16.139-16.139   c-8.92,0-16.139,7.227-16.139,16.139v51.441c0,2.782-2.268,5.044-5.043,5.044c-2.773,0-5.043-2.262-5.043-5.044V37.32   c0-2.782,2.27-5.043,5.043-5.043c2.775,0,5.043,2.261,5.043,5.043h-5.043v29.385l125.232-0.079v63.002   c0,18.416,14.957,33.365,33.35,33.365l61.748-0.173l0.678,278.287c0,10.275-8.322,18.621-18.613,18.621H141.686   c-10.277,0-18.629-8.346-18.629-18.621V311.187L93.6,313.212v127.896c0,26.509,21.56,48.093,48.086,48.093h247.625   c26.508,0,48.102-21.584,48.102-48.093V151.148L323.166,37.32z" data-original="#000000" class="active-path" data-old_color="#000000" fill="#AAAAAA"/>
	<path d="M287.088,270.777l-11.93-173.615c-0.236-3.42-1.811-6.612-4.397-8.865c-2.365-2.049-5.375-3.176-8.48-3.176   c-0.299,0-0.598,0.008-0.897,0.032l-33.666,2.315c7.66,5.902,12.656,15.084,12.656,25.501v51.441   c0,29.48-23.986,53.459-53.459,53.459s-53.459-23.979-53.459-53.459V93.947l-69.629,4.792c-7.125,0.495-12.498,6.658-12.01,13.782   l11.916,173.615c0.234,3.42,1.812,6.61,4.396,8.865c2.363,2.05,5.375,3.176,8.494,3.176c0.285,0,0.584-0.008,0.883-0.032   L275.08,284.56C282.203,284.065,287.578,277.901,287.088,270.777z" data-original="#000000" class="active-path" data-old_color="#000000" fill="#AAAAAA"/>
</g></g> </svg>
