<svg width="12" height="12" viewBox="0 0 12 12" fill="none" xmlns="http://www.w3.org/2000/svg">
<g clip-path="url(#clip0)">
<path d="M3.13031 4.01396H5.73919C6.09929 4.01396 6.39123 3.71674 6.39123 3.35652C6.39123 2.9963 6.09929 2.69922 5.73919 2.69922H3.13031C2.77024 2.69922 2.47803 2.99632 2.47803 3.35652C2.478 3.71671 2.77021 4.01396 3.13031 4.01396ZM3.13031 6.88122H8.60848C8.96883 6.88122 9.26079 6.58397 9.26079 6.22377C9.26079 5.86352 8.96883 5.56645 8.60848 5.56645H3.13031C2.77024 5.56645 2.47803 5.86355 2.47803 6.22377C2.478 6.58399 2.77021 6.88122 3.13031 6.88122ZM8.86944 8.18178H3.13031C2.77024 8.18178 2.47803 8.47196 2.47803 8.83213C2.47803 9.19235 2.77024 9.48265 3.13031 9.48265H8.86946C9.22954 9.48265 9.52177 9.19237 9.52177 8.83213C9.52175 8.47196 9.22954 8.18178 8.86944 8.18178Z" fill="#171718"/>
<path d="M8.73049 0H2.11575C1.3086 0 0.657349 0.654227 0.657349 1.46111V10.5342C0.657349 11.3413 1.3086 12 2.11575 12H9.88432C10.6915 12 11.3427 11.3412 11.3427 10.5342V2.67639L8.73049 0ZM9.88432 10.9511H2.11575C1.88421 10.9511 1.69214 10.7659 1.69214 10.5342V1.46111C1.69214 1.22946 1.88421 1.03479 2.11575 1.03479H8.2238V2.20929C8.2238 2.72566 8.64221 3.14578 9.15845 3.15106L10.3079 3.16281V10.5342C10.3079 10.7659 10.1159 10.9511 9.88432 10.9511Z" fill="#171718"/>
</g>
<defs>
<clipPath id="clip0">
<rect width="12" height="12" fill="white"/>
</clipPath>
</defs>
</svg>
