<svg width="19" height="19" viewBox="0 0 19 19" fill="none" xmlns="http://www.w3.org/2000/svg">
<path d="M16.625 4.15625H8.3125C8.3125 3.50134 7.77991 2.96875 7.125 2.96875H5.9375C5.28259 2.96875 4.75 3.50134 4.75 4.15625H2.375C2.04725 4.15625 1.78125 4.42166 1.78125 4.75C1.78125 5.07834 2.04725 5.34375 2.375 5.34375H4.75C4.75 5.99866 5.28259 6.53125 5.9375 6.53125H7.125C7.77991 6.53125 8.3125 5.99866 8.3125 5.34375H16.625C16.9528 5.34375 17.2188 5.07834 17.2188 4.75C17.2188 4.42166 16.9528 4.15625 16.625 4.15625ZM5.9375 5.34375V4.15625H7.125L7.12559 4.74762C7.12559 4.74881 7.125 4.74941 7.125 4.75C7.125 4.75059 7.12559 4.75119 7.12559 4.75237V5.34375H5.9375Z" fill="#2D2E2F"/>
<path d="M16.625 8.90625H13.0625C13.0625 8.25134 12.5299 7.71875 11.875 7.71875H10.6875C10.0326 7.71875 9.5 8.25134 9.5 8.90625H2.375C2.04725 8.90625 1.78125 9.17166 1.78125 9.5C1.78125 9.82834 2.04725 10.0938 2.375 10.0938H9.5C9.5 10.7487 10.0326 11.2812 10.6875 11.2812H11.875C12.5299 11.2812 13.0625 10.7487 13.0625 10.0938H16.625C16.9528 10.0938 17.2188 9.82834 17.2188 9.5C17.2188 9.17166 16.9528 8.90625 16.625 8.90625ZM10.6875 10.0938V8.90625H11.875L11.8756 9.49763C11.8756 9.49881 11.875 9.49941 11.875 9.5C11.875 9.50059 11.8756 9.50119 11.8756 9.50237V10.0938H10.6875Z" fill="#2D2E2F"/>
<path d="M16.625 13.6562H8.3125C8.3125 13.0013 7.77991 12.4688 7.125 12.4688H5.9375C5.28259 12.4688 4.75 13.0013 4.75 13.6562H2.375C2.04725 13.6562 1.78125 13.9217 1.78125 14.25C1.78125 14.5783 2.04725 14.8438 2.375 14.8438H4.75C4.75 15.4987 5.28259 16.0312 5.9375 16.0312H7.125C7.77991 16.0312 8.3125 15.4987 8.3125 14.8438H16.625C16.9528 14.8438 17.2188 14.5783 17.2188 14.25C17.2188 13.9217 16.9528 13.6562 16.625 13.6562ZM5.9375 14.8438V13.6562H7.125L7.12559 14.2476C7.12559 14.2488 7.125 14.2494 7.125 14.25C7.125 14.2506 7.12559 14.2512 7.12559 14.2524V14.8438H5.9375Z" fill="#2D2E2F"/>
</svg>
