<svg width="23" height="19" viewBox="0 0 23 19" fill="none" xmlns="http://www.w3.org/2000/svg">
<path d="M22.2605 7.13541C22.0645 6.89698 21.8179 6.70507 21.5387 6.57356C21.2595 6.44205 20.9545 6.37423 20.6459 6.375H8.00003C7.27815 6.37534 6.57866 6.62558 6.02039 7.08321C5.46211 7.54084 5.07949 8.17764 4.93752 8.88541L3.35419 16.7917H3.16669C2.89042 16.7917 2.62547 16.6819 2.43012 16.4866C2.23477 16.2912 2.12502 16.0263 2.12502 15.75V3.25C2.12502 2.97373 2.23477 2.70878 2.43012 2.51343C2.62547 2.31808 2.89042 2.20833 3.16669 2.20833H7.02086L9.88544 4.11458C10.0549 4.22849 10.2542 4.29007 10.4584 4.29167H16.7084C16.9846 4.29167 17.2496 4.40141 17.4449 4.59676C17.6403 4.79211 17.75 5.05706 17.75 5.33333H19.8334C19.8334 4.50453 19.5041 3.70967 18.9181 3.12362C18.332 2.53757 17.5372 2.20833 16.7084 2.20833H10.7709L7.90628 0.302083C7.73679 0.188175 7.53756 0.126595 7.33336 0.125H3.16669C2.33789 0.125 1.54303 0.45424 0.956979 1.04029C0.370927 1.62634 0.041687 2.4212 0.041687 3.25V15.75C0.041687 16.5788 0.370927 17.3737 0.956979 17.9597C1.54303 18.5458 2.33789 18.875 3.16669 18.875H18.125C18.8469 18.8747 19.5464 18.6244 20.1047 18.1668C20.6629 17.7091 21.0456 17.0723 21.1875 16.3646L22.6875 8.86458C22.7486 8.56271 22.7419 8.25105 22.6681 7.95206C22.5942 7.65306 22.455 7.37415 22.2605 7.13541ZM19.1354 15.9583C19.0868 16.1972 18.9558 16.4113 18.7655 16.5636C18.5752 16.7159 18.3375 16.7966 18.0938 16.7917H5.47919L6.97919 9.29166C7.02789 9.05283 7.1588 8.83865 7.34913 8.68638C7.53946 8.53411 7.77716 8.45342 8.02086 8.45833H20.6459L19.1354 15.9583Z" fill="#888B8E"/>
</svg>
