<svg width="71" height="70" viewBox="0 0 71 70" fill="none" xmlns="http://www.w3.org/2000/svg">
<path d="M49.0837 35.0007C53.1087 35.0007 56.3462 31.734 56.3462 27.709C56.3462 23.684 53.1087 20.4173 49.0837 20.4173C45.0587 20.4173 41.792 23.684 41.792 27.709C41.792 31.734 45.0587 35.0007 49.0837 35.0007ZM27.2087 32.084C32.0503 32.084 35.9295 28.1757 35.9295 23.334C35.9295 18.4923 32.0503 14.584 27.2087 14.584C22.367 14.584 18.4587 18.4923 18.4587 23.334C18.4587 28.1757 22.367 32.084 27.2087 32.084ZM49.0837 40.834C43.7462 40.834 33.042 43.5173 33.042 48.8548V55.4173H65.1253V48.8548C65.1253 43.5173 54.4212 40.834 49.0837 40.834ZM27.2087 37.9173C20.4128 37.9173 6.79199 41.3298 6.79199 48.1257V55.4173H27.2087V48.8548C27.2087 46.3757 28.1712 42.0298 34.1212 38.734C31.5837 38.209 29.1337 37.9173 27.2087 37.9173Z" fill="#A3ADCB"/>
</svg>
