<svg width="512" height="470" viewBox="0 0 512 470" fill="none" xmlns="http://www.w3.org/2000/svg">
<g clip-path="url(#clip0)">
<path d="M512 180.564C512 196.171 509.464 211.137 504.877 225.178C480.019 336.777 256.039 477.445 256.039 477.445C256.039 477.445 31.9501 336.777 7.15394 225.178C2.53597 211.152 0 196.171 0 180.564C0 126.025 30.1812 78.5617 74.7642 53.8594C95.5216 42.4476 119.3 35.8885 144.566 35.8885C189.415 35.8885 229.443 56.2858 256.039 88.2516C282.526 56.2858 322.585 35.8885 367.34 35.8885C392.684 35.8885 416.463 42.4476 437.189 53.8594C481.788 78.593 512 126.025 512 180.564Z" fill="#727477"/>
</g>
<defs>
<clipPath id="clip0">
<rect width="512" height="512" fill="white" transform="translate(0 0.666656)"/>
</clipPath>
</defs>
</svg>
