<svg width="24" height="24" viewBox="0 0 24 24" fill="none" xmlns="http://www.w3.org/2000/svg">
<path d="M12 3C7.03125 3 3 7.03125 3 12C3 16.9688 7.03125 21 12 21C16.9688 21 21 16.9688 21 12C21 7.03125 16.9688 3 12 3ZM12.4894 17.1562H11.0733C11.0414 17.1561 11.0109 17.1434 10.9884 17.1208C10.9659 17.0982 10.9533 17.0676 10.9533 17.0358V15.6202C10.9533 15.5883 10.9659 15.5577 10.9884 15.5351C11.0109 15.5126 11.0414 15.4998 11.0733 15.4997H12.4894C12.5212 15.4998 12.5518 15.5126 12.5743 15.5351C12.5967 15.5577 12.6094 15.5883 12.6094 15.6202V17.0358C12.6094 17.0676 12.5967 17.0982 12.5743 17.1208C12.5518 17.1434 12.5212 17.1561 12.4894 17.1562ZM13.2863 12.5156C12.5264 13.0256 12.4219 13.493 12.4219 13.9219V14.4375C12.4219 14.4748 12.4071 14.5106 12.3807 14.5369C12.3543 14.5633 12.3185 14.5781 12.2812 14.5781H11.25C11.2127 14.5781 11.1769 14.5633 11.1506 14.5369C11.1242 14.5106 11.1094 14.4748 11.1094 14.4375V13.9219C11.1094 12.8948 11.5819 12.0783 12.5541 11.4253C13.4578 10.8188 13.9688 10.4344 13.9688 9.58922C13.9688 9.01453 13.6406 8.57812 12.9614 8.25516C12.8016 8.17922 12.4458 8.10516 12.008 8.11031C11.4586 8.11734 11.032 8.24859 10.7034 8.51297C10.0837 9.01172 10.0312 9.555 10.0312 9.5625C10.0055 9.72185 9.99235 9.88297 9.99188 10.0444C9.99188 10.0817 9.97706 10.1174 9.95069 10.1438C9.92431 10.1702 9.88855 10.185 9.85125 10.185H8.85516C8.82025 10.1852 8.78652 10.1724 8.76052 10.1491C8.73453 10.1258 8.71814 10.0936 8.71453 10.0589C8.69765 9.87171 8.69907 9.68332 8.71875 9.49641C8.72906 9.3825 8.80313 8.35641 9.87984 7.49016C10.4381 7.04109 11.1483 6.80766 11.9892 6.79734C12.5845 6.79031 13.1437 6.89109 13.523 7.07016C14.6578 7.60969 15.2812 8.50453 15.2812 9.58922C15.2812 11.175 14.2214 11.887 13.2863 12.5156Z" fill="white"/>
</svg>
