<svg width="20" height="20" viewBox="0 0 20 20" fill="none" xmlns="http://www.w3.org/2000/svg">
<path d="M10 2.5C5.85938 2.5 2.5 5.85938 2.5 10C2.5 14.1406 5.85938 17.5 10 17.5C14.1406 17.5 17.5 14.1406 17.5 10C17.5 5.85938 14.1406 2.5 10 2.5ZM10.4078 14.2969H9.22773C9.20118 14.2968 9.17574 14.2861 9.157 14.2673C9.13826 14.2485 9.12773 14.223 9.12773 14.1965V13.0168C9.12773 12.9902 9.13826 12.9648 9.157 12.9459C9.17574 12.9271 9.20118 12.9165 9.22773 12.9164H10.4078C10.4344 12.9165 10.4598 12.9271 10.4785 12.9459C10.4973 12.9648 10.5078 12.9902 10.5078 13.0168V14.1965C10.5078 14.223 10.4973 14.2485 10.4785 14.2673C10.4598 14.2861 10.4344 14.2968 10.4078 14.2969ZM11.0719 10.4297C10.4387 10.8547 10.3516 11.2441 10.3516 11.6016V12.0312C10.3516 12.0623 10.3392 12.0921 10.3172 12.1141C10.2953 12.1361 10.2655 12.1484 10.2344 12.1484H9.375C9.34392 12.1484 9.31411 12.1361 9.29214 12.1141C9.27016 12.0921 9.25781 12.0623 9.25781 12.0312V11.6016C9.25781 10.7457 9.65156 10.0652 10.4617 9.52109C11.2148 9.01562 11.6406 8.69531 11.6406 7.99102C11.6406 7.51211 11.3672 7.14844 10.8012 6.8793C10.668 6.81602 10.3715 6.7543 10.0066 6.75859C9.54883 6.76445 9.19336 6.87383 8.91953 7.09414C8.40312 7.50977 8.35938 7.9625 8.35938 7.96875C8.33793 8.10154 8.32696 8.23581 8.32656 8.37031C8.32656 8.40139 8.31422 8.4312 8.29224 8.45318C8.27026 8.47515 8.24046 8.4875 8.20938 8.4875H7.3793C7.35021 8.48766 7.3221 8.47698 7.30044 8.45756C7.27878 8.43814 7.26512 8.41136 7.26211 8.38242C7.24804 8.22643 7.24922 8.06944 7.26562 7.91367C7.27422 7.81875 7.33594 6.96367 8.2332 6.2418C8.69844 5.86758 9.29023 5.67305 9.99102 5.66445C10.4871 5.65859 10.9531 5.74258 11.2691 5.8918C12.2148 6.34141 12.7344 7.08711 12.7344 7.99102C12.7344 9.3125 11.8512 9.90586 11.0719 10.4297Z" fill="#6F6F6F"/>
</svg>
