<svg width="15" height="15" viewBox="0 0 15 15" fill="none" xmlns="http://www.w3.org/2000/svg">
<path fill-rule="evenodd" clip-rule="evenodd" d="M2.5 9.74112L5 7.24112L7.1875 9.42862L11.25 5.36612L12.5 6.61612V2.5H2.5V9.74112ZM2.5 11.5089V12.5H8.49112L5 9.00888L2.5 11.5089ZM10.2589 12.5H12.5V8.38388L11.25 7.13388L8.07138 10.3125L10.2589 12.5ZM2.5 1.25H12.5C13.1904 1.25 13.75 1.80964 13.75 2.5V12.5C13.75 13.1904 13.1904 13.75 12.5 13.75H2.5C1.80964 13.75 1.25 13.1904 1.25 12.5V2.5C1.25 1.80964 1.80964 1.25 2.5 1.25ZM6.875 3.125C7.91053 3.125 8.75 3.96447 8.75 5C8.75 6.03553 7.91053 6.875 6.875 6.875C5.83947 6.875 5 6.03553 5 5C5 3.96447 5.83947 3.125 6.875 3.125ZM6.875 4.375C6.52982 4.375 6.25 4.65482 6.25 5C6.25 5.34518 6.52982 5.625 6.875 5.625C7.22018 5.625 7.5 5.34518 7.5 5C7.5 4.65482 7.22018 4.375 6.875 4.375Z" fill="#171718"/>
</svg>
