<svg width="15" height="16" viewBox="0 0 15 16" fill="none" xmlns="http://www.w3.org/2000/svg">
<path d="M7.5 0.5C3.35938 0.5 0 3.85938 0 8C0 12.1406 3.35938 15.5 7.5 15.5C11.6406 15.5 15 12.1406 15 8C15 3.85938 11.6406 0.5 7.5 0.5ZM7.90781 12.2969H6.72773C6.70118 12.2968 6.67574 12.2861 6.657 12.2673C6.63826 12.2485 6.62773 12.223 6.62773 12.1965V11.0168C6.62773 10.9902 6.63826 10.9648 6.657 10.9459C6.67574 10.9271 6.70118 10.9165 6.72773 10.9164H7.90781C7.93437 10.9165 7.9598 10.9271 7.97855 10.9459C7.99729 10.9648 8.00781 10.9902 8.00781 11.0168V12.1965C8.00781 12.223 7.99729 12.2485 7.97855 12.2673C7.9598 12.2861 7.93437 12.2968 7.90781 12.2969ZM8.57187 8.42969C7.93867 8.85469 7.85156 9.24414 7.85156 9.60156V10.0312C7.85156 10.0623 7.83922 10.0921 7.81724 10.1141C7.79526 10.1361 7.76546 10.1484 7.73438 10.1484H6.875C6.84392 10.1484 6.81411 10.1361 6.79214 10.1141C6.77016 10.0921 6.75781 10.0623 6.75781 10.0312V9.60156C6.75781 8.7457 7.15156 8.06523 7.96172 7.52109C8.71484 7.01562 9.14062 6.69531 9.14062 5.99102C9.14062 5.51211 8.86719 5.14844 8.30117 4.8793C8.16797 4.81602 7.87148 4.7543 7.50664 4.75859C7.04883 4.76445 6.69336 4.87383 6.41953 5.09414C5.90312 5.50977 5.85938 5.9625 5.85938 5.96875C5.83793 6.10154 5.82696 6.23581 5.82656 6.37031C5.82656 6.40139 5.81422 6.4312 5.79224 6.45318C5.77026 6.47515 5.74046 6.4875 5.70938 6.4875H4.8793C4.85021 6.48766 4.8221 6.47698 4.80044 6.45756C4.77878 6.43814 4.76512 6.41136 4.76211 6.38242C4.74804 6.22643 4.74922 6.06944 4.76562 5.91367C4.77422 5.81875 4.83594 4.96367 5.7332 4.2418C6.19844 3.86758 6.79023 3.67305 7.49102 3.66445C7.98711 3.65859 8.45312 3.74258 8.76914 3.8918C9.71484 4.34141 10.2344 5.08711 10.2344 5.99102C10.2344 7.3125 9.35117 7.90586 8.57187 8.42969Z" fill="#00938F"/>
</svg>
