<svg width="24" height="24" viewBox="0 0 24 24" fill="none" xmlns="http://www.w3.org/2000/svg">
<path d="M12 0.75C5.78906 0.75 0.75 5.78906 0.75 12C0.75 18.2109 5.78906 23.25 12 23.25C18.2109 23.25 23.25 18.2109 23.25 12C23.25 5.78906 18.2109 0.75 12 0.75ZM12.6117 18.4453H10.8416C10.8018 18.4452 10.7636 18.4292 10.7355 18.401C10.7074 18.3728 10.6916 18.3346 10.6916 18.2947V16.5252C10.6916 16.4854 10.7074 16.4471 10.7355 16.4189C10.7636 16.3907 10.8018 16.3748 10.8416 16.3746H12.6117C12.6516 16.3748 12.6897 16.3907 12.7178 16.4189C12.7459 16.4471 12.7617 16.4854 12.7617 16.5252V18.2947C12.7617 18.3346 12.7459 18.3728 12.7178 18.401C12.6897 18.4292 12.6516 18.4452 12.6117 18.4453ZM13.6078 12.6445C12.658 13.282 12.5273 13.8662 12.5273 14.4023V15.0469C12.5273 15.0935 12.5088 15.1382 12.4759 15.1712C12.4429 15.2041 12.3982 15.2227 12.3516 15.2227H11.0625C11.0159 15.2227 10.9712 15.2041 10.9382 15.1712C10.9052 15.1382 10.8867 15.0935 10.8867 15.0469V14.4023C10.8867 13.1186 11.4773 12.0979 12.6926 11.2816C13.8223 10.5234 14.4609 10.043 14.4609 8.98652C14.4609 8.26816 14.0508 7.72266 13.2018 7.31895C13.002 7.22402 12.5572 7.13145 12.01 7.13789C11.3232 7.14668 10.79 7.31074 10.3793 7.64121C9.60469 8.26465 9.53906 8.94375 9.53906 8.95312C9.5069 9.15231 9.49044 9.35371 9.48984 9.55547C9.48984 9.60209 9.47132 9.6468 9.43836 9.67976C9.40539 9.71273 9.36068 9.73125 9.31406 9.73125H8.06895C8.02531 9.73148 7.98314 9.71548 7.95065 9.68635C7.91817 9.65721 7.89767 9.61704 7.89316 9.57363C7.87207 9.33964 7.87383 9.10415 7.89844 8.87051C7.91133 8.72812 8.00391 7.44551 9.3498 6.36269C10.0477 5.80137 10.9354 5.50957 11.9865 5.49668C12.7307 5.48789 13.4297 5.61387 13.9037 5.8377C15.3223 6.51211 16.1016 7.63066 16.1016 8.98652C16.1016 10.9688 14.7768 11.8588 13.6078 12.6445Z" fill="#405287"/>
</svg>
