<svg width="15" height="15" viewBox="0 0 15 15" fill="none" xmlns="http://www.w3.org/2000/svg">
<g clip-path="url(#clip0)">
<path d="M11.3086 6.73804C11.6322 6.73804 11.8945 6.4757 11.8945 6.1521C11.8945 5.8285 11.6322 5.56616 11.3086 5.56616C10.985 5.56616 10.7227 5.8285 10.7227 6.1521C10.7227 6.4757 10.985 6.73804 11.3086 6.73804Z" fill="#727477"/>
<path d="M12.6562 1.17163H11.8945V0.585693C11.8945 0.26208 11.6322 -0.000244141 11.3086 -0.000244141C10.985 -0.000244141 10.7227 0.26208 10.7227 0.585693V1.17163H8.05664V0.585693C8.05664 0.26208 7.79432 -0.000244141 7.4707 -0.000244141C7.14709 -0.000244141 6.88477 0.26208 6.88477 0.585693V1.17163H4.24805V0.585693C4.24805 0.26208 3.98572 -0.000244141 3.66211 -0.000244141C3.3385 -0.000244141 3.07617 0.26208 3.07617 0.585693V1.17163H2.34375C1.05141 1.17163 0 2.22304 0 3.51538V12.656C0 13.9483 1.05141 14.9998 2.34375 14.9998H6.82617C7.14979 14.9998 7.41211 14.7374 7.41211 14.4138C7.41211 14.0902 7.14979 13.8279 6.82617 13.8279H2.34375C1.69758 13.8279 1.17188 13.3022 1.17188 12.656V3.51538C1.17188 2.86921 1.69758 2.34351 2.34375 2.34351H3.07617V2.92944C3.07617 3.25306 3.3385 3.51538 3.66211 3.51538C3.98572 3.51538 4.24805 3.25306 4.24805 2.92944V2.34351H6.88477V2.92944C6.88477 3.25306 7.14709 3.51538 7.4707 3.51538C7.79432 3.51538 8.05664 3.25306 8.05664 2.92944V2.34351H10.7227V2.92944C10.7227 3.25306 10.985 3.51538 11.3086 3.51538C11.6322 3.51538 11.8945 3.25306 11.8945 2.92944V2.34351H12.6562C13.3024 2.34351 13.8281 2.86921 13.8281 3.51538V6.85522C13.8281 7.17884 14.0904 7.44116 14.4141 7.44116C14.7377 7.44116 15 7.17884 15 6.85522V3.51538C15 2.22304 13.9486 1.17163 12.6562 1.17163Z" fill="#727477"/>
<path d="M11.4551 7.90991C9.50039 7.90991 7.91016 9.50015 7.91016 11.4548C7.91016 13.4095 9.50039 14.9998 11.4551 14.9998C13.4098 14.9998 15 13.4095 15 11.4548C15 9.50015 13.4098 7.90991 11.4551 7.90991ZM11.4551 13.8279C10.1466 13.8279 9.08203 12.7633 9.08203 11.4548C9.08203 10.1463 10.1466 9.08179 11.4551 9.08179C12.7636 9.08179 13.8281 10.1463 13.8281 11.4548C13.8281 12.7633 12.7636 13.8279 11.4551 13.8279Z" fill="#727477"/>
<path d="M12.3047 10.8689H12.041V10.2537C12.041 9.93005 11.7787 9.66772 11.4551 9.66772C11.1315 9.66772 10.8691 9.93005 10.8691 10.2537V11.4548C10.8691 11.7784 11.1315 12.0408 11.4551 12.0408H12.3047C12.6283 12.0408 12.8906 11.7784 12.8906 11.4548C12.8906 11.1312 12.6283 10.8689 12.3047 10.8689Z" fill="#727477"/>
<path d="M8.75977 6.73804C9.08337 6.73804 9.3457 6.4757 9.3457 6.1521C9.3457 5.8285 9.08337 5.56616 8.75977 5.56616C8.43616 5.56616 8.17383 5.8285 8.17383 6.1521C8.17383 6.4757 8.43616 6.73804 8.75977 6.73804Z" fill="#727477"/>
<path d="M6.21094 9.28687C6.53454 9.28687 6.79688 9.02453 6.79688 8.70093C6.79688 8.37732 6.53454 8.11499 6.21094 8.11499C5.88733 8.11499 5.625 8.37732 5.625 8.70093C5.625 9.02453 5.88733 9.28687 6.21094 9.28687Z" fill="#727477"/>
<path d="M3.66211 6.73804C3.98571 6.73804 4.24805 6.4757 4.24805 6.1521C4.24805 5.8285 3.98571 5.56616 3.66211 5.56616C3.33851 5.56616 3.07617 5.8285 3.07617 6.1521C3.07617 6.4757 3.33851 6.73804 3.66211 6.73804Z" fill="#727477"/>
<path d="M3.66211 9.28687C3.98571 9.28687 4.24805 9.02453 4.24805 8.70093C4.24805 8.37732 3.98571 8.11499 3.66211 8.11499C3.33851 8.11499 3.07617 8.37732 3.07617 8.70093C3.07617 9.02453 3.33851 9.28687 3.66211 9.28687Z" fill="#727477"/>
<path d="M3.66211 11.8357C3.98571 11.8357 4.24805 11.5734 4.24805 11.2498C4.24805 10.9262 3.98571 10.6638 3.66211 10.6638C3.33851 10.6638 3.07617 10.9262 3.07617 11.2498C3.07617 11.5734 3.33851 11.8357 3.66211 11.8357Z" fill="#727477"/>
<path d="M6.21094 11.8357C6.53454 11.8357 6.79688 11.5734 6.79688 11.2498C6.79688 10.9262 6.53454 10.6638 6.21094 10.6638C5.88733 10.6638 5.625 10.9262 5.625 11.2498C5.625 11.5734 5.88733 11.8357 6.21094 11.8357Z" fill="#727477"/>
<path d="M6.21094 6.73804C6.53454 6.73804 6.79688 6.4757 6.79688 6.1521C6.79688 5.8285 6.53454 5.56616 6.21094 5.56616C5.88733 5.56616 5.625 5.8285 5.625 6.1521C5.625 6.4757 5.88733 6.73804 6.21094 6.73804Z" fill="#727477"/>
</g>
<defs>
<clipPath id="clip0">
<rect width="15" height="15" fill="white" transform="translate(0 -0.000244141)"/>
</clipPath>
</defs>
</svg>
