<?xml version="1.0" encoding="utf-8"?>
<!-- Generator: Adobe Illustrator 21.1.0, SVG Export Plug-In . SVG Version: 6.00 Build 0)  -->
<svg version="1.1" id="Capa_1" xmlns="http://www.w3.org/2000/svg" xmlns:xlink="http://www.w3.org/1999/xlink" x="0px" y="0px"
	 viewBox="0 0 91.7 20.4" style="enable-background:new 0 0 91.7 20.4;" xml:space="preserve">
<style type="text/css">
	.st0{fill:url(#SVGID_1_);}
	.st1{fill:#FFFFFF;}
	.st2{fill:url(#SVGID_2_);}
</style>
<g>
	<g>
		<linearGradient id="SVGID_1_" gradientUnits="userSpaceOnUse" x1="2.9149" y1="4.2768" x2="16.9075" y2="16.0179">
			<stop  offset="0" style="stop-color:#FE8211"/>
			<stop  offset="0.183" style="stop-color:#FC6C22"/>
			<stop  offset="0.7366" style="stop-color:#F72F51"/>
			<stop  offset="1" style="stop-color:#F51764"/>
		</linearGradient>
		<path class="st0" d="M9.9,19.3c-5,0-9.1-4.1-9.1-9.1c0-5,4.1-9.1,9.1-9.1S19,5.1,19,10.1C19,15.2,14.9,19.3,9.9,19.3z M9.9,1.7
			c-4.7,0-8.5,3.8-8.5,8.5s3.8,8.5,8.5,8.5s8.5-3.8,8.5-8.5S14.6,1.7,9.9,1.7z"/>
	</g>
	<circle class="st1" cx="10" cy="10.3" r="2.1"/>
	<path class="st1" d="M29.3,6.1v9.2h-3.4V6.1H29.3z"/>
	<path class="st1" d="M36.1,8.6c-0.2,0-0.5,0.1-0.9,0.2c-0.4,0.1-0.7,0.2-1,0.4v6.2h-3.4V6.1h2L33.5,7c1.3-0.8,2.6-1.3,3.8-1.3
		c1.1,0,1.9,0.3,2.5,1c0.6,0.7,0.8,1.5,0.8,2.6v5.9h-3.4V9.7c0-0.3-0.1-0.6-0.2-0.8C36.7,8.7,36.5,8.6,36.1,8.6z"/>
	<path class="st1" d="M46.1,6.5h2.4l0.3,2.7h-2.7v2.3c0,0.4,0.1,0.7,0.3,0.9c0.2,0.2,0.5,0.3,0.8,0.3c0.5,0,0.9-0.1,1.3-0.4l1,2.3
		c-0.2,0.2-0.6,0.4-1.1,0.6s-1,0.3-1.4,0.3c-0.8,0-1.5-0.1-2.1-0.4c-0.7-0.3-1.2-0.7-1.6-1.2c-0.4-0.5-0.6-1.2-0.6-2V9.2h-1.4V6.5
		h1.4V4l3.4-0.5V6.5z"/>
	<path class="st1" d="M54.8,15.5c-1.5,0-2.8-0.4-3.7-1.2c-0.9-0.8-1.4-2-1.4-3.6c0-1,0.2-1.9,0.7-2.6c0.5-0.7,1.1-1.3,1.9-1.7
		C53,6,53.9,5.8,54.9,5.8c1,0,1.9,0.2,2.7,0.6C58.4,6.7,59,7.3,59.4,8c0.4,0.7,0.7,1.6,0.7,2.7c0,1-0.2,1.9-0.7,2.6
		c-0.5,0.7-1.1,1.3-1.9,1.6C56.7,15.3,55.8,15.5,54.8,15.5z M56.6,10.7c0-0.6-0.1-1.1-0.4-1.6c-0.3-0.4-0.7-0.6-1.2-0.6
		c-0.5,0-0.9,0.2-1.2,0.5c-0.3,0.4-0.4,0.9-0.4,1.5c0,0.6,0.1,1.1,0.4,1.5c0.3,0.4,0.7,0.5,1.2,0.5c0.5,0,1-0.2,1.3-0.5
		C56.4,11.9,56.6,11.4,56.6,10.7z"/>
	<path class="st1" d="M75,6.1L72,15.3h-3.1l-1.4-4.8L66,15.3h-3.1l-3-9.2h3.4l1.2,5.2l1.3-5.2h3.2l1.4,5.2l1.2-5.2H75z"/>
	<linearGradient id="SVGID_2_" gradientUnits="userSpaceOnUse" x1="75.6466" y1="2.9736" x2="79.3979" y2="2.9736">
		<stop  offset="0" style="stop-color:#FE8211"/>
		<stop  offset="0.183" style="stop-color:#FC6C22"/>
		<stop  offset="0.7366" style="stop-color:#F72F51"/>
		<stop  offset="1" style="stop-color:#F51764"/>
	</linearGradient>
	<path class="st2" d="M79.4,3c0,0.5-0.2,0.9-0.6,1.3c-0.4,0.4-0.8,0.5-1.3,0.5c-0.5,0-0.9-0.2-1.3-0.5c-0.4-0.4-0.5-0.8-0.5-1.3
		c0-0.5,0.2-1,0.5-1.3c0.4-0.4,0.8-0.6,1.3-0.6c0.5,0,1,0.2,1.3,0.6C79.2,2,79.4,2.5,79.4,3z"/>
	<rect x="75.8" y="6.1" class="st1" width="3.4" height="9.2"/>
	<path class="st1" d="M86.1,8.6c-0.2,0-0.5,0.1-0.9,0.2c-0.4,0.1-0.7,0.2-1,0.4v6.2h-3.4V6.1h2L83.4,7c1.3-0.8,2.6-1.3,3.8-1.3
		c1.1,0,1.9,0.3,2.5,1c0.6,0.7,0.8,1.5,0.8,2.6v5.9h-3.4V9.7c0-0.3-0.1-0.6-0.2-0.8C86.7,8.7,86.4,8.6,86.1,8.6z"/>
</g>
</svg>
