<?xml version="1.0" encoding="utf-8"?>
<!-- Generator: Adobe Illustrator 21.1.0, SVG Export Plug-In . SVG Version: 6.00 Build 0)  -->
<svg version="1.1" id="Capa_1" xmlns="http://www.w3.org/2000/svg" xmlns:xlink="http://www.w3.org/1999/xlink" x="0px" y="0px"
	 viewBox="0 0 444.3 124.3" style="enable-background:new 0 0 444.3 124.3;" xml:space="preserve">
<style type="text/css">
	.st0{fill:url(#SVGID_1_);}
	.st1{fill:url(#SVGID_2_);}
</style>
<g>
	<g>
		
			<linearGradient id="SVGID_1_" gradientUnits="userSpaceOnUse" x1="14.6484" y1="89.1258" x2="82.5737" y2="32.1298" gradientTransform="matrix(1 0 0 -1 0 124)">
			<stop  offset="0" style="stop-color:#FE8211"/>
			<stop  offset="0.183" style="stop-color:#FC6C22"/>
			<stop  offset="0.7366" style="stop-color:#F72F51"/>
			<stop  offset="1" style="stop-color:#F51764"/>
		</linearGradient>
		<path class="st0" d="M48.6,107.7c-24.5,0-44.4-19.9-44.4-44.4C4.3,38.9,24.2,19,48.6,19S93,38.9,93,63.3
			C93,87.8,73.1,107.7,48.6,107.7z M48.6,22.2C26,22.2,7.5,40.6,7.5,63.3s18.4,41.1,41.1,41.1S89.8,86,89.8,63.3
			S71.3,22.2,48.6,22.2z"/>
	</g>
	<circle cx="49.2" cy="64" r="10.1"/>
	<path d="M138.8,43v44.6h-16.7V43H138.8z"/>
	<path d="M171.9,55.1c-1,0-2.4,0.3-4.1,0.8c-1.8,0.5-3.4,1.1-4.9,1.8v30h-16.7V43h9.9l2.9,4.6c6.5-4,12.6-6.1,18.2-6.1
		c5.4,0,9.4,1.6,12.1,4.7c2.7,3.2,4,7.3,4,12.6v28.8h-16.7V60.4c0-1.5-0.4-2.8-1.1-3.8C174.9,55.6,173.7,55.1,171.9,55.1z"/>
	<path d="M220.4,44.9h11.7l1.6,13.2h-13.2v11c0,1.8,0.5,3.3,1.4,4.4c1,1.1,2.2,1.6,3.8,1.6c2.2,0,4.4-0.6,6.4-1.7l4.8,11.4
		c-1.2,1-3,1.9-5.5,2.7c-2.5,0.8-4.8,1.2-6.9,1.2c-3.7,0-7.1-0.7-10.3-2s-5.7-3.4-7.7-6c-1.9-2.7-2.9-5.9-2.9-9.7V58h-6.9V44.9h6.9
		V32.8l16.7-2.3L220.4,44.9L220.4,44.9z"/>
	<path d="M262.7,88.7c-7.5,0-13.5-2-18.1-6s-6.9-9.9-6.9-17.5c0-4.8,1.1-9.1,3.4-12.6c2.2-3.6,5.3-6.3,9.1-8.2
		c3.8-1.9,8.1-2.8,12.8-2.8c5,0,9.4,0.9,13.2,2.8c3.8,1.8,6.8,4.6,8.9,8.2c2.1,3.6,3.2,8,3.2,13.2c0,4.8-1.1,9-3.4,12.5
		c-2.2,3.5-5.3,6.1-9.2,7.9C271.9,87.8,267.6,88.7,262.7,88.7z M271.1,65.6c0-3.1-0.7-5.6-2.1-7.5c-1.4-2-3.3-2.9-5.7-2.9
		c-2.6,0-4.6,0.9-6,2.7s-2.2,4.2-2.2,7.4c0,3.1,0.7,5.5,2,7.3c1.3,1.8,3.3,2.7,5.8,2.7c2.6,0,4.7-0.8,6.1-2.4
		C270.4,71.1,271.1,68.7,271.1,65.6z"/>
	<path d="M360.9,43l-14.8,44.6h-15.3l-7-23.1l-6.9,23.1h-15.3L287.1,43h16.7l6,25.3L316,43h15.7l6.6,25.3l5.8-25.3H360.9z"/>
	
		<linearGradient id="SVGID_2_" gradientUnits="userSpaceOnUse" x1="363.821" y1="96.1" x2="382.021" y2="96.1" gradientTransform="matrix(1 0 0 -1 0 124)">
		<stop  offset="0" style="stop-color:#FE8211"/>
		<stop  offset="0.183" style="stop-color:#FC6C22"/>
		<stop  offset="0.7366" style="stop-color:#F72F51"/>
		<stop  offset="1" style="stop-color:#F51764"/>
	</linearGradient>
	<path class="st1" d="M382,28c0,2.5-0.9,4.6-2.7,6.3c-1.8,1.8-4,2.7-6.5,2.7s-4.6-0.9-6.3-2.7c-1.8-1.8-2.7-3.9-2.7-6.3
		c0-2.5,0.9-4.7,2.7-6.5c1.8-1.8,3.9-2.7,6.3-2.7c2.5,0,4.7,0.9,6.5,2.7C381.1,23.3,382,25.4,382,28z"/>
	<rect x="364.6" y="43" width="16.7" height="44.6"/>
	<path d="M414.4,55.1c-1,0-2.4,0.3-4.1,0.8c-1.8,0.5-3.4,1.1-4.9,1.8v30h-16.7V43h9.9l2.9,4.6c6.5-4,12.6-6.1,18.2-6.1
		c5.4,0,9.4,1.6,12.1,4.7c2.7,3.2,4,7.3,4,12.6v28.8h-16.7V60.4c0-1.5-0.4-2.8-1.1-3.8C417.4,55.6,416.1,55.1,414.4,55.1z"/>
</g>
</svg>
