<svg width="10" height="10" viewBox="0 0 10 10" fill="none" xmlns="http://www.w3.org/2000/svg">
<path d="M8.95834 0H6.31541C5.81457 0 5.34332 0.195 4.98916 0.54916L0.35541 5.18334C0.12959 5.40916 0 5.72166 0 6.0425C0 6.36166 0.12959 6.67416 0.35541 6.9L3.10041 9.645C3.32584 9.87041 3.63834 10 3.95916 10C4.27832 10 4.59082 9.87041 4.81666 9.64459L9.45082 5.01043C9.805 4.65666 10 4.18541 10 3.68459V1.04166C10 0.46709 9.53291 0 8.95834 0ZM7.70834 3.33334C7.13375 3.33334 6.66668 2.86625 6.66668 2.29168C6.66668 1.71709 7.13377 1.25002 7.70834 1.25002C8.28291 1.25002 8.75 1.71709 8.75 2.29166C8.75 2.86625 8.28291 3.33334 7.70834 3.33334Z" fill="#CCD0D5"/>
</svg>
