<svg width="20" height="20" viewBox="0 0 20 20" fill="none" xmlns="http://www.w3.org/2000/svg">
<g clip-path="url(#clip0)">
<path d="M19.8679 8.06707L18.9071 6.69547C18.9012 6.69962 18.8956 6.70419 18.8898 6.70824C17.8023 7.47027 16.3031 7.20596 15.5412 6.11837C14.7794 5.03099 15.0436 3.53164 16.1312 2.76987C16.1371 2.76572 16.1432 2.76209 16.1491 2.75804L15.1884 1.38663C14.957 1.05621 14.5014 0.976012 14.1709 1.20739L10.3711 3.86915L11.2028 5.05651L10.3011 5.68759L9.46971 4.50053L0.311621 10.9158C-0.0190006 11.1469 -0.0992949 11.6026 0.132372 11.933L4.81186 18.6135C5.04323 18.9439 5.49889 19.0241 5.82908 18.7925L14.9871 12.3776L14.1658 11.205L15.0674 10.5736L15.8885 11.7463L19.6886 9.08442C20.0187 8.85282 20.0992 8.39737 19.8679 8.06707ZM10.9423 6.55971L11.8438 5.92837L12.9231 7.4688L12.0212 8.10034L10.9423 6.55971ZM13.5841 10.3745L12.5886 8.95361L13.4902 8.32227L14.4855 9.74315L13.5841 10.3745Z" fill="#374673"/>
</g>
<defs>
<clipPath id="clip0">
<rect width="20" height="20" fill="white"/>
</clipPath>
</defs>
</svg>
