<svg width="12" height="12" viewBox="0 0 12 12" fill="none" xmlns="http://www.w3.org/2000/svg">
<path d="M9.71223 2.29075C9.2256 1.79931 8.64666 1.40886 8.00867 1.14183C7.37068 0.874798 6.68622 0.73646 5.99461 0.734757C5.303 0.733055 4.61787 0.868022 3.97857 1.13191C3.33928 1.39579 2.75842 1.78339 2.26938 2.27244C1.78033 2.76148 1.39274 3.34233 1.12885 3.98163C0.86497 4.62092 0.730003 5.30606 0.731705 5.99767C0.733408 6.68928 0.871746 7.37373 1.13877 8.01172C1.4058 8.6497 1.79625 9.22864 2.2877 9.71527C2.77433 10.2067 3.35327 10.5972 3.99126 10.8642C4.62924 11.1312 5.3137 11.2696 6.00531 11.2713C6.69693 11.273 7.38206 11.138 8.02135 10.8741C8.66065 10.6103 9.2415 10.2227 9.73055 9.73359C10.2196 9.24455 10.6072 8.66369 10.8711 8.02441C11.135 7.38512 11.2699 6.69998 11.2682 6.00837C11.2665 5.31676 11.1282 4.63229 10.8612 3.9943C10.5941 3.35632 10.2037 2.77739 9.71223 2.29075ZM1.49996 6.00302C1.49979 5.60475 1.5526 5.20822 1.65699 4.82388C1.82903 5.19419 2.07887 5.51411 2.24879 5.89403C2.4684 6.38247 3.05809 6.247 3.31848 6.67497C3.54957 7.05489 3.30278 7.53536 3.47574 7.93286C3.60137 8.22138 3.89762 8.28443 4.10199 8.49536C4.31082 8.70818 4.30637 8.99974 4.33824 9.27724C4.37421 9.60328 4.43255 9.92645 4.51285 10.2445C4.51285 10.2469 4.51285 10.2494 4.51473 10.2518C2.7609 9.63582 1.49996 7.96403 1.49996 6.00302ZM5.99996 10.503C5.74865 10.5029 5.49779 10.4819 5.24996 10.4402C5.25254 10.3767 5.25371 10.3174 5.26004 10.2762C5.31699 9.90349 5.50356 9.53903 5.75528 9.26013C6.00395 8.98497 6.34473 8.79888 6.55473 8.48669C6.76051 8.182 6.82215 7.77185 6.73731 7.41583C6.61238 6.88989 5.89778 6.71435 5.51246 6.42911C5.29098 6.26505 5.09387 6.01146 4.80301 5.99083C4.66895 5.98146 4.55668 6.01028 4.42379 5.97607C4.30192 5.94443 4.20629 5.8788 4.07645 5.89591C3.83387 5.92778 3.68082 6.187 3.4202 6.15185C3.17293 6.1188 2.91817 5.82935 2.86192 5.5938C2.78973 5.29099 3.02926 5.19279 3.2859 5.16583C3.39301 5.15458 3.51324 5.14239 3.61613 5.18177C3.7516 5.23193 3.81559 5.36458 3.93723 5.43161C4.16528 5.55677 4.21145 5.35685 4.17653 5.15435C4.12426 4.85107 4.06332 4.72755 4.33379 4.51872C4.52129 4.37482 4.6816 4.27074 4.6516 4.01223C4.63379 3.86035 4.55059 3.79169 4.62817 3.64052C4.68699 3.52544 4.84848 3.42161 4.95371 3.35294C5.22535 3.17575 6.11738 3.18888 5.75293 2.69294C5.64582 2.5474 5.44824 2.28724 5.26074 2.25161C5.02637 2.20732 4.92231 2.46888 4.75895 2.58419C4.5902 2.70349 4.2616 2.83896 4.09262 2.6545C3.86528 2.4063 4.24332 2.32497 4.32699 2.15154C4.36567 2.07068 4.32699 1.95841 4.26184 1.85271C4.34637 1.81708 4.43231 1.78404 4.51965 1.75357C4.57439 1.794 4.63932 1.81835 4.70715 1.82388C4.86395 1.83419 5.01184 1.74935 5.14871 1.85622C5.30059 1.97341 5.41004 2.12154 5.6116 2.1581C5.8066 2.19349 6.01309 2.07982 6.06137 1.88013C6.09067 1.75872 6.06137 1.63052 6.03324 1.50513C6.90981 1.51017 7.76557 1.77269 8.49418 2.26005C8.44731 2.24224 8.39129 2.24435 8.32215 2.27646C8.17988 2.34255 7.97832 2.51083 7.96168 2.67771C7.9427 2.86708 8.22207 2.8938 8.35473 2.8938C8.55395 2.8938 8.75574 2.80474 8.69153 2.57458C8.66363 2.47474 8.62567 2.37091 8.56449 2.3081C8.71154 2.41014 8.85242 2.5208 8.98637 2.6395C8.98426 2.64161 8.98215 2.64349 8.98004 2.64583C8.84504 2.78646 8.68824 2.89779 8.5959 3.06888C8.53074 3.18935 8.45738 3.24653 8.32543 3.2777C8.25278 3.29481 8.16981 3.30113 8.10887 3.34988C7.93918 3.48348 8.03574 3.80457 8.19653 3.9009C8.39973 4.02254 8.70114 3.96535 8.85442 3.79168C8.97418 3.65574 9.04473 3.41974 9.26012 3.41997C9.35495 3.41978 9.44604 3.45689 9.51371 3.52332C9.60278 3.61567 9.5852 3.70192 9.60418 3.81723C9.6377 4.02207 9.8184 3.91099 9.92832 3.80763C10.0084 3.95023 10.0807 4.09708 10.1449 4.24755C10.0239 4.42169 9.92785 4.61153 9.63699 4.40856C9.46285 4.28692 9.35574 4.11044 9.13707 4.0556C8.94606 4.00872 8.75035 4.05747 8.56168 4.09005C8.34723 4.12732 8.09293 4.14371 7.93027 4.30613C7.77301 4.4627 7.68981 4.67224 7.52246 4.8295C7.19879 5.13419 7.06215 5.46677 7.27168 5.89755C7.47324 6.31169 7.89489 6.53646 8.34981 6.50693C8.79676 6.47716 9.26106 6.21794 9.24817 6.86739C9.24348 7.09732 9.29153 7.25645 9.36207 7.46996C9.42746 7.66684 9.42301 7.85762 9.43801 8.06082C9.45227 8.29877 9.48948 8.53479 9.5491 8.76559C9.12901 9.30647 8.59085 9.74419 7.97574 10.0453C7.36062 10.3464 6.68483 10.503 5.99996 10.503Z" fill="#444547"/>
</svg>
