<svg width="31" height="31" viewBox="0 0 31 31" fill="none" xmlns="http://www.w3.org/2000/svg">
<g clip-path="url(#clip0_1007_140)">
<path d="M9.89109 19.3697L25.5433 19.3697C26.6238 19.3697 27.4998 20.2457 27.4998 21.3262C27.4998 22.4067 26.6238 23.2827 25.5433 23.2827L9.89109 23.2827C8.81057 23.2827 7.93457 22.4067 7.93457 21.3262C7.93457 20.2457 8.81057 19.3697 9.89109 19.3697Z" fill="#B6B9BE"/>
<path d="M25.5433 16.3696L9.89109 16.3696C8.81057 16.3696 7.93457 15.4936 7.93457 14.4131C7.93457 13.3326 8.81057 12.4566 9.89109 12.4566L25.5433 12.4566C26.6238 12.4566 27.4998 13.3326 27.4998 14.4131C27.4998 15.4936 26.6238 16.3696 25.5433 16.3696Z" fill="#B6B9BE"/>
<path d="M25.5433 9.45654L9.89109 9.45654C8.81057 9.45654 7.93457 8.58055 7.93457 7.50003C7.93457 6.41951 8.81057 5.54351 9.89109 5.54351L25.5433 5.54351C26.6238 5.54351 27.4998 6.41951 27.4998 7.50003C27.4998 8.58055 26.6238 9.45654 25.5433 9.45654Z" fill="#B6B9BE"/>
<path d="M1.97801 9.45654C1.46279 9.45654 0.95918 9.24785 0.594093 8.88394C0.23018 8.51872 0.0214844 8.01524 0.0214844 7.50003C0.0214844 6.98481 0.23018 6.48133 0.594093 6.11612C0.95918 5.75221 1.46279 5.54351 1.97801 5.54351C2.49322 5.54351 2.9967 5.75221 3.36179 6.11612C3.7257 6.48133 3.93453 6.98481 3.93453 7.50003C3.93453 8.01524 3.7257 8.51872 3.36179 8.88394C2.9967 9.24785 2.49322 9.45654 1.97801 9.45654Z" fill="#B6B9BE"/>
<path d="M1.97801 16.3696C1.46279 16.3696 0.95918 16.1609 0.594093 15.797C0.23018 15.4318 0.0214844 14.9283 0.0214844 14.4131C0.0214844 13.8979 0.23018 13.3944 0.594093 13.0292C0.95918 12.6653 1.46279 12.4566 1.97801 12.4566C2.49322 12.4566 2.9967 12.6653 3.36179 13.0292C3.7257 13.3944 3.93453 13.8979 3.93453 14.4131C3.93453 14.9283 3.7257 15.4318 3.36179 15.797C2.9967 16.1609 2.49322 16.3696 1.97801 16.3696Z" fill="#B6B9BE"/>
<path d="M1.97801 23.2827C1.46279 23.2827 0.95918 23.074 0.594093 22.7101C0.23018 22.3449 0.0214844 21.8414 0.0214844 21.3262C0.0214844 20.811 0.23018 20.3075 0.594093 19.9423C0.95918 19.5784 1.46279 19.3697 1.97801 19.3697C2.49322 19.3697 2.9967 19.5784 3.36179 19.9423C3.7257 20.3075 3.93453 20.811 3.93453 21.3262C3.93453 21.8414 3.7257 22.3449 3.36179 22.7101C2.9967 23.074 2.49322 23.2827 1.97801 23.2827Z" fill="#B6B9BE"/>
</g>
<defs>
<clipPath id="clip0_1007_140">
<rect width="30" height="30" fill="white" transform="matrix(1 0 0 -1 0.5 30.5)"/>
</clipPath>
</defs>
</svg>
