<svg width="20" height="20" viewBox="0 0 20 20" fill="none" xmlns="http://www.w3.org/2000/svg">
<g clip-path="url(#clip0)">
<path d="M18.2141 17.8567C18.6636 17.8567 19.0532 17.7082 19.3843 17.4151L13.718 11.7486C13.5821 11.8459 13.4503 11.9406 13.3258 12.0306C12.9018 12.343 12.5576 12.5868 12.2933 12.7615C12.0291 12.9366 11.6775 13.1151 11.2387 13.2973C10.7995 13.4797 10.3904 13.5706 10.0109 13.5706H9.99978H9.98867C9.60911 13.5706 9.19999 13.4798 8.76088 13.2973C8.32177 13.1151 7.9702 12.9366 7.70622 12.7615C7.44198 12.5868 7.09801 12.3431 6.67375 12.0306C6.55552 11.9439 6.4244 11.8488 6.28264 11.7471L0.615234 17.4151C0.946356 17.7082 1.33616 17.8567 1.78569 17.8567H18.2141Z" fill="#A3ADCB"/>
<path d="M1.12735 8.18106C0.703347 7.89838 0.327345 7.57463 0 7.20996V15.8311L4.99427 10.8368C3.99513 10.1393 2.7078 9.25507 1.12735 8.18106Z" fill="#A3ADCB"/>
<path d="M18.884 8.18106C17.3639 9.20997 16.0718 10.0957 15.0078 10.8388L20.0001 15.8313V7.20996C19.68 7.56729 19.308 7.89083 18.884 8.18106Z" fill="#A3ADCB"/>
<path d="M18.2139 2.14258H1.7856C1.21247 2.14258 0.77183 2.33612 0.463149 2.7228C0.154213 3.10966 0 3.59347 0 4.17368C0 4.64235 0.20465 5.15016 0.613767 5.69726C1.02289 6.24414 1.45822 6.67371 1.91955 6.98616C2.17246 7.16485 2.93514 7.69506 4.20759 8.57663C4.89449 9.05263 5.49184 9.46752 6.00517 9.82555C6.44272 10.1305 6.82007 10.3945 7.13162 10.6136C7.16739 10.6387 7.22363 10.6789 7.29829 10.7323C7.37872 10.79 7.4805 10.8634 7.60606 10.954C7.84786 11.1289 8.04873 11.2703 8.20872 11.3783C8.36849 11.4863 8.56206 11.6069 8.78915 11.7409C9.01606 11.8747 9.23008 11.9754 9.43095 12.0423C9.63186 12.1092 9.81784 12.1427 9.98894 12.1427H10.0001H10.0112C10.1822 12.1427 10.3682 12.1092 10.5692 12.0423C10.77 11.9754 10.9839 11.875 11.211 11.7409C11.4378 11.6069 11.6312 11.486 11.7914 11.3783C11.9514 11.2703 12.1523 11.1289 12.3941 10.954C12.5194 10.8634 12.6212 10.79 12.7016 10.7325C12.7763 10.6789 12.8325 10.6389 12.8685 10.6136C13.1112 10.4447 13.4894 10.1818 13.9979 9.82864C14.9232 9.18575 16.2859 8.23951 18.0917 6.98616C18.6348 6.60682 19.0886 6.14905 19.4533 5.61349C19.8173 5.07794 19.9998 4.51617 19.9998 3.92836C19.9998 3.43726 19.8228 3.01703 19.4697 2.66702C19.1162 2.31746 18.6976 2.14258 18.2139 2.14258Z" fill="#A3ADCB"/>
</g>
<defs>
<clipPath id="clip0">
<rect width="20" height="20" fill="white"/>
</clipPath>
</defs>
</svg>
