<svg width="27" height="27" viewBox="0 0 27 27" fill="none" xmlns="http://www.w3.org/2000/svg">
<path d="M26.8039 13.2683V23.9826C26.8039 24.693 26.5217 25.3743 26.0193 25.8766C25.517 26.379 24.8357 26.6612 24.1253 26.6612H3.58958C2.87918 26.6612 2.19788 26.379 1.69555 25.8766C1.19322 25.3743 0.911011 24.693 0.911011 23.9826V3.44688C0.911011 2.73648 1.19322 2.05518 1.69555 1.55285C2.19788 1.05052 2.87918 0.768311 3.58958 0.768311H14.3039C14.6591 0.768311 14.9997 0.909413 15.2509 1.16058C15.502 1.41174 15.6432 1.7524 15.6432 2.1076C15.6432 2.4628 15.502 2.80345 15.2509 3.05461C14.9997 3.30578 14.6591 3.44688 14.3039 3.44688H4.48244C4.24586 3.44759 4.01916 3.54188 3.85187 3.70917C3.68458 3.87646 3.59029 4.10316 3.58958 4.33974V23.0897C3.59029 23.3263 3.68458 23.553 3.85187 23.7203C4.01916 23.8876 4.24586 23.9819 4.48244 23.9826H23.2324C23.469 23.9819 23.6957 23.8876 23.863 23.7203C24.0303 23.553 24.1246 23.3263 24.1253 23.0897V13.2683C24.1253 12.9131 24.2664 12.5725 24.5176 12.3213C24.7687 12.0701 25.1094 11.929 25.4646 11.929C25.8198 11.929 26.1604 12.0701 26.4116 12.3213C26.6628 12.5725 26.8039 12.9131 26.8039 13.2683Z" fill="#444444"/>
<path d="M26.8038 1.66117V7.91117C26.8038 8.26637 26.6627 8.60702 26.4115 8.85818C26.1603 9.10935 25.8197 9.25045 25.4645 9.25045C25.1093 9.25045 24.7686 9.10935 24.5175 8.85818C24.2663 8.60702 24.1252 8.26637 24.1252 7.91117V5.33974L9.75914 19.7103C9.50754 19.9619 9.1663 20.1032 8.81048 20.1032C8.45466 20.1032 8.11342 19.9619 7.86182 19.7103C7.61022 19.4587 7.46887 19.1174 7.46887 18.7616C7.46887 18.4058 7.61022 18.0645 7.86182 17.8129L22.2324 3.44688H19.6609C19.3057 3.44688 18.9651 3.30578 18.7139 3.05461C18.4627 2.80345 18.3216 2.4628 18.3216 2.1076C18.3216 1.7524 18.4627 1.41174 18.7139 1.16058C18.9651 0.909413 19.3057 0.768311 19.6609 0.768311H25.9109C26.1475 0.769017 26.3742 0.863313 26.5415 1.0306C26.7088 1.19789 26.8031 1.42458 26.8038 1.66117Z" fill="#444444"/>
</svg>
