<svg width="26" height="26" viewBox="0 0 26 26" fill="none"
    xmlns="http://www.w3.org/2000/svg">
    <g clip-path="url(#clip0)">
        <path d="M4.34288 12.0842L4.34955 12.1091C4.39034 12.2649 4.37442 12.4302 4.30461 12.5753L4.30512 12.5772C4.16587 12.8725 4.03985 13.3681 4.22446 14.0571C4.39178 14.6815 4.70984 15.0687 5.02822 15.2939C5.16828 15.3942 5.26911 15.54 5.31345 15.7064C5.39925 16.0267 5.60875 16.2997 5.89586 16.4654C6.18296 16.6312 6.52415 16.6761 6.84438 16.5903L7.14623 16.5094C7.22629 16.488 7.29454 16.4356 7.33598 16.3638C7.37742 16.2921 7.38865 16.2068 7.3672 16.1267L5.91134 10.6934C5.88989 10.6133 5.83752 10.5451 5.76574 10.5036C5.69397 10.4622 5.60867 10.451 5.52861 10.4724L5.22676 10.5533C4.90654 10.6391 4.63351 10.8486 4.46775 11.1357C4.30199 11.4228 4.25707 11.764 4.34288 12.0842Z" fill="white"/>
        <path d="M19.6999 8.39567L19.6631 8.39866C19.6268 8.40132 19.5908 8.39125 19.5611 8.37018C19.5315 8.34911 19.5101 8.31836 19.5007 8.28324L18.283 3.73848C18.1552 3.26155 17.7238 2.91775 17.2084 2.88112C16.7171 2.84656 16.2824 3.09853 16.0994 3.52326C15.6987 4.38468 15.2259 5.21066 14.6859 5.99235C13.9966 6.98588 13.2875 7.75215 12.5857 8.26615C12.5344 8.30323 12.4956 8.35501 12.4744 8.41464C12.4532 8.47427 12.4506 8.53893 12.4669 8.60007L14.0372 14.4605C14.0689 14.5785 14.1345 14.6846 14.2259 14.7657C14.3173 14.8468 14.4304 14.8993 14.5513 14.9168C15.3649 15.0341 16.2904 15.3337 17.2979 15.8098C18.1631 16.2208 18.9918 16.7044 19.7752 17.2554C19.9022 17.3492 20.0491 17.4123 20.2046 17.4399C20.36 17.4675 20.5197 17.4588 20.6712 17.4145C20.805 17.378 20.932 17.3202 21.0475 17.2433C21.4885 16.9528 21.6906 16.4559 21.5627 15.9786L20.3407 11.418C20.3312 11.3823 20.3346 11.3445 20.3503 11.3111C20.366 11.2778 20.393 11.251 20.4265 11.2356L20.4572 11.2218C20.7937 11.026 21.3675 10.4206 21.1282 9.52745C20.8889 8.63435 20.0893 8.39689 19.6999 8.39567Z" fill="white"/>
        <path d="M13.0433 15.5763L11.3448 9.23739C11.3233 9.15733 11.2709 9.08908 11.1992 9.04764C11.1274 9.0062 11.0421 8.99497 10.962 9.01642L7.33982 9.98699C7.25976 10.0084 7.1915 10.0608 7.15006 10.1326C7.10862 10.2044 7.09739 10.2897 7.11884 10.3697L10.1923 21.8401C10.2567 22.0803 10.4138 22.285 10.6291 22.4093C10.8445 22.5337 11.1004 22.5674 11.3405 22.503L13.3195 21.9727C13.5081 21.9239 13.6829 21.8325 13.8307 21.7057C13.9785 21.5788 14.0952 21.4198 14.172 21.2408C14.2504 21.0559 14.2825 20.8546 14.2656 20.6544C14.2487 20.4543 14.1832 20.2612 14.0749 20.092C13.9614 19.913 13.8267 19.7137 13.6834 19.5018C13.1534 18.7177 12.6166 18.2885 12.1857 17.0998C12.4994 17.0083 12.7648 16.7976 12.9251 16.5129C13.0854 16.2281 13.1278 15.8919 13.0433 15.5763Z" fill="white"/>
    </g>
    <defs>
        <clipPath id="clip0">
            <rect width="20" height="20" fill="white" transform="translate(0.752441 5.92871) rotate(-15)"/>
        </clipPath>
    </defs>
</svg>
