<?xml version="1.0" encoding="utf-8"?>
<svg width="46px" height="46px" viewBox="0 0 46 46" version="1.1" xmlns:xlink="http://www.w3.org/1999/xlink" xmlns="http://www.w3.org/2000/svg">
  <g id="menu_issue">
    <path d="M0 0L46 0L46 46L0 46L0 0Z" id="Background" fill="none" stroke="none" />
    <g id="Group" transform="translate(0.9971924 4.774414)">
      <path d="M23.3659 0.674999L43.6799 34.473C44.2409 35.374 44.2389 36.184 43.2739 36.543L1.01993 36.543C0.0689316 36.543 -0.296068 35.373 0.265932 34.473L21.3329 0.674999C21.8929 -0.225 22.8049 -0.225 23.3659 0.674999ZM23.1619 28.901C23.6269 28.901 24.0039 28.523 24.0039 28.058L25.0139 12.724C25.0139 12.259 24.6369 11.882 24.1739 11.882L19.8829 11.882C19.4209 11.882 19.0429 12.259 19.0429 12.724L20.0549 28.058C20.0549 28.523 20.4299 28.901 20.8949 28.901L23.1619 28.901ZM22.0299 33.618C20.9889 33.618 20.1469 32.777 20.1469 31.738C20.1469 30.696 20.9889 29.854 22.0299 29.854C23.0709 29.854 23.9109 30.696 23.9109 31.738C23.9099 32.777 23.0709 33.618 22.0299 33.618Z" id="Shape" fill="#374673" fill-rule="evenodd" stroke="none" />
    </g>
  </g>
</svg>