<?xml version="1.0" encoding="utf-8"?>
<svg width="54px" height="54px" viewBox="0 0 54 54" version="1.1" xmlns:xlink="http://www.w3.org/1999/xlink" xmlns="http://www.w3.org/2000/svg">
  <g id="menu_library">
    <path d="M0 0L54 0L54 54L0 54L0 0Z" id="Background" fill="none" stroke="none" />
    <g id="Group" transform="translate(1.659912 4)">
      <path d="M9.899 42.269C9.899 42.822 9.449 43.273 8.895 43.273L1.004 43.273C0.45 43.273 0 42.822 0 42.269L0 1.004C0 0.448999 0.45 0 1.004 0L8.895 0C9.449 0 9.899 0.448999 9.899 1.004L9.899 42.269L9.899 42.269Z" transform="translate(0 3.902832)" id="Shape" fill="#F4F2ED" stroke="none" />
      <path d="M10.537 37.46C10.537 38.013 10.087 38.464 9.534 38.464L1.001 38.464C0.446999 38.464 0 38.013 0 37.46L0 1C0 0.447001 0.447001 0 1.001 0L9.534 0C10.087 0 10.537 0.447001 10.537 1L10.537 37.46L10.537 37.46Z" transform="translate(11.30005 8.711914)" id="Shape" fill="#F4F2ED" stroke="none" />
      <path d="M6.678 46.172C6.678 46.725 6.228 47.176 5.675 47.176L1.001 47.176C0.447998 47.176 0 46.725 0 46.172L0 1.002C0 0.447 0.448002 0 1.001 0L5.675 0C6.228 0 6.678 0.447 6.678 1.002L6.678 46.172L6.678 46.172Z" transform="translate(23.03906 0)" id="Shape" fill="#F4F2ED" stroke="none" />
      <path d="M19.9496 32.4688C20.1096 32.9978 19.8086 33.5588 19.2796 33.7188L10.8186 36.2558C10.2896 36.4158 9.72859 36.1148 9.57159 35.5838L0.0425911 3.82978C-0.116409 3.30078 0.18359 2.74178 0.712589 2.58378L9.17659 0.0427799C9.70559 -0.11722 10.2636 0.18578 10.4226 0.714781L19.9496 32.4688L19.9496 32.4688Z" transform="translate(30.34741 10.24414)" id="Shape" fill="#F4F2ED" stroke="none" />
      <path d="M0 0.532999C0 0.827999 0.276 1.068 0.616 1.068L8.245 1.068C8.588 1.068 8.864 0.827999 8.864 0.532999L8.864 0.532999C8.864 0.237999 8.588 0 8.245 0L0.616 0C0.276 0 0 0.237999 0 0.532999L0 0.532999L0 0.532999Z" transform="translate(0.526001 8.711914)" id="Shape" fill="#B4BFD6" stroke="none" />
      <path d="M0 0.535C0 0.827999 0.276 1.066 0.616 1.066L8.245 1.066C8.587 1.066 8.864 0.827999 8.864 0.535L8.864 0.535C8.864 0.237999 8.587 0 8.245 0L0.616 0C0.276 0 0 0.238001 0 0.535L0 0.535L0 0.535Z" transform="translate(0.6009521 10.50879)" id="Shape" fill="#B4BFD6" stroke="none" />
      <path d="M0 0.535C0 0.829998 0.276 1.068 0.619 1.068L8.248 1.068C8.588 1.068 8.864 0.830002 8.864 0.535L8.864 0.535C8.864 0.242001 8.588 0 8.248 0L0.619 0C0.276 0 0 0.241997 0 0.535L0 0.535L0 0.535Z" transform="translate(0.4790039 42.21094)" id="Shape" fill="#B4BFD6" stroke="none" />
      <path d="M0 0.533005C0 0.828003 0.276 1.068 0.616 1.068L8.245 1.068C8.588 1.068 8.864 0.828003 8.864 0.533005L8.864 0.533005C8.864 0.238007 8.588 3.8147e-06 8.245 3.8147e-06L0.616 3.8147e-06C0.276 -0.000991821 0 0.238007 0 0.533005L0 0.533005L0 0.533005Z" transform="translate(0.5560303 44.00977)" id="Shape" fill="#B4BFD6" stroke="none" />
      <path d="M0 0.535004C0 0.830004 0.295 1.068 0.658001 1.068L8.798 1.068C9.164 1.068 9.457 0.830004 9.457 0.535004L9.457 0.535004C9.457 0.240004 9.164 3.8147e-06 8.798 3.8147e-06L0.658001 3.8147e-06C0.295 -0.000995636 0 0.240004 0 0.535004L0 0.535004L0 0.535004Z" transform="translate(11.76196 11.40186)" id="Shape" fill="#B4BFD6" stroke="none" />
      <path d="M0 0.533005C0 0.828003 0.296 1.068 0.660999 1.068L8.801 1.068C9.164 1.068 9.46 0.828003 9.46 0.533005L9.46 0.533005C9.46 0.238005 9.164 3.8147e-06 8.801 3.8147e-06L0.660999 3.8147e-06C0.296001 -0.000995636 0 0.238005 0 0.533005L0 0.533005L0 0.533005Z" transform="translate(11.84094 13.20117)" id="Shape" fill="#B4BFD6" stroke="none" />
      <path d="M0 0.531002C0 0.826 0.285999 1.066 0.639999 1.066L8.56 1.066C8.916 1.066 9.202 0.826 9.202 0.531002L9.202 0.531002C9.202 0.238003 8.917 3.8147e-06 8.56 3.8147e-06L0.639999 3.8147e-06C0.285999 -0.000999451 0 0.238003 0 0.531002L0 0.531002L0 0.531002Z" transform="translate(11.97498 41.55078)" id="Shape" fill="#B4BFD6" stroke="none" />
      <path d="M0 0.535C0 0.829998 0.288 1.068 0.643 1.068L8.562 1.068C8.916 1.068 9.205 0.830002 9.205 0.535L9.205 0.535C9.205 0.237999 8.917 0 8.562 0L0.642998 0C0.288 0 0 0.238998 0 0.535L0 0.535L0 0.535Z" transform="translate(12.052 43.34521)" id="Shape" fill="#B4BFD6" stroke="none" />
      <path d="M0 0.535C0 0.83 0.188 1.07 0.419998 1.07L5.605 1.07C5.836 1.07 6.027 0.83 6.027 0.535L6.027 0.535C6.027 0.24 5.837 0 5.605 0L0.419998 0C0.187 0 0 0.24 0 0.535L0 0.535L0 0.535Z" transform="translate(23.31396 1.888184)" id="Shape" fill="#B4BFD6" stroke="none" />
      <path d="M0 0.533001C0 0.830002 0.188999 1.068 0.422001 1.068L5.606 1.068C5.838 1.068 6.028 0.83 6.028 0.533001L6.028 0.533001C6.028 0.238001 5.839 0 5.606 0L0.422001 0C0.188999 0 0 0.238001 0 0.533001L0 0.533001L0 0.533001Z" transform="translate(23.36401 3.687012)" id="Shape" fill="#B4BFD6" stroke="none" />
      <path d="M0 0.535C0 0.827999 0.182999 1.066 0.408001 1.066L5.454 1.066C5.679 1.066 5.862 0.827999 5.862 0.535L5.862 0.535C5.862 0.237999 5.67801 0 5.454 0L0.408001 0C0.181999 0 0 0.237999 0 0.535L0 0.535L0 0.535Z" transform="translate(23.396 42.98193)" id="Shape" fill="#B4BFD6" stroke="none" />
      <path d="M0 0.535C0 0.829998 0.182999 1.068 0.407002 1.068L5.453 1.068C5.679 1.068 5.861 0.830002 5.861 0.535L5.861 0.535C5.861 0.240002 5.67801 0 5.453 0L0.407002 0C0.182003 0 0 0.240002 0 0.535L0 0.535L0 0.535Z" transform="translate(23.44604 44.77686)" id="Shape" fill="#B4BFD6" stroke="none" />
      <g id="Group" transform="translate(31.61035 13.21387)">
        <path d="M0.0186157 3.22092C0.105618 3.50191 0.466618 3.63892 0.827618 3.52991L8.86962 1.05891C9.22962 0.949913 9.45062 0.630915 9.36362 0.349915L9.36362 0.349915C9.27662 0.0649147 8.91662 -0.0720863 8.55462 0.0379143L0.513615 2.50891C0.152615 2.61692 -0.0673866 2.93592 0.0186157 3.22092L0.0186157 3.22092L0.0186157 3.22092Z" id="Shape" fill="#B4BFD6" stroke="none" />
        <path d="M0.0189934 3.22142C0.105995 3.50442 0.465992 3.64342 0.827991 3.53342L8.87199 1.06042C9.22999 0.949417 9.45099 0.632416 9.36399 0.349419L9.36399 0.349419C9.27699 0.0684204 8.91599 -0.0725822 8.55699 0.0374184L0.512993 2.51042C0.151993 2.62142 -0.0680046 2.94042 0.0189934 3.22142L0.0189934 3.22142L0.0189934 3.22142Z" transform="translate(0.6076202 1.690498)" id="Shape" fill="#B4BFD6" stroke="none" />
        <path d="M0.0187378 3.19946C0.10574 3.48246 0.463737 3.62146 0.820736 3.51046L8.80374 1.05946C9.15874 0.952461 9.37774 0.633461 9.29074 0.352459L9.29074 0.352459C9.20374 0.0674591 8.84574 -0.0735397 8.48874 0.0384598L0.508739 2.49146C0.150738 2.59846 -0.0672607 2.91846 0.0187378 3.19946L0.0187378 3.19946L0.0187378 3.19946Z" transform="translate(7.558876 24.75946)" id="Shape" fill="#B4BFD6" stroke="none" />
        <path d="M0.0191269 3.19742C0.106129 3.48042 0.464127 3.62142 0.821125 3.51142L8.80312 1.06042C9.15912 0.949417 9.37713 0.630417 9.29012 0.349419L9.29012 0.349419C9.20412 0.0684204 8.84512 -0.0725822 8.48912 0.0374184L0.506123 2.49042C0.150124 2.59942 -0.0678749 2.91642 0.0191269 3.19742L0.0191269 3.19742L0.0191269 3.19742Z" transform="translate(8.165489 26.4535)" id="Shape" fill="#B4BFD6" stroke="none" />
      </g>
    </g>
  </g>
</svg>
