<?xml version="1.0" encoding="utf-8"?>
<svg width="49px" height="49px" viewBox="0 0 49 49" version="1.1" xmlns:xlink="http://www.w3.org/1999/xlink" xmlns="http://www.w3.org/2000/svg">
  <g id="menu_training">
    <path d="M0 0L49 0L49 49L0 49L0 0Z" id="Background" fill="none" stroke="none" />
    <path d="M5.929 19.624L4.253 14.694C4.362 14.491 4.429 14.266 4.429 14.022C4.429 13.598 4.24 13.219 3.939 12.954L3.939 0L1.918 1.223L1.918 12.953C1.619 13.219 1.428 13.598 1.428 14.021C1.428 14.314 1.518 14.583 1.67 14.812L0 19.623L5.929 19.623L5.929 19.624Z" transform="translate(41.9679 23.78857)" id="Shape" fill="#374673" stroke="none" />
    <g id="Group" transform="translate(1.705444 3.87207)">
      <path d="M18.3224 27.1944C21.4574 29.0294 22.7944 28.7114 25.8204 27.3344L44.8664 17.1414C45.9924 14.9464 45.6944 12.1994 43.8944 10.3174L27.4374 1.53837C24.3534 -0.466635 22.5564 -0.493633 19.0234 1.35137L1.82044 9.38837C-0.388556 11.5044 -0.587556 14.9004 1.22544 17.2754L18.3224 27.1944L18.3224 27.1944Z" id="Shape" fill="#374673" stroke="none" />
      <path d="M24.535 9.015C22.73 9.83801 21.313 10.365 19.827 10.365C18.446 10.365 17.005 9.91 15.135 8.816L0.0100002 0L0 5.998C0 7.543 0.0209999 11.396 0.711 12.781C3.35 18.103 10.378 20.74 18.943 20.74C27.359 20.74 35.476 18.17 38.23 12.99C39.009 11.527 39.093 7.648 39.093 5.998L39.093 1.352L24.535 9.015L24.535 9.015Z" transform="translate(2.17944 20.10737)" id="Shape" fill="#374673" stroke="none" />
    </g>
  </g>
</svg>