<?xml version="1.0" encoding="utf-8"?>
<svg width="58px" height="58px" viewBox="0 0 58 58" version="1.1" xmlns:xlink="http://www.w3.org/1999/xlink" xmlns="http://www.w3.org/2000/svg">
  <g id="menu_checklist">
    <path d="M0 0L57 0L57 57L0 57L0 0Z" transform="translate(0.4216309 0.284668)" id="Background" fill="none" stroke="none" />
    <path d="M32.7071 56.8767C17.0862 59.1503 2.58006 48.3364 0.302135 32.7096C-1.97285 17.0873 8.84545 2.58257 24.4663 0.301712C40.0901 -1.97181 54.5992 8.84943 56.8742 24.4688C59.1492 40.0956 48.3324 54.6018 32.7071 56.8767ZM8.68319 32.5592C8.29826 33.0015 8.34393 33.6696 8.78236 34.0545L17.9932 42.0845C18.0545 42.1954 18.1289 42.2972 18.2306 42.3859L22.8223 46.4674C23.1016 46.7166 23.4787 46.7871 23.8153 46.6931C24.0698 46.6657 24.3151 46.5457 24.4951 46.3395L28.7397 41.466C28.8037 41.3942 28.8494 41.3211 28.8872 41.2415L47.9717 19.7797C48.3592 19.3439 48.324 18.6719 47.8829 18.2843L43.2899 14.2028C42.8567 13.8101 42.1847 13.8505 41.7946 14.2863L23.1812 35.2197L14.4205 27.5865C13.9808 27.2016 13.3127 27.2459 12.9278 27.6883L8.68319 32.5592Z" id="Shape" fill="#374673" fill-rule="evenodd" stroke="none" />
  </g>
</svg>
