<svg width="50" height="50" viewBox="0 0 50 50" fill="none" xmlns="http://www.w3.org/2000/svg">
<path fill-rule="evenodd" clip-rule="evenodd" d="M28.1958 49.0316C14.7295 50.9916 2.22419 41.6693 0.260462 28.1979C-1.70073 14.7304 7.62539 2.22635 21.0916 0.260097C34.5604 -1.69984 47.0683 7.62882 49.0295 21.0938C50.9907 34.5652 41.6659 47.0705 28.1958 49.0316ZM7.48551 28.0683C7.15367 28.4496 7.19304 29.0255 7.571 29.3573L15.5114 36.2797C15.5642 36.3753 15.6284 36.4631 15.716 36.5396L19.6744 40.0581C19.9152 40.2729 20.2403 40.3337 20.5304 40.2527C20.7498 40.229 20.9613 40.1256 21.1165 39.9478L24.7756 35.7466C24.8308 35.6847 24.8702 35.6216 24.9028 35.553L41.3549 17.0515C41.689 16.6758 41.6586 16.0965 41.2784 15.7623L37.3189 12.2438C36.9454 11.9053 36.3661 11.9401 36.0298 12.3158L19.9838 30.3618L12.4315 23.7815C12.0524 23.4497 11.4765 23.4878 11.1447 23.8692L7.48551 28.0683Z" fill="#A3ADCB"/>
</svg>
