<?xml version="1.0" encoding="utf-8"?>
<svg width="50px" height="50px" viewBox="0 0 50 50" version="1.1" xmlns:xlink="http://www.w3.org/1999/xlink" xmlns="http://www.w3.org/2000/svg">
  <g id="menu_label">
    <path d="M0 0L50 0L50 50L0 50L0 0Z" id="Background" fill="none" stroke="none" />
    <g id="Group" transform="translate(3.744629 2.068359)">
      <g id="Group">
        <path d="M34.1745 8.07277L41.6845 12.5118C42.0185 12.7088 42.0655 13.2478 41.7875 13.7148L22.4375 46.4608C22.1585 46.9278 21.6645 47.1468 21.3315 46.9498L0.283522 34.5098C-0.0494776 34.3158 -0.0964775 33.7748 0.181522 33.3058L19.5325 0.563774C19.8115 0.0947742 20.3045 -0.123226 20.6385 0.0707741L28.1475 4.51077C26.9715 6.64277 27.3075 9.09878 28.9345 10.0598C30.5615 11.0208 32.8755 10.1328 34.1745 8.07277ZM13.7385 36.6488C13.5125 37.0308 12.9745 37.1298 12.5375 36.8718L4.77952 32.2858C4.34152 32.0278 4.17252 31.5078 4.39652 31.1258L13.1555 16.3088C13.3815 15.9268 13.9205 15.8278 14.3555 16.0848L22.1135 20.6688C22.5515 20.9268 22.7205 21.4468 22.4965 21.8288L13.7385 36.6488ZM23.7105 23.7108L29.7745 27.2948C29.9895 27.4238 30.3645 27.1828 30.6155 26.7608C30.8655 26.3408 30.8925 25.8958 30.6775 25.7678L24.6135 22.1858C24.3985 22.0568 24.0215 22.2968 23.7715 22.7168C23.5225 23.1408 23.4955 23.5828 23.7105 23.7108ZM28.4365 29.5568L22.3725 25.9718C22.1575 25.8458 22.1865 25.4008 22.4345 24.9788C22.6845 24.5578 23.0595 24.3198 23.2745 24.4458L29.3385 28.0308C29.5535 28.1558 29.5275 28.6008 29.2775 29.0238C29.0285 29.4448 28.6515 29.6838 28.4365 29.5568ZM21.0365 28.2358L27.0985 31.8178C27.3155 31.9468 27.6905 31.7088 27.9405 31.2858C28.1905 30.8638 28.2185 30.4208 28.0015 30.2918L21.9395 26.7078C21.7225 26.5818 21.3475 26.8198 21.0975 27.2398C20.8485 27.6638 20.8205 28.1078 21.0365 28.2358Z" id="Shape" fill="#B5B2AB" fill-rule="evenodd" stroke="none" />
        <path d="M0 0L19.543 11.55" transform="translate(15.94052 10.41477)" id="Line" fill="#B5B2AB" stroke="none" />
      </g>
    </g>
  </g>
</svg>
