<svg width="40" height="40" viewBox="0 0 40 40" fill="none" xmlns="http://www.w3.org/2000/svg">
<path d="M3.90379 14.835H10.2954C10.3608 14.835 10.4261 14.8382 10.4913 14.8446C10.5564 14.851 10.6211 14.8606 10.6853 14.8734C10.7496 14.8861 10.813 14.902 10.8756 14.921C10.9383 14.94 10.9999 14.9621 11.0603 14.9871C11.1208 15.0122 11.1799 15.0401 11.2377 15.071C11.2954 15.1019 11.3515 15.1355 11.4059 15.1719C11.4604 15.2082 11.5129 15.2472 11.5635 15.2887C11.6141 15.3302 11.6626 15.3742 11.7089 15.4205C11.7552 15.4667 11.7991 15.5152 11.8406 15.5658C11.8821 15.6164 11.9211 15.6689 11.9575 15.7234C11.9938 15.7778 12.0274 15.8339 12.0583 15.8916C12.0892 15.9494 12.1171 16.0085 12.1422 16.069C12.1673 16.1295 12.1893 16.191 12.2083 16.2537C12.2273 16.3163 12.2432 16.3798 12.256 16.444C12.2687 16.5082 12.2783 16.5729 12.2847 16.638C12.2912 16.7032 12.2944 16.7685 12.2944 16.834V23.2255C12.2944 23.291 12.2912 23.3563 12.2847 23.4215C12.2783 23.4866 12.2687 23.5513 12.256 23.6155C12.2432 23.6797 12.2273 23.7432 12.2083 23.8058C12.1893 23.8685 12.1673 23.93 12.1422 23.9905C12.1171 24.051 12.0892 24.1101 12.0583 24.1679C12.0274 24.2256 11.9938 24.2817 11.9575 24.3361C11.9211 24.3906 11.8821 24.4431 11.8406 24.4937C11.7991 24.5443 11.7552 24.5927 11.7089 24.639C11.6626 24.6853 11.6141 24.7292 11.5635 24.7708C11.5129 24.8123 11.4604 24.8513 11.4059 24.8877C11.3515 24.924 11.2954 24.9576 11.2377 24.9885C11.1799 25.0193 11.1208 25.0473 11.0603 25.0724C10.9999 25.0974 10.9383 25.1195 10.8756 25.1385C10.813 25.1575 10.7496 25.1734 10.6853 25.1862C10.6211 25.1989 10.5564 25.2085 10.4913 25.2149C10.4261 25.2213 10.3608 25.2246 10.2954 25.2246H3.90379C3.83832 25.2246 3.77301 25.2213 3.70785 25.2149C3.64269 25.2085 3.57801 25.1989 3.5138 25.1862C3.44959 25.1734 3.38616 25.1575 3.32351 25.1385C3.26085 25.1195 3.19929 25.0974 3.13881 25.0724C3.07832 25.0473 3.01921 25.0193 2.96147 24.9885C2.90372 24.9576 2.84764 24.924 2.7932 24.8877C2.73876 24.8513 2.68624 24.8123 2.63563 24.7708C2.58502 24.7292 2.53657 24.6853 2.49028 24.639C2.44398 24.5927 2.40007 24.5443 2.35854 24.4937C2.317 24.4431 2.27805 24.3906 2.24168 24.3361C2.2053 24.2817 2.17169 24.2256 2.14082 24.1679C2.10996 24.1101 2.082 24.051 2.05695 23.9905C2.0319 23.93 2.00987 23.8685 1.99086 23.8058C1.97186 23.7432 1.95597 23.6797 1.9432 23.6155C1.93042 23.5513 1.92083 23.4866 1.91441 23.4215C1.90799 23.3563 1.90479 23.291 1.90479 23.2255V16.834C1.90479 16.7685 1.90799 16.7032 1.91441 16.638C1.92083 16.5729 1.93042 16.5082 1.9432 16.444C1.95597 16.3798 1.97186 16.3163 1.99086 16.2537C2.00987 16.191 2.0319 16.1295 2.05695 16.069C2.082 16.0085 2.10996 15.9494 2.14082 15.8916C2.17169 15.8339 2.2053 15.7778 2.24168 15.7234C2.27805 15.6689 2.317 15.6164 2.35854 15.5658C2.40007 15.5152 2.44398 15.4667 2.49028 15.4205C2.53657 15.3742 2.58502 15.3302 2.63563 15.2887C2.68624 15.2472 2.73876 15.2082 2.7932 15.1719C2.84764 15.1355 2.90372 15.1019 2.96147 15.071C3.01921 15.0401 3.07832 15.0122 3.13881 14.9871C3.19929 14.9621 3.26085 14.94 3.32351 14.921C3.38616 14.902 3.44959 14.8861 3.5138 14.8734C3.57801 14.8606 3.64269 14.851 3.70785 14.8446C3.77301 14.8382 3.83832 14.835 3.90379 14.835Z" fill="#64635F"/>
<path d="M3.90379 1.90527H10.2954C10.3608 1.90527 10.4261 1.90848 10.4913 1.9149C10.5564 1.92132 10.6211 1.93091 10.6853 1.94368C10.7496 1.95646 10.813 1.97234 10.8756 1.99135C10.9383 2.01035 10.9999 2.03238 11.0603 2.05744C11.1208 2.08249 11.1799 2.11045 11.2377 2.14131C11.2954 2.17218 11.3515 2.20579 11.4059 2.24217C11.4604 2.27854 11.5129 2.31749 11.5635 2.35903C11.6141 2.40056 11.6626 2.44447 11.7089 2.49077C11.7552 2.53706 11.7991 2.58551 11.8406 2.63612C11.8821 2.68673 11.9211 2.73925 11.9575 2.79369C11.9938 2.84812 12.0274 2.90421 12.0583 2.96195C12.0892 3.01969 12.1171 3.07881 12.1422 3.13929C12.1673 3.19977 12.1893 3.26134 12.2083 3.32399C12.2273 3.38665 12.2432 3.45008 12.256 3.51428C12.2687 3.5785 12.2783 3.64318 12.2847 3.70833C12.2912 3.77349 12.2944 3.83881 12.2944 3.90427V10.2958C12.2944 10.3613 12.2912 10.4266 12.2847 10.4918C12.2783 10.5569 12.2687 10.6216 12.256 10.6858C12.2432 10.75 12.2273 10.8135 12.2083 10.8761C12.1893 10.9388 12.1673 11.0003 12.1422 11.0608C12.1171 11.1213 12.0892 11.1804 12.0583 11.2382C12.0274 11.2959 11.9938 11.352 11.9575 11.4064C11.9211 11.4609 11.8821 11.5134 11.8406 11.564C11.7991 11.6146 11.7552 11.6631 11.7089 11.7094C11.6626 11.7556 11.6141 11.7996 11.5635 11.8411C11.5129 11.8826 11.4604 11.9216 11.4059 11.958C11.3515 11.9943 11.2954 12.0279 11.2377 12.0588C11.1799 12.0896 11.1208 12.1176 11.0603 12.1427C10.9999 12.1677 10.9383 12.1898 10.8756 12.2088C10.813 12.2278 10.7496 12.2437 10.6853 12.2565C10.6211 12.2692 10.5564 12.2788 10.4913 12.2852C10.4261 12.2916 10.3608 12.2949 10.2954 12.2949H3.90379C3.83832 12.2949 3.77301 12.2916 3.70785 12.2852C3.64269 12.2788 3.57801 12.2692 3.5138 12.2565C3.44959 12.2437 3.38616 12.2278 3.32351 12.2088C3.26085 12.1898 3.19929 12.1677 3.13881 12.1427C3.07832 12.1176 3.01921 12.0896 2.96147 12.0588C2.90372 12.0279 2.84764 11.9943 2.7932 11.958C2.73876 11.9216 2.68624 11.8826 2.63563 11.8411C2.58502 11.7996 2.53657 11.7556 2.49028 11.7094C2.44398 11.6631 2.40007 11.6146 2.35854 11.564C2.317 11.5134 2.27805 11.4609 2.24168 11.4064C2.2053 11.352 2.17169 11.2959 2.14082 11.2382C2.10996 11.1804 2.082 11.1213 2.05695 11.0608C2.0319 11.0003 2.00987 10.9388 1.99086 10.8761C1.97186 10.8135 1.95597 10.75 1.9432 10.6858C1.93042 10.6216 1.92083 10.5569 1.91441 10.4918C1.90799 10.4266 1.90479 10.3613 1.90479 10.2958V3.90427C1.90479 3.83881 1.90799 3.77349 1.91441 3.70833C1.92083 3.64318 1.93042 3.5785 1.9432 3.51428C1.95597 3.45008 1.97186 3.38665 1.99086 3.32399C2.00987 3.26134 2.0319 3.19977 2.05695 3.13929C2.082 3.07881 2.10996 3.01969 2.14082 2.96195C2.17169 2.90421 2.2053 2.84812 2.24168 2.79369C2.27805 2.73925 2.317 2.68673 2.35854 2.63612C2.40007 2.58551 2.44398 2.53706 2.49028 2.49077C2.53657 2.44447 2.58502 2.40056 2.63563 2.35903C2.68624 2.31749 2.73876 2.27854 2.7932 2.24217C2.84764 2.20579 2.90372 2.17218 2.96147 2.14131C3.01921 2.11045 3.07832 2.08249 3.13881 2.05744C3.19929 2.03238 3.26085 2.01035 3.32351 1.99135C3.38616 1.97234 3.44959 1.95646 3.5138 1.94368C3.57801 1.93091 3.64269 1.92132 3.70785 1.9149C3.77301 1.90848 3.83832 1.90527 3.90379 1.90527Z" fill="#64635F"/>
<path d="M16.602 14.835H22.9936C23.0591 14.835 23.1244 14.8382 23.1895 14.8446C23.2547 14.851 23.3194 14.8606 23.3836 14.8734C23.4478 14.8861 23.5112 14.902 23.5739 14.921C23.6365 14.94 23.6981 14.9621 23.7586 14.9871C23.8191 15.0122 23.8782 15.0401 23.9359 15.071C23.9937 15.1019 24.0497 15.1355 24.1042 15.1719C24.1586 15.2082 24.2111 15.2472 24.2617 15.2887C24.3124 15.3302 24.3608 15.3742 24.4071 15.4205C24.4534 15.4667 24.4973 15.5152 24.5388 15.5658C24.5804 15.6164 24.6193 15.6689 24.6557 15.7234C24.6921 15.7778 24.7257 15.8339 24.7565 15.8916C24.7874 15.9494 24.8154 16.0085 24.8404 16.069C24.8655 16.1295 24.8875 16.191 24.9065 16.2537C24.9255 16.3163 24.9414 16.3798 24.9542 16.444C24.967 16.5082 24.9765 16.5729 24.9829 16.638C24.9894 16.7032 24.9926 16.7685 24.9926 16.834V23.2255C24.9926 23.291 24.9894 23.3563 24.9829 23.4215C24.9765 23.4866 24.967 23.5513 24.9542 23.6155C24.9414 23.6797 24.9255 23.7432 24.9065 23.8058C24.8875 23.8685 24.8655 23.93 24.8404 23.9905C24.8154 24.051 24.7874 24.1101 24.7565 24.1679C24.7257 24.2256 24.6921 24.2817 24.6557 24.3361C24.6193 24.3906 24.5804 24.4431 24.5388 24.4937C24.4973 24.5443 24.4534 24.5927 24.4071 24.639C24.3608 24.6853 24.3124 24.7292 24.2617 24.7708C24.2111 24.8123 24.1586 24.8513 24.1042 24.8877C24.0497 24.924 23.9937 24.9576 23.9359 24.9885C23.8782 25.0193 23.8191 25.0473 23.7586 25.0724C23.6981 25.0974 23.6365 25.1195 23.5739 25.1385C23.5112 25.1575 23.4478 25.1734 23.3836 25.1862C23.3194 25.1989 23.2547 25.2085 23.1895 25.2149C23.1244 25.2213 23.0591 25.2246 22.9936 25.2246H16.602C16.5366 25.2246 16.4712 25.2213 16.4061 25.2149C16.3409 25.2085 16.2763 25.1989 16.212 25.1862C16.1478 25.1734 16.0844 25.1575 16.0217 25.1385C15.9591 25.1195 15.8975 25.0974 15.837 25.0724C15.7766 25.0473 15.7174 25.0193 15.6597 24.9885C15.602 24.9576 15.5459 24.924 15.4914 24.8877C15.437 24.8513 15.3845 24.8123 15.3339 24.7708C15.2833 24.7292 15.2348 24.6853 15.1885 24.639C15.1422 24.5927 15.0983 24.5443 15.0568 24.4937C15.0152 24.4431 14.9763 24.3906 14.9399 24.3361C14.9035 24.2817 14.8699 24.2256 14.8391 24.1679C14.8082 24.1101 14.7802 24.051 14.7552 23.9905C14.7301 23.93 14.7081 23.8685 14.6891 23.8058C14.6701 23.7432 14.6542 23.6797 14.6414 23.6155C14.6287 23.5513 14.6191 23.4866 14.6127 23.4215C14.6062 23.3563 14.603 23.291 14.603 23.2255V16.834C14.603 16.7685 14.6062 16.7032 14.6127 16.638C14.6191 16.5729 14.6287 16.5082 14.6414 16.444C14.6542 16.3798 14.6701 16.3163 14.6891 16.2537C14.7081 16.191 14.7301 16.1295 14.7552 16.069C14.7802 16.0085 14.8082 15.9494 14.8391 15.8916C14.8699 15.8339 14.9035 15.7778 14.9399 15.7234C14.9763 15.6689 15.0152 15.6164 15.0568 15.5658C15.0983 15.5152 15.1422 15.4667 15.1885 15.4205C15.2348 15.3742 15.2833 15.3302 15.3339 15.2887C15.3845 15.2472 15.437 15.2082 15.4914 15.1719C15.5459 15.1355 15.602 15.1019 15.6597 15.071C15.7174 15.0401 15.7766 15.0122 15.837 14.9871C15.8975 14.9621 15.9591 14.94 16.0217 14.921C16.0844 14.902 16.1478 14.8861 16.212 14.8734C16.2763 14.8606 16.3409 14.851 16.4061 14.8446C16.4712 14.8382 16.5366 14.835 16.602 14.835Z" fill="#64635F"/>
<path d="M29.3005 15.0659H35.6921C35.7576 15.0659 35.8229 15.0691 35.888 15.0755C35.9532 15.082 36.0179 15.0916 36.0821 15.1043C36.1463 15.1171 36.2097 15.133 36.2724 15.152C36.335 15.171 36.3966 15.193 36.4571 15.2181C36.5176 15.2431 36.5767 15.2711 36.6344 15.302C36.6922 15.3328 36.7482 15.3664 36.8027 15.4028C36.8571 15.4392 36.9096 15.4781 36.9602 15.5197C37.0108 15.5612 37.0593 15.6051 37.1056 15.6514C37.1519 15.6977 37.1958 15.7462 37.2373 15.7968C37.2789 15.8474 37.3178 15.8999 37.3542 15.9543C37.3905 16.0088 37.4241 16.0649 37.455 16.1226C37.4859 16.1803 37.5138 16.2395 37.5389 16.2999C37.564 16.3604 37.586 16.422 37.605 16.4846C37.624 16.5473 37.6399 16.6107 37.6527 16.6749C37.6654 16.7391 37.675 16.8038 37.6815 16.869C37.6879 16.9341 37.6911 16.9995 37.6911 17.0649V23.4565C37.6911 23.522 37.6879 23.5873 37.6815 23.6524C37.675 23.7176 37.6654 23.7823 37.6527 23.8465C37.6399 23.9107 37.624 23.9741 37.605 24.0368C37.586 24.0994 37.564 24.161 37.5389 24.2215C37.5138 24.282 37.4859 24.3411 37.455 24.3988C37.4241 24.4565 37.3905 24.5126 37.3542 24.5671C37.3178 24.6215 37.2789 24.674 37.2373 24.7246C37.1958 24.7753 37.1519 24.8237 37.1056 24.87C37.0593 24.9163 37.0108 24.9602 36.9602 25.0017C36.9096 25.0433 36.8571 25.0822 36.8027 25.1186C36.7482 25.155 36.6922 25.1886 36.6344 25.2194C36.5767 25.2503 36.5176 25.2783 36.4571 25.3033C36.3966 25.3284 36.335 25.3504 36.2724 25.3694C36.2097 25.3884 36.1463 25.4043 36.0821 25.4171C36.0179 25.4299 35.9532 25.4394 35.888 25.4458C35.8229 25.4523 35.7576 25.4555 35.6921 25.4555H29.3005C29.235 25.4555 29.1697 25.4523 29.1046 25.4458C29.0394 25.4394 28.9747 25.4299 28.9105 25.4171C28.8463 25.4043 28.7829 25.3884 28.7202 25.3694C28.6576 25.3504 28.596 25.3284 28.5355 25.3033C28.475 25.2783 28.4159 25.2503 28.3582 25.2194C28.3005 25.1886 28.2444 25.155 28.1899 25.1186C28.1355 25.0822 28.083 25.0433 28.0324 25.0017C27.9818 24.9602 27.9333 24.9163 27.887 24.87C27.8407 24.8237 27.7968 24.7753 27.7553 24.7246C27.7137 24.674 27.6748 24.6215 27.6384 24.5671C27.602 24.5126 27.5684 24.4565 27.5376 24.3988C27.5067 24.3411 27.4787 24.282 27.4537 24.2215C27.4286 24.161 27.4066 24.0994 27.3876 24.0368C27.3686 23.9741 27.3527 23.9107 27.3399 23.8465C27.3272 23.7823 27.3176 23.7176 27.3111 23.6524C27.3047 23.5873 27.3015 23.522 27.3015 23.4565V17.0649C27.3015 16.9995 27.3047 16.9341 27.3111 16.869C27.3176 16.8038 27.3272 16.7391 27.3399 16.6749C27.3527 16.6107 27.3686 16.5473 27.3876 16.4846C27.4066 16.422 27.4286 16.3604 27.4537 16.2999C27.4787 16.2395 27.5067 16.1803 27.5376 16.1226C27.5684 16.0649 27.602 16.0088 27.6384 15.9543C27.6748 15.8999 27.7137 15.8474 27.7553 15.7968C27.7968 15.7462 27.8407 15.6977 27.887 15.6514C27.9333 15.6051 27.9818 15.5612 28.0324 15.5197C28.083 15.4781 28.1355 15.4392 28.1899 15.4028C28.2444 15.3664 28.3005 15.3328 28.3582 15.302C28.4159 15.2711 28.475 15.2431 28.5355 15.2181C28.596 15.193 28.6576 15.171 28.7202 15.152C28.7829 15.133 28.8463 15.1171 28.9105 15.1043C28.9747 15.0916 29.0394 15.082 29.1046 15.0755C29.1697 15.0691 29.235 15.0659 29.3005 15.0659Z" fill="#64635F"/>
<path d="M3.90379 27.5332H10.2954C10.3608 27.5332 10.4261 27.5364 10.4913 27.5428C10.5564 27.5492 10.6211 27.5588 10.6853 27.5716C10.7496 27.5844 10.813 27.6003 10.8756 27.6193C10.9383 27.6383 10.9999 27.6603 11.0603 27.6854C11.1208 27.7104 11.1799 27.7384 11.2377 27.7692C11.2954 27.8001 11.3515 27.8337 11.4059 27.8701C11.4604 27.9065 11.5129 27.9454 11.5635 27.987C11.6141 28.0285 11.6626 28.0724 11.7089 28.1187C11.7552 28.165 11.7991 28.2134 11.8406 28.2641C11.8821 28.3147 11.9211 28.3672 11.9575 28.4216C11.9938 28.4761 12.0274 28.5321 12.0583 28.5899C12.0892 28.6476 12.1171 28.7067 12.1422 28.7672C12.1673 28.8277 12.1893 28.8893 12.2083 28.9519C12.2273 29.0146 12.2432 29.078 12.256 29.1422C12.2687 29.2064 12.2783 29.2711 12.2847 29.3363C12.2912 29.4014 12.2944 29.4667 12.2944 29.5322V35.9238C12.2944 35.9892 12.2912 36.0546 12.2847 36.1197C12.2783 36.1849 12.2687 36.2495 12.256 36.3138C12.2432 36.378 12.2273 36.4414 12.2083 36.5041C12.1893 36.5667 12.1673 36.6283 12.1422 36.6888C12.1171 36.7492 12.0892 36.8084 12.0583 36.8661C12.0274 36.9238 11.9938 36.9799 11.9575 37.0344C11.9211 37.0888 11.8821 37.1413 11.8406 37.1919C11.7991 37.2425 11.7552 37.291 11.7089 37.3373C11.6626 37.3836 11.6141 37.4275 11.5635 37.469C11.5129 37.5106 11.4604 37.5495 11.4059 37.5859C11.3515 37.6222 11.2954 37.6558 11.2377 37.6867C11.1799 37.7176 11.1208 37.7455 11.0603 37.7706C10.9999 37.7957 10.9383 37.8177 10.8756 37.8367C10.813 37.8557 10.7496 37.8716 10.6853 37.8844C10.6211 37.8971 10.5564 37.9067 10.4913 37.9131C10.4261 37.9196 10.3608 37.9228 10.2954 37.9228H3.90379C3.83832 37.9228 3.77301 37.9196 3.70785 37.9131C3.64269 37.9067 3.57801 37.8971 3.5138 37.8844C3.44959 37.8716 3.38616 37.8557 3.32351 37.8367C3.26085 37.8177 3.19929 37.7957 3.13881 37.7706C3.07832 37.7455 3.01921 37.7176 2.96147 37.6867C2.90372 37.6558 2.84764 37.6222 2.7932 37.5859C2.73876 37.5495 2.68624 37.5106 2.63563 37.469C2.58502 37.4275 2.53657 37.3836 2.49028 37.3373C2.44398 37.291 2.40007 37.2425 2.35854 37.1919C2.317 37.1413 2.27805 37.0888 2.24168 37.0344C2.2053 36.9799 2.17169 36.9238 2.14082 36.8661C2.10996 36.8084 2.082 36.7492 2.05695 36.6888C2.0319 36.6283 2.00987 36.5667 1.99086 36.5041C1.97186 36.4414 1.95597 36.378 1.9432 36.3138C1.93042 36.2495 1.92083 36.1849 1.91441 36.1197C1.90799 36.0546 1.90479 35.9892 1.90479 35.9238V29.5322C1.90479 29.4667 1.90799 29.4014 1.91441 29.3363C1.92083 29.2711 1.93042 29.2064 1.9432 29.1422C1.95597 29.078 1.97186 29.0146 1.99086 28.9519C2.00987 28.8893 2.0319 28.8277 2.05695 28.7672C2.082 28.7067 2.10996 28.6476 2.14082 28.5899C2.17169 28.5321 2.2053 28.4761 2.24168 28.4216C2.27805 28.3672 2.317 28.3147 2.35854 28.2641C2.40007 28.2134 2.44398 28.165 2.49028 28.1187C2.53657 28.0724 2.58502 28.0285 2.63563 27.987C2.68624 27.9454 2.73876 27.9065 2.7932 27.8701C2.84764 27.8337 2.90372 27.8001 2.96147 27.7692C3.01921 27.7384 3.07832 27.7104 3.13881 27.6854C3.19929 27.6603 3.26085 27.6383 3.32351 27.6193C3.38616 27.6003 3.44959 27.5844 3.5138 27.5716C3.57801 27.5588 3.64269 27.5492 3.70785 27.5428C3.77301 27.5364 3.83832 27.5332 3.90379 27.5332Z" fill="#64635F"/>
<path d="M16.602 1.90527H22.9936C23.0591 1.90527 23.1244 1.90848 23.1895 1.9149C23.2547 1.92132 23.3194 1.93091 23.3836 1.94368C23.4478 1.95646 23.5112 1.97234 23.5739 1.99135C23.6365 2.01035 23.6981 2.03238 23.7586 2.05744C23.8191 2.08249 23.8782 2.11045 23.9359 2.14131C23.9936 2.17218 24.0497 2.20579 24.1042 2.24217C24.1586 2.27854 24.2111 2.31749 24.2617 2.35903C24.3124 2.40056 24.3608 2.44447 24.4071 2.49077C24.4534 2.53706 24.4973 2.58551 24.5388 2.63612C24.5804 2.68673 24.6193 2.73925 24.6557 2.79369C24.6921 2.84812 24.7257 2.90421 24.7565 2.96195C24.7874 3.01969 24.8154 3.07881 24.8404 3.13929C24.8655 3.19977 24.8875 3.26134 24.9065 3.32399C24.9255 3.38665 24.9414 3.45008 24.9542 3.51428C24.967 3.5785 24.9765 3.64318 24.9829 3.70833C24.9894 3.77349 24.9926 3.83881 24.9926 3.90427V10.2958C24.9926 10.3613 24.9894 10.4266 24.9829 10.4918C24.9765 10.5569 24.967 10.6216 24.9542 10.6858C24.9414 10.75 24.9255 10.8135 24.9065 10.8761C24.8875 10.9388 24.8655 11.0003 24.8404 11.0608C24.8154 11.1213 24.7874 11.1804 24.7565 11.2382C24.7257 11.2959 24.6921 11.352 24.6557 11.4064C24.6193 11.4609 24.5804 11.5134 24.5388 11.564C24.4973 11.6146 24.4534 11.6631 24.4071 11.7094C24.3608 11.7556 24.3124 11.7996 24.2617 11.8411C24.2111 11.8826 24.1586 11.9216 24.1042 11.958C24.0497 11.9943 23.9936 12.0279 23.9359 12.0588C23.8782 12.0896 23.8191 12.1176 23.7586 12.1427C23.6981 12.1677 23.6365 12.1898 23.5739 12.2088C23.5112 12.2278 23.4478 12.2437 23.3836 12.2565C23.3194 12.2692 23.2547 12.2788 23.1895 12.2852C23.1244 12.2916 23.0591 12.2949 22.9936 12.2949H16.602C16.5366 12.2949 16.4712 12.2916 16.4061 12.2852C16.3409 12.2788 16.2763 12.2692 16.212 12.2565C16.1478 12.2437 16.0844 12.2278 16.0217 12.2088C15.9591 12.1898 15.8975 12.1677 15.837 12.1427C15.7766 12.1176 15.7174 12.0896 15.6597 12.0588C15.602 12.0279 15.5459 11.9943 15.4914 11.958C15.437 11.9216 15.3845 11.8826 15.3339 11.8411C15.2833 11.7996 15.2348 11.7556 15.1885 11.7094C15.1422 11.6631 15.0983 11.6146 15.0568 11.564C15.0152 11.5134 14.9763 11.4609 14.9399 11.4064C14.9035 11.352 14.8699 11.2959 14.8391 11.2382C14.8082 11.1804 14.7802 11.1213 14.7552 11.0608C14.7301 11.0003 14.7081 10.9388 14.6891 10.8761C14.6701 10.8135 14.6542 10.75 14.6414 10.6858C14.6287 10.6216 14.6191 10.5569 14.6127 10.4918C14.6062 10.4266 14.603 10.3613 14.603 10.2958V3.90427C14.603 3.83881 14.6062 3.77349 14.6127 3.70833C14.6191 3.64318 14.6287 3.5785 14.6414 3.51428C14.6542 3.45008 14.6701 3.38665 14.6891 3.32399C14.7081 3.26134 14.7301 3.19977 14.7552 3.13929C14.7802 3.07881 14.8082 3.01969 14.8391 2.96195C14.8699 2.90421 14.9035 2.84812 14.9399 2.79369C14.9763 2.73925 15.0152 2.68673 15.0568 2.63612C15.0983 2.58551 15.1422 2.53706 15.1885 2.49077C15.2348 2.44447 15.2833 2.40056 15.3339 2.35903C15.3845 2.31749 15.437 2.27854 15.4914 2.24217C15.5459 2.20579 15.602 2.17218 15.6597 2.14131C15.7174 2.11045 15.7766 2.08249 15.837 2.05744C15.8975 2.03238 15.9591 2.01035 16.0217 1.99135C16.0844 1.97234 16.1478 1.95646 16.212 1.94368C16.2763 1.93091 16.3409 1.92132 16.4061 1.9149C16.4712 1.90848 16.5366 1.90527 16.602 1.90527Z" fill="#64635F"/>
<path d="M16.602 27.5332H22.9936C23.0591 27.5332 23.1244 27.5364 23.1895 27.5428C23.2547 27.5492 23.3194 27.5588 23.3836 27.5716C23.4478 27.5844 23.5112 27.6003 23.5739 27.6193C23.6365 27.6383 23.6981 27.6603 23.7586 27.6854C23.8191 27.7104 23.8782 27.7384 23.9359 27.7692C23.9937 27.8001 24.0497 27.8337 24.1042 27.8701C24.1586 27.9065 24.2111 27.9454 24.2617 27.987C24.3124 28.0285 24.3608 28.0724 24.4071 28.1187C24.4534 28.165 24.4973 28.2134 24.5388 28.2641C24.5804 28.3147 24.6193 28.3672 24.6557 28.4216C24.6921 28.4761 24.7257 28.5321 24.7565 28.5899C24.7874 28.6476 24.8154 28.7067 24.8404 28.7672C24.8655 28.8277 24.8875 28.8893 24.9065 28.9519C24.9255 29.0146 24.9414 29.078 24.9542 29.1422C24.967 29.2064 24.9765 29.2711 24.9829 29.3363C24.9894 29.4014 24.9926 29.4667 24.9926 29.5322V35.9238C24.9926 35.9892 24.9894 36.0546 24.9829 36.1197C24.9765 36.1849 24.967 36.2495 24.9542 36.3138C24.9414 36.378 24.9255 36.4414 24.9065 36.5041C24.8875 36.5667 24.8655 36.6283 24.8404 36.6888C24.8154 36.7492 24.7874 36.8084 24.7565 36.8661C24.7257 36.9238 24.6921 36.9799 24.6557 37.0344C24.6193 37.0888 24.5804 37.1413 24.5388 37.1919C24.4973 37.2425 24.4534 37.291 24.4071 37.3373C24.3608 37.3836 24.3124 37.4275 24.2617 37.469C24.2111 37.5106 24.1586 37.5495 24.1042 37.5859C24.0497 37.6222 23.9937 37.6558 23.9359 37.6867C23.8782 37.7176 23.8191 37.7455 23.7586 37.7706C23.6981 37.7957 23.6365 37.8177 23.5739 37.8367C23.5112 37.8557 23.4478 37.8716 23.3836 37.8844C23.3194 37.8971 23.2547 37.9067 23.1895 37.9131C23.1244 37.9196 23.0591 37.9228 22.9936 37.9228H16.602C16.5366 37.9228 16.4712 37.9196 16.4061 37.9131C16.3409 37.9067 16.2763 37.8971 16.212 37.8844C16.1478 37.8716 16.0844 37.8557 16.0217 37.8367C15.9591 37.8177 15.8975 37.7957 15.837 37.7706C15.7766 37.7455 15.7174 37.7176 15.6597 37.6867C15.602 37.6558 15.5459 37.6222 15.4914 37.5859C15.437 37.5495 15.3845 37.5106 15.3339 37.469C15.2833 37.4275 15.2348 37.3836 15.1885 37.3373C15.1422 37.291 15.0983 37.2425 15.0568 37.1919C15.0152 37.1413 14.9763 37.0888 14.9399 37.0344C14.9035 36.9799 14.8699 36.9238 14.8391 36.8661C14.8082 36.8084 14.7802 36.7492 14.7552 36.6888C14.7301 36.6283 14.7081 36.5667 14.6891 36.5041C14.6701 36.4414 14.6542 36.378 14.6414 36.3138C14.6287 36.2495 14.6191 36.1849 14.6127 36.1197C14.6062 36.0546 14.603 35.9892 14.603 35.9238V29.5322C14.603 29.4667 14.6062 29.4014 14.6127 29.3363C14.6191 29.2711 14.6287 29.2064 14.6414 29.1422C14.6542 29.078 14.6701 29.0146 14.6891 28.9519C14.7081 28.8893 14.7301 28.8277 14.7552 28.7672C14.7802 28.7067 14.8082 28.6476 14.8391 28.5899C14.8699 28.5321 14.9035 28.4761 14.9399 28.4216C14.9763 28.3672 15.0152 28.3147 15.0568 28.2641C15.0983 28.2134 15.1422 28.165 15.1885 28.1187C15.2348 28.0724 15.2833 28.0285 15.3339 27.987C15.3845 27.9454 15.437 27.9065 15.4914 27.8701C15.5459 27.8337 15.602 27.8001 15.6597 27.7692C15.7174 27.7384 15.7766 27.7104 15.837 27.6854C15.8975 27.6603 15.9591 27.6383 16.0217 27.6193C16.0844 27.6003 16.1478 27.5844 16.212 27.5716C16.2763 27.5588 16.3409 27.5492 16.4061 27.5428C16.4712 27.5364 16.5366 27.5332 16.602 27.5332Z" fill="#64635F"/>
<path d="M29.3008 2.13672H35.6923C35.7578 2.13672 35.8231 2.13993 35.8883 2.14634C35.9534 2.15276 36.0181 2.16236 36.0823 2.17513C36.1465 2.1879 36.21 2.20379 36.2726 2.2228C36.3353 2.2418 36.3968 2.26383 36.4573 2.28888C36.5178 2.31394 36.5769 2.3419 36.6346 2.37276C36.6924 2.40362 36.7485 2.43724 36.8029 2.47361C36.8573 2.50998 36.9099 2.54894 36.9605 2.59047C37.0111 2.632 37.0595 2.67592 37.1058 2.72221C37.1521 2.76851 37.196 2.81696 37.2376 2.86757C37.2791 2.91818 37.3181 2.9707 37.3545 3.02513C37.3908 3.07957 37.4244 3.13566 37.4553 3.1934C37.4861 3.25114 37.5141 3.31025 37.5392 3.37074C37.5642 3.43122 37.5863 3.49279 37.6053 3.55544C37.6243 3.61809 37.6402 3.68152 37.653 3.74573C37.6657 3.80994 37.6753 3.87463 37.6817 3.93978C37.6881 4.00494 37.6914 4.07025 37.6914 4.13572V10.5273C37.6914 10.5928 37.6881 10.6581 37.6817 10.7232C37.6753 10.7884 37.6657 10.8531 37.653 10.9173C37.6402 10.9815 37.6243 11.0449 37.6053 11.1076C37.5863 11.1702 37.5642 11.2318 37.5392 11.2923C37.5141 11.3528 37.4861 11.4119 37.4553 11.4696C37.4244 11.5273 37.3908 11.5834 37.3545 11.6379C37.3181 11.6923 37.2791 11.7448 37.2376 11.7954C37.196 11.8461 37.1521 11.8945 37.1058 11.9408C37.0595 11.9871 37.0111 12.031 36.9605 12.0725C36.9099 12.1141 36.8573 12.153 36.8029 12.1894C36.7485 12.2258 36.6924 12.2594 36.6346 12.2902C36.5769 12.3211 36.5178 12.3491 36.4573 12.3741C36.3968 12.3992 36.3353 12.4212 36.2726 12.4402C36.21 12.4592 36.1465 12.4751 36.0823 12.4879C36.0181 12.5007 35.9534 12.5102 35.8883 12.5166C35.8231 12.5231 35.7578 12.5263 35.6923 12.5263H29.3008C29.2353 12.5263 29.17 12.5231 29.1048 12.5166C29.0397 12.5102 28.975 12.5007 28.9108 12.4879C28.8466 12.4751 28.7831 12.4592 28.7205 12.4402C28.6578 12.4212 28.5963 12.3992 28.5358 12.3741C28.4753 12.3491 28.4162 12.3211 28.3584 12.2902C28.3007 12.2594 28.2446 12.2258 28.1902 12.1894C28.1357 12.153 28.0832 12.1141 28.0326 12.0725C27.982 12.031 27.9335 11.9871 27.8873 11.9408C27.841 11.8945 27.797 11.8461 27.7555 11.7954C27.714 11.7448 27.675 11.6923 27.6386 11.6379C27.6023 11.5834 27.5687 11.5273 27.5378 11.4696C27.5069 11.4119 27.479 11.3528 27.4539 11.2923C27.4289 11.2318 27.4068 11.1702 27.3878 11.1076C27.3688 11.0449 27.3529 10.9815 27.3402 10.9173C27.3274 10.8531 27.3178 10.7884 27.3114 10.7232C27.305 10.6581 27.3018 10.5928 27.3018 10.5273V4.13572C27.3018 4.07025 27.305 4.00494 27.3114 3.93978C27.3178 3.87463 27.3274 3.80994 27.3402 3.74573C27.3529 3.68152 27.3688 3.61809 27.3878 3.55544C27.4068 3.49279 27.4289 3.43122 27.4539 3.37074C27.479 3.31025 27.5069 3.25114 27.5378 3.1934C27.5687 3.13566 27.6023 3.07957 27.6386 3.02513C27.675 2.9707 27.714 2.91818 27.7555 2.86757C27.797 2.81696 27.841 2.76851 27.8873 2.72221C27.9335 2.67592 27.982 2.632 28.0326 2.59047C28.0832 2.54894 28.1357 2.50998 28.1902 2.47361C28.2446 2.43724 28.3007 2.40362 28.3584 2.37276C28.4162 2.3419 28.4753 2.31394 28.5358 2.28888C28.5963 2.26383 28.6578 2.2418 28.7205 2.2228C28.7831 2.20379 28.8466 2.1879 28.9108 2.17513C28.975 2.16236 29.0397 2.15276 29.1048 2.14634C29.17 2.13993 29.2353 2.13672 29.3008 2.13672Z" fill="#64635F"/>
<path d="M29.3005 27.7642H35.6921C35.7576 27.7642 35.8229 27.7674 35.888 27.7738C35.9532 27.7802 36.0179 27.7898 36.0821 27.8026C36.1463 27.8153 36.2097 27.8312 36.2724 27.8502C36.335 27.8692 36.3966 27.8913 36.4571 27.9163C36.5176 27.9414 36.5767 27.9693 36.6344 28.0002C36.6922 28.0311 36.7482 28.0647 36.8027 28.1011C36.8571 28.1374 36.9096 28.1764 36.9602 28.2179C37.0108 28.2594 37.0593 28.3034 37.1056 28.3497C37.1519 28.3959 37.1958 28.4444 37.2373 28.495C37.2789 28.5456 37.3178 28.5981 37.3542 28.6526C37.3905 28.707 37.4241 28.7631 37.455 28.8208C37.4859 28.8786 37.5138 28.9377 37.5389 28.9982C37.564 29.0587 37.586 29.1202 37.605 29.1829C37.624 29.2455 37.6399 29.309 37.6527 29.3732C37.6654 29.4374 37.675 29.5021 37.6815 29.5672C37.6879 29.6324 37.6911 29.6977 37.6911 29.7632V36.1547C37.6911 36.2202 37.6879 36.2855 37.6815 36.3507C37.675 36.4158 37.6654 36.4805 37.6527 36.5447C37.6399 36.6089 37.624 36.6724 37.605 36.735C37.586 36.7977 37.564 36.8592 37.5389 36.9197C37.5138 36.9802 37.4859 37.0393 37.455 37.097C37.4241 37.1548 37.3905 37.2109 37.3542 37.2653C37.3178 37.3198 37.2789 37.3723 37.2373 37.4229C37.1958 37.4735 37.1519 37.5219 37.1056 37.5682C37.0593 37.6145 37.0108 37.6584 36.9602 37.7C36.9096 37.7415 36.8571 37.7805 36.8027 37.8169C36.7482 37.8532 36.6922 37.8868 36.6344 37.9177C36.5767 37.9485 36.5176 37.9765 36.4571 38.0016C36.3966 38.0266 36.335 38.0487 36.2724 38.0677C36.2097 38.0867 36.1463 38.1026 36.0821 38.1154C36.0179 38.1281 35.9532 38.1377 35.888 38.1441C35.8229 38.1505 35.7576 38.1538 35.6921 38.1538H29.3005C29.235 38.1538 29.1697 38.1505 29.1046 38.1441C29.0394 38.1377 28.9747 38.1281 28.9105 38.1154C28.8463 38.1026 28.7829 38.0867 28.7202 38.0677C28.6576 38.0487 28.596 38.0266 28.5355 38.0016C28.475 37.9765 28.4159 37.9485 28.3582 37.9177C28.3005 37.8868 28.2444 37.8532 28.1899 37.8169C28.1355 37.7805 28.083 37.7415 28.0324 37.7C27.9818 37.6584 27.9333 37.6145 27.887 37.5682C27.8407 37.5219 27.7968 37.4735 27.7553 37.4229C27.7137 37.3723 27.6748 37.3198 27.6384 37.2653C27.602 37.2109 27.5684 37.1548 27.5376 37.097C27.5067 37.0393 27.4787 36.9802 27.4537 36.9197C27.4286 36.8592 27.4066 36.7977 27.3876 36.735C27.3686 36.6724 27.3527 36.6089 27.3399 36.5447C27.3272 36.4805 27.3176 36.4158 27.3111 36.3507C27.3047 36.2855 27.3015 36.2202 27.3015 36.1547V29.7632C27.3015 29.6977 27.3047 29.6324 27.3111 29.5672C27.3176 29.5021 27.3272 29.4374 27.3399 29.3732C27.3527 29.309 27.3686 29.2455 27.3876 29.1829C27.4066 29.1202 27.4286 29.0587 27.4537 28.9982C27.4787 28.9377 27.5067 28.8786 27.5376 28.8208C27.5684 28.7631 27.602 28.707 27.6384 28.6526C27.6748 28.5981 27.7137 28.5456 27.7553 28.495C27.7968 28.4444 27.8407 28.3959 27.887 28.3497C27.9333 28.3034 27.9818 28.2594 28.0324 28.2179C28.083 28.1764 28.1355 28.1374 28.1899 28.1011C28.2444 28.0647 28.3005 28.0311 28.3582 28.0002C28.4159 27.9693 28.475 27.9414 28.5355 27.9163C28.596 27.8913 28.6576 27.8692 28.7202 27.8502C28.7829 27.8312 28.8463 27.8153 28.9105 27.8026C28.9747 27.7898 29.0394 27.7802 29.1046 27.7738C29.1697 27.7674 29.235 27.7642 29.3005 27.7642Z" fill="#64635F"/>
</svg>
