<svg width="500" height="500" viewBox="0 0 500 500" fill="none" xmlns="http://www.w3.org/2000/svg">
<g clip-path="url(#clip0)">
<path d="M130.105 317.142C122.465 309.504 119.588 313.342 117.889 315.042C73.8935 359.037 34.8355 465.192 55.4837 454.822C130.652 417.079 143.177 428.317 187.17 384.324C188.871 382.624 192.782 379.822 184.92 371.957L130.105 317.142Z" fill="#374673"/>
<path d="M367.257 316.549C365.262 310.204 369.44 307.147 371.198 305.25C468.3 200.417 530.013 60.7467 484.28 15.0115C438.788 -30.4773 303.425 33.0382 198.62 129.439C196.546 131.349 192.46 134.965 185.149 133.439L152.496 125.664C143.43 123.508 130.62 127.132 124.03 133.721L4.21568 253.535C-2.37413 260.125 -0.233117 266.702 8.974 268.147L95.6317 281.765C104.839 283.215 117.763 279.004 124.352 272.414C124.352 272.414 128.823 267.932 133.315 272.422C158.1 297.205 204.157 343.26 227.769 366.875C232.463 371.567 227.968 376.029 227.968 376.029C221.376 382.622 217.169 395.542 218.618 404.752L232.235 491.407C233.682 500.617 240.258 502.759 246.848 496.167L366.663 376.352C373.253 369.762 376.877 356.954 374.717 347.889L367.257 316.549ZM340.433 161.759C320.138 141.465 320.138 108.566 340.433 88.2747C360.725 67.981 393.623 67.981 413.92 88.2747C434.21 108.564 434.21 141.465 413.92 161.757C393.623 182.051 360.723 182.051 340.433 161.759Z" fill="#374673"/>
</g>
<defs>
<clipPath id="clip0">
<rect width="500" height="500" fill="white"/>
</clipPath>
</defs>
</svg>
