<svg width="40" height="40" viewBox="0 0 40 40" fill="none" xmlns="http://www.w3.org/2000/svg">
<path d="M35 13.75H32.5V22.5C32.5 25.2563 30.2575 27.5 27.5 27.5H14.785L13.75 28.535V30C13.75 32.0675 15.4325 33.75 17.5 33.75H26.9825L31.6162 38.3838C31.855 38.6225 32.175 38.75 32.5 38.75C32.6612 38.75 32.8237 38.7188 32.9787 38.655C33.4462 38.4625 33.75 38.005 33.75 37.5V33.75H35C37.0675 33.75 38.75 32.0675 38.75 30V17.5C38.75 15.4325 37.0675 13.75 35 13.75Z" fill="#F4F2ED"/>
<path d="M27.5 1.25H5C2.9325 1.25 1.25 2.9325 1.25 5V22.5C1.25 24.5675 2.9325 26.25 5 26.25H6.25V31.25C6.25 31.755 6.55375 32.2125 7.02125 32.405C7.17625 32.4688 7.33875 32.5 7.5 32.5C7.825 32.5 8.145 32.3725 8.38375 32.1338L14.2675 26.25H27.5C29.5675 26.25 31.25 24.5675 31.25 22.5V5C31.25 2.9325 29.5675 1.25 27.5 1.25ZM16.25 20C15.56 20 15 19.4412 15 18.75C15 18.0588 15.56 17.5 16.25 17.5C16.94 17.5 17.5 18.0588 17.5 18.75C17.5 19.4412 16.94 20 16.25 20ZM17.9037 14.8438C17.765 14.9412 17.5863 15.07 17.4912 15.1538C17.415 15.7712 16.8888 16.25 16.25 16.25C15.56 16.25 15 15.6912 15 15C15 13.835 15.8787 13.2137 16.46 12.8025C17.1625 12.3062 17.5 12.0325 17.5 11.25C17.5 10.56 16.9388 10 16.25 10C15.5612 10 15 10.56 15 11.25C15 11.9412 14.44 12.5 13.75 12.5C13.06 12.5 12.5 11.9412 12.5 11.25C12.5 9.1825 14.1825 7.5 16.25 7.5C18.3175 7.5 20 9.1825 20 11.25C20 13.3612 18.6875 14.29 17.9037 14.8438Z" fill="#F4F2ED"/>
</svg>
