<?xml version="1.0" encoding="utf-8"?>
<svg width="59px" height="59px" viewBox="0 0 59 59" version="1.1" xmlns:xlink="http://www.w3.org/1999/xlink" xmlns="http://www.w3.org/2000/svg">
  <g id="menu_register">
    <path d="M0 0L59 0L59 59L0 59L0 0Z" id="Background" fill="none" stroke="none" />
    <g id="Group" transform="translate(8.323853 1.186523)">
      <path d="M41.652 6.53L36.617 6.53L36.617 4.189C36.617 3.509 36.062 2.957 35.381 2.957L26.736 2.957C26.158 1.266 23.791 0 20.956 0C18.123 0 15.758 1.266 15.179 2.957L6.531 2.957C5.85 2.957 5.3 3.51 5.3 4.189L5.3 6.53L1.231 6.53C0.549 6.53 0 6.952 0 7.468L0 55.005C0 55.525 0.549999 55.943 1.231 55.943L41.653 55.943C42.333 55.943 42.885 55.525 42.885 55.005L42.885 7.468C42.884 6.952 42.332 6.53 41.652 6.53ZM35.372 13.431C36.257 13.431 36.974 12.714 36.974 11.829L36.972 11.829L36.972 6.655L36.615 6.655L36.615 11.829C36.615 12.508 36.061 13.062 35.379 13.062L6.529 13.062C5.849 13.062 5.298 12.509 5.298 11.829L5.298 6.655L4.919 6.655L4.919 11.829C4.919 12.714 5.638 13.431 6.52 13.431L35.372 13.431ZM33.681 26.659L9.201 26.659C8.564 26.659 8.051 26.145 8.051 25.508C8.051 24.875 8.565 24.359 9.201 24.359L33.681 24.359C34.316 24.359 34.829 24.876 34.829 25.508C34.83 26.145 34.316 26.659 33.681 26.659ZM9.201 32.189L33.681 32.189C34.316 32.189 34.829 31.675 34.829 31.041C34.829 30.407 34.316 29.89 33.681 29.89L9.201 29.89C8.565 29.89 8.051 30.407 8.051 31.041C8.051 31.675 8.564 32.189 9.201 32.189ZM33.681 37.722L9.201 37.722C8.564 37.722 8.051 37.208 8.051 36.572C8.051 35.938 8.565 35.42 9.201 35.42L33.681 35.42C34.316 35.42 34.829 35.938 34.829 36.572C34.83 37.208 34.316 37.722 33.681 37.722ZM9.201 43.253L33.681 43.253C34.316 43.253 34.83 42.739 34.829 42.105C34.829 41.468 34.316 40.954 33.681 40.954L9.201 40.954C8.565 40.954 8.051 41.467 8.051 42.105C8.051 42.739 8.564 43.253 9.201 43.253Z" id="Shape" fill="#374673" fill-rule="evenodd" stroke="none" />
    </g>
  </g>
</svg>