<?xml version="1.0" encoding="utf-8"?>
<svg width="40px" height="40px" viewBox="0 0 40 40" version="1.1" xmlns:xlink="http://www.w3.org/1999/xlink" xmlns="http://www.w3.org/2000/svg">
  <g id="toggle">
    <path d="M1.999 0L38.001 0Q38.0992 0 38.1969 0.00962573Q38.2947 0.0192515 38.391 0.0384102Q38.4873 0.057569 38.5813 0.0860763Q38.6753 0.114584 38.766 0.152165Q38.8567 0.189746 38.9433 0.236039Q39.0299 0.282333 39.1116 0.336892Q39.1932 0.391452 39.2692 0.453752Q39.3451 0.516052 39.4145 0.585494Q39.4839 0.654935 39.5462 0.730848Q39.6085 0.806761 39.6631 0.888415Q39.7177 0.970069 39.764 1.05668Q39.8102 1.14329 39.8478 1.23402Q39.8854 1.32474 39.9139 1.41872Q39.9424 1.5127 39.9616 1.60901Q39.9807 1.70533 39.9904 1.80306Q40 1.9008 40 1.999L40 38.001Q40 38.0992 39.9904 38.1969Q39.9807 38.2947 39.9616 38.391Q39.9424 38.4873 39.9139 38.5813Q39.8854 38.6753 39.8478 38.766Q39.8102 38.8567 39.764 38.9433Q39.7177 39.0299 39.6631 39.1116Q39.6085 39.1932 39.5462 39.2692Q39.4839 39.3451 39.4145 39.4145Q39.3451 39.4839 39.2692 39.5462Q39.1932 39.6085 39.1116 39.6631Q39.0299 39.7177 38.9433 39.764Q38.8567 39.8103 38.766 39.8478Q38.6753 39.8854 38.5813 39.9139Q38.4873 39.9424 38.391 39.9616Q38.2947 39.9808 38.1969 39.9904Q38.0992 40 38.001 40L1.999 40Q1.9008 40 1.80306 39.9904Q1.70533 39.9808 1.60901 39.9616Q1.5127 39.9424 1.41872 39.9139Q1.32474 39.8854 1.23402 39.8478Q1.14329 39.8103 1.05668 39.764Q0.970069 39.7177 0.888415 39.6631Q0.806761 39.6085 0.730848 39.5462Q0.654935 39.4839 0.585494 39.4145Q0.516052 39.3451 0.453752 39.2692Q0.391452 39.1932 0.336892 39.1116Q0.282333 39.0299 0.236039 38.9433Q0.189746 38.8567 0.152165 38.766Q0.114584 38.6753 0.0860763 38.5813Q0.057569 38.4873 0.0384102 38.391Q0.0192515 38.2947 0.00962573 38.1969Q0 38.0992 0 38.001L0 1.999Q0 1.9008 0.00962573 1.80306Q0.0192515 1.70533 0.0384102 1.60901Q0.057569 1.5127 0.0860763 1.41872Q0.114584 1.32474 0.152165 1.23402Q0.189746 1.14329 0.236039 1.05668Q0.282333 0.970069 0.336892 0.888415Q0.391452 0.806761 0.453752 0.730848Q0.516052 0.654935 0.585494 0.585494Q0.654935 0.516052 0.730848 0.453752Q0.806761 0.391452 0.888415 0.336892Q0.970069 0.282333 1.05668 0.236039Q1.14329 0.189746 1.23402 0.152165Q1.32474 0.114584 1.41872 0.0860763Q1.5127 0.057569 1.60901 0.0384102Q1.70533 0.0192515 1.80306 0.00962573Q1.9008 0 1.999 0L1.999 0Z" id="Background" fill="none" stroke="none" />
    <path d="M1.999 0L8.39057 0Q8.48878 0 8.58651 0.00962573Q8.68424 0.0192515 8.78056 0.0384102Q8.87688 0.057569 8.97085 0.0860763Q9.06483 0.114584 9.15556 0.152165Q9.24629 0.189746 9.3329 0.236039Q9.4195 0.282333 9.50116 0.336892Q9.58281 0.391452 9.65873 0.453752Q9.73464 0.516052 9.80408 0.585494Q9.87352 0.654935 9.93582 0.730848Q9.99812 0.806761 10.0527 0.888415Q10.1072 0.970069 10.1535 1.05668Q10.1998 1.14329 10.2374 1.23402Q10.275 1.32474 10.3035 1.41872Q10.332 1.5127 10.3512 1.60901Q10.3703 1.70533 10.3799 1.80306Q10.3896 1.9008 10.3896 1.999L10.3896 8.39057Q10.3896 8.48878 10.3799 8.58651Q10.3703 8.68424 10.3512 8.78056Q10.332 8.87688 10.3035 8.97085Q10.275 9.06483 10.2374 9.15556Q10.1998 9.24629 10.1535 9.33289Q10.1072 9.4195 10.0527 9.50116Q9.99812 9.58281 9.93582 9.65872Q9.87352 9.73464 9.80408 9.80408Q9.73464 9.87352 9.65873 9.93582Q9.58281 9.99812 9.50116 10.0527Q9.41951 10.1072 9.3329 10.1535Q9.24629 10.1998 9.15556 10.2374Q9.06483 10.275 8.97085 10.3035Q8.87688 10.332 8.78056 10.3512Q8.68424 10.3703 8.58651 10.3799Q8.48878 10.3896 8.39057 10.3896L1.999 10.3896Q1.9008 10.3896 1.80306 10.3799Q1.70533 10.3703 1.60901 10.3512Q1.5127 10.332 1.41872 10.3035Q1.32474 10.275 1.23402 10.2374Q1.14329 10.1998 1.05668 10.1535Q0.970069 10.1072 0.888415 10.0527Q0.806761 9.99812 0.730848 9.93582Q0.654935 9.87352 0.585494 9.80408Q0.516052 9.73464 0.453752 9.65872Q0.391452 9.58281 0.336892 9.50116Q0.282333 9.4195 0.236039 9.33289Q0.189746 9.24629 0.152165 9.15556Q0.114584 9.06483 0.0860763 8.97085Q0.057569 8.87688 0.0384102 8.78056Q0.0192515 8.68424 0.00962573 8.58651Q0 8.48878 0 8.39057L0 1.999Q0 1.9008 0.00962573 1.80306Q0.0192515 1.70533 0.0384102 1.60901Q0.057569 1.5127 0.0860763 1.41872Q0.114584 1.32474 0.152165 1.23402Q0.189746 1.14329 0.236039 1.05668Q0.282333 0.970069 0.336892 0.888415Q0.391452 0.806761 0.453752 0.730848Q0.516052 0.654935 0.585494 0.585494Q0.654935 0.516052 0.730848 0.453752Q0.806761 0.391452 0.888415 0.336892Q0.970069 0.282333 1.05668 0.236039Q1.14329 0.189746 1.23402 0.152165Q1.32474 0.114584 1.41872 0.0860763Q1.5127 0.057569 1.60901 0.0384102Q1.70533 0.0192515 1.80306 0.00962573Q1.9008 0 1.999 0L1.999 0Z" transform="translate(1.904785 14.83496)" id="Rectangle" fill="#777672" stroke="none" />
    <path d="M1.999 0L8.39057 0Q8.48878 0 8.58651 0.00962573Q8.68424 0.0192515 8.78056 0.0384102Q8.87688 0.057569 8.97085 0.0860763Q9.06483 0.114584 9.15556 0.152165Q9.24629 0.189746 9.3329 0.236039Q9.4195 0.282333 9.50116 0.336892Q9.58281 0.391452 9.65873 0.453752Q9.73464 0.516052 9.80408 0.585494Q9.87352 0.654935 9.93582 0.730848Q9.99812 0.806761 10.0527 0.888415Q10.1072 0.970069 10.1535 1.05668Q10.1998 1.14329 10.2374 1.23402Q10.275 1.32474 10.3035 1.41872Q10.332 1.5127 10.3512 1.60901Q10.3703 1.70533 10.3799 1.80306Q10.3896 1.9008 10.3896 1.999L10.3896 8.39057Q10.3896 8.48878 10.3799 8.58651Q10.3703 8.68424 10.3512 8.78056Q10.332 8.87687 10.3035 8.97085Q10.275 9.06483 10.2374 9.15555Q10.1998 9.24628 10.1535 9.33289Q10.1072 9.4195 10.0527 9.50116Q9.99812 9.58281 9.93582 9.65872Q9.87352 9.73464 9.80408 9.80408Q9.73464 9.87352 9.65873 9.93582Q9.58281 9.99812 9.50116 10.0527Q9.41951 10.1072 9.3329 10.1535Q9.24629 10.1998 9.15556 10.2374Q9.06483 10.275 8.97085 10.3035Q8.87688 10.332 8.78056 10.3512Q8.68424 10.3703 8.58651 10.3799Q8.48878 10.3896 8.39057 10.3896L1.999 10.3896Q1.9008 10.3896 1.80306 10.3799Q1.70533 10.3703 1.60901 10.3512Q1.5127 10.332 1.41872 10.3035Q1.32474 10.275 1.23402 10.2374Q1.14329 10.1998 1.05668 10.1535Q0.970069 10.1072 0.888415 10.0527Q0.806761 9.99812 0.730848 9.93582Q0.654935 9.87352 0.585494 9.80408Q0.516052 9.73464 0.453752 9.65872Q0.391452 9.58281 0.336892 9.50116Q0.282333 9.4195 0.236039 9.33289Q0.189746 9.24628 0.152165 9.15555Q0.114584 9.06483 0.0860763 8.97085Q0.057569 8.87687 0.0384102 8.78056Q0.0192515 8.68424 0.00962573 8.58651Q0 8.48878 0 8.39057L0 1.999Q0 1.9008 0.00962573 1.80306Q0.0192515 1.70533 0.0384102 1.60901Q0.057569 1.5127 0.0860763 1.41872Q0.114584 1.32474 0.152165 1.23402Q0.189746 1.14329 0.236039 1.05668Q0.282333 0.970069 0.336892 0.888415Q0.391452 0.806761 0.453752 0.730848Q0.516052 0.654935 0.585494 0.585494Q0.654935 0.516052 0.730848 0.453752Q0.806761 0.391452 0.888415 0.336892Q0.970069 0.282333 1.05668 0.236039Q1.14329 0.189746 1.23402 0.152165Q1.32474 0.114584 1.41872 0.0860763Q1.5127 0.057569 1.60901 0.0384102Q1.70533 0.0192515 1.80306 0.00962573Q1.9008 0 1.999 0L1.999 0Z" transform="translate(1.904785 1.905273)" id="Rectangle-Copy-3" fill="#777672" stroke="none" />
    <path d="M1.999 0L8.39057 0Q8.48878 0 8.58651 0.00962573Q8.68424 0.0192515 8.78056 0.0384102Q8.87688 0.057569 8.97085 0.0860763Q9.06483 0.114584 9.15556 0.152165Q9.24629 0.189746 9.33289 0.236039Q9.4195 0.282333 9.50116 0.336892Q9.58281 0.391452 9.65872 0.453752Q9.73464 0.516052 9.80408 0.585494Q9.87352 0.654935 9.93582 0.730848Q9.99812 0.806761 10.0527 0.888415Q10.1072 0.970069 10.1535 1.05668Q10.1998 1.14329 10.2374 1.23402Q10.275 1.32474 10.3035 1.41872Q10.332 1.5127 10.3512 1.60901Q10.3703 1.70533 10.3799 1.80306Q10.3896 1.9008 10.3896 1.999L10.3896 8.39057Q10.3896 8.48878 10.3799 8.58651Q10.3703 8.68424 10.3512 8.78056Q10.332 8.87688 10.3035 8.97085Q10.275 9.06483 10.2374 9.15556Q10.1998 9.24629 10.1535 9.33289Q10.1072 9.4195 10.0527 9.50116Q9.99812 9.58281 9.93582 9.65872Q9.87352 9.73464 9.80408 9.80408Q9.73464 9.87352 9.65872 9.93582Q9.58281 9.99812 9.50116 10.0527Q9.4195 10.1072 9.33289 10.1535Q9.24629 10.1998 9.15556 10.2374Q9.06483 10.275 8.97085 10.3035Q8.87688 10.332 8.78056 10.3512Q8.68424 10.3703 8.58651 10.3799Q8.48878 10.3896 8.39057 10.3896L1.999 10.3896Q1.9008 10.3896 1.80306 10.3799Q1.70533 10.3703 1.60901 10.3512Q1.5127 10.332 1.41872 10.3035Q1.32474 10.275 1.23402 10.2374Q1.14329 10.1998 1.05668 10.1535Q0.970069 10.1072 0.888415 10.0527Q0.806761 9.99812 0.730848 9.93582Q0.654935 9.87352 0.585494 9.80408Q0.516052 9.73464 0.453752 9.65872Q0.391452 9.58281 0.336892 9.50116Q0.282333 9.4195 0.236039 9.33289Q0.189746 9.24629 0.152165 9.15556Q0.114584 9.06483 0.0860763 8.97085Q0.057569 8.87688 0.0384102 8.78056Q0.0192515 8.68424 0.00962573 8.58651Q0 8.48878 0 8.39057L0 1.999Q0 1.9008 0.00962573 1.80306Q0.0192515 1.70533 0.0384102 1.60901Q0.057569 1.5127 0.0860763 1.41872Q0.114584 1.32474 0.152165 1.23402Q0.189746 1.14329 0.236039 1.05668Q0.282333 0.970069 0.336892 0.888415Q0.391452 0.806761 0.453752 0.730848Q0.516052 0.654935 0.585494 0.585494Q0.654935 0.516052 0.730848 0.453752Q0.806761 0.391452 0.888415 0.336892Q0.970069 0.282333 1.05668 0.236039Q1.14329 0.189746 1.23402 0.152165Q1.32474 0.114584 1.41872 0.0860763Q1.5127 0.057569 1.60901 0.0384102Q1.70533 0.0192515 1.80306 0.00962573Q1.9008 0 1.999 0Z" transform="translate(14.60303 14.83496)" id="Rectangle" fill="#777672" stroke="none" />
    <path d="M1.999 0L8.39058 0Q8.48878 0 8.58652 0.00962573Q8.68425 0.0192515 8.78057 0.0384102Q8.87688 0.057569 8.97086 0.0860763Q9.06483 0.114584 9.15556 0.152165Q9.24629 0.189746 9.3329 0.236039Q9.41951 0.282333 9.50116 0.336892Q9.58282 0.391452 9.65873 0.453752Q9.73464 0.516052 9.80409 0.585494Q9.87353 0.654935 9.93583 0.730848Q9.99813 0.806761 10.0527 0.888415Q10.1072 0.970069 10.1535 1.05668Q10.1998 1.14329 10.2374 1.23402Q10.275 1.32474 10.3035 1.41872Q10.332 1.5127 10.3512 1.60901Q10.3703 1.70533 10.38 1.80306Q10.3896 1.9008 10.3896 1.999L10.3896 8.39057Q10.3896 8.48877 10.38 8.58651Q10.3703 8.68424 10.3512 8.78056Q10.332 8.87687 10.3035 8.97085Q10.275 9.06483 10.2374 9.15555Q10.1998 9.24628 10.1535 9.33289Q10.1072 9.4195 10.0527 9.50115Q9.99813 9.58281 9.93583 9.65872Q9.87353 9.73464 9.80409 9.80408Q9.73464 9.87352 9.65873 9.93582Q9.58282 9.99812 9.50116 10.0527Q9.41951 10.1072 9.3329 10.1535Q9.24629 10.1998 9.15556 10.2374Q9.06483 10.275 8.97086 10.3035Q8.87688 10.332 8.78056 10.3512Q8.68425 10.3703 8.58652 10.3799Q8.48878 10.3896 8.39058 10.3896L1.999 10.3896Q1.9008 10.3896 1.80306 10.3799Q1.70533 10.3703 1.60901 10.3512Q1.5127 10.332 1.41872 10.3035Q1.32474 10.275 1.23402 10.2374Q1.14329 10.1998 1.05668 10.1535Q0.970069 10.1072 0.888415 10.0527Q0.806761 9.99812 0.730848 9.93582Q0.654935 9.87352 0.585494 9.80408Q0.516052 9.73464 0.453752 9.65872Q0.391452 9.58281 0.336892 9.50116Q0.282333 9.4195 0.236039 9.33289Q0.189746 9.24628 0.152165 9.15555Q0.114584 9.06483 0.0860763 8.97085Q0.057569 8.87687 0.0384102 8.78056Q0.0192515 8.68424 0.00962573 8.58651Q0 8.48878 0 8.39057L0 1.999Q0 1.9008 0.00962573 1.80306Q0.0192515 1.70533 0.0384102 1.60901Q0.057569 1.5127 0.0860763 1.41872Q0.114584 1.32474 0.152165 1.23402Q0.189746 1.14329 0.236039 1.05668Q0.282333 0.970069 0.336892 0.888415Q0.391452 0.806761 0.453752 0.730848Q0.516052 0.654935 0.585494 0.585494Q0.654935 0.516052 0.730848 0.453752Q0.806761 0.391452 0.888415 0.336892Q0.970069 0.282333 1.05668 0.236039Q1.14329 0.189746 1.23402 0.152165Q1.32474 0.114584 1.41872 0.0860763Q1.5127 0.057569 1.60901 0.0384102Q1.70533 0.0192515 1.80306 0.00962573Q1.9008 0 1.999 0L1.999 0Z" transform="translate(27.30151 15.06592)" id="Rectangle-Copy" fill="#777672" stroke="none" />
    <path d="M1.999 0L8.39057 0Q8.48878 0 8.58651 0.00962573Q8.68424 0.0192515 8.78056 0.0384102Q8.87688 0.057569 8.97085 0.0860763Q9.06483 0.114584 9.15556 0.152165Q9.24629 0.189746 9.3329 0.236039Q9.4195 0.282333 9.50116 0.336892Q9.58281 0.391452 9.65873 0.453752Q9.73464 0.516052 9.80408 0.585494Q9.87352 0.654935 9.93582 0.730848Q9.99812 0.806761 10.0527 0.888415Q10.1072 0.970069 10.1535 1.05668Q10.1998 1.14329 10.2374 1.23402Q10.275 1.32474 10.3035 1.41872Q10.332 1.5127 10.3512 1.60901Q10.3703 1.70533 10.3799 1.80306Q10.3896 1.9008 10.3896 1.999L10.3896 8.39057Q10.3896 8.48878 10.3799 8.58651Q10.3703 8.68424 10.3512 8.78056Q10.332 8.87688 10.3035 8.97085Q10.275 9.06483 10.2374 9.15556Q10.1998 9.24629 10.1535 9.33289Q10.1072 9.4195 10.0527 9.50116Q9.99812 9.58281 9.93582 9.65872Q9.87352 9.73464 9.80408 9.80408Q9.73464 9.87352 9.65873 9.93582Q9.58281 9.99812 9.50116 10.0527Q9.41951 10.1072 9.3329 10.1535Q9.24629 10.1998 9.15556 10.2374Q9.06483 10.275 8.97085 10.3035Q8.87688 10.332 8.78056 10.3512Q8.68424 10.3703 8.58651 10.3799Q8.48878 10.3896 8.39057 10.3896L1.999 10.3896Q1.9008 10.3896 1.80306 10.3799Q1.70533 10.3703 1.60901 10.3512Q1.5127 10.332 1.41872 10.3035Q1.32474 10.275 1.23402 10.2374Q1.14329 10.1998 1.05668 10.1535Q0.970069 10.1072 0.888415 10.0527Q0.806761 9.99812 0.730848 9.93582Q0.654935 9.87352 0.585494 9.80408Q0.516052 9.73464 0.453752 9.65872Q0.391452 9.58281 0.336892 9.50116Q0.282333 9.4195 0.236039 9.33289Q0.189746 9.24629 0.152165 9.15556Q0.114584 9.06483 0.0860763 8.97085Q0.057569 8.87688 0.0384102 8.78056Q0.0192515 8.68424 0.00962573 8.58651Q0 8.48878 0 8.39057L0 1.999Q0 1.9008 0.00962573 1.80306Q0.0192515 1.70533 0.0384102 1.60901Q0.057569 1.5127 0.0860763 1.41872Q0.114584 1.32474 0.152165 1.23402Q0.189746 1.14329 0.236039 1.05668Q0.282333 0.970069 0.336892 0.888415Q0.391452 0.806761 0.453752 0.730848Q0.516052 0.654935 0.585494 0.585494Q0.654935 0.516052 0.730848 0.453752Q0.806761 0.391452 0.888415 0.336892Q0.970069 0.282333 1.05668 0.236039Q1.14329 0.189746 1.23402 0.152165Q1.32474 0.114584 1.41872 0.0860763Q1.5127 0.057569 1.60901 0.0384102Q1.70533 0.0192515 1.80306 0.00962573Q1.9008 0 1.999 0L1.999 0Z" transform="translate(1.904785 27.5332)" id="Rectangle" fill="#777672" stroke="none" />
    <path d="M1.999 0L8.39056 0Q8.48877 0 8.5865 0.00962573Q8.68423 0.0192515 8.78055 0.0384102Q8.87687 0.057569 8.97084 0.0860763Q9.06482 0.114584 9.15555 0.152165Q9.24628 0.189746 9.33288 0.236039Q9.41949 0.282333 9.50115 0.336892Q9.5828 0.391452 9.65872 0.453752Q9.73463 0.516052 9.80407 0.585494Q9.87351 0.654935 9.93581 0.730848Q9.99811 0.806761 10.0527 0.888415Q10.1072 0.970069 10.1535 1.05668Q10.1998 1.14329 10.2374 1.23402Q10.275 1.32474 10.3035 1.41872Q10.332 1.5127 10.3512 1.60901Q10.3703 1.70533 10.3799 1.80306Q10.3896 1.9008 10.3896 1.999L10.3896 8.39057Q10.3896 8.48878 10.3799 8.58651Q10.3703 8.68424 10.3512 8.78056Q10.332 8.87687 10.3035 8.97085Q10.275 9.06483 10.2374 9.15555Q10.1998 9.24628 10.1535 9.33289Q10.1072 9.4195 10.0527 9.50116Q9.99811 9.58281 9.93581 9.65872Q9.87351 9.73464 9.80407 9.80408Q9.73463 9.87352 9.65872 9.93582Q9.5828 9.99812 9.50115 10.0527Q9.41949 10.1072 9.33288 10.1535Q9.24628 10.1998 9.15555 10.2374Q9.06482 10.275 8.97084 10.3035Q8.87687 10.332 8.78055 10.3512Q8.68423 10.3703 8.5865 10.3799Q8.48877 10.3896 8.39056 10.3896L1.999 10.3896Q1.9008 10.3896 1.80306 10.3799Q1.70533 10.3703 1.60901 10.3512Q1.5127 10.332 1.41872 10.3035Q1.32474 10.275 1.23402 10.2374Q1.14329 10.1998 1.05668 10.1535Q0.970069 10.1072 0.888415 10.0527Q0.806761 9.99812 0.730848 9.93582Q0.654935 9.87352 0.585494 9.80408Q0.516052 9.73464 0.453752 9.65872Q0.391452 9.58281 0.336892 9.50116Q0.282333 9.4195 0.236039 9.33289Q0.189746 9.24628 0.152165 9.15555Q0.114584 9.06483 0.0860763 8.97085Q0.057569 8.87687 0.0384102 8.78056Q0.0192515 8.68424 0.00962573 8.58651Q0 8.48878 0 8.39057L0 1.999Q0 1.9008 0.00962573 1.80306Q0.0192515 1.70533 0.0384102 1.60901Q0.057569 1.5127 0.0860763 1.41872Q0.114584 1.32474 0.152165 1.23402Q0.189746 1.14329 0.236039 1.05668Q0.282333 0.970069 0.336892 0.888415Q0.391452 0.806761 0.453752 0.730848Q0.516052 0.654935 0.585494 0.585494Q0.654935 0.516052 0.730848 0.453752Q0.806761 0.391452 0.888415 0.336892Q0.970069 0.282333 1.05668 0.236039Q1.14329 0.189746 1.23402 0.152165Q1.32474 0.114584 1.41872 0.0860763Q1.5127 0.057569 1.60901 0.0384102Q1.70533 0.0192515 1.80306 0.00962573Q1.9008 0 1.999 0L1.999 0Z" transform="translate(14.60303 1.905273)" id="Rectangle-Copy-4" fill="#777672" stroke="none" />
    <path d="M1.999 0L8.39057 0Q8.48878 0 8.58651 0.00962573Q8.68424 0.0192515 8.78056 0.0384102Q8.87688 0.057569 8.97085 0.0860763Q9.06483 0.114584 9.15556 0.152165Q9.24629 0.189746 9.33289 0.236039Q9.4195 0.282333 9.50116 0.336892Q9.58281 0.391452 9.65872 0.453752Q9.73464 0.516052 9.80408 0.585494Q9.87352 0.654935 9.93582 0.730848Q9.99812 0.806761 10.0527 0.888415Q10.1072 0.970069 10.1535 1.05668Q10.1998 1.14329 10.2374 1.23402Q10.275 1.32474 10.3035 1.41872Q10.332 1.5127 10.3512 1.60901Q10.3703 1.70533 10.3799 1.80306Q10.3896 1.9008 10.3896 1.999L10.3896 8.39057Q10.3896 8.48878 10.3799 8.58651Q10.3703 8.68424 10.3512 8.78056Q10.332 8.87688 10.3035 8.97085Q10.275 9.06483 10.2374 9.15556Q10.1998 9.24629 10.1535 9.33289Q10.1072 9.4195 10.0527 9.50116Q9.99812 9.58281 9.93582 9.65872Q9.87352 9.73464 9.80408 9.80408Q9.73464 9.87352 9.65872 9.93582Q9.58281 9.99812 9.50116 10.0527Q9.4195 10.1072 9.33289 10.1535Q9.24629 10.1998 9.15556 10.2374Q9.06483 10.275 8.97085 10.3035Q8.87688 10.332 8.78056 10.3512Q8.68424 10.3703 8.58651 10.3799Q8.48878 10.3896 8.39057 10.3896L1.999 10.3896Q1.9008 10.3896 1.80306 10.3799Q1.70533 10.3703 1.60901 10.3512Q1.5127 10.332 1.41872 10.3035Q1.32474 10.275 1.23402 10.2374Q1.14329 10.1998 1.05668 10.1535Q0.970069 10.1072 0.888415 10.0527Q0.806761 9.99812 0.730848 9.93582Q0.654935 9.87352 0.585494 9.80408Q0.516052 9.73464 0.453752 9.65872Q0.391452 9.58281 0.336892 9.50116Q0.282333 9.4195 0.236039 9.33289Q0.189746 9.24629 0.152165 9.15556Q0.114584 9.06483 0.0860763 8.97085Q0.057569 8.87688 0.0384102 8.78056Q0.0192515 8.68424 0.00962573 8.58651Q0 8.48878 0 8.39057L0 1.999Q0 1.9008 0.00962573 1.80306Q0.0192515 1.70533 0.0384102 1.60901Q0.057569 1.5127 0.0860763 1.41872Q0.114584 1.32474 0.152165 1.23402Q0.189746 1.14329 0.236039 1.05668Q0.282333 0.970069 0.336892 0.888415Q0.391452 0.806761 0.453752 0.730848Q0.516052 0.654935 0.585494 0.585494Q0.654935 0.516052 0.730848 0.453752Q0.806761 0.391452 0.888415 0.336892Q0.970069 0.282333 1.05668 0.236039Q1.14329 0.189746 1.23402 0.152165Q1.32474 0.114584 1.41872 0.0860763Q1.5127 0.057569 1.60901 0.0384102Q1.70533 0.0192515 1.80306 0.00962573Q1.9008 0 1.999 0Z" transform="translate(14.60303 27.5332)" id="Rectangle" fill="#777672" stroke="none" />
    <path d="M1.999 0L8.39056 0Q8.48877 0 8.5865 0.00962573Q8.68423 0.0192515 8.78055 0.0384102Q8.87687 0.057569 8.97084 0.0860763Q9.06482 0.114584 9.15555 0.152165Q9.24628 0.189746 9.33288 0.236039Q9.41949 0.282333 9.50115 0.336892Q9.5828 0.391452 9.65872 0.453752Q9.73463 0.516052 9.80407 0.585494Q9.87351 0.654935 9.93581 0.730848Q9.99811 0.806761 10.0527 0.888415Q10.1072 0.970069 10.1535 1.05668Q10.1998 1.14329 10.2374 1.23402Q10.275 1.32474 10.3035 1.41872Q10.332 1.5127 10.3512 1.60901Q10.3703 1.70533 10.3799 1.80306Q10.3896 1.9008 10.3896 1.999L10.3896 8.39057Q10.3896 8.48878 10.3799 8.58651Q10.3703 8.68424 10.3512 8.78056Q10.332 8.87687 10.3035 8.97085Q10.275 9.06483 10.2374 9.15555Q10.1998 9.24628 10.1535 9.33289Q10.1072 9.4195 10.0527 9.50116Q9.99811 9.58281 9.93581 9.65872Q9.87351 9.73464 9.80407 9.80408Q9.73463 9.87352 9.65872 9.93582Q9.5828 9.99812 9.50115 10.0527Q9.41949 10.1072 9.33288 10.1535Q9.24628 10.1998 9.15555 10.2374Q9.06482 10.275 8.97084 10.3035Q8.87687 10.332 8.78055 10.3512Q8.68423 10.3703 8.5865 10.3799Q8.48877 10.3896 8.39056 10.3896L1.999 10.3896Q1.9008 10.3896 1.80306 10.3799Q1.70533 10.3703 1.60901 10.3512Q1.5127 10.332 1.41872 10.3035Q1.32474 10.275 1.23402 10.2374Q1.14329 10.1998 1.05668 10.1535Q0.970069 10.1072 0.888415 10.0527Q0.806761 9.99812 0.730848 9.93582Q0.654935 9.87352 0.585494 9.80408Q0.516052 9.73464 0.453752 9.65872Q0.391452 9.58281 0.336892 9.50116Q0.282333 9.4195 0.236039 9.33289Q0.189746 9.24628 0.152165 9.15555Q0.114584 9.06483 0.0860763 8.97085Q0.057569 8.87687 0.0384102 8.78056Q0.0192515 8.68424 0.00962573 8.58651Q0 8.48878 0 8.39057L0 1.999Q0 1.9008 0.00962573 1.80306Q0.0192515 1.70533 0.0384102 1.60901Q0.057569 1.5127 0.0860763 1.41872Q0.114584 1.32474 0.152165 1.23402Q0.189746 1.14329 0.236039 1.05668Q0.282333 0.970069 0.336892 0.888415Q0.391452 0.806761 0.453752 0.730848Q0.516052 0.654935 0.585494 0.585494Q0.654935 0.516052 0.730848 0.453752Q0.806761 0.391452 0.888415 0.336892Q0.970069 0.282333 1.05668 0.236039Q1.14329 0.189746 1.23402 0.152165Q1.32474 0.114584 1.41872 0.0860763Q1.5127 0.057569 1.60901 0.0384102Q1.70533 0.0192515 1.80306 0.00962573Q1.9008 0 1.999 0L1.999 0Z" transform="translate(27.30176 2.136719)" id="Rectangle-Copy-5" fill="#777672" stroke="none" />
    <path d="M1.999 0L8.39058 0Q8.48878 0 8.58652 0.00962573Q8.68425 0.0192515 8.78057 0.0384102Q8.87688 0.057569 8.97086 0.0860763Q9.06483 0.114584 9.15556 0.152165Q9.24629 0.189746 9.3329 0.236039Q9.41951 0.282333 9.50116 0.336892Q9.58282 0.391452 9.65873 0.453752Q9.73464 0.516052 9.80409 0.585494Q9.87353 0.654935 9.93583 0.730848Q9.99813 0.806761 10.0527 0.888415Q10.1072 0.970069 10.1535 1.05668Q10.1998 1.14329 10.2374 1.23402Q10.275 1.32474 10.3035 1.41872Q10.332 1.5127 10.3512 1.60901Q10.3703 1.70533 10.38 1.80306Q10.3896 1.9008 10.3896 1.999L10.3896 8.39057Q10.3896 8.48878 10.38 8.58651Q10.3703 8.68424 10.3512 8.78056Q10.332 8.87687 10.3035 8.97085Q10.275 9.06483 10.2374 9.15555Q10.1998 9.24628 10.1535 9.33289Q10.1072 9.4195 10.0527 9.50116Q9.99813 9.58281 9.93583 9.65872Q9.87353 9.73464 9.80409 9.80408Q9.73464 9.87352 9.65873 9.93582Q9.58282 9.99812 9.50116 10.0527Q9.41951 10.1072 9.3329 10.1535Q9.24629 10.1998 9.15556 10.2374Q9.06483 10.275 8.97086 10.3035Q8.87688 10.332 8.78056 10.3512Q8.68425 10.3703 8.58652 10.3799Q8.48878 10.3896 8.39058 10.3896L1.999 10.3896Q1.9008 10.3896 1.80306 10.3799Q1.70533 10.3703 1.60901 10.3512Q1.5127 10.332 1.41872 10.3035Q1.32474 10.275 1.23402 10.2374Q1.14329 10.1998 1.05668 10.1535Q0.970069 10.1072 0.888415 10.0527Q0.806761 9.99812 0.730848 9.93582Q0.654935 9.87352 0.585494 9.80408Q0.516052 9.73464 0.453752 9.65872Q0.391452 9.58281 0.336892 9.50116Q0.282333 9.4195 0.236039 9.33289Q0.189746 9.24629 0.152165 9.15556Q0.114584 9.06483 0.0860763 8.97085Q0.057569 8.87688 0.0384102 8.78056Q0.0192515 8.68424 0.00962573 8.58651Q0 8.48878 0 8.39057L0 1.999Q0 1.9008 0.00962573 1.80306Q0.0192515 1.70533 0.0384102 1.60901Q0.057569 1.5127 0.0860763 1.41872Q0.114584 1.32474 0.152165 1.23402Q0.189746 1.14329 0.236039 1.05668Q0.282333 0.970069 0.336892 0.888415Q0.391452 0.806761 0.453752 0.730848Q0.516052 0.654935 0.585494 0.585494Q0.654935 0.516052 0.730848 0.453752Q0.806761 0.391452 0.888415 0.336892Q0.970069 0.282333 1.05668 0.236039Q1.14329 0.189746 1.23402 0.152165Q1.32474 0.114584 1.41872 0.0860763Q1.5127 0.057569 1.60901 0.0384102Q1.70533 0.0192515 1.80306 0.00962573Q1.9008 0 1.999 0L1.999 0Z" transform="translate(27.30151 27.76416)" id="Rectangle-Copy-2" fill="#777672" stroke="none" />
  </g>
</svg>