<svg width="30" height="30" viewBox="0 0 30 30" fill="none" xmlns="http://www.w3.org/2000/svg">
<path d="M15 3.75C8.78906 3.75 3.75 8.78906 3.75 15C3.75 21.2109 8.78906 26.25 15 26.25C21.2109 26.25 26.25 21.2109 26.25 15C26.25 8.78906 21.2109 3.75 15 3.75ZM15.6117 21.4453H13.8416C13.8018 21.4452 13.7636 21.4292 13.7355 21.401C13.7074 21.3728 13.6916 21.3346 13.6916 21.2947V19.5252C13.6916 19.4854 13.7074 19.4471 13.7355 19.4189C13.7636 19.3907 13.8018 19.3748 13.8416 19.3746H15.6117C15.6516 19.3748 15.6897 19.3907 15.7178 19.4189C15.7459 19.4471 15.7617 19.4854 15.7617 19.5252V21.2947C15.7617 21.3346 15.7459 21.3728 15.7178 21.401C15.6897 21.4292 15.6516 21.4452 15.6117 21.4453V21.4453ZM16.6078 15.6445C15.658 16.282 15.5273 16.8662 15.5273 17.4023V18.0469C15.5273 18.0935 15.5088 18.1382 15.4759 18.1712C15.4429 18.2041 15.3982 18.2227 15.3516 18.2227H14.0625C14.0159 18.2227 13.9712 18.2041 13.9382 18.1712C13.9052 18.1382 13.8867 18.0935 13.8867 18.0469V17.4023C13.8867 16.1186 14.4773 15.0979 15.6926 14.2816C16.8223 13.5234 17.4609 13.043 17.4609 11.9865C17.4609 11.2682 17.0508 10.7227 16.2018 10.3189C16.002 10.224 15.5572 10.1314 15.01 10.1379C14.3232 10.1467 13.79 10.3107 13.3793 10.6412C12.6047 11.2646 12.5391 11.9438 12.5391 11.9531C12.5069 12.1523 12.4904 12.3537 12.4898 12.5555C12.4898 12.6021 12.4713 12.6468 12.4384 12.6798C12.4054 12.7127 12.3607 12.7312 12.3141 12.7312H11.0689C11.0253 12.7315 10.9831 12.7155 10.9507 12.6863C10.9182 12.6572 10.8977 12.617 10.8932 12.5736C10.8721 12.3396 10.8738 12.1042 10.8984 11.8705C10.9113 11.7281 11.0039 10.4455 12.3498 9.36269C13.0477 8.80137 13.9354 8.50957 14.9865 8.49668C15.7307 8.48789 16.4297 8.61387 16.9037 8.8377C18.3223 9.51211 19.1016 10.6307 19.1016 11.9865C19.1016 13.9688 17.7768 14.8588 16.6078 15.6445Z" fill="white"/>
</svg>
