<svg width="60" height="60" viewBox="0 0 60 60" fill="none" xmlns="http://www.w3.org/2000/svg">
<path fill-rule="evenodd" clip-rule="evenodd" d="M45.5026 12.1697L54.5146 17.4966C54.9154 17.733 54.9718 18.3798 54.6382 18.9402L31.4182 58.2354C31.0834 58.7958 30.4906 59.0586 30.091 58.8222L4.83339 43.8942C4.43379 43.6614 4.37739 43.0122 4.71099 42.4494L27.9322 3.15895C28.267 2.59615 28.8586 2.33455 29.2594 2.56735L38.2702 7.89534C36.859 10.4537 37.2622 13.401 39.2146 14.5542C41.167 15.7074 43.9438 14.6418 45.5026 12.1697ZM20.9794 46.461C20.7082 46.9194 20.0626 47.0382 19.5382 46.7286L10.2286 41.2254C9.70299 40.9158 9.50019 40.2918 9.76899 39.8334L20.2798 22.053C20.551 21.5946 21.1978 21.4758 21.7198 21.7842L31.0294 27.285C31.555 27.5946 31.7578 28.2186 31.489 28.677L20.9794 46.461ZM32.9458 30.9354L40.2226 35.2362C40.4806 35.391 40.9306 35.1018 41.2318 34.5954C41.5318 34.0914 41.5642 33.5574 41.3062 33.4038L34.0294 29.1054C33.7714 28.9506 33.319 29.2386 33.019 29.7426C32.7202 30.2514 32.6878 30.7818 32.9458 30.9354ZM38.617 37.9506L31.3402 33.6486C31.0822 33.4974 31.117 32.9634 31.4146 32.457C31.7146 31.9518 32.1646 31.6662 32.4226 31.8174L39.6994 36.1194C39.9574 36.2694 39.9262 36.8034 39.6262 37.311C39.3274 37.8162 38.875 38.103 38.617 37.9506ZM29.737 36.3654L37.0114 40.6638C37.2718 40.8186 37.7218 40.533 38.0218 40.0254C38.3218 39.519 38.3554 38.9874 38.095 38.8326L30.8206 34.5318C30.5602 34.3806 30.1102 34.6662 29.8102 35.1702C29.5114 35.679 29.4778 36.2118 29.737 36.3654Z" fill="#A3ADCB"/>
<path d="M23.6216 14.9805L47.0732 28.8405L23.6216 14.9805Z" fill="#A3ADCB"/>
</svg>
