<svg width="30" height="30" viewBox="0 0 30 30" fill="none" xmlns="http://www.w3.org/2000/svg">
<path d="M26.607 27.9464H3.39275C3.03755 27.9464 2.6969 27.8053 2.44573 27.5541C2.19457 27.3029 2.05347 26.9623 2.05347 26.6071V3.3928C2.05347 3.0376 2.19457 2.69695 2.44573 2.44578C2.6969 2.19462 3.03755 2.05352 3.39275 2.05352H12.3213C12.6765 2.05352 13.0172 2.19462 13.2683 2.44578C13.5195 2.69695 13.6606 3.0376 13.6606 3.3928C13.6606 3.748 13.5195 4.08865 13.2683 4.33982C13.0172 4.59098 12.6765 4.73209 12.3213 4.73209H4.73204V25.2678H25.2677V17.6785C25.2677 17.3233 25.4089 16.9827 25.66 16.7315C25.9112 16.4803 26.2518 16.3392 26.607 16.3392C26.9622 16.3392 27.3029 16.4803 27.5541 16.7315C27.8052 16.9827 27.9463 17.3233 27.9463 17.6785V26.6071C27.9463 26.9623 27.8052 27.3029 27.5541 27.5541C27.3029 27.8053 26.9622 27.9464 26.607 27.9464ZM27.5541 2.44576C27.4297 2.32139 27.2821 2.22273 27.1196 2.15542C26.9571 2.08811 26.7829 2.05347 26.607 2.05347C26.4312 2.05347 26.257 2.08811 26.0945 2.15542C25.932 2.22273 25.7844 2.32139 25.66 2.44576L19.9106 8.1952V10.0892H21.8046L27.5541 4.33984C27.6785 4.21548 27.7771 4.06783 27.8444 3.90534C27.9117 3.74285 27.9464 3.56868 27.9464 3.3928C27.9464 3.21692 27.9117 3.04276 27.8444 2.88026C27.7771 2.71777 27.6785 2.57012 27.5541 2.44576ZM26.1606 12.3214C26.1606 11.9662 26.0195 11.6255 25.7683 11.3744C25.5172 11.1232 25.1765 10.9821 24.8213 10.9821H19.0178V5.17852C19.0178 4.82331 18.8766 4.48266 18.6255 4.2315C18.3743 3.98033 18.0337 3.83923 17.6785 3.83923C17.3233 3.83923 16.9826 3.98033 16.7314 4.2315C16.4803 4.48266 16.3392 4.82331 16.3392 5.17852V12.3214C16.3392 12.6766 16.4803 13.0172 16.7314 13.2684C16.9826 13.5196 17.3233 13.6607 17.6785 13.6607H24.8213C25.1765 13.6607 25.5172 13.5196 25.7683 13.2684C26.0195 13.0172 26.1606 12.6766 26.1606 12.3214Z" fill="#444444"/>
</svg>
