<svg width="35" height="35" viewBox="0 0 35 35" fill="none" xmlns="http://www.w3.org/2000/svg">
<path d="M17.5 0C7.83501 0 0 7.83501 0 17.5C0 27.165 7.83501 35 17.5 35C27.165 35 35 27.165 35 17.5C35 7.83501 27.165 0 17.5 0ZM17.5 32.8125C9.04313 32.8125 2.1875 25.9569 2.1875 17.5C2.1875 9.04313 9.04313 2.1875 17.5 2.1875C25.9569 2.1875 32.8125 9.04313 32.8125 17.5C32.8125 25.9569 25.9569 32.8125 17.5 32.8125Z" fill="#585858"/>
<path d="M17.5 19.6875C18.7081 19.6875 19.6875 18.7081 19.6875 17.5C19.6875 16.2919 18.7081 15.3125 17.5 15.3125C16.2919 15.3125 15.3125 16.2919 15.3125 17.5C15.3125 18.7081 16.2919 19.6875 17.5 19.6875Z" fill="#585858"/>
<path d="M25.1562 19.6875C26.3644 19.6875 27.3438 18.7081 27.3438 17.5C27.3438 16.2919 26.3644 15.3125 25.1562 15.3125C23.9481 15.3125 22.9688 16.2919 22.9688 17.5C22.9688 18.7081 23.9481 19.6875 25.1562 19.6875Z" fill="#585858"/>
<path d="M9.84375 19.6875C11.0519 19.6875 12.0312 18.7081 12.0312 17.5C12.0312 16.2919 11.0519 15.3125 9.84375 15.3125C8.63563 15.3125 7.65625 16.2919 7.65625 17.5C7.65625 18.7081 8.63563 19.6875 9.84375 19.6875Z" fill="#585858"/>
</svg>
