<svg width="35" height="36" viewBox="0 0 35 36" fill="none" xmlns="http://www.w3.org/2000/svg">
<path d="M17.5 0.5C7.83501 0.5 0 8.33501 0 18C0 27.665 7.83501 35.5 17.5 35.5C27.165 35.5 35 27.665 35 18C35 8.33501 27.165 0.5 17.5 0.5ZM17.5 33.3125C9.04313 33.3125 2.1875 26.4569 2.1875 18C2.1875 9.54313 9.04313 2.6875 17.5 2.6875C25.9569 2.6875 32.8125 9.54313 32.8125 18C32.8125 26.4569 25.9569 33.3125 17.5 33.3125Z" fill="white"/>
<path d="M17.5 20.1875C18.7081 20.1875 19.6875 19.2081 19.6875 18C19.6875 16.7919 18.7081 15.8125 17.5 15.8125C16.2919 15.8125 15.3125 16.7919 15.3125 18C15.3125 19.2081 16.2919 20.1875 17.5 20.1875Z" fill="white"/>
<path d="M25.1562 20.1875C26.3644 20.1875 27.3438 19.2081 27.3438 18C27.3438 16.7919 26.3644 15.8125 25.1562 15.8125C23.9481 15.8125 22.9688 16.7919 22.9688 18C22.9688 19.2081 23.9481 20.1875 25.1562 20.1875Z" fill="white"/>
<path d="M9.84375 20.1875C11.0519 20.1875 12.0312 19.2081 12.0312 18C12.0312 16.7919 11.0519 15.8125 9.84375 15.8125C8.63563 15.8125 7.65625 16.7919 7.65625 18C7.65625 19.2081 8.63563 20.1875 9.84375 20.1875Z" fill="white"/>
</svg>
