<svg width="20" height="20" viewBox="0 0 20 20" fill="none" xmlns="http://www.w3.org/2000/svg">
<g clip-path="url(#clip0_931_96)">
<path d="M5.33333 10.0001C5.33333 8.52974 4.137 7.33341 2.66667 7.33341C1.19633 7.33341 -1.80834e-07 8.52974 -1.16564e-07 10.0001C-5.22935e-08 11.4704 1.19633 12.6667 2.66667 12.6667C4.137 12.6667 5.33333 11.4704 5.33333 10.0001Z" fill="#888B8E"/>
<path d="M14.6666 10.0001C14.6666 11.4704 15.863 12.6667 17.3333 12.6667C18.8036 12.6667 20 11.4704 20 10.0001C20 8.52974 18.8036 7.3334 17.3333 7.3334C15.863 7.3334 14.6666 8.52974 14.6666 10.0001Z" fill="#888B8E"/>
<path d="M7.33325 10.0001C7.33325 11.4704 8.52959 12.6667 9.99992 12.6667C11.4703 12.6667 12.6666 11.4704 12.6666 10.0001C12.6666 8.52974 11.4703 7.3334 9.99992 7.3334C8.52959 7.3334 7.33325 8.52974 7.33325 10.0001Z" fill="#888B8E"/>
</g>
<defs>
<clipPath id="clip0_931_96">
<rect width="20" height="20" fill="white" transform="translate(0 20) rotate(-90)"/>
</clipPath>
</defs>
</svg>
