<svg width="35" height="35" viewBox="0 0 35 35" fill="none" xmlns="http://www.w3.org/2000/svg">
<path d="M27.3847 19.7944C23.1857 19.7944 19.7695 23.2106 19.7695 27.4097C20.1523 37.4985 34.6187 37.4956 35 27.4096C34.9999 23.2106 31.5837 19.7944 27.3847 19.7944ZM29.663 29.688C29.2625 30.0884 28.6133 30.0884 28.2129 29.688L27.3847 28.8598L26.5565 29.688C26.1561 30.0884 25.5069 30.0884 25.1064 29.688C24.706 29.2875 24.706 28.6383 25.1064 28.2379L25.9346 27.4097L25.1064 26.5815C24.706 26.1811 24.706 25.5318 25.1064 25.1314C25.5069 24.7309 26.1561 24.7309 26.5565 25.1314L27.3847 25.9595L28.2129 25.1313C28.6133 24.7309 29.2625 24.7309 29.663 25.1313C30.0634 25.5318 30.0634 26.181 29.663 26.5814L28.8348 27.4096L29.663 28.2378C30.0634 28.6383 30.0634 29.2875 29.663 29.688Z" fill="#BD1F1E"/>
<path d="M19.8778 17.1167C23.0373 20.0536 27.421 15.6767 24.4822 12.5123C19.7269 7.75698 12.017 7.75698 7.26172 12.5123C5.99023 13.7837 5.99023 15.8452 7.26172 17.1167C8.5332 18.3881 10.5946 18.3881 11.8661 17.1167C14.0784 14.9043 17.6654 14.9043 19.8778 17.1167Z" fill="#B1B1B1"/>
<path d="M26.1859 10.8087C29.3411 13.7446 33.7308 9.37136 30.7902 6.20427C22.5511 -2.03489 9.19276 -2.03489 0.953613 6.20427C-0.317871 7.47575 -0.317871 9.5372 0.953613 10.8087C2.2251 12.0802 4.28654 12.0802 5.55803 10.8087C11.2542 5.11243 20.4896 5.11243 26.1859 10.8087Z" fill="#B1B1B1"/>
<path d="M15.872 17.8667C14.0739 17.8667 12.6162 19.3244 12.6162 21.1225C12.7758 25.4366 18.9688 25.4354 19.1278 21.1224C19.1278 19.3244 17.6702 17.8667 15.872 17.8667Z" fill="#B1B1B1"/>
</svg>
