<?xml version="1.0"?>
<svg xmlns="http://www.w3.org/2000/svg" xmlns:xlink="http://www.w3.org/1999/xlink" version="1.1" id="Layer_1" x="0px" y="0px" viewBox="0 0 512 512" style="enable-background:new 0 0 512 512;" xml:space="preserve" width="512px" height="512px"><g><g>
	<g>
		<path d="M510.021,343.844L423.229,54.542c-7.271-24.219-33.875-38.5-58-31.25L255.221,56.297    c-3.646-19.854-21.004-34.964-41.888-34.964c-23.521,0-42.667,19.135-42.667,42.667h-128C19.146,64,0,83.135,0,106.667v320    c0,23.531,19.146,42.667,42.667,42.667h94.344c8.397,13.083,22.823,21.333,39.052,21.333c4.563,0,9.083-0.667,13.375-1.969    l289.354-86.802C498.354,396.031,512,377.687,512,357.271C512,352.687,511.333,348.167,510.021,343.844z M213.333,42.667    c11.257,0,20.255,8.833,21.04,19.884L229.544,64H192C192,52.24,201.563,42.667,213.333,42.667z M234.667,107.1v31.566    c0,5.885-4.792,10.667-10.667,10.667s-10.667-4.781-10.667-10.667v-25.18L234.667,107.1z M466.542,361.021L176.063,448    c-1.771,0-3.25-1.094-3.771-2.802L85.333,154.729c0-1.802,1.063-3.24,2.792-3.75L192,119.875v18.792c0,17.646,14.354,32,32,32    s32-14.354,32-32v-37.954L378.604,64c1.771,0,3.25,1.094,3.771,2.802l86.958,290.469    C469.333,359.073,468.271,360.51,466.542,361.021z" data-original="#000000" class="active-path" data-old_color="#000000" fill="#aaaaaa"/>
	</g>
</g></g> </svg>
