<svg width="35" height="35" viewBox="0 0 35 35" fill="none" xmlns="http://www.w3.org/2000/svg">
<circle cx="17.5" cy="17.5" r="17.5" fill="#BD1F1E"/>
<path fill-rule="evenodd" clip-rule="evenodd" d="M16.7344 8.31256V17.5001H18.2656V8.31256H16.7344ZM14.4376 8.83877C10.8756 10.1038 8.31256 13.5073 8.31256 17.4999C8.31256 22.5662 12.4338 26.6874 17.5001 26.6874C22.5663 26.6874 26.6876 22.5662 26.6876 17.4999C26.6876 13.5073 24.1245 10.1038 20.5626 8.83877V10.4897C23.2632 11.674 25.1563 14.3686 25.1563 17.4999C25.1563 21.7228 21.723 25.1562 17.5001 25.1562C13.2772 25.1562 9.84381 21.7228 9.84381 17.4999C9.84381 14.3686 11.7369 11.674 14.4376 10.4897V8.83877Z" fill="white"/>
</svg>
