<svg width="19" height="20" viewBox="0 0 19 20" fill="none" xmlns="http://www.w3.org/2000/svg">
<path fill-rule="evenodd" clip-rule="evenodd" d="M8.71875 0.625V10H10.2813V0.625H8.71875ZM6.375 1.16211C2.74036 2.453 0.125 5.9259 0.125 10C0.125 15.1697 4.33032 19.375 9.5 19.375C14.6697 19.375 18.875 15.1697 18.875 10C18.875 5.9259 16.2596 2.453 12.625 1.16211V2.84668C15.3807 4.05518 17.3125 6.80481 17.3125 10C17.3125 14.3091 13.8091 17.8125 9.5 17.8125C5.19092 17.8125 1.6875 14.3091 1.6875 10C1.6875 6.80481 3.61926 4.05518 6.375 2.84668V1.16211Z" fill="#444547"/>
</svg>
