<svg width="50" height="50" viewBox="0 0 50 50" fill="none" xmlns="http://www.w3.org/2000/svg">
<path d="M35.875 16.375H31.75V12.25C31.7326 11.8921 31.5906 11.5516 31.3485 11.2875L27.2235 7.1625C26.9574 6.91513 26.6128 6.76912 26.25 6.75H16.625C16.2603 6.75 15.9106 6.89487 15.6527 7.15273C15.3949 7.41059 15.25 7.76033 15.25 8.125V16.375H11.125C10.7603 16.375 10.4106 16.5199 10.1527 16.7777C9.89487 17.0356 9.75 17.3853 9.75 17.75V28.75C9.75 29.1147 9.89487 29.4644 10.1527 29.7223C10.4106 29.9801 10.7603 30.125 11.125 30.125H15.25V32.875C15.25 33.2397 15.3949 33.5894 15.6527 33.8473C15.9106 34.1051 16.2603 34.25 16.625 34.25H30.375C30.7397 34.25 31.0894 34.1051 31.3473 33.8473C31.6051 33.5894 31.75 33.2397 31.75 32.875V30.125H35.875C36.2397 30.125 36.5894 29.9801 36.8473 29.7223C37.1051 29.4644 37.25 29.1147 37.25 28.75V17.75C37.25 17.3853 37.1051 17.0356 36.8473 16.7777C36.5894 16.5199 36.2397 16.375 35.875 16.375ZM29 31.5H18V27.375H29V31.5ZM29 16.375H18V9.5H24.875V12.25C24.875 12.6147 25.0199 12.9644 25.2777 13.2223C25.5356 13.4801 25.8853 13.625 26.25 13.625H29V16.375Z" fill="#B1B1B1"/>
<path d="M38.5 42C42.6421 42 46 38.6421 46 34.5C46 30.3579 42.6421 27 38.5 27C34.3579 27 31 30.3579 31 34.5C31 38.6421 34.3579 42 38.5 42Z" fill="#63B33A"/>
<path d="M38.5611 38.82C39.2316 38.82 39.7751 38.2765 39.7751 37.606C39.7751 36.9356 39.2316 36.3921 38.5611 36.3921C37.8907 36.3921 37.3472 36.9356 37.3472 37.606C37.3472 38.2765 37.8907 38.82 38.5611 38.82Z" fill="white"/>
<path d="M41.4623 34.6813C41.4443 34.6628 41.4253 34.6463 41.4068 34.6293L41.3522 34.5777C41.3432 34.5682 41.3332 34.5612 41.3217 34.5522C39.7519 33.1261 37.3496 33.1826 35.8514 34.6808L35.6757 34.857L35.4325 35.1001C35.1363 35.3964 35.1378 35.8793 35.4345 36.176C35.7318 36.4737 36.2147 36.4742 36.5104 36.178L36.9297 35.7587C37.8825 34.8064 39.4322 34.8064 40.3844 35.7582L40.6872 36.0514C40.9804 36.3446 41.4588 36.3441 41.7535 36.0489C41.8961 35.9068 41.9747 35.7171 41.9752 35.5155C41.9757 35.3148 41.8981 35.1252 41.7555 34.9836L41.4623 34.6813Z" fill="white"/>
<path d="M43.5304 33.1805L43.2782 32.9284C43.2772 32.9273 43.2767 32.9258 43.2747 32.9253L43.0756 32.7252C43.0405 32.6907 43.0025 32.6606 42.9625 32.6346C40.404 30.3884 36.5124 30.4574 34.0354 32.8403C34.0234 32.8513 34.0099 32.8588 33.9979 32.8708L33.5425 33.3267C33.2723 33.5964 33.2738 34.0352 33.5455 34.3069C33.8168 34.5781 34.2556 34.5801 34.5258 34.3094L34.9812 33.8546C34.9842 33.8506 34.9867 33.8471 34.9897 33.8446C36.9928 31.9096 40.1703 31.8975 42.1894 33.805L42.5476 34.1638C42.8174 34.4335 43.2572 34.4325 43.5284 34.1613C43.7991 33.8896 43.8001 33.4503 43.5304 33.1805Z" fill="white"/>
</svg>
