<svg width="66" height="72" viewBox="0 0 66 72" fill="none" xmlns="http://www.w3.org/2000/svg">
<path d="M13.4037 18.6157L10.5063 40.346H37.3071V18.6157H13.4037Z" fill="#353A3D"/>
<path d="M61.2105 18.6157H37.3071V40.346H64.1079L61.2105 18.6157Z" fill="#424242"/>
<path d="M56.8645 31.6539L48.1724 22.9618V40.3461H56.8645V31.6539Z" fill="white"/>
<path d="M17.7498 31.6539V40.3461H52.5184V22.9618L17.7498 31.6539Z" fill="white"/>
<path d="M9.05762 0C4.68185 0 1.06128 3.23334 0.454855 7.44121C0.359965 8.09993 0.8644 8.69215 1.52978 8.69215H39.4802L48.1723 0H9.05762Z" fill="#D3DEE1"/>
<path d="M48.1724 0L52.5184 31.6539H56.8645V8.69215C56.8645 3.89162 52.9729 0 48.1724 0Z" fill="#D3DEE1"/>
<path d="M48.1723 0C43.3718 0 39.4801 3.89162 39.4801 8.69215H17.7498V31.6539H52.5184V8.69215C52.5184 3.89162 50.5726 0 48.1723 0Z" fill="#EFF7F9"/>
<path d="M64.1078 36H56.8644V72H61.2105C63.6108 72 65.5565 70.0542 65.5565 67.6539L64.1078 36Z" fill="#353A3D"/>
<path d="M61.2105 67.6539V63.3078L64.1079 36H10.5063L9.05762 67.6539C9.05762 70.0542 11.0034 72 13.4037 72H56.8645C59.2648 72 61.2105 70.0542 61.2105 67.6539Z" fill="#4F575B"/>
<path d="M13.4037 63.3078V18.6157C11.0034 18.6157 9.05762 20.5614 9.05762 22.9617V67.6539C11.458 67.6539 13.4037 65.7081 13.4037 63.3078Z" fill="white"/>
<path d="M61.2106 18.6157V63.3078C61.2106 65.7081 63.1563 67.6539 65.5566 67.6539V22.9617C65.5566 20.5614 63.6109 18.6157 61.2106 18.6157Z" fill="white"/>
<path d="M52.5184 63.3078C54.9187 63.3078 56.8645 61.362 56.8645 58.9617C56.8645 56.5615 54.9187 54.6157 52.5184 54.6157C50.1182 54.6157 48.1724 56.5615 48.1724 58.9617C48.1724 61.362 50.1182 63.3078 52.5184 63.3078Z" fill="#9DA9AD"/>
<path d="M41.6531 61.1348C42.8533 61.1348 43.8262 60.1619 43.8262 58.9618C43.8262 57.7617 42.8533 56.7888 41.6531 56.7888C40.453 56.7888 39.4801 57.7617 39.4801 58.9618C39.4801 60.1619 40.453 61.1348 41.6531 61.1348Z" fill="#D3DEE1"/>
<path d="M32.9611 61.1348C34.1613 61.1348 35.1342 60.1619 35.1342 58.9618C35.1342 57.7617 34.1613 56.7888 32.9611 56.7888C31.761 56.7888 30.7881 57.7617 30.7881 58.9618C30.7881 60.1619 31.761 61.1348 32.9611 61.1348Z" fill="#D3DEE1"/>
<path d="M52.5184 60.0483C53.1185 60.0483 53.6049 59.5618 53.6049 58.9618C53.6049 58.3617 53.1185 57.8752 52.5184 57.8752C51.9183 57.8752 51.4319 58.3617 51.4319 58.9618C51.4319 59.5618 51.9183 60.0483 52.5184 60.0483Z" fill="#838E92"/>
</svg>
