<?xml version="1.0"?>
<svg xmlns="http://www.w3.org/2000/svg" xmlns:xlink="http://www.w3.org/1999/xlink" version="1.1" id="Layer_1" x="0px" y="0px" viewBox="0 0 512 512" style="enable-background:new 0 0 512 512;" xml:space="preserve" width="512px" height="512px" class=""><g><g>
	<g>
		<path d="M106.39,41.559v196.156h297.558V41.559H106.39z M347.429,184.52H164.571c-6.887,0-12.468-5.582-12.468-12.468    c0-6.885,5.581-12.468,12.468-12.468h182.857c6.887,0,12.468,5.582,12.468,12.468C359.896,178.937,354.316,184.52,347.429,184.52z     M347.429,121.351H164.571c-6.887,0-12.468-5.582-12.468-12.468s5.581-12.468,12.468-12.468h182.857    c6.887,0,12.468,5.582,12.468,12.468S354.316,121.351,347.429,121.351z" data-original="#000000" class="active-path" data-old_color="#000000" fill="#999999"/>
	</g>
</g><g>
	<g>
		<path d="M466.914,262.649h-421.2C20.467,262.649,0,283.116,0,308.364v148.779c0,7.344,5.954,13.299,13.299,13.299h485.403    c7.344,0,13.299-5.954,13.299-13.299V307.735C512,282.835,491.814,262.649,466.914,262.649z M64.831,335.792H49.87    c-6.887,0-12.468-5.581-12.468-12.468c0-6.887,5.581-12.468,12.468-12.468h14.961c6.887,0,12.468,5.581,12.468,12.468    C77.299,330.212,71.718,335.792,64.831,335.792z M417.247,405.61H94.753c-6.887,0-12.468-5.581-12.468-12.468    c0-6.887,5.58-12.468,12.468-12.468h322.494c6.887,0,12.468,5.58,12.468,12.468C429.714,400.03,424.134,405.61,417.247,405.61z" data-original="#000000" class="active-path" data-old_color="#000000" fill="#999999"/>
	</g>
</g></g> </svg>
