<svg width="512" height="512" viewBox="0 0 512 512" fill="none" xmlns="http://www.w3.org/2000/svg">
<path d="M116.364 128C122.79 128 128 122.79 128 116.364C128 109.938 122.79 104.728 116.364 104.728C109.938 104.728 104.728 109.938 104.728 116.364C104.728 122.79 109.938 128 116.364 128Z" fill="#405287"/>
<path d="M69.8181 128C76.2445 128 81.4541 122.79 81.4541 116.364C81.4541 109.938 76.2445 104.728 69.8181 104.728C63.3917 104.728 58.1821 109.938 58.1821 116.364C58.1821 122.79 63.3917 128 69.8181 128Z" fill="#405287"/>
<path d="M477.091 58.182H34.909C15.127 58.182 0 73.309 0 93.091V209.455C0 229.237 15.127 244.364 34.909 244.364H69.818C76.8 244.364 81.454 239.709 81.454 232.728C81.454 225.747 76.799 221.092 69.818 221.092H34.909C27.927 221.092 23.273 216.437 23.273 209.456V93.091C23.273 86.109 27.928 81.455 34.909 81.455H477.091C484.073 81.455 488.727 86.11 488.727 93.091V209.455C488.727 216.437 484.072 221.091 477.091 221.091H442.182C435.2 221.091 430.546 225.746 430.546 232.727C430.546 239.708 435.201 244.363 442.182 244.363H477.091C496.873 244.363 512 229.236 512 209.454V93.091C512 73.309 496.873 58.182 477.091 58.182Z" fill="#405287"/>
<path d="M442.182 151.273H69.8181C62.8361 151.273 58.1821 155.928 58.1821 162.909V186.182C58.1821 193.164 62.8371 197.818 69.8181 197.818C76.7991 197.818 81.4541 193.163 81.4541 186.182V174.546H430.545V186.182C430.545 193.164 435.2 197.818 442.181 197.818C449.162 197.818 453.817 193.163 453.817 186.182V162.909C453.818 155.927 449.164 151.273 442.182 151.273Z" fill="#405287"/>
<path d="M365.335 198C357.134 198 351.668 203.467 351.668 211.666V364.735C340.734 368.835 331.168 378.402 327.067 389.336H184.933C180.832 378.402 171.266 368.835 160.333 364.736V211.666C160.333 203.466 154.866 198 146.666 198C138.466 198 133 203.467 133 211.666V375.668C133 383.868 138.467 389.334 146.666 389.334C154.867 389.334 160.333 394.802 160.333 403.001C160.333 411.201 165.8 416.667 173.999 416.667H338.001C346.201 416.667 351.667 411.2 351.667 403.001C351.667 394.8 357.134 389.334 365.334 389.334C373.534 389.334 379 383.867 379 375.668V211.666C379.001 203.466 373.535 198 365.335 198Z" fill="#405287"/>
<g clip-path="url(#clip0)">
<path fill-rule="evenodd" clip-rule="evenodd" d="M314.209 248.707C307.928 242.313 297.75 242.313 291.469 248.707L234.616 306.455L220.405 292.018C214.125 285.663 203.943 285.663 197.666 292.018C191.386 298.413 191.386 308.77 197.666 315.125L223.248 341.135C229.529 347.53 239.707 347.53 245.987 341.135L314.209 271.814C320.489 265.42 320.489 255.063 314.209 248.707Z" fill="#405287"/>
</g>
<defs>
<clipPath id="clip0">
<rect width="126" height="102" fill="white" transform="translate(193 244)"/>
</clipPath>
</defs>
</svg>
