<svg width="30" height="30" viewBox="0 0 30 30" fill="none" xmlns="http://www.w3.org/2000/svg">
<path d="M24.5031 15.7933C23.8049 15.687 23.1847 16.1656 23.0846 16.848C22.8331 18.5619 22.0421 20.1256 20.797 21.3708C17.628 24.5398 12.4755 24.5373 9.30775 21.3708C6.14062 18.203 6.14062 13.0486 9.30775 9.88152C10.4991 8.69077 12.0031 7.91439 13.6864 7.63177C14.4102 7.49439 15.1885 7.47064 15.996 7.56214C17.1047 7.68977 18.1367 8.05764 19.0785 8.59777L17.4511 8.87564C16.7712 8.99227 16.3134 9.63802 16.4306 10.3185C16.5344 10.9276 17.063 11.3579 17.6611 11.3579C17.7307 11.3579 17.8015 11.3524 17.8735 11.3401L22.2362 10.5943C22.5621 10.5381 22.8539 10.355 23.0456 10.084C23.2372 9.81364 23.313 9.47789 23.2567 9.15077L22.5096 4.78864C22.3949 4.10877 21.7576 3.65339 21.0667 3.76752C20.3869 3.88414 19.929 4.53052 20.0462 5.21102L20.2429 6.35914C19.033 5.68039 17.6984 5.24127 16.2804 5.07802C15.2184 4.95714 14.1881 4.99077 13.2451 5.17139C11.0741 5.53514 9.1015 6.55264 7.54012 8.11389C3.39825 12.2558 3.39825 18.9953 7.54012 23.1383C9.611 25.2098 12.332 26.245 15.0524 26.245C17.7734 26.245 20.493 25.2099 22.5646 23.1383C24.1919 21.511 25.227 19.4615 25.5577 17.2118C25.658 16.5281 25.1855 15.8933 24.5031 15.7933Z" fill="#475B96"/>
</svg>
