<svg width="27" height="27" viewBox="0 0 27 27" fill="none" xmlns="http://www.w3.org/2000/svg">
<path d="M1.49682 12.2672L5.57617 16.3759C5.81096 16.6107 6.10443 16.7281 6.42726 16.7281C6.75009 16.7281 7.04356 16.6107 7.27835 16.3759L11.3283 12.2672C11.7686 11.7976 11.7686 11.0639 11.3283 10.5944C10.8588 10.1541 10.1251 10.1541 9.65552 10.5944L7.39574 12.8835C7.68921 8.62805 11.1816 5.25305 15.437 5.25305C19.8686 5.2824 23.4783 8.98022 23.4783 13.4998C23.4783 18.0194 19.8686 21.7172 15.4077 21.7172C13.7642 21.7172 12.1794 21.2183 10.8588 20.2791C10.3305 19.8976 9.59682 20.0444 9.2153 20.5726C8.83378 21.1009 8.98052 21.8346 9.50878 22.2161C11.2403 23.4194 13.2947 24.065 15.4077 24.065C21.1599 24.065 25.8262 19.34 25.8262 13.4998C25.8262 7.65957 21.1599 2.93457 15.4077 2.93457C10.0077 2.93457 5.54682 7.13131 5.04791 12.502L3.199 10.6237C2.72943 10.1541 1.99574 10.1541 1.52617 10.6237C1.05661 11.0639 1.05661 11.7976 1.49682 12.2672Z" fill="#444547"/>
</svg>
