<svg width="27" height="27" viewBox="0 0 27 27" fill="none" xmlns="http://www.w3.org/2000/svg">
<path d="M1.49674 12.2672L5.57609 16.3759C5.81088 16.6107 6.10435 16.7281 6.42718 16.7281C6.75001 16.7281 7.04348 16.6107 7.27827 16.3759L11.3282 12.2672C11.7685 11.7976 11.7685 11.0639 11.3282 10.5944C10.8587 10.1541 10.125 10.1541 9.65544 10.5944L7.39566 12.8835C7.68913 8.62805 11.1815 5.25305 15.4369 5.25305C19.8685 5.2824 23.4782 8.98022 23.4782 13.4998C23.4782 18.0194 19.8685 21.7172 15.4076 21.7172C13.7641 21.7172 12.1793 21.2183 10.8587 20.2791C10.3304 19.8976 9.59674 20.0444 9.21522 20.5726C8.8337 21.1009 8.98044 21.8346 9.5087 22.2161C11.2402 23.4194 13.2946 24.065 15.4076 24.065C21.1598 24.065 25.8261 19.34 25.8261 13.4998C25.8261 7.65957 21.1598 2.93457 15.4076 2.93457C10.0076 2.93457 5.54674 7.13131 5.04783 12.502L3.19892 10.6237C2.72935 10.1541 1.99566 10.1541 1.52609 10.6237C1.05653 11.0639 1.05653 11.7976 1.49674 12.2672Z" fill="#324069"/>
</svg>
