<svg width="18" height="18" viewBox="0 0 18 18" fill="none" xmlns="http://www.w3.org/2000/svg">
<path d="M13.1718 16.1696C13.0503 16.1696 12.9305 16.14 12.8228 16.0836L8.99997 14.0738L5.17709 16.0836C5.05321 16.1487 4.91359 16.1778 4.774 16.1677C4.63441 16.1576 4.50043 16.1087 4.38721 16.0264C4.27398 15.9442 4.18602 15.8319 4.13327 15.7023C4.08052 15.5726 4.06509 15.4308 4.08872 15.2929L4.81894 11.0361L1.72629 8.02182C1.6261 7.92411 1.55525 7.80032 1.52172 7.66445C1.4882 7.52857 1.49335 7.38603 1.53658 7.25293C1.57982 7.11983 1.65943 7.00148 1.7664 6.91124C1.87338 6.82101 2.00346 6.7625 2.14194 6.74232L6.41599 6.12122L8.32722 2.24848C8.3963 2.13152 8.49468 2.03459 8.61265 1.96725C8.73062 1.89992 8.86411 1.8645 8.99995 1.8645C9.13579 1.8645 9.26928 1.89992 9.38725 1.96725C9.50522 2.03459 9.6036 2.13152 9.67268 2.24848L11.5839 6.12116L15.858 6.74225C15.9965 6.76243 16.1265 6.82095 16.2335 6.91118C16.3405 7.00141 16.4201 7.11976 16.4633 7.25286C16.5066 7.38596 16.5117 7.52851 16.4782 7.66438C16.4447 7.80025 16.3738 7.92404 16.2736 8.02175L13.181 11.036L13.9112 15.2928C13.9297 15.4005 13.9244 15.5109 13.8957 15.6163C13.8671 15.7217 13.8157 15.8196 13.7453 15.9031C13.6749 15.9866 13.5871 16.0537 13.488 16.0997C13.389 16.1458 13.281 16.1696 13.1718 16.1696L13.1718 16.1696Z" fill="white"/>
</svg>
