<svg width="16" height="16" viewBox="0 0 16 16" fill="none" xmlns="http://www.w3.org/2000/svg">
<path d="M11.7081 14.3729C11.6001 14.3729 11.4936 14.3466 11.3979 14.2964L7.99979 12.5099L4.60167 14.2964C4.49156 14.3543 4.36745 14.3802 4.24337 14.3712C4.11929 14.3622 4.0002 14.3187 3.89956 14.2456C3.79891 14.1725 3.72072 14.0727 3.67383 13.9575C3.62694 13.8422 3.61323 13.7162 3.63423 13.5936L4.28332 9.80976L1.5343 7.1304C1.44524 7.04355 1.38226 6.93351 1.35246 6.81274C1.32266 6.69196 1.32724 6.56525 1.36566 6.44694C1.4041 6.32863 1.47486 6.22343 1.56995 6.14322C1.66504 6.06301 1.78067 6.011 1.90376 5.99307L5.70292 5.44098L7.40179 1.99854C7.46319 1.89458 7.55064 1.80842 7.6555 1.74856C7.76037 1.68871 7.87902 1.65723 7.99977 1.65723C8.12052 1.65723 8.23918 1.68871 8.34404 1.74856C8.4489 1.80842 8.53635 1.89458 8.59775 1.99854L10.2966 5.44092L14.0958 5.993C14.2189 6.01094 14.3345 6.06296 14.4296 6.14316C14.5247 6.22337 14.5955 6.32857 14.6339 6.44688C14.6723 6.56519 14.6769 6.6919 14.6471 6.81267C14.6173 6.93345 14.5543 7.04348 14.4652 7.13034L11.7163 9.80967L12.3653 13.5935C12.3818 13.6892 12.3771 13.7874 12.3515 13.881C12.3261 13.9747 12.2804 14.0618 12.2179 14.136C12.1553 14.2102 12.0772 14.2698 11.9891 14.3107C11.9011 14.3517 11.8051 14.3729 11.7081 14.3729Z" fill="#B9822A"/>
</svg>
