<svg width="25" height="25" viewBox="0 0 25 25" fill="none" xmlns="http://www.w3.org/2000/svg">
<path fill-rule="evenodd" clip-rule="evenodd" d="M12.8662 13.1163L12.3372 12.8561C12.3391 12.8574 12.2904 12.8339 12.2559 12.8128C12.2559 12.8443 12.2633 12.9019 12.2908 12.9175L12.8087 13.1658C12.8544 13.1888 12.8742 13.1888 12.9238 13.1658L13.4417 12.9175C13.4672 12.9048 13.4766 12.845 13.4766 12.8128C13.4433 12.8306 13.3961 12.8559 13.3952 12.8561L12.8662 13.1163ZM12.2908 12.3972L12.8087 12.6456C12.8544 12.6686 12.8742 12.6686 12.9238 12.6456L13.4417 12.3972C13.4798 12.3782 13.4811 12.2976 13.4417 12.2746L12.9238 11.9829C12.8831 11.9572 12.8544 11.9585 12.8087 11.9829L12.2908 12.2746C12.2514 12.3017 12.2501 12.3742 12.2908 12.3972ZM12.2908 12.6574L12.8087 12.9057C12.8544 12.9287 12.8742 12.9287 12.9238 12.9057L13.4417 12.6574C13.4672 12.6446 13.4766 12.5849 13.4766 12.5527C13.4433 12.5705 13.3961 12.5958 13.3952 12.5961L12.8662 12.8561L12.3372 12.5961C12.3391 12.5972 12.2904 12.5738 12.2559 12.5527C12.2559 12.5842 12.2633 12.6418 12.2908 12.6574Z" fill="#B6B9BE"/>
<path d="M16.8945 0H8.10547C7.70092 0 7.37305 0.327873 7.37305 0.732422V6.10352C7.37305 6.50806 7.70092 6.83594 8.10547 6.83594H16.8945C17.2991 6.83594 17.627 6.50806 17.627 6.10352V0.732422C17.627 0.327873 17.2991 0 16.8945 0Z" fill="#B6B9BE"/>
<path d="M16.8945 9.08203H8.10547C7.70092 9.08203 7.37305 9.4099 7.37305 9.81445V15.1855C7.37305 15.5901 7.70092 15.918 8.10547 15.918H16.8945C17.2991 15.918 17.627 15.5901 17.627 15.1855V9.81445C17.627 9.4099 17.2991 9.08203 16.8945 9.08203Z" fill="#B6B9BE"/>
<path d="M16.8945 18.1641H8.10547C7.70092 18.1641 7.37305 18.4919 7.37305 18.8965V24.2676C7.37305 24.6721 7.70092 25 8.10547 25H16.8945C17.2991 25 17.627 24.6721 17.627 24.2676V18.8965C17.627 18.4919 17.2991 18.1641 16.8945 18.1641Z" fill="#B6B9BE"/>
<path d="M22.3145 3.80859H19.3848C18.9802 3.80859 18.6523 4.13647 18.6523 4.54102C18.6523 4.94556 18.9802 5.27344 19.3848 5.27344H22.3145C22.9876 5.27344 23.5352 5.82104 23.5352 6.49414V9.42383C23.5352 10.0969 22.9876 10.6445 22.3145 10.6445H21.1531L21.8557 9.94167C22.1418 9.65576 22.1418 9.19189 21.8557 8.90598C21.5698 8.61988 21.106 8.61988 20.82 8.90598L18.8669 10.8591C18.5808 11.145 18.5808 11.6087 18.8669 11.8948L20.82 13.8479C20.9629 13.991 21.1504 14.0625 21.3379 14.0625C21.5254 14.0625 21.7129 13.991 21.8557 13.8479C22.1418 13.562 22.1418 13.0981 21.8557 12.8122L21.1531 12.1094H22.3145C23.7953 12.1094 25 10.9047 25 9.42383V6.49414C25 5.01328 23.7953 3.80859 22.3145 3.80859Z" fill="#B6B9BE"/>
<path d="M4.17995 17.988C3.89404 17.7019 3.43018 17.7019 3.14426 17.988C2.85816 18.2739 2.85816 18.7378 3.14426 19.0237L3.84693 19.7266H2.68555C2.01244 19.7266 1.46484 19.179 1.46484 18.5059V15.5762C1.46484 14.9031 2.01244 14.3555 2.68555 14.3555H5.61523C6.01978 14.3555 6.34766 14.0276 6.34766 13.623C6.34766 13.2185 6.01978 12.8906 5.61523 12.8906H2.68555C1.20468 12.8906 0 14.0953 0 15.5762V18.5059C0 19.9867 1.20468 21.1914 2.68555 21.1914H3.84693L3.14426 21.8943C2.85816 22.1802 2.85816 22.644 3.14426 22.93C3.28712 23.073 3.47462 23.1445 3.66211 23.1445C3.8496 23.1445 4.03709 23.073 4.17995 22.93L6.13308 20.9768C6.41918 20.6909 6.41918 20.2271 6.13308 19.9411L4.17995 17.988Z" fill="#B6B9BE"/>
</svg>
