<?xml version="1.0"?>
<svg xmlns="http://www.w3.org/2000/svg" xmlns:xlink="http://www.w3.org/1999/xlink" xmlns:svgjs="http://svgjs.com/svgjs" version="1.1" width="512" height="512" x="0" y="0" viewBox="0 0 496 496" style="enable-background:new 0 0 512 512" xml:space="preserve" class=""><g><path xmlns="http://www.w3.org/2000/svg" d="m309.79 370.71c-6.25-6.25-16.38-6.25-22.63 0-21.59 21.6-56.73 21.6-78.32 0-6.25-6.25-16.38-6.25-22.63 0s-6.25 16.38 0 22.63c34.055 34.055 89.499 34.081 123.58 0 6.25-6.25 6.25-16.38 0-22.63zm143.21-178.95v-28.76c0-85.74-69.76-155.5-155.5-155.5h-99.5c-85.74 0-155.5 69.76-155.5 155.5v28.82c-23.89 2.74-42.5 23.07-42.5 47.68v106c0 26.47 21.53 48 48 48h53c35.29 0 64-28.71 64-64v-74c0-35.29-28.71-64-64-64h-26.5v-28.5c0-68.1 55.4-123.5 123.5-123.5h99.5c68.1 0 123.5 55.4 123.5 123.5v28.5h-26c-35.29 0-64 28.71-64 64v74c0 35.29 28.71 64 64 64h24.37c-7.42 35.92-39.29 63-77.37 63h-54c-8.84 0-16 7.16-16 16s7.16 16 16 16h54c55.83 0 102.16-41.44 109.87-95.17 24.66-1.98 44.13-22.67 44.13-47.83v-106c0-24.78-18.87-45.23-43-47.74zm-371 72.74c0-8.84 7.16-16 16-16s16 7.16 16 16v56c0 8.84-7.16 16-16 16s-16-7.16-16-16zm332 56c0 8.84-7.16 16-16 16s-16-7.16-16-16v-56c0-8.84 7.16-16 16-16s16 7.16 16 16z" fill="#ffffff" data-original="#000000" style="" class=""/></g></svg>
