<svg width="12" height="12" viewBox="0 0 12 12" fill="none" xmlns="http://www.w3.org/2000/svg">
<path d="M5.81997 0C2.61083 0 0 2.56503 0 5.71786C0 8.8707 2.61083 11.4357 5.81997 11.4357C9.02917 11.4357 11.64 8.8707 11.64 5.71786C11.64 2.56503 9.02917 0 5.81997 0Z" fill="#31A8F7"/>
<path d="M9.01313 3.12641V3.89003C8.95826 3.79493 8.89919 3.70203 8.83569 3.61171C8.61348 3.29559 8.34429 3.01737 8.03559 2.78475C7.7232 2.54936 7.37774 2.36631 7.00883 2.2407C6.62728 2.11079 6.22776 2.04492 5.82139 2.04492C5.39705 2.04492 4.98084 2.11661 4.58437 2.258C4.20121 2.39463 3.8451 2.59307 3.52592 2.8478C3.20991 3.10002 2.93902 3.40022 2.72082 3.74007C2.49853 4.08629 2.33714 4.46412 2.24114 4.86308C2.17946 5.11943 2.33726 5.37725 2.59362 5.43894C2.63116 5.44797 2.66873 5.45229 2.7057 5.45229C2.92127 5.45229 3.11683 5.30528 3.16949 5.08646C3.31017 4.50181 3.64828 3.97181 4.12155 3.5941C4.35799 3.40539 4.6216 3.25846 4.90506 3.15738C5.19833 3.0528 5.50662 2.99977 5.82139 2.99977C6.4186 2.99977 6.98556 3.18912 7.46097 3.54735C7.78266 3.78975 8.04789 4.10353 8.2352 4.45758H7.70626C7.44259 4.45758 7.22883 4.67133 7.22883 4.93501C7.22883 5.19868 7.44259 5.41243 7.70626 5.41243H9.49055C9.75423 5.41243 9.96797 5.19868 9.96797 4.93501V3.12641C9.96797 2.86273 9.75423 2.64898 9.49055 2.64898C9.22688 2.64898 9.01313 2.86273 9.01313 3.12641Z" fill="white"/>
<path d="M2.14991 8.80526C2.41358 8.80526 2.62733 8.59152 2.62733 8.32783V7.56099C2.91174 8.05604 3.30773 8.47905 3.78818 8.79769C4.39061 9.19723 5.09238 9.40866 5.81787 9.40928C5.81827 9.40928 5.81866 9.40932 5.81905 9.40932C5.81937 9.40932 5.8197 9.4093 5.82002 9.4093C5.82039 9.4093 5.82077 9.40932 5.82114 9.40932C5.82165 9.40932 5.82214 9.40928 5.82265 9.40928C6.24573 9.40887 6.66071 9.33722 7.05607 9.19623C7.43923 9.0596 7.79534 8.86116 8.11452 8.60644C8.43054 8.35423 8.70142 8.05401 8.91963 7.71417C9.14191 7.36795 9.30331 6.99012 9.39931 6.59116C9.46099 6.33482 9.30319 6.07699 9.04682 6.01531C8.79044 5.95363 8.53265 6.11143 8.47096 6.36779C8.33027 6.95245 7.99216 7.48244 7.51889 7.86015C7.28246 8.04885 7.01885 8.1958 6.73538 8.29686C6.4424 8.40133 6.13444 8.45435 5.82003 8.45446C5.28209 8.45425 4.762 8.29778 4.31594 8.00193C3.93127 7.74682 3.6197 7.40169 3.4065 6.99666H3.93419C4.19787 6.99666 4.41161 6.78291 4.41161 6.51924C4.41161 6.25556 4.19787 6.04182 3.93419 6.04182H2.14991C1.88623 6.04182 1.67249 6.25556 1.67249 6.51924V8.32783C1.67249 8.59152 1.88623 8.80526 2.14991 8.80526Z" fill="white"/>
</svg>
