<svg width="50" height="50" xmlns="http://www.w3.org/2000/svg" fill="none">

 <g>
  <title>Layer 1</title>
  <path stroke="null" id="svg_1" fill="#CCCCCC" d="m36.00983,23.5122c3.2534,0 6.1648,1.4657 8.0863,3.7602c0.1511,-0.575 0.2286,-1.1714 0.2241,-1.7769c-0.0285,-3.7692 -3.2067,-6.8358 -7.0848,-6.8358l-0.2874,0c-0.5018,-2.7123 -2.838,-4.8043 -5.6955,-4.9854c-0.2392,-1.6874 -1.0346,-3.2524 -2.2989,-4.48979c-1.5294,-1.49684 -3.547,-2.32123 -5.681,-2.32123c-4.3986,0 -7.992,3.45192 -8.1213,7.74312c-4.859,0.1641 -8.7604,4.0987 -8.7604,8.9118c0,4.917 4.0716,8.9171 9.0763,8.9171l10.1661,0c0.6802,-5.0298 5.0741,-8.9231 10.3765,-8.9231z"/>
  <path id="svg_2" fill="#31A8F7" d="m36.40878,26.24883c-4.5878,0 -8.3202,3.6669 -8.3202,8.1742c0,4.5073 3.7324,8.1742 8.3202,8.1742c4.5878,0 8.3202,-3.6669 8.3202,-8.1742c0,-4.5073 -3.7324,-8.1742 -8.3202,-8.1742z"/>
  <path id="svg_3" fill="white" d="m40.97308,30.70503l0,1.0916c-0.0785,-0.1359 -0.1629,-0.2687 -0.2537,-0.3978c-0.3177,-0.4519 -0.7025,-0.8497 -1.1438,-1.1822c-0.4466,-0.3365 -0.9404,-0.5982 -1.4678,-0.7778c-0.5454,-0.1857 -1.1166,-0.2798 -1.6975,-0.2798c-0.6066,0 -1.2016,0.1024 -1.7684,0.3046c-0.5477,0.1953 -1.0568,0.479 -1.5131,0.8431c-0.4517,0.3606 -0.839,0.7897 -1.1509,1.2756c-0.3178,0.4949 -0.5485,1.035 -0.6857,1.6054c-0.0882,0.3664 0.1374,0.735 0.5038,0.8232c0.0537,0.0129 0.1074,0.0191 0.1603,0.0191c0.3081,0 0.5877,-0.2102 0.663,-0.523c0.2011,-0.8358 0.6844,-1.5934 1.361,-2.1334c0.338,-0.2698 0.7148,-0.4798 1.1201,-0.6243c0.4192,-0.1495 0.8599,-0.2253 1.3099,-0.2253c0.8538,0 1.6643,0.2707 2.3439,0.7828c0.4599,0.3465 0.839,0.7951 1.1068,1.3012l-0.7562,0c-0.3769,0 -0.6825,0.3056 -0.6825,0.6825c0,0.3769 0.3056,0.6825 0.6825,0.6825l2.5508,0c0.3769,0 0.6825,-0.3056 0.6825,-0.6825l0,-2.5855c0,-0.3769 -0.3056,-0.6825 -0.6825,-0.6825c-0.377,0 -0.6825,0.3056 -0.6825,0.6825z"/>
  <path id="svg_4" fill="white" d="m31.16198,38.82273c0.3769,0 0.6825,-0.3056 0.6825,-0.6825l0,-1.0963c0.4066,0.7077 0.9727,1.3125 1.6595,1.768c0.8612,0.5711 1.8644,0.8734 2.9015,0.8743c0.0006,0 0.0012,0 0.0017,0c0.0005,0 0.0009,0 0.0014,0c0.0005,0 0.0011,0 0.0016,0c0.0007,0 0.0014,0 0.0022,0c0.6048,-0.0006 1.198,-0.103 1.7632,-0.3046c0.5478,-0.1953 1.0568,-0.479 1.5131,-0.8431c0.4518,-0.3606 0.839,-0.7898 1.151,-1.2756c0.3177,-0.4949 0.5484,-1.0351 0.6857,-1.6054c0.0882,-0.3664 -0.1374,-0.735 -0.5039,-0.8232c-0.3665,-0.0882 -0.7351,0.1374 -0.8232,0.5039c-0.2012,0.8358 -0.6845,1.5935 -1.3611,2.1334c-0.338,0.2698 -0.7148,0.4798 -1.12,0.6243c-0.4189,0.1493 -0.8591,0.2251 -1.3086,0.2253c-0.769,-0.0003 -1.5125,-0.224 -2.1502,-0.6469c-0.5499,-0.3647 -0.9953,-0.8581 -1.3001,-1.4371l0.7544,0c0.377,0 0.6825,-0.3056 0.6825,-0.6825c0,-0.3769 -0.3056,-0.6825 -0.6825,-0.6825l-2.5507,0c-0.377,0 -0.6825,0.3056 -0.6825,0.6825l0,2.5855c0,0.3769 0.3055,0.6825 0.6825,0.6825z"/>
 </g>
</svg>