<?xml version="1.0" encoding="iso-8859-1"?>
<!-- Generator: Adobe Illustrator 19.0.0, SVG Export Plug-In . SVG Version: 6.00 Build 0)  -->
<svg version="1.1" id="Capa_1" xmlns="http://www.w3.org/2000/svg" xmlns:xlink="http://www.w3.org/1999/xlink" x="0px" y="0px"
	 viewBox="0 0 458.017 458.017" style="enable-background:new 0 0 458.017 458.017;" xml:space="preserve">
<g>
	<g>
		<path d="M322.92,183.252l-0.507-0.124c0.474-1.278,0.679-2.64,0.6-4v-54.191c0.109-5.368-4.154-9.809-9.522-9.918
			c-0.077-0.002-0.154-0.002-0.231-0.002h0H144.11c-5.526-0.044-10.045,4.394-10.1,9.92v54.18c-0.067,2.288,0.668,4.527,2.077,6.33
			l33.923,72.405v166.324c0,18.669,15.657,33.841,34.327,33.841h49.346c18.67,0,34.327-15.172,34.327-33.841v-73.159h12.452
			c5.523,0,9.548-4.608,9.548-10.131v-38.1c0.188-5.205-3.879-9.576-9.084-9.764c-0.155-0.006-0.309-0.007-0.464-0.005H288.01
			v-35.165L322.92,183.252z M154.01,135.017h149v34h-149V135.017z M268.01,424.176c0,7.641-6.686,13.841-14.327,13.841h-49.346
			c-7.641,0-14.327-6.2-14.327-13.841v-14.159h78V424.176z M290.01,313.017v18h-2v-18H290.01z M268.729,251.301
			c-0.554,1.368-0.799,2.842-0.719,4.316v134.4h-78v-134.4c0.08-1.473-0.165-2.946-0.719-4.314l-29.081-62.286h137.6
			L268.729,251.301z"/>
	</g>
</g>
<g>
	<g>
		<path d="M229.01,0c-5.523,0-10,4.477-10,10v65.76c0,5.523,4.477,10,10,10c5.523,0,10-4.477,10-10V10
			C239.01,4.477,234.533,0,229.01,0z"/>
	</g>
</g>
<g>
	<g>
		<path d="M318.51,9.139c-5.373-1.279-10.765,2.039-12.044,7.412l-13.616,57.21c-1.279,5.373,2.04,10.765,7.413,12.044
			c5.373,1.279,10.765-2.04,12.044-7.413l13.616-57.21C327.201,15.809,323.883,10.418,318.51,9.139z"/>
	</g>
</g>
<g>
	<g>
		<path d="M165.167,73.761l-13.616-57.21c-1.279-5.373-6.671-8.692-12.044-7.413s-8.692,6.671-7.413,12.044l13.616,57.21
			c1.073,4.502,5.092,7.681,9.72,7.687c5.53-0.004,10.01-4.49,10.006-10.02C165.435,75.285,165.345,74.514,165.167,73.761z"/>
	</g>
</g>
<g>
</g>
<g>
</g>
<g>
</g>
<g>
</g>
<g>
</g>
<g>
</g>
<g>
</g>
<g>
</g>
<g>
</g>
<g>
</g>
<g>
</g>
<g>
</g>
<g>
</g>
<g>
</g>
<g>
</g>
</svg>
