<?xml version="1.0" encoding="utf-8"?>
<svg width="16px" height="16px" viewBox="0 0 16 16" version="1.1" xmlns:xlink="http://www.w3.org/1999/xlink" xmlns="http://www.w3.org/2000/svg">
  <g id="arrow-down" transform="matrix(1 0 0 -1 0 16)">
    <path d="M0 0L15.644 0L15.644 16L0 16L0 0Z" id="Background" fill="none" stroke="none" />
    <path d="M7.6355 3.52667C7.51311 3.40046 7.3465 3.32947 7.1727 3.32947C6.99889 3.32947 6.83228 3.40046 6.70989 3.52667L4.56535 5.72667L4.56535 0.666667C4.56535 0.298477 4.27352 0 3.91352 0C3.55352 0 3.26168 0.298477 3.26168 0.666667L3.26168 5.72667L1.11715 3.52667C0.861523 3.26541 0.447238 3.26548 0.191701 3.52683C-0.0638367 3.78818 -0.0639094 4.21189 0.191538 4.47333L3.45071 7.80666C3.51271 7.86736 3.58581 7.91493 3.66582 7.94666C3.82359 8.01798 4.00344 8.01798 4.16121 7.94666C4.24123 7.91493 4.31433 7.86736 4.37632 7.80666L7.63549 4.47333C7.7589 4.34815 7.82831 4.17776 7.82831 4C7.82831 3.82224 7.7589 3.65184 7.6355 3.52667L7.6355 3.52667Z" transform="translate(3.90918 4)" id="Shape" fill="#444547" stroke="none" />
  </g>
</svg>
