<svg width="17" height="18" viewBox="0 0 17 18" fill="none" xmlns="http://www.w3.org/2000/svg">
<path d="M5.5625 8.79375C6.28125 9.31875 7.16875 9.625 8.125 9.625C10.4637 9.625 12.5 7.60063 12.5 5.25C12.5 2.8375 10.5375 0.875 8.125 0.875C5.7125 0.875 3.75 2.8375 3.75 5.25C3.75 6.70625 4.4625 8 5.5625 8.79375Z" fill="#444547"/>
<path d="M11.975 9.34375C10.9688 10.2937 9.6125 10.875 8.125 10.875C6.6375 10.875 5.28125 10.2937 4.275 9.34375C1.73125 10.7187 0 13.4125 0 16.5C0 16.8438 0.28125 17.125 0.625 17.125H15.625C15.9688 17.125 16.25 16.8438 16.25 16.5C16.25 13.4125 14.5188 10.7187 11.975 9.34375Z" fill="#444547"/>
</svg>
